<svg id="Layer_1" data-name="Layer 1" xmlns="http://www.w3.org/2000/svg" viewBox="0 0 650 175"><defs><style>.cls-1{font-size:17.59px;font-family:FilsonSoftBlack, Filson Soft;}.cls-1,.cls-2{fill:#623b2a;}.cls-3{fill:#5e3c2e;}</style></defs><text class="cls-1" transform="translate(617.2 91.58)">®</text><path class="cls-2" d="M26,84.76q0-14,0-28.07c0-3.68,1-4.88,4.59-5.34a21.83,21.83,0,0,1,7.12.18c2.38.49,3.54,1.84,3.51,4.3,0,3.57,0,7.14,0,10.71,0,4.5,3,7.56,7.41,7,10-1.34,20-.3,29.95.24,6.45.35,10.3-3.38,10.3-9.87,0-3.57,0-7.14,0-10.71,0-1.33-.39-2.25-1.79-2.21s-1.75,1-1.72,2.31c.07,3.64,0,7.29,0,10.94,0,4.14-2.21,6.1-6.74,6.1-4.7,0-6.91-1.93-7-6.17,0-4.52.24-9.06,0-13.56C71,40.22,80.2,34.48,87,33.67a18.89,18.89,0,0,1,8,.55,19.59,19.59,0,0,0,12.16-.2c2.5-.78,5-1.55,7.51-2.26,1.78-.5,3,0,3.64,1.93A35.5,35.5,0,0,1,120,40.61a6.25,6.25,0,0,1-2.08,5.57c-1.3,1.15-2.75,2.14-4.13,3.2-.67.51-1.71.85-1.32,2s1.4.85,2.25.88c1.19,0,2.38,0,3.57.09,2.52.2,3.24,1.73,1.84,3.86a4.74,4.74,0,0,1-2.73,1.76c-4.37,1.43-8.72,2.89-13.1,4.28-4.79,1.51-7,4.37-7,9.46q0,20.34,0,40.68c0,4.53-1.15,6.08-5.64,7.12A29.86,29.86,0,0,1,77,119.26c-3.4-.9-4.67-2.67-4.69-6.18,0-2.14,0-4.28,0-6.43a10.68,10.68,0,1,0-21.35,0c0,2.3,0,4.6,0,6.9a5.23,5.23,0,0,1-3.84,5.39,28.12,28.12,0,0,1-17.31,0c-2.66-.84-3.83-2.7-3.84-5.62Q26,99,26,84.76ZM97.32,47.55a3.24,3.24,0,0,0,3.36-3.21,3.27,3.27,0,0,0-3.61-3.19,3.21,3.21,0,1,0,.25,6.4Z"/><path class="cls-2" d="M472.68,90.6c7.38,3.23,10.8,8.5,10,15-.86,7.15-6.59,12.63-14.87,13.69-8.78,1.14-17.64.5-26.47.45-3,0-4.15-1.44-4.16-4.44,0-15.51,0-31,0-46.53,0-2.5,1-4.25,3.65-4.3,8.71-.15,17.45-.81,26.13.64a18,18,0,0,1,5.18,1.84c5.07,2.61,8,6.76,8.17,12.47C480.49,84.74,477.66,88.32,472.68,90.6Zm-15.17,17.58c2-.14,4.07-.21,6.09-.43a5.14,5.14,0,0,0,4.89-4.6c.42-2.63-1-4.45-3.23-5.66s-4.87-1.18-7.39-1.21c-6.08-.07-6.08,0-6.08,6C451.79,108.06,451.79,108.06,457.51,108.18Zm-.82-32.49a13.73,13.73,0,0,1-2.08,0c-2.28-.37-3.06.51-2.86,2.81s0,4.85,0,7.27c0,.78-.1,1.59,1.11,1.58,3.19,0,6.44.29,9.51-.84,2.37-.87,4-2.59,3.85-5.24s-1.79-4.39-4.42-5.08A17.51,17.51,0,0,0,456.69,75.69Z"/><path class="cls-2" d="M321.68,83c.72-3.81,1.47-4.43,5.37-4.48,8.8-.11,8.83-.07,8.83,8.83V115c0,15.38-8.57,23.75-24,23.35a37.17,37.17,0,0,1-15-3.11c-3.11-1.45-3.73-2.95-2.52-5.71,1.91-4.34,3.73-5.6,6.85-4.25a23.35,23.35,0,0,0,11,2.23c6.74-.45,10.59-5.22,9.62-12.4-4.52,4.88-10,6.33-16.2,5.05-9.56-2-16.21-11.44-15.61-22,.36-6.26,2.46-11.78,7.27-16C304.61,75.91,313.58,76.28,321.68,83ZM322.23,99c-.07-5.92-4-10.41-9.14-10.38S303.88,93.3,304,99.3s3.86,10.29,9.15,10.29S322.3,105.14,322.23,99Z"/><path class="cls-2" d="M138,91.68c0-7.27,0-14.55,0-21.82,0-4,1.37-5.44,5.33-5.61,8.71-.36,9.3.2,9.3,8.82,0,4,.07,8,0,11.93,0,1.7.33,2.39,2.22,2.33,4.66-.14,9.33-.16,14,0,2.07.07,2.37-.76,2.34-2.53-.09-5-.06-10.08,0-15.13,0-3.8,1.46-5.32,5.25-5.41,8-.18,9.46,0,9.32,8.64-.21,13.58,0,27.16-.06,40.74,0,4.85-1.3,6.13-6.24,6.15q-1,0-2,0c-4.89,0-6.23-1.36-6.24-6.21,0-4.08-.08-8.15,0-12.22,0-1.81-.6-2.32-2.35-2.28-4.56.1-9.13.15-13.69,0-2.19-.08-2.56.78-2.51,2.69.12,4.27.06,8.54,0,12.8,0,3.79-1.26,5.13-5,5.23-8.8.22-9.9-.19-9.64-9.2C138.1,104.29,138,98,138,91.68Z"/><path class="cls-2" d="M518.66,115.1c-8.33,9.16-22.13,5.61-27.65-2.27-6.08-8.66-5.48-21.57,1.68-29.36,5.16-5.62,17.35-9.38,25.94-.39,1-3.9,1.81-4.49,6-4.52,8.54,0,8.63,0,8.63,8.54q0,13.55,0,27.08c0,4.35-1.17,5.53-5.49,5.62-1.16,0-2.33,0-3.49,0C520.51,119.7,519.61,119,518.66,115.1Zm.41-16c0-5.36-3-9.39-7.35-10-4.85-.73-8.46,1.52-10.06,6.27-2.42,7.19,2.08,14.43,8.83,14.2C515.61,109.3,519.09,105.08,519.07,99.05Z"/><path class="cls-2" d="M257.93,83.59c6.15-6.85,15.47-7.9,21.45-2.52,3.69,3.33,4.87,7.93,5,12.62.26,7.17.1,14.35.05,21.52,0,2.94-1.25,4.19-4.16,4.55l-.3,0c-9.93.28-10.08-.26-9.91-9.06.09-5.13.1-10.27-.08-15.41-.13-3.83-1.89-5.82-4.9-6.2s-5.57,1.39-6.73,4.81a12.85,12.85,0,0,0-.65,4.28c.05,5.53,0,11,0,16.58,0,3.63-1.18,4.89-4.85,5-10.09.32-9.42-.85-9.36-8.66.06-9.11,0-18.22,0-27.34,0-4.08,1.1-5.17,5.15-5.22,1.26,0,2.53,0,3.79,0C256.47,78.61,257.4,79.43,257.93,83.59Z"/><path class="cls-2" d="M397.4,101.76c2.54-6.64,4.84-12.69,7.15-18.73C406,79.3,407,78.59,411,78.57c1.45,0,2.91,0,4.36,0,3.92.12,5.09,1.87,3.52,5.46Q412,99.87,405,115.65c-2.58,5.84-5.3,11.62-7.7,17.54-1.29,3.19-3.34,4.56-6.69,4.28-1.35-.11-2.72,0-4.08-.05-3-.22-4.14-2-3-4.79,1.93-4.75,3.94-9.47,6.07-14.13a4.7,4.7,0,0,0-.06-4.36c-4.55-9.84-9-19.71-13.48-29.59-1.94-4.27-.87-6,3.81-6,9.28,0,8.92-.87,12.12,8.39C393.62,91.72,395.44,96.41,397.4,101.76Z"/><path class="cls-2" d="M220.53,114.76c-4.07,5.47-9.54,6.65-15.64,5.4s-10.25-6.34-10.63-13.94c-.4-7.93-.17-15.89-.14-23.84,0-2.28,1.37-3.52,3.63-3.77a8.44,8.44,0,0,1,.87,0c9.42-.08,9.89-.48,9.68,9.16-.1,4.45-.05,8.91,0,13.37,0,5.34,2.08,8.22,5.77,8.25s6.63-3.26,6.75-8.3c.14-5.72,0-11.44,0-17.16,0-4.23,1.08-5.28,5.34-5.33,8.85-.09,8.85-.09,8.85,8.82q0,13.66,0,27.33c0,3.68-1.16,4.89-4.79,5.08-1.45.07-2.91.06-4.37,0C222.21,119.66,221.31,118.85,220.53,114.76Z"/><path class="cls-2" d="M358.35,85.52c2-4.44,4.81-7.34,9.58-7.73,3.36-.28,4.24.43,4.31,3.76.06,2.23.05,4.47,0,6.7s-1.11,3.36-3.31,3.07c-7.32-1-10.35,4.31-10.33,10.81,0,4.27,0,8.54,0,12.81,0,3.31-1.18,4.55-4.45,4.84l-.29,0c-10.06.27-9.6-.7-9.53-8.84.07-9,0-18,0-27.06,0-4.22,1.11-5.29,5.38-5.33h1.17C357.44,78.56,357.65,78.74,358.35,85.52Z"/><path class="cls-2" d="M555.76,85.51c2.07-4.81,5.07-7.38,9.69-7.75,3.11-.24,4.09.6,4.16,3.68,0,2.13,0,4.27,0,6.4,0,2.34-1,3.75-3.52,3.48-7.24-.77-10,3.91-10.16,10.38-.14,4.36,0,8.72,0,13.08,0,3.56-1.16,4.87-4.61,5-9.94.33-9.81-.38-9.69-8.92.12-9,0-18,0-27,0-4,1.17-5.17,5.18-5.22h2C554.56,78.57,555.17,79.12,555.76,85.51Z"/><path class="cls-3" d="M581,63h3.84a3.23,3.23,0,0,1,3.3,3.29V94.82s0,1.09,1.09,0l1.68-2.43,3.61-5.21L598,82.24a6.13,6.13,0,0,1,1.72-2.09,7.65,7.65,0,0,1,4.07-.69h6.35s4.39,0,1.09,4.38l-9.87,14.27,13.17,17.55s2.19,3.84-2.75,3.84h-7.68a7.08,7.08,0,0,1-5.48-3.29L588.71,102v14.26s0,3.29-3.84,3.29h-6.58a3.22,3.22,0,0,1-3.29-3.29V66.29A3.22,3.22,0,0,1,578.29,63Z"/></svg>