<?xml version="1.0" encoding="UTF-8" standalone="no"?>
<svg
   xmlns:dc="http://purl.org/dc/elements/1.1/"
   xmlns:cc="http://creativecommons.org/ns#"
   xmlns:rdf="http://www.w3.org/1999/02/22-rdf-syntax-ns#"
   xmlns:svg="http://www.w3.org/2000/svg"
   xmlns="http://www.w3.org/2000/svg"
   xmlns:sodipodi="http://sodipodi.sourceforge.net/DTD/sodipodi-0.dtd"
   xmlns:inkscape="http://www.inkscape.org/namespaces/inkscape"
   id="svg36"
   version="1.1"
   viewBox="0 0 80.000001 75.182"
   sodipodi:docname="HbLogo.svg"
   width="80"
   height="75.181999"
   inkscape:version="1.0.1 (c497b03c, 2020-09-10)">
  <metadata
     id="metadata30">
    <rdf:RDF>
      <cc:Work
         rdf:about="">
        <dc:format>image/svg+xml</dc:format>
        <dc:type
           rdf:resource="http://purl.org/dc/dcmitype/StillImage" />
        <dc:title></dc:title>
      </cc:Work>
    </rdf:RDF>
  </metadata>
  <sodipodi:namedview
     pagecolor="#ffffff"
     bordercolor="#666666"
     borderopacity="1"
     objecttolerance="10"
     gridtolerance="10"
     guidetolerance="10"
     inkscape:pageopacity="0"
     inkscape:pageshadow="2"
     inkscape:window-width="1509"
     inkscape:window-height="918"
     id="namedview28"
     showgrid="false"
     fit-margin-top="0"
     fit-margin-left="0"
     fit-margin-right="0"
     fit-margin-bottom="0"
     inkscape:zoom="4.6548139"
     inkscape:cx="133.69903"
     inkscape:cy="25.718738"
     inkscape:window-x="0"
     inkscape:window-y="23"
     inkscape:window-maximized="0"
     inkscape:current-layer="Layer_1-2" />
  <defs
     id="defs4">
    <style
       id="style2">.cls-1{fill:#623b2a}</style>
  </defs>
  <g
     data-name="Layer 2"
     id="Layer_2">
    <g
       data-name="Layer 1"
       id="Layer_1-2">
      <path
         id="path28"
         d="m 78.231776,17.666581 -4.23111,-0.11672 a 1.0213026,1.0213026 0 0 1 -0.598192,-1.882115 28.05664,28.05664 0 0 0 4.873073,-3.735049 C 80.274382,9.5837012 79.5157,5.6443914 77.677355,0.87344947 77.327194,-0.06031286 75.955731,-0.17703315 75.007378,0.2023078 l -7.295017,2.1885055 a 15.334129,15.334129 0 0 1 -8.987462,0 16.880672,16.880672 0 0 0 -5.033563,-0.7295019 16.04904,16.04904 0 0 0 -14.064795,8.3163208 13.131033,13.131033 0 0 0 -0.962942,4.6542218 v 13.597914 a 4.6688117,4.6688117 0 0 0 4.639631,4.654222 h 2.232276 a 4.6542217,4.6542217 0 0 0 3.414068,-1.459004 4.8584822,4.8584822 0 0 0 1.254744,-3.282758 V 17.506091 c 0,-0.583601 0.656551,-1.050483 1.459003,-1.050483 0.817042,0 1.459004,0.466882 1.459004,1.050483 v 10.636137 a 7.8056696,7.8056696 0 0 1 -2.086375,5.412903 7.5868191,7.5868191 0 0 1 -5.471264,2.319816 c 0,0 -1.969655,0 -4.668812,-0.21885 l -7.046988,-0.641962 a 48.759902,48.759902 0 0 0 -7.995341,0 l -7.061578,0.598192 A 5.4858538,5.4858538 0 0 1 12.839232,30.199423 V 20.161478 A 3.2098081,3.2098081 0 0 0 10.344336,17.03921 17.610174,17.610174 0 0 0 7.7327194,16.659869 H 6.4487963 A 18.047875,18.047875 0 0 0 2.4948963,17.09757 3.2098081,3.2098081 0 0 0 6.7792412e-8,20.219838 V 69.855143 A 4.377011,4.377011 0 0 0 1.6924443,73.312979 c 0,0 0.4960613,0.350161 0.787862,0.496061 a 19.92999,19.92999 0 0 0 7.4992788,1.371464 h 1.2401529 a 19.72573,19.72573 0 0 0 7.295018,-1.371464 c 0.291801,-0.1459 0.787862,-0.496061 0.802453,-0.496061 a 4.377011,4.377011 0 0 0 1.692444,-3.457836 v -6.302896 a 9.0458227,9.0458227 0 0 1 9.045824,-9.045823 9.0604128,9.0604128 0 0 1 9.045823,9.045823 v 6.302896 a 4.377011,4.377011 0 0 0 1.692444,3.457836 c 0,0 0.496061,0.350161 0.787862,0.496061 a 19.87163,19.87163 0 0 0 7.295018,1.371464 h 1.240153 a 19.78409,19.78409 0 0 0 7.484689,-1.371464 c 0.291801,-0.1459 0.787862,-0.496061 0.802452,-0.496061 a 4.377011,4.377011 0 0 0 1.692444,-3.457836 V 33.292511 a 7.572229,7.572229 0 0 1 4.464552,-6.813547 c 0,0 10.417284,-3.224398 13.320702,-4.377011 a 3.1368579,3.1368579 0 0 0 2.013425,-2.611617 c 0.452291,-1.984245 -0.641962,-1.794574 -1.663265,-1.823755 z m -17.974923,-3.99767 a 2.9180073,2.9180073 0 0 1 -2.918008,-2.772107 2.9180075,2.9180075 0 0 1 5.836015,0 2.9180073,2.9180073 0 0 1 -2.918007,2.772107 z"
         class="cls-1"
         style="stroke-width:1.459" />
    </g>
  </g>
</svg>
