<svg xmlns="http://www.w3.org/2000/svg" id="svg36" version="1.1" viewBox="0 0 235.67 95.35"><defs id="defs4"><style id="style2">.cls-1{fill:#623b2a}</style></defs><g data-name="Layer 2" id="Layer_2"><g data-name="Layer 1" id="Layer_1-2"><path id="path8" d="M0 84.49V62.24a2 2 0 012-2h2.89a1.84 1.84 0 012 2v8.87h8.79v-8.87a2 2 0 012-2h2.82a2 2 0 012 2v22.25a2 2 0 01-2 2h-2.76a2 2 0 01-2-2v-7.74H6.92v7.74a1.85 1.85 0 01-2 2H2a2 2 0 01-2-2z" class="cls-1"/><path id="path10" d="M26.58 78.32V69a1.83 1.83 0 012-2h2.71a1.82 1.82 0 012 2v8.76c0 2.11.72 3.83 2.71 3.83s3.2-1.69 3.2-4.28V69a1.83 1.83 0 012-2H44a1.83 1.83 0 012 2v15.49a1.83 1.83 0 01-2 2h-2.7a1.83 1.83 0 01-2-2v-.72a6 6 0 01-5.72 3.16c-5.68 0-7-4.7-7-8.61z" class="cls-1"/><path id="path12" d="M50 84.49V69a1.83 1.83 0 012-2h2.71a1.83 1.83 0 012 2v.75a5.89 5.89 0 015.67-3.19c5.64 0 7 4.7 7 8.61v9.32a1.83 1.83 0 01-2 2h-2.71a1.83 1.83 0 01-2-2v-8.76c0-2.1-.67-3.79-2.67-3.79s-3.19 1.65-3.19 4.24v8.31a1.83 1.83 0 01-2 2H52a1.83 1.83 0 01-2-2z" class="cls-1"/><path id="path14" d="M75 93.73a1.77 1.77 0 01-.8-2.73l.57-1a1.82 1.82 0 012.7-.79A10.31 10.31 0 0082 90.28c3.08 0 5.33-1.62 5.33-5.38v-1a6.81 6.81 0 01-6 3c-5.34 0-9.21-4.58-9.21-10.18s3.87-10.19 9.21-10.19a6.58 6.58 0 015.9 3v-.86c0-1.2.71-1.77 2-1.77h2.56a1.83 1.83 0 012 2v15.63c0 7.89-5 10.82-11.13 10.82A17.58 17.58 0 0175 93.73zm12.29-17c0-2.79-1.69-5-4.28-5s-4.32 2.25-4.32 5 1.65 5 4.32 5 4.27-2.2 4.27-4.98z" class="cls-1"/><path id="path16" d="M97.78 84.49V69a1.82 1.82 0 012-2h2.49a1.85 1.85 0 012 2v2.18a5.11 5.11 0 015-4.62 2.83 2.83 0 01.56 0c1 0 1.17.82 1.17 1.54v3.38c0 1.13-.61 1.62-1.47 1.5h-.9c-2.71 0-4.1 1.8-4.1 5.3v6.2a1.83 1.83 0 01-2 2H99.8a1.82 1.82 0 01-2.02-1.99z" class="cls-1"/><path id="path18" d="M116.34 92.57l3.31-7.67-7.07-15.56c-.64-1.39 0-2.37 1.54-2.37h3a2.22 2.22 0 012.33 1.66l3.47 9.37 3.57-9.43a2.27 2.27 0 012.33-1.57h2.86c1.5 0 2.14 1 1.54 2.37l-10.6 24.03a2.3 2.3 0 01-2.37 1.54h-2.33c-1.54 0-2.14-.94-1.58-2.37z" class="cls-1"/><path id="path20" d="M163.36 78.89c0 4.62-3.8 7.63-9.59 7.63h-10a1.82 1.82 0 01-2-2V62.24a1.82 1.82 0 012-2h8.91c5.49 0 9.51 2.78 9.51 7.4a5.36 5.36 0 01-3.87 5.15 6.24 6.24 0 015.04 6.1zm-14.7-13.27v5.53h2.74c2.9 0 4.14-1.32 4.14-2.79 0-1.69-1.39-2.74-3.5-2.74zm8 12.67c0-1.43-1.28-2.9-4.17-2.9h-3.8V81h4.77c2.12 0 3.17-1.29 3.17-2.71z" class="cls-1"/><path id="path22" d="M165.28 76.75c0-5.83 3.95-10.19 9.29-10.19a6.69 6.69 0 015.93 3V69a1.83 1.83 0 012-2h2.71a1.83 1.83 0 012 2v15.49a1.83 1.83 0 01-2 2h-2.71a1.83 1.83 0 01-2-2v-.57a6.73 6.73 0 01-5.93 3c-5.34.01-9.29-4.35-9.29-10.17zm15.3 0c0-2.79-1.65-4.93-4.29-4.93s-4.24 2.18-4.24 4.93 1.58 4.92 4.24 4.92 4.29-2.14 4.29-4.92z" class="cls-1"/><path id="path24" d="M191.26 84.49V69a1.83 1.83 0 012-2h2.48a1.84 1.84 0 012 2v2.18a5.13 5.13 0 015-4.62 2.78 2.78 0 01.56 0c1 0 1.17.82 1.17 1.54v3.38c0 1.13-.6 1.62-1.47 1.5h-.9c-2.7 0-4.09 1.8-4.09 5.3v6.2a1.83 1.83 0 01-2 2h-2.7a1.83 1.83 0 01-2.05-1.99z" class="cls-1"/><path id="path26" d="M225.69 84l-6-7.82 5-6.76c1-1.39.45-2.48-1.24-2.48h-3a2.63 2.63 0 00-2.4 1.32l-4.33 6.58V61.37a1.83 1.83 0 00-2-2H209a1.83 1.83 0 00-2 2v23.12a1.83 1.83 0 002 2h2.7a1.83 1.83 0 002-2v-6.88l5.3 7.58a2.6 2.6 0 002.39 1.31h3c1.75 0 2.31-1.09 1.3-2.5z" class="cls-1"/><path id="path28" d="M145.82 12.11l-2.9-.08a.7.7 0 01-.41-1.29 19.23 19.23 0 003.34-2.56c1.37-1.61.85-4.31-.41-7.58-.24-.64-1.18-.72-1.83-.46l-5 1.5a10.51 10.51 0 01-6.16 0 11.57 11.57 0 00-3.45-.5 11 11 0 00-9.64 5.7 9 9 0 00-.66 3.19v9.32a3.2 3.2 0 003.18 3.19h1.53a3.19 3.19 0 002.34-1 3.33 3.33 0 00.86-2.25V12c0-.4.45-.72 1-.72.56 0 1 .32 1 .72v7.29a5.35 5.35 0 01-1.43 3.71 5.2 5.2 0 01-3.75 1.59s-1.35 0-3.2-.15L115.4 24a33.42 33.42 0 00-5.48 0l-4.84.41A3.76 3.76 0 01101 20.7v-6.88a2.2 2.2 0 00-1.71-2.14 12.07 12.07 0 00-1.79-.26h-.88a12.37 12.37 0 00-2.71.3 2.2 2.2 0 00-1.71 2.14v34.02a3 3 0 001.16 2.37s.34.24.54.34a13.66 13.66 0 005.14.94h.85a13.52 13.52 0 005-.94c.2-.1.54-.34.55-.34a3 3 0 001.16-2.37v-4.32a6.2 6.2 0 016.2-6.2 6.21 6.21 0 016.2 6.2v4.32a3 3 0 001.16 2.37s.34.24.54.34a13.62 13.62 0 005 .94h.85a13.56 13.56 0 005.13-.94c.2-.1.54-.34.55-.34a3 3 0 001.16-2.37V22.82a5.19 5.19 0 013.06-4.67s7.14-2.21 9.13-3a2.15 2.15 0 001.38-1.79c.31-1.36-.44-1.23-1.14-1.25zM133.5 9.37a2 2 0 01-2-1.9 2 2 0 014 0 2 2 0 01-2 1.9z" class="cls-1"/><path id="path30" d="M229.31 70.36a.6.6 0 01-.07.37.46.46 0 01-.41.15.45.45 0 01-.4-.15.54.54 0 01-.08-.37v-2.58h-.66a.6.6 0 01-.37-.07.42.42 0 01-.15-.36.43.43 0 01.15-.37.69.69 0 01.37-.06H230a.69.69 0 01.37.06.43.43 0 01.15.37.42.42 0 01-.15.36.6.6 0 01-.37.07h-.67z" class="cls-1"/><path id="path32" d="M234.18 67.41c.18-.36.32-.54.7-.54a.46.46 0 01.38.14.67.67 0 01.12.43l.27 2.88a2.15 2.15 0 010 .23c0 .21-.14.33-.46.33s-.48-.13-.5-.39l-.16-2.14-.83 1.85c-.09.2-.18.36-.46.36s-.38-.16-.47-.36l-.77-1.85-.17 2.14c0 .25-.14.39-.5.39s-.44-.11-.44-.34v-.23l.28-2.87a.64.64 0 01.15-.45.59.59 0 01.4-.12c.38 0 .52.19.7.54l.88 1.81z" class="cls-1"/></g></g></svg>