<?xml version="1.0" encoding="UTF-8"?>
<svg width="48px" height="45px" viewBox="0 0 48 45" version="1.1" xmlns="http://www.w3.org/2000/svg" xmlns:xlink="http://www.w3.org/1999/xlink">
    <title>BC2115BA-0E23-4D8F-8581-020709FEEC5E@1x</title>
    <defs>
        <polygon id="path-1" points="0 0.270769231 48 0.270769231 48 43.9998308 0 43.9998308"></polygon>
    </defs>
    <g id="Page-1" stroke="none" stroke-width="1" fill="none" fill-rule="evenodd">
        <g id="Mix-ins-Offer---Desktop---v2" transform="translate(-562.000000, -2162.000000)">
            <g id="Group-7" transform="translate(0.000000, 1808.000000)">
                <g id="Left">
                    <g id="Bitmap">
                        <g id="Group-5" transform="translate(97.000000, 326.000000)">
                            <g id="Group-9-Copy-2" transform="translate(75.000000, 10.000000)">
                                <g id="better-taste" transform="translate(374.000000, 0.000000)">
                                    <g id="bettertaste-ic" transform="translate(16.000000, 18.000000)">
                                        <g id="Group-3">
                                            <mask id="mask-2" fill="white">
                                                <use xlink:href="#path-1"></use>
                                            </mask>
                                            <g id="Clip-2"></g>
                                            <path d="M37.4232857,32.2679077 C37.5068571,30.6699462 37.4858571,28.9839846 37.3602857,27.3390615 C37.4048571,27.3403308 37.4502857,27.3454077 37.4957143,27.3454077 C38.3215714,27.3454077 39.1452857,27.1503692 39.954,26.7615615 C41.2581429,26.1345615 42.084,25.1834846 42.4084286,23.9345615 C43.3178571,20.4323308 39.9261429,15.6964077 38.1038571,13.1516 L37.9774286,12.9751769 C36.9257143,11.5024462 35.6545714,10.8377923 34.395,11.1039077 C34.098,11.1652538 33.849,11.2727154 33.6291429,11.3683308 C33.4705714,11.4368692 33.3338571,11.4956769 33.21,11.5248692 C32.6584286,11.6539077 31.8,11.2879462 31.0422857,10.9659846 C30.5618571,10.7620615 30.1084286,10.5699846 29.6622857,10.4570231 C28.1164286,10.0694846 26.2118571,9.87317692 24,9.87317692 C21.7881429,9.87317692 19.8831429,10.0694846 18.3381429,10.4570231 C17.8924286,10.5691385 17.4381429,10.7620615 16.9577143,10.9659846 C16.2004286,11.2883692 15.3432857,11.6522154 14.7891429,11.5244462 C14.6657143,11.4952538 14.5285714,11.4368692 14.3695714,11.3683308 C14.1501429,11.2727154 13.9011429,11.1652538 13.6062857,11.1039077 C12.3445714,10.8394846 11.0751429,11.5024462 10.0225714,12.9747538 L9.89657143,13.1516 C8.07385714,15.6964077 4.68214286,20.4323308 5.59157143,23.9345615 C5.91557143,25.1834846 6.74142857,26.1345615 8.04557143,26.7615615 C8.85385714,27.1503692 9.67671429,27.3454077 10.5034286,27.3454077 C10.5488571,27.3454077 10.5942857,27.3403308 10.6397143,27.3390615 C10.5132857,28.9839846 10.4927143,30.6699462 10.5758571,32.2679077 C5.84271429,27.6965615 1.71428571,21.9351 1.71428571,15.7391385 C1.71428571,8.14321538 7.14385714,1.96290769 13.8171429,1.96290769 C17.5221429,1.96290769 20.9764286,3.86929231 23.2937143,7.19298462 C23.4535714,7.42229231 23.718,7.56021538 24,7.56021538 C24.282,7.56021538 24.546,7.42229231 24.7058571,7.19298462 C27.0231429,3.86929231 30.4774286,1.96290769 34.1824286,1.96290769 C40.8561429,1.96290769 46.2857143,8.14321538 46.2857143,15.7391385 C46.2857143,21.9355231 42.1577143,27.6965615 37.4232857,32.2679077 M24,42.1844077 C22.5368571,41.3615231 17.3708571,38.3322923 12.3805714,33.9322923 C12.399,33.8476769 12.4092857,33.7605231 12.3998571,33.6699846 C11.8054286,27.7185615 12.8228571,21.1964077 14.6682857,19.1313692 C14.9815714,18.7810615 14.9477143,18.2462923 14.5928571,17.9370231 C14.2375714,17.6277538 13.6962857,17.6620231 13.3825714,18.0123308 C12.0681429,19.4825231 11.2187143,22.3839846 10.8111429,25.6361769 C10.1417143,25.6924462 9.46585714,25.5621385 8.79642857,25.2410231 C7.95342857,24.8357154 7.44857143,24.2704846 7.25185714,23.5140231 C6.53914286,20.7703692 9.87257143,16.1161 11.2958571,14.1289077 L11.4235714,13.9503692 C11.718,13.5378692 12.492,12.6016 13.2492857,12.7589846 C13.3744286,12.7847923 13.5171429,12.8469846 13.6821429,12.9184846 C13.8887143,13.0073308 14.1222857,13.1084462 14.3957143,13.1710615 C15.4975714,13.4295615 16.6332857,12.9459846 17.6352857,12.5207923 C18.0522857,12.3435231 18.4461429,12.1768308 18.7602857,12.0972923 C20.1672857,11.7444462 21.9304286,11.5654846 24,11.5654846 C26.0695714,11.5654846 27.8327143,11.7444462 29.2397143,12.0972923 C29.5547143,12.1768308 29.9485714,12.3435231 30.3647143,12.5203692 C31.3667143,12.9464077 32.502,13.4295615 33.6034286,13.1714846 C33.8781429,13.1084462 34.1108571,13.0077538 34.317,12.9184846 C34.4824286,12.8469846 34.6251429,12.7847923 34.752,12.7589846 C35.5122857,12.5982154 36.282,13.5382923 36.5764286,13.9507923 L36.7037143,14.1289077 C38.1274286,16.1161 41.4604286,20.7703692 40.7481429,23.5140231 C40.5514286,24.2704846 40.0461429,24.8357154 39.2035714,25.2406 C38.5337143,25.5625615 37.8582857,25.6932923 37.1884286,25.6361769 C36.7804286,22.3835615 35.9314286,19.4821 34.617,18.0123308 C34.3037143,17.6620231 33.7615714,17.6277538 33.4071429,17.9370231 C33.0522857,18.2462923 33.0184286,18.7810615 33.3312857,19.1313692 C35.1762857,21.1955615 36.1937143,27.7177154 35.5997143,33.6704077 C35.5907143,33.7605231 35.6005714,33.8476769 35.619,33.9327154 C30.6287143,38.3322923 25.4631429,41.3615231 24,42.1844077 M34.1824286,0.2706 C30.2712857,0.2706 26.6164286,2.08856154 24,5.2976 C21.3831429,2.08856154 17.7291429,0.2706 13.8171429,0.2706 C6.19842857,0.2706 0,7.20948462 0,15.7391385 C0,22.2735615 3.99214286,29.0114846 11.8662857,35.7633692 C17.6575714,40.7290231 23.3545714,43.7717923 23.5941429,43.8991385 C23.7205714,43.9664077 23.8607143,43.9998308 24,43.9998308 C24.1392857,43.9998308 24.279,43.9664077 24.4054286,43.8991385 C24.6454286,43.7717923 30.3424286,40.7290231 36.1332857,35.7633692 C44.0074286,29.0114846 48,22.2735615 48,15.7391385 C48,7.20948462 41.8015714,0.2706 34.1824286,0.2706" id="Fill-1" fill="#333333" mask="url(#mask-2)"></path>
                                        </g>
                                        <path d="M19.992429,21.5997982 L19.1993943,21.6143272 C19.1917224,21.6143272 19.184858,21.6082734 19.184858,21.5997982 L19.992429,21.5997982 Z M19.1993943,23.2 C20.0820694,23.2 20.8,22.4824316 20.8,21.5997982 C20.8,20.7175684 20.0820694,20 19.1993943,20 C18.3183344,20 17.6,20.7175684 17.6,21.5997982 C17.6,22.4824316 18.3183344,23.2 19.1993943,23.2 L19.1993943,23.2 Z" id="Fill-4" fill="#333333"></path>
                                        <path d="M28.8,21.6143272 C28.7915237,21.6143272 28.7854692,21.6078698 28.7854692,21.6002018 L29.5927346,21.6002018 L28.8,21.6143272 Z M28.8,20 C27.9176589,20 27.2,20.7175684 27.2,21.6002018 C27.2,22.4816244 27.9176589,23.2 28.8,23.2 C29.6827447,23.2 30.4,22.4816244 30.4,21.6002018 C30.4,20.7175684 29.6827447,20 28.8,20 L28.8,20 Z" id="Fill-6" fill="#333333"></path>
                                        <path d="M26.5669282,35.08729 C26.1984341,35.6175892 25.4692218,35.8865939 24.3987313,35.8865939 C23.3291048,35.8865939 22.5998926,35.6175892 22.2318305,35.08729 C21.7160252,34.3453852 21.8754323,33.1288669 22.0758793,32.3561207 C22.6348844,32.2858711 23.1226099,32.0973964 23.5351678,31.860518 L23.5351678,33.3173415 C23.5351678,33.7910983 23.9222378,34.1740446 24.3991633,34.1740446 C24.8765209,34.1740446 25.2631589,33.7910983 25.2631589,33.3173415 L25.2631589,31.8626598 C25.6752848,32.0978248 26.1643062,32.2850144 26.7220154,32.3556924 C26.9233263,33.1280102 27.0827335,34.3449568 26.5669282,35.08729 L26.5669282,35.08729 Z M25.7361964,26.4829931 L24.3935474,27.8143096 L23.0547863,26.5134061 L25.7361964,26.4829931 Z M29.7235359,29.3238204 C28.7459249,30.2983201 27.8184257,30.7485175 26.98899,30.664989 C25.9483073,30.5600428 25.2558149,29.6472258 25.1452235,29.4917342 L26.9548622,27.697798 L26.9552942,27.6973697 C27.4464756,27.2099056 27.5916269,26.4838498 27.3259482,25.8481762 C27.0598376,25.2112175 26.4386248,24.8 25.7439724,24.8 L23.0547863,24.8 C22.3597018,24.8 21.738057,25.2112175 21.4723784,25.8486045 C21.2066998,26.4847065 21.353147,27.2107623 21.8443285,27.697798 L23.6535352,29.4917342 C23.5343038,29.6575062 22.8439713,30.5608995 21.8102007,30.664989 C20.972989,30.7493742 20.0532657,30.2978917 19.0769508,29.3238204 C18.7399925,28.9888495 18.1935153,28.9867077 17.8548291,29.3199652 C17.5165748,29.653651 17.5148468,30.195944 17.8509411,30.5317716 C18.6738968,31.3520648 19.5059246,31.8964996 20.3409763,32.1727863 C20.1055375,33.1901211 19.9422423,34.8062914 20.8040779,36.053651 C21.5138502,37.0795529 22.723012,37.6 24.3987313,37.6 C26.0753147,37.6 27.2849085,37.0791246 27.9946808,36.0527943 C28.8560844,34.8062914 28.6932212,33.1914062 28.4582144,32.1740713 C29.2936981,31.8977846 30.1257258,31.3524931 30.9486816,30.5317716 C31.2852078,30.1963724 31.2834798,29.653651 30.9452256,29.3203935 C30.6065393,28.9867077 30.0596301,28.9884211 29.7235359,29.3238204 L29.7235359,29.3238204 Z" id="Fill-8" fill="#333333"></path>
                                    </g>
                                </g>
                            </g>
                        </g>
                    </g>
                </g>
            </g>
        </g>
    </g>
</svg>