<?xml version="1.0" encoding="UTF-8"?>
<svg width="133px" height="138px" viewBox="0 0 133 138" version="1.1" xmlns="http://www.w3.org/2000/svg" xmlns:xlink="http://www.w3.org/1999/xlink">
    <title>58FD1BC7-2217-410C-A5D5-BFA674BB38B5@1x</title>
    <g id="Version-B" stroke="none" stroke-width="1" fill="none" fill-rule="evenodd" opacity="0.100000001">
        <g id="Recommendations-v4---Tablet-" transform="translate(-577.000000, -1273.000000)" fill="#EF8F7A">
            <g id="Group-20" transform="translate(0.000000, 264.000000)">
                <g id="Card-Copy-3" transform="translate(56.000000, 880.000000)">
                    <g id="Group-8">
                        <g id="Rectangle-2" transform="translate(4.000000, 0.000000)">
                            <path d="M599,129 C553.712651,129 517,165.712651 517,211 C517,256.287349 553.712651,293 599,293 C644.287349,293 681,256.287349 681,211 C681,189.252248 672.360739,168.395227 656.982756,153.017244 C641.604773,137.639261 620.747752,129 599,129 Z M599,281 C560.340068,281 529,249.659932 529,211 C529,172.340068 560.340068,141 599,141 C637.659932,141 669,172.340068 669,211 C669,229.565154 661.625021,247.369928 648.497475,260.497475 C635.369928,273.625021 617.565154,281 599,281 Z M570.999772,181.000456 C563.267911,181.000456 557,187.268367 557,195.000228 C557,202.732089 563.267911,209 570.999772,209 C578.731633,209 584.999544,202.732089 584.999544,195.000228 C585.029684,191.2781 583.564393,187.699664 580.932365,185.067635 C578.300336,182.435607 574.7219,180.970316 570.999772,181.000456 L570.999772,181.000456 Z M626.999772,181.000456 C619.267911,181.000456 613,187.268367 613,195.000228 C613,202.732089 619.267911,209 626.999772,209 C634.731633,209 640.999544,202.732089 640.999544,195.000228 C641.029684,191.2781 639.564393,187.699664 636.932365,185.067635 C634.300336,182.435607 630.7219,180.970316 626.999772,181.000456 L626.999772,181.000456 Z M559,235 C567.543521,249.869228 583.141923,259 600,259 C616.858077,259 632.456479,249.869228 641,235 L559,235 Z" id="icon-color"></path>
                        </g>
                    </g>
                </g>
            </g>
        </g>
    </g>
</svg>