<?xml version="1.0" encoding="UTF-8"?>
<svg width="48px" height="48px" viewBox="0 0 48 48" version="1.1" xmlns="http://www.w3.org/2000/svg" xmlns:xlink="http://www.w3.org/1999/xlink">
    <title>65FAB267-E911-4543-8D3A-09D8C83A1851@1x</title>
    <defs>
        <polygon id="path-1" points="0 0.276923077 48 0.276923077 48 44.9998269 0 44.9998269"></polygon>
    </defs>
    <g id="Page-1" stroke="none" stroke-width="1" fill="none" fill-rule="evenodd">
        <g id="HB-HomePage---Mobile-E" transform="translate(-20.000000, -2440.000000)">
            <g id="Group-5" transform="translate(0.000000, 743.000000)">
                <g id="Group-16" transform="translate(20.000000, 1697.000000)">
                    <g id="Bullets">
                        <g id="icon/image/bee/24">
                            <g id="Group-10" transform="translate(0.000000, 2.000000)">
                                <g id="Group-3">
                                    <mask id="mask-2" fill="white">
                                        <use xlink:href="#path-1"></use>
                                    </mask>
                                    <g id="Clip-2"></g>
                                    <path d="M37.4232857,33.0012692 C37.5068571,31.3669904 37.4858571,29.6427115 37.3602857,27.9604038 C37.4048571,27.9617019 37.4502857,27.9668942 37.4957143,27.9668942 C38.3215714,27.9668942 39.1452857,27.7674231 39.954,27.3697788 C41.2581429,26.7285288 42.084,25.7558365 42.4084286,24.4785288 C43.3178571,20.8967019 39.9261429,16.0531442 38.1038571,13.4505 L37.9774286,13.2700673 C36.9257143,11.7638654 35.6545714,11.0841058 34.395,11.3562692 C34.098,11.4190096 33.849,11.5289135 33.6291429,11.6267019 C33.4705714,11.6967981 33.3338571,11.7569423 33.21,11.7867981 C32.6584286,11.9187692 31.8,11.5444904 31.0422857,11.2152115 C30.5618571,11.0066538 30.1084286,10.8102115 29.6622857,10.6946827 C28.1164286,10.2983365 26.2118571,10.0975673 24,10.0975673 C21.7881429,10.0975673 19.8831429,10.2983365 18.3381429,10.6946827 C17.8924286,10.8093462 17.4381429,11.0066538 16.9577143,11.2152115 C16.2004286,11.5449231 15.3432857,11.9170385 14.7891429,11.7863654 C14.6657143,11.7565096 14.5285714,11.6967981 14.3695714,11.6267019 C14.1501429,11.5289135 13.9011429,11.4190096 13.6062857,11.3562692 C12.3445714,11.0858365 11.0751429,11.7638654 10.0225714,13.2696346 L9.89657143,13.4505 C8.07385714,16.0531442 4.68214286,20.8967019 5.59157143,24.4785288 C5.91557143,25.7558365 6.74142857,26.7285288 8.04557143,27.3697788 C8.85385714,27.7674231 9.67671429,27.9668942 10.5034286,27.9668942 C10.5488571,27.9668942 10.5942857,27.9617019 10.6397143,27.9604038 C10.5132857,29.6427115 10.4927143,31.3669904 10.5758571,33.0012692 C5.84271429,28.3260288 1.71428571,22.433625 1.71428571,16.0968462 C1.71428571,8.32828846 7.14385714,2.00751923 13.8171429,2.00751923 C17.5221429,2.00751923 20.9764286,3.95723077 23.2937143,7.35646154 C23.4535714,7.59098077 23.718,7.73203846 24,7.73203846 C24.282,7.73203846 24.546,7.59098077 24.7058571,7.35646154 C27.0231429,3.95723077 30.4774286,2.00751923 34.1824286,2.00751923 C40.8561429,2.00751923 46.2857143,8.32828846 46.2857143,16.0968462 C46.2857143,22.4340577 42.1577143,28.3260288 37.4232857,33.0012692 M24,43.1431442 C22.5368571,42.3015577 17.3708571,39.2034808 12.3805714,34.7034808 C12.399,34.6169423 12.4092857,34.5278077 12.3998571,34.4352115 C11.8054286,28.3485288 12.8228571,21.6781442 14.6682857,19.5661731 C14.9815714,19.2079038 14.9477143,18.6609808 14.5928571,18.3446827 C14.2375714,18.0283846 13.6962857,18.0634327 13.3825714,18.4217019 C12.0681429,19.9253077 11.2187143,22.8927115 10.8111429,26.2188173 C10.1417143,26.2763654 9.46585714,26.1430962 8.79642857,25.8146827 C7.95342857,25.4001635 7.44857143,24.8220865 7.25185714,24.0484327 C6.53914286,21.2424231 9.87257143,16.482375 11.2958571,14.4500192 L11.4235714,14.2674231 C11.718,13.8455481 12.492,12.888 13.2492857,13.0489615 C13.3744286,13.0753558 13.5171429,13.1389615 13.6821429,13.2120865 C13.8887143,13.3029519 14.1222857,13.4063654 14.3957143,13.4704038 C15.4975714,13.7347788 16.6332857,13.2402115 17.6352857,12.8053558 C18.0522857,12.6240577 18.4461429,12.4535769 18.7602857,12.3722308 C20.1672857,12.0113654 21.9304286,11.8283365 24,11.8283365 C26.0695714,11.8283365 27.8327143,12.0113654 29.2397143,12.3722308 C29.5547143,12.4535769 29.9485714,12.6240577 30.3647143,12.8049231 C31.3667143,13.2406442 32.502,13.7347788 33.6034286,13.4708365 C33.8781429,13.4063654 34.1108571,13.3033846 34.317,13.2120865 C34.4824286,13.1389615 34.6251429,13.0753558 34.752,13.0489615 C35.5122857,12.8845385 36.282,13.8459808 36.5764286,14.2678558 L36.7037143,14.4500192 C38.1274286,16.482375 41.4604286,21.2424231 40.7481429,24.0484327 C40.5514286,24.8220865 40.0461429,25.4001635 39.2035714,25.81425 C38.5337143,26.1435288 37.8582857,26.2772308 37.1884286,26.2188173 C36.7804286,22.8922788 35.9314286,19.924875 34.617,18.4217019 C34.3037143,18.0634327 33.7615714,18.0283846 33.4071429,18.3446827 C33.0522857,18.6609808 33.0184286,19.2079038 33.3312857,19.5661731 C35.1762857,21.6772788 36.1937143,28.3476635 35.5997143,34.4356442 C35.5907143,34.5278077 35.6005714,34.6169423 35.619,34.7039135 C30.6287143,39.2034808 25.4631429,42.3015577 24,43.1431442 M34.1824286,0.27675 C30.2712857,0.27675 26.6164286,2.13602885 24,5.418 C21.3831429,2.13602885 17.7291429,0.27675 13.8171429,0.27675 C6.19842857,0.27675 0,7.37333654 0,16.0968462 C0,22.7797788 3.99214286,29.6708365 11.8662857,36.5761731 C17.6575714,41.6546827 23.3545714,44.7666058 23.5941429,44.8968462 C23.7205714,44.9656442 23.8607143,44.9998269 24,44.9998269 C24.1392857,44.9998269 24.279,44.9656442 24.4054286,44.8968462 C24.6454286,44.7666058 30.3424286,41.6546827 36.1332857,36.5761731 C44.0074286,29.6708365 48,22.7797788 48,16.0968462 C48,7.37333654 41.8015714,0.27675 34.1824286,0.27675" id="Fill-1" fill="#EF8F7A" mask="url(#mask-2)"></path>
                                </g>
                                <path d="M19.2429022,21.4998108 L18.4994322,21.5134317 C18.4922397,21.5134317 18.4858044,21.5077563 18.4858044,21.4998108 L19.2429022,21.4998108 Z M18.4994322,23 C19.3269401,23 20,22.3272796 20,21.4998108 C20,20.6727204 19.3269401,20 18.4994322,20 C17.6734385,20 17,20.6727204 17,21.4998108 C17,22.3272796 17.6734385,23 18.4994322,23 L18.4994322,23 Z" id="Fill-4" fill="#EF8F7A"></path>
                                <path d="M29.5,21.5134317 C29.4920535,21.5134317 29.4863774,21.507378 29.4863774,21.5001892 L30.2431887,21.5001892 L29.5,21.5134317 Z M29.5,20 C28.6728052,20 28,20.6727204 28,21.5001892 C28,22.3265229 28.6728052,23 29.5,23 C30.3275732,23 31,22.3265229 31,21.5001892 C31,20.6727204 30.3275732,20 29.5,20 L29.5,20 Z" id="Fill-6" fill="#EF8F7A"></path>
                                <path d="M26.5713284,35.4480289 C26.2190914,35.986614 25.5220503,36.259822 24.4987873,36.259822 C23.4763502,36.259822 22.7793091,35.986614 22.427485,35.4480289 C21.9344358,34.6945318 22.0868103,33.4590054 22.278414,32.6741851 C22.8127572,32.6028378 23.2789654,32.4114182 23.6733221,32.1708386 L23.6733221,33.650425 C23.6733221,34.1315842 24.0433155,34.520514 24.4992002,34.520514 C24.9554979,34.520514 25.3250783,34.1315842 25.3250783,33.650425 L25.3250783,32.1730139 C25.7190222,32.4118533 26.1864692,32.6019677 26.7195735,32.6737501 C26.9120031,33.4581353 27.0643776,34.6940968 26.5713284,35.4480289 L26.5713284,35.4480289 Z M25.7772466,26.7092899 L24.493832,28.0614082 L23.2141339,26.740178 L25.7772466,26.7092899 Z M29.588674,29.5945051 C28.6541929,30.5842313 27.7676128,31.0414631 26.9747698,30.9566294 C25.9799997,30.8500435 25.3180584,29.9229637 25.212346,29.7650425 L26.9421476,27.9430761 L26.9425606,27.9426411 C27.4120723,27.4475604 27.5508198,26.71016 27.2968623,26.0645539 C27.0424918,25.4176427 26.4486855,25 25.7846795,25 L23.2141339,25 C22.549715,25 21.9554957,25.4176427 21.7015382,26.064989 C21.4475807,26.7110301 21.587567,27.4484305 22.0570787,27.9430761 L23.7864674,29.7650425 C23.6724963,29.9334047 23.0126197,30.8509136 22.0244565,30.9566294 C21.2241807,31.0423332 20.3450334,30.5837963 19.4117912,29.5945051 C19.0896987,29.2543002 18.5673308,29.252125 18.2435866,29.5905897 C17.9202553,29.9294893 17.9186036,30.4802557 18.2398702,30.8213306 C19.026519,31.6544408 19.8218397,32.2073824 20.6200508,32.4879861 C20.394999,33.5212168 20.2389081,35.1626397 21.0627215,36.4294893 C21.7411803,37.4714209 22.8969967,38 24.4987873,38 C26.1014037,38 27.2576331,37.4709859 27.9360919,36.4286192 C28.7594924,35.1626397 28.6038144,33.5225219 28.3791755,32.4892912 C29.1777996,32.2086875 29.9731203,31.6548758 30.7597691,30.8213306 C31.0814487,30.4806907 31.0797969,29.9294893 30.7564656,29.5910247 C30.4327214,29.252125 29.9099406,29.2538652 29.588674,29.5945051 L29.588674,29.5945051 Z" id="Fill-8" fill="#EF8F7A"></path>
                            </g>
                        </g>
                    </g>
                </g>
            </g>
        </g>
    </g>
</svg>