<?xml version="1.0" encoding="UTF-8"?>
<svg width="49px" height="42px" viewBox="0 0 49 42" version="1.1" xmlns="http://www.w3.org/2000/svg" xmlns:xlink="http://www.w3.org/1999/xlink">
    <title>2DEE8EED-51C8-4955-AE18-BCA82D5B8EBA@1x</title>
    <defs>
        <polygon id="path-1" points="0 0.000257142857 22.2856714 0.000257142857 22.2856714 29.1426857 0 29.1426857"></polygon>
        <polygon id="path-3" points="-0.0003 0.000214285714 22.2852857 0.000214285714 22.2852857 29.1426429 -0.0003 29.1426429"></polygon>
    </defs>
    <g id="Page-1" stroke="none" stroke-width="1" fill="none" fill-rule="evenodd">
        <g id="Mix-ins-Offer---Desktop---v2" transform="translate(-742.000000, -4866.000000)">
            <g id="Group-7" transform="translate(0.000000, 4213.000000)">
                <g id="Left">
                    <g id="Bitmap">
                        <g id="Group-5" transform="translate(726.000000, 244.000000)">
                            <g id="Group-9-Copy-7" transform="translate(0.000000, 390.000000)">
                                <g id="givingback">
                                    <g id="givingback-ic" transform="translate(16.000000, 19.000000)">
                                        <g id="Group-3" transform="translate(0.000000, 11.999829)">
                                            <mask id="mask-2" fill="white">
                                                <use xlink:href="#path-1"></use>
                                            </mask>
                                            <g id="Clip-2"></g>
                                            <path d="M15.5009571,14.9094 C14.9433857,14.7975429 14.3609571,14.7139714 13.7716714,14.6616857 C13.1558143,14.6051143 12.5853857,14.3432571 12.1653857,13.9224 L8.44067143,10.1976857 C7.83938571,9.59682857 7.04438571,9.28354286 6.25538571,9.26597143 L5.34424286,2.33254286 C5.16895714,1.00354286 4.02552857,0.000257142857 2.68238571,0.000257142857 C1.20338571,0.000257142857 -4.28571429e-05,1.20411429 -4.28571429e-05,2.68354286 L-4.28571429e-05,15.8394 C-4.28571429e-05,16.8906857 0.384385714,17.9012571 1.0821,18.6864 L7.07352857,25.4269714 C7.24281429,25.6172571 7.4781,25.7145429 7.71424286,25.7145429 C7.91695714,25.7145429 8.1201,25.6429714 8.28338571,25.4981143 C8.63738571,25.1839714 8.6691,24.6418286 8.35452857,24.2882571 L2.3631,17.5468286 C1.94438571,17.0771143 1.71424286,16.4706857 1.71424286,15.8394 L1.71424286,2.68354286 C1.71424286,2.14954286 2.14838571,1.71454286 2.68452857,1.71454286 C3.16838571,1.71454286 3.58152857,2.07711429 3.64452857,2.55711429 L4.58695714,9.72625714 C4.50167143,9.78154286 4.41895714,9.84111429 4.33967143,9.90582857 C3.68095714,10.4441143 3.27938571,11.2378286 3.23695714,12.0816857 C3.19452857,12.9272571 3.51295714,13.7561143 4.11124286,14.3544 L10.0773857,20.3201143 C10.4121,20.6548286 10.9551,20.6548286 11.2893857,20.3201143 C11.6241,19.9858286 11.6241,19.4428286 11.2893857,19.1081143 L5.32367143,13.1428286 C5.06738571,12.8856857 4.93067143,12.5304 4.9491,12.1682571 C4.96752857,11.8005429 5.13638571,11.4692571 5.42481429,11.2326857 C5.92667143,10.8229714 6.7191,10.9005429 7.2291,11.4101143 L10.9533857,15.1344 C11.6562429,15.8376857 12.6016714,16.2756857 13.6173857,16.3686857 C14.1466714,16.4166857 14.6669571,16.4904 15.1632429,16.5902571 C18.2965286,17.2215429 20.5713857,20.0415429 20.5713857,23.2961143 L20.5713857,28.2855429 C20.5713857,28.7586857 20.9549571,29.1426857 21.4285286,29.1426857 C21.9016714,29.1426857 22.2856714,28.7586857 22.2856714,28.2855429 L22.2856714,23.2961143 C22.2856714,19.2276857 19.4322429,15.7009714 15.5009571,14.9094" id="Fill-1" fill="#333333" mask="url(#mask-2)"></path>
                                        </g>
                                        <g id="Group-6" transform="translate(25.714286, 11.999829)">
                                            <mask id="mask-4" fill="white">
                                                <use xlink:href="#path-3"></use>
                                            </mask>
                                            <g id="Clip-5"></g>
                                            <path d="M19.6008429,0.000214285714 C18.2598429,0.000214285714 17.1164143,1.0035 16.9407,2.33292857 L16.0299857,9.2655 C15.2414143,9.28307143 14.4472714,9.59635714 13.8459857,10.1963571 L10.1178429,13.9253571 C9.6987,14.3445 9.13084286,14.6050714 8.51884286,14.6603571 C7.90212857,14.7169286 7.30384286,14.8035 6.74112857,14.9192143 C2.8347,15.7155 -0.0003,19.2387857 -0.0003,23.2947857 L-0.0003,28.2855 C-0.0003,28.7590714 0.3837,29.1426429 0.856842857,29.1426429 C1.33041429,29.1426429 1.71398571,28.7590714 1.71398571,28.2855 L1.71398571,23.2947857 C1.71398571,20.0492143 3.97255714,17.2330714 7.08484286,16.5983571 C7.58584286,16.4955 8.12027143,16.4187857 8.67355714,16.3677857 C9.6837,16.2769286 10.6269857,15.8393571 11.3294143,15.1377857 L15.0579857,11.4087857 C15.5675571,10.9000714 16.3595571,10.8233571 16.8605571,11.2330714 C17.1489857,11.4692143 17.3178429,11.8005 17.3362714,12.1686429 C17.3542714,12.5303571 17.2175571,12.8856429 16.9617,13.1423571 L10.9959857,19.1080714 C10.6612714,19.4427857 10.6612714,19.9857857 10.9959857,20.3200714 C11.3307,20.6547857 11.8737,20.6547857 12.2079857,20.3200714 L18.1741286,14.3539286 C18.7719857,13.7560714 19.0908429,12.9272143 19.0484143,12.0816429 C19.0059857,11.2377857 18.6039857,10.4440714 17.9461286,9.90578571 C17.8664143,9.84107143 17.7832714,9.7815 17.6984143,9.72621429 L18.6404143,2.5575 C18.7038429,2.07707143 19.1169857,1.7145 19.6025571,1.7145 C20.1365571,1.7145 20.5711286,2.1495 20.5711286,2.6835 L20.5711286,15.8393571 C20.5711286,16.4706429 20.3409857,17.0770714 19.9222714,17.5467857 L13.9308429,24.2882143 C13.6162714,24.6417857 13.6479857,25.1839286 14.0019857,25.4980714 C14.1648429,25.6437857 14.3684143,25.7145 14.5711286,25.7145 C14.8072714,25.7145 15.0425571,25.6172143 15.2118429,25.4269286 L21.2028429,18.6867857 C21.9009857,17.9020714 22.2854143,16.8906429 22.2854143,15.8393571 L22.2854143,2.6835 C22.2854143,1.2045 21.0819857,0.000214285714 19.6008429,0.000214285714" id="Fill-4" fill="#333333" mask="url(#mask-4)"></path>
                                        </g>
                                        <path d="M25.7529857,22.5892286 C25.3287,22.2223714 24.6185571,21.6069429 23.6662714,21.5653714 L23.5852714,21.5662286 C22.6707,21.6069429 21.9605571,22.2223714 21.5341286,22.5918 C20.8415571,23.1960857 20.0469857,23.8050857 19.4067,23.7536571 C18.9952714,23.7189429 18.5409857,23.4005143 18.0558429,22.8060857 C17.3071286,21.8906571 16.6364143,20.0773714 17.3281286,19.0445143 C17.4532714,18.8546571 17.6791286,18.6699429 17.9465571,18.4513714 C18.2649857,18.1830857 18.5945571,17.9053714 18.9001286,17.6165143 C19.7975571,16.8086571 20.4537,16.0552286 20.9491286,14.8008 C21.0155571,14.6336571 21.0781286,14.4660857 21.1402714,14.2989429 C21.4454143,13.4829429 21.7085571,12.7779429 22.3261286,12.3193714 C22.7174143,12.0283714 23.1841286,11.8835143 23.6491286,11.8835143 C24.1141286,11.8835143 24.5774143,12.0279429 24.9635571,12.3193714 C25.5811286,12.7779429 25.8447,13.4838 26.1494143,14.2993714 C26.2115571,14.4665143 26.2745571,14.6340857 26.3405571,14.8008 C26.8359857,16.0552286 27.4921286,16.8086571 28.3749857,17.6032286 C28.6951286,17.9053714 29.0247,18.1830857 29.3722714,18.4745143 C29.6105571,18.6699429 29.8359857,18.8542286 29.9658429,19.0518 C30.6532714,20.0773714 29.9825571,21.8906571 29.2342714,22.8060857 C29.2342714,22.8065143 29.2338429,22.8065143 29.2338429,22.8065143 C28.7487,23.4005143 28.2944143,23.7189429 27.8829857,23.7536571 C27.2422714,23.8050857 26.4485571,23.1960857 25.7529857,22.5892286 M30.5611286,23.8912286 C31.8168429,22.3556571 32.5338429,19.8030857 31.3938429,18.1033714 C31.1242714,17.6932286 30.7702714,17.4035143 30.4467,17.1386571 C30.1462714,16.8862286 29.8359857,16.6252286 29.5372714,16.3440857 C28.7881286,15.6690857 28.3107,15.1218 27.9348429,14.1703714 C27.8727,14.0135143 27.8139857,13.8558 27.7552714,13.6998 C27.4059857,12.7642286 27.0099857,11.7048 25.9908429,10.9475143 C24.6194143,9.9138 22.6921286,9.91122857 21.3035571,10.9432286 C20.2797,11.7048 19.8837,12.7638 19.5344143,13.6993714 C19.4761286,13.8553714 19.4169857,14.0130857 19.3548429,14.1703714 C18.9789857,15.1218 18.5015571,15.6690857 17.7378429,16.3569429 C17.4537,16.6252286 17.1434143,16.8862286 16.8322714,17.1485143 C16.5194143,17.4035143 16.1645571,17.6936571 15.9001286,18.0973714 C14.7558429,19.8030857 15.4728429,22.3556571 16.7281286,23.8908 C17.5295571,24.8713714 18.3588429,25.3852286 19.2627,25.4615143 C19.3402714,25.4683714 19.4165571,25.4718 19.4932714,25.4718 C20.6718429,25.4718 21.7107,24.7128 22.6591286,23.8848 C23.0045571,23.5856571 23.3671286,23.2925143 23.6234143,23.2796571 L23.6281286,23.2788 C23.9225571,23.2925143 24.2851286,23.5856571 24.6279857,23.8835143 C25.6402714,24.7659429 26.7507,25.5660857 28.0269857,25.4615143 C28.9312714,25.3852286 29.7601286,24.8713714 30.5611286,23.8912286" id="Fill-7" fill="#333333"></path>
                                        <path d="M26.4385286,2.22998571 C26.6896714,1.89912857 27.0256714,1.73584286 27.4962429,1.71612857 C27.5151,1.71527143 27.5335286,1.71484286 27.5519571,1.71484286 C28.3653857,1.71484286 28.7755286,2.47512857 28.9156714,2.80855714 C29.0939571,3.2307 29.1488143,3.6807 29.0845286,4.18255714 C29.0309571,4.59655714 28.8916714,5.0517 28.6709571,5.53341429 C28.5029571,5.89984286 27.8986714,7.07884286 27.2031,6.81184286 C26.7329571,6.63527143 26.3519571,5.98212857 26.1012429,4.92398571 C25.8625286,3.91512857 26.0013857,2.80727143 26.4385286,2.22998571 M26.5983857,8.41684286 C26.8825286,8.52398571 27.1645286,8.5767 27.4409571,8.5767 C28.5333857,8.5767 29.5375286,7.75598571 30.2296714,6.24741429 C30.5219571,5.60841429 30.7088143,4.98784286 30.7846714,4.40198571 L30.7846714,4.40155714 C30.8875286,3.60227143 30.7902429,2.84284286 30.4953857,2.14255714 C29.9069571,0.746271429 28.7549571,-0.0585857143 27.4246714,0.00355714286 C26.4462429,0.0429857143 25.6328143,0.455271429 25.0722429,1.19455714 C24.1649571,2.39155714 24.1473857,4.11012857 24.4332429,5.3187 C24.8322429,7.00555714 25.5411,8.0187 26.5983857,8.41684286" id="Fill-9" fill="#333333"></path>
                                        <path d="M31.839,9.55881429 C32.0905714,9.22795714 32.4265714,9.06424286 32.8975714,9.04452857 C32.9164286,9.04367143 32.9352857,9.04324286 32.9537143,9.04324286 C33.7662857,9.04324286 34.176,9.80352857 34.3165714,10.1373857 C34.4944286,10.5591 34.5497143,11.0091 34.485,11.5109571 C34.4314286,11.9249571 34.2925714,12.3801 34.0718571,12.8618143 C33.9038571,13.2286714 33.2987143,14.4063857 32.6035714,14.1402429 C32.1334286,13.9632429 31.7524286,13.3113857 31.503,12.2519571 C31.2638571,11.2435286 31.4018571,10.1361 31.839,9.55881429 M30.4727143,8.52424286 C29.5654286,9.72124286 29.5482857,11.4393857 29.8345714,12.6462429 C30.2322857,14.3335286 30.9407143,15.3466714 31.9988571,15.7452429 C32.2834286,15.8528143 32.5654286,15.9051 32.8418571,15.9051 C33.9347143,15.9051 34.9384286,15.0843857 35.6305714,13.5758143 C35.9228571,12.9368143 36.1092857,12.3162429 36.1851429,11.7303857 L36.1851429,11.7299571 C36.2884286,10.9302429 36.1911429,10.1708143 35.8962857,9.47138571 C35.3078571,8.07424286 34.1494286,7.25995714 32.826,7.33195714 C31.8471429,7.37138571 31.0332857,7.78367143 30.4727143,8.52424286" id="Fill-11" fill="#333333"></path>
                                        <path d="M18.6712714,2.26431429 C18.9125571,1.92574286 19.2434143,1.75217143 19.7127,1.71874286 C19.7444143,1.71617143 19.7757,1.71531429 19.8061286,1.71531429 C20.5951286,1.71531429 21.0164143,2.44517143 21.1642714,2.76874286 C21.3549857,3.18531429 21.4231286,3.63317143 21.3734143,4.13717143 C21.3318429,4.55588571 21.2067,5.01402857 21.0009857,5.4996 C20.8437,5.87074286 20.2728429,7.0656 19.5712714,6.82131429 C19.0959857,6.65888571 18.6961286,6.01774286 18.4145571,4.96688571 C18.1458429,3.96531429 18.2517,2.8536 18.6712714,2.26431429 M19.0145571,8.4426 C19.2789857,8.53388571 19.5399857,8.5776 19.7958429,8.5776 C20.9131286,8.5776 21.9189857,7.72517143 22.5794143,6.16817143 C22.8528429,5.52317143 23.0208429,4.89702857 23.0795571,4.30645714 L23.0795571,4.30602857 C23.1588429,3.50374286 23.0388429,2.74602857 22.7234143,2.05645714 C22.0942714,0.679028571 20.9217,-0.0821142857 19.5905571,0.00788571429 C18.6134143,0.0777428571 17.8128429,0.514457143 17.2745571,1.27045714 C16.4037,2.49317143 16.4371286,4.21088571 16.7589857,5.41088571 C17.2072714,7.08445714 17.9457,8.07702857 19.0145571,8.4426" id="Fill-13" fill="#333333"></path>
                                        <path d="M13.1839714,9.59061429 C13.4252571,9.25204286 13.7561143,9.07932857 14.2254,9.0459 C14.2571143,9.04332857 14.2879714,9.04247143 14.3188286,9.04247143 C15.1078286,9.04247143 15.5291143,9.77232857 15.6765429,10.0963286 C15.8676857,10.5124714 15.9358286,10.9599 15.8861143,11.4643286 C15.8445429,11.8830429 15.7194,12.3411857 15.5136857,12.8271857 C15.3564,13.1983286 14.7894,14.3936143 14.0844,14.1489 C13.6091143,13.9851857 13.2088286,13.3440429 12.9272571,12.2936143 C12.6585429,11.2920429 12.7644,10.1803286 13.1839714,9.59061429 M13.5272571,15.7697571 C13.7921143,15.8610429 14.0535429,15.9051857 14.3094,15.9051857 C15.4275429,15.9051857 16.4329714,15.0523286 17.0921143,13.4953286 C17.3655429,12.8503286 17.5335429,12.2241857 17.5922571,11.6336143 L17.5922571,11.6331857 C17.6715429,10.8309 17.5515429,10.0731857 17.2361143,9.38404286 C16.6074,8.00661429 15.4378286,7.2459 14.1036857,7.33504286 C13.1265429,7.40447143 12.3255429,7.84075714 11.7876857,8.59675714 C10.9159714,9.8199 10.9498286,11.5376143 11.2716857,12.7376143 C11.7199714,14.4103286 12.4579714,15.4033286 13.5272571,15.7697571" id="Fill-15" fill="#333333"></path>
                                    </g>
                                </g>
                            </g>
                        </g>
                    </g>
                </g>
            </g>
        </g>
    </g>
</svg>