<?xml version="1.0" encoding="UTF-8"?>
<svg width="43px" height="49px" viewBox="0 0 43 49" version="1.1" xmlns="http://www.w3.org/2000/svg" xmlns:xlink="http://www.w3.org/1999/xlink">
    <title>52755989-052F-4FD4-B3B4-1E8BAEC44CEE@1x</title>
    <defs>
        <polygon id="path-1" points="0 0.411558621 42.5068552 0.411558621 42.5068552 40.1377655 0 40.1377655"></polygon>
        <polygon id="path-3" points="0.336537931 0.328551724 14.7332276 0.328551724 14.7332276 14.7245379 0.336537931 14.7245379"></polygon>
    </defs>
    <g id="Page-1" stroke="none" stroke-width="1" fill="none" fill-rule="evenodd">
        <g id="Mix-ins-Offer---Desktop---v2" transform="translate(-565.000000, -2478.000000)">
            <g id="Group-7" transform="translate(0.000000, 1808.000000)">
                <g id="Left">
                    <g id="Bitmap">
                        <g id="Group-5" transform="translate(97.000000, 326.000000)">
                            <g id="Group-9-Copy" transform="translate(75.000000, 328.000000)">
                                <g id="extraprotein" transform="translate(374.000000, 0.000000)">
                                    <g id="extraprotein-ic" transform="translate(19.000000, 16.000000)">
                                        <path d="M32.6045379,16.4881241 C33.1615034,16.4881241 33.6129517,16.0362621 33.6129517,15.4792966 C33.6129517,14.9231586 33.1615034,14.4712966 32.6045379,14.4712966 C32.0475724,14.4712966 31.5961241,14.9231586 31.5961241,15.4792966 C31.5961241,16.0362621 32.0475724,16.4881241 32.6045379,16.4881241" id="Fill-1" fill="#333333"></path>
                                        <path d="M30.6739448,25.7661103 C30.6093931,25.3142483 30.1931172,25.0051448 29.7396,25.0651448 C29.2877379,25.1280414 28.9728414,25.5468 29.0353241,25.9986621 C29.0402897,26.036731 29.5389103,29.8924552 26.9932552,32.4472138 C24.9259448,34.5223862 21.4223586,35.2440414 16.5561517,34.5931448 C16.5064966,34.5873517 15.3362897,34.4499724 15.2808414,33.6194897 C15.2493931,33.1502483 15.3842897,32.9524552 15.4885655,32.844869 C16.0120138,32.3056966 17.4925655,32.3561793 18.3764276,32.3884552 C18.7343586,32.4004552 19.0442897,32.4116276 19.2900828,32.3917655 C19.7407034,32.3536966 20.0713241,31.9626621 20.0411172,31.5116276 C20.0104966,31.0605931 19.6207034,30.7279034 19.1671862,30.7403172 C18.9582207,30.752731 18.1281517,30.6873517 17.7925655,30.6157655 C17.5960138,30.3439034 17.5298069,29.7794897 17.7424966,29.5237655 C18.2162897,28.9523172 19.9773931,28.9788 21.0292552,28.9970069 C21.2328414,28.9994897 21.4264966,29.0023862 21.6048414,29.0023862 C22.0620828,29.0023862 22.4324276,28.6324552 22.4324276,28.1748 C22.4324276,27.7183862 22.0620828,27.3472138 21.6048414,27.3472138 C21.4343586,27.3472138 21.2498069,27.3443172 21.0553241,27.3418345 C19.5329793,27.3199034 17.4491172,27.2851448 16.4684276,28.4665241 C15.9520138,29.0892828 15.8361517,30.0256966 16.081531,30.8321793 C15.4078759,30.9588 14.7685655,31.2095586 14.2997379,31.6932828 C13.7990483,32.2096966 13.573531,32.8953517 13.6293931,33.7295586 C13.7485655,35.5163172 15.4885655,36.1535586 16.361669,36.2371448 C17.5749103,36.3993517 18.7161517,36.4812828 19.7845655,36.4808705 C23.4648414,36.4808705 26.2802897,35.516731 28.1796,33.6021103 C31.3024966,30.4519034 30.7008414,25.9560414 30.6739448,25.7661103" id="Fill-3" fill="#333333"></path>
                                        <g id="Group-7" transform="translate(0.000000, 7.533517)">
                                            <mask id="mask-2" fill="white">
                                                <use xlink:href="#path-1"></use>
                                            </mask>
                                            <g id="Clip-6"></g>
                                            <path d="M21.2577517,38.1726621 L19.8690621,35.1304552 C20.1669931,35.1532138 20.4690621,35.1693517 20.7798207,35.1693517 C21.0016138,35.1693517 21.2283724,35.1598345 21.4563724,35.1470069 L22.9795448,38.4825931 L21.3309931,38.4825931 C21.3268552,38.3783172 21.3036828,38.2732138 21.2577517,38.1726621 M10.811131,27.0561103 C10.8049241,27.042869 10.7978897,27.0292138 10.7908552,27.0168 L4.47223448,15.8605241 C4.14451034,15.2601103 4.05471724,14.7362483 4.20575172,14.3042483 C4.30754483,14.0112828 4.50782069,13.7841103 4.70685517,13.6128 L8.78395862,19.7845241 C8.94326897,20.0253517 9.20644138,20.1552828 9.4754069,20.1552828 C9.63182069,20.1552828 9.79030345,20.1114207 9.93057931,20.0183172 C10.3120966,19.766731 10.4167862,19.2528 10.1647862,18.8712828 L5.66851034,12.0660414 C5.35195862,11.4916966 5.24230345,11.0257655 5.36975172,10.7861793 C5.49306207,10.5561103 5.88078621,10.4319724 6.12368276,10.3901793 L11.1839586,17.4863172 C11.3453379,17.7130759 11.6002345,17.8334897 11.8584414,17.8334897 C12.0247862,17.8334897 12.1927862,17.7838345 12.3384414,17.6795586 C12.7104414,17.4139034 12.7969241,16.8970759 12.5316828,16.5254897 L7.09030345,8.89473103 C7.17595862,8.50990345 7.31416552,8.25128276 7.49457931,8.16231724 C7.64271724,8.08866207 7.78506207,8.06052414 7.9154069,8.06052414 C8.23444138,8.06052414 8.48313103,8.22728276 8.57209655,8.29597241 L16.0389931,17.6448 C16.2074069,17.8550069 16.4676828,17.9737655 16.7383034,17.9543172 L24.4377517,17.4648 C24.7538897,17.4445241 25.031131,17.2463172 25.151131,16.9525241 L28.4569241,8.87073103 C29.7922345,5.42176552 31.3402345,5.38204138 31.923269,5.36714483 C33.4216138,5.31790345 34.6588552,7.17831724 35.0056138,7.89169655 C35.0676828,8.02121379 35.1616138,8.13128276 35.279131,8.21362759 L37.7254759,9.91431724 L34.407269,9.91431724 C33.9500276,9.91431724 33.5796828,10.2846621 33.5796828,10.7419034 L33.5796828,21.6552828 C33.0016138,31.1203862 24.2283724,33.014731 23.8563724,33.0912828 C23.8398207,33.0945931 23.823269,33.0974897 23.807131,33.1020414 C15.1162345,35.4035586 10.9824414,27.3962483 10.811131,27.0561103 M5.91057931,30.4554207 C7.10271724,30.4554207 8.31761379,32.3956966 8.31761379,34.3012138 C8.31761379,36.0933517 7.23802759,37.550731 5.91057931,37.550731 C4.58354483,37.550731 3.50395862,36.0933517 3.50395862,34.3012138 C3.50395862,32.3956966 4.71844138,30.4554207 5.91057931,30.4554207 M41.679269,38.4825931 L38.1409241,38.4825931 C38.2195448,37.674869 38.5836828,37.0843862 39.2387172,36.3010759 C39.5320966,35.9501793 39.4849241,35.4279724 39.1344414,35.1350069 C38.7839586,34.8416276 38.2621655,34.8883862 37.9687862,35.2392828 C37.0969241,36.282869 36.5573379,37.1956966 36.479131,38.4825931 L35.6978897,38.4825931 C35.6395448,37.2155586 35.7897517,35.922869 36.1414759,34.7112828 C36.2685103,34.2718345 36.0160966,33.8133517 35.5770621,33.6854897 C35.1380276,33.558869 34.679131,33.810869 34.5516828,34.2503172 C34.1569241,35.6116966 33.9856138,37.0599724 34.0427172,38.4825931 L33.3003724,38.4825931 C33.0715448,37.4704552 32.5377517,36.5282483 31.7800966,35.8194207 C31.4465793,35.5074207 30.9223034,35.5252138 30.6103034,35.8579034 C30.2978897,36.1914207 30.315269,36.7156966 30.6487862,37.0272828 C31.0741655,37.4253517 31.3927862,37.9318345 31.5810621,38.4825931 L24.7840966,38.4825931 C24.7725103,38.4399724 24.7600966,38.3969379 24.7410621,38.3551448 L23.1802345,34.9368 C23.519131,34.8726621 23.8625793,34.7998345 24.2143034,34.706731 C24.8623034,34.5619034 34.6100276,32.2024552 35.2332,21.7301793 C35.2344414,21.7136276 35.2348552,21.6974897 35.2348552,21.6809379 L35.2348552,15.3888 C36.2920966,15.2530759 38.0238207,14.5914207 36.6529241,11.5694897 L40.3654759,11.5694897 C40.727131,11.5694897 41.0469931,11.3352828 41.1549931,10.9901793 C41.2634069,10.6450759 41.1347172,10.2689379 40.8376138,10.0624552 L36.5234069,7.06245517 C36.6144414,7.07817931 36.7063034,7.08893793 36.8010621,7.08438621 C37.3145793,7.06162759 37.7887862,6.67142069 37.9145793,6.1728 C38.0407862,5.6745931 37.8123724,5.10935172 37.3783034,4.83376552 C37.1167862,4.6670069 36.771269,4.57721379 36.6413379,4.29583448 C36.5705793,4.14231724 36.5834069,3.9648 36.5734759,3.79638621 C36.4932,2.44162759 34.7718207,1.29169655 33.4489241,1.28466207 C32.9941655,0.751696552 32.3052,0.411558621 31.535131,0.411558621 C30.1692,0.411558621 29.0577517,1.48204138 29.0577517,2.79831724 C29.0577517,3.39955862 29.2915448,3.94742069 29.6743034,4.36824828 C28.7685103,4.95707586 27.7605103,6.08590345 26.919269,8.25914483 L23.8154069,15.8456276 L17.063131,16.274731 L9.81554483,7.20024828 C9.79071724,7.1688 9.7629931,7.13942069 9.73361379,7.11211034 C9.23747586,6.64824828 8.05237241,6.03790345 6.75885517,6.67969655 C6.03223448,7.04011034 5.58078621,7.77252414 5.41278621,8.86162759 C4.91375172,9.01390345 4.27733793,9.33211034 3.91733793,9.99252414 C3.58671724,10.5999724 3.57637241,11.322869 3.88506207,12.1492138 C3.44064828,12.4723862 2.91844138,12.9871448 2.64988966,13.7385931 C2.32961379,14.6356966 2.45375172,15.6163862 3.02561379,16.6645241 L9.34382069,27.8199724 C9.56395862,28.2408 12.3698897,33.3879724 17.9018897,34.8060414 L19.5798207,38.4825931 L8.0229931,38.4825931 C9.18988966,37.6198345 9.97278621,36.0705931 9.97278621,34.3012138 C9.97278621,31.6984552 8.30437241,28.8002483 5.91057931,28.8002483 C3.51678621,28.8002483 1.84878621,31.6984552 1.84878621,34.3012138 C1.84878621,36.0705931 2.63168276,37.6198345 3.79857931,38.4825931 L0.827544828,38.4825931 C0.370303448,38.4825931 -4.13793103e-05,38.8537655 -4.13793103e-05,39.3101793 C-4.13793103e-05,39.7674207 0.370303448,40.1377655 0.827544828,40.1377655 L41.679269,40.1377655 C42.1360966,40.1377655 42.5068552,39.7674207 42.5068552,39.3101793 C42.5068552,38.8537655 42.1360966,38.4825931 41.679269,38.4825931" id="Fill-5" fill="#333333" mask="url(#mask-2)"></path>
                                        </g>
                                        <g id="Group-10" transform="translate(9.517241, 0.085241)">
                                            <mask id="mask-4" fill="white">
                                                <use xlink:href="#path-3"></use>
                                            </mask>
                                            <g id="Clip-9"></g>
                                            <path d="M7.53488276,5.29833103 C8.69598621,5.29833103 9.64067586,6.24302069 9.64067586,7.40453793 C9.64067586,8.56564138 8.69598621,9.51033103 7.53488276,9.51033103 C6.37377931,9.51033103 5.42950345,8.56564138 5.42950345,7.40453793 C5.42950345,6.24302069 6.37377931,5.29833103 7.53488276,5.29833103 M1.16412414,8.3546069 L3.90053793,8.3546069 C4.00729655,8.76177931 4.17736552,9.14371034 4.40536552,9.48550345 L2.24453793,11.6471586 C1.92136552,11.9699172 1.92136552,12.4941931 2.24453793,12.8169517 C2.40591724,12.9791586 2.61777931,13.0598483 2.82964138,13.0598483 C3.04150345,13.0598483 3.25336552,12.9791586 3.41474483,12.8169517 L5.60536552,10.626331 C5.9426069,10.8286759 6.31253793,10.9809517 6.70729655,11.070331 L6.70729655,13.8969517 C6.70729655,14.3546069 7.07805517,14.7245379 7.53488276,14.7245379 C7.99171034,14.7245379 8.36246897,14.3546069 8.36246897,13.8969517 L8.36246897,11.070331 C8.75846897,10.9805379 9.12964138,10.8278483 9.46729655,10.6242621 L11.5060552,12.6369517 C11.6674345,12.7962621 11.8776414,12.8757103 12.0874345,12.8757103 C12.3013655,12.8757103 12.5148828,12.7937793 12.6766759,12.630331 C12.9977793,12.3050897 12.9940552,11.7804 12.6692276,11.4601241 L10.666469,9.4826069 C10.8936414,9.14164138 11.0628828,8.76053793 11.1696414,8.3546069 L13.9056414,8.3546069 C14.362469,8.3546069 14.7332276,7.98343448 14.7332276,7.52702069 C14.7332276,7.06936552 14.362469,6.69943448 13.9056414,6.69943448 L11.2271586,6.69943448 C11.1431586,6.25833103 10.9805379,5.8461931 10.7570897,5.47502069 L12.8558483,3.37584828 C13.1794345,3.05226207 13.1794345,2.52922759 12.8558483,2.20522759 C12.5330897,1.88205517 12.0092276,1.88205517 11.6856414,2.20522759 L9.61667586,4.2741931 C9.24095172,4.02343448 8.81681379,3.84095172 8.36246897,3.73791724 L8.36246897,1.15584828 C8.36246897,0.699434483 7.99171034,0.328262069 7.53488276,0.328262069 C7.07805517,0.328262069 6.70729655,0.699434483 6.70729655,1.15584828 L6.70729655,3.73791724 C6.2546069,3.84095172 5.83212414,4.0226069 5.45722759,4.27253793 L3.50991724,2.30122759 C3.18881379,1.97557241 2.66453793,1.97308966 2.33971034,2.29336552 C2.01446897,2.61529655 2.01115862,3.13874483 2.33226207,3.46357241 L4.31515862,5.47088276 C4.09046897,5.84371034 3.92702069,6.25667586 3.84302069,6.69943448 L1.16412414,6.69943448 C0.707296552,6.69943448 0.336537931,7.06936552 0.336537931,7.52702069 C0.336537931,7.98343448 0.707296552,8.3546069 1.16412414,8.3546069" id="Fill-8" fill="#333333" mask="url(#mask-4)"></path>
                                        </g>
                                    </g>
                                </g>
                            </g>
                        </g>
                    </g>
                </g>
            </g>
        </g>
    </g>
</svg>