<?xml version="1.0" encoding="UTF-8"?>
<svg width="46px" height="49px" viewBox="0 0 46 49" version="1.1" xmlns="http://www.w3.org/2000/svg" xmlns:xlink="http://www.w3.org/1999/xlink">
    <title>0BBA0ACA-3FFB-4622-B153-FCE922058BEF@1x</title>
    <defs>
        <polygon id="path-1" points="0 0.268306542 40.5832822 0.268306542 40.5832822 47.5514019 0 47.5514019"></polygon>
        <polygon id="path-3" points="0.398854028 0.176837383 40.8986916 0.176837383 40.8986916 21.6364262 0.398854028 21.6364262"></polygon>
    </defs>
    <g id="Page-1" stroke="none" stroke-width="1" fill="none" fill-rule="evenodd">
        <g id="Mix-ins-Offer---Desktop---v2" transform="translate(-834.000000, -2478.000000)">
            <g id="Group-7" transform="translate(0.000000, 1808.000000)">
                <g id="Left">
                    <g id="Bitmap">
                        <g id="Group-5" transform="translate(97.000000, 326.000000)">
                            <g id="Group-9-Copy-3" transform="translate(720.000000, 328.000000)">
                                <g id="underweight">
                                    <g id="underweight-ic" transform="translate(17.000000, 16.000000)">
                                        <path d="M9.57788411,35.1551103 C9.60300561,35.1250542 9.69810841,35.0541757 9.76853832,35.0016897 C9.93362243,34.8760822 10.1031925,34.744643 10.2543701,34.6167925 C10.7321271,34.2247178 11.1085009,33.8308486 11.3902206,33.1839701 C11.424314,33.1063626 11.4566131,33.0278579 11.4889121,32.9502505 C11.629772,32.6079701 11.7109682,32.4244935 11.8747065,32.3136897 C11.9850617,32.2392224 12.1223327,32.2015402 12.2596037,32.2015402 C12.395529,32.2015402 12.5319028,32.2387738 12.6409121,32.3136897 C12.8059963,32.4253907 12.8876411,32.6102131 13.0289495,32.9547364 C13.0603514,33.0305495 13.0917533,33.1068112 13.1249495,33.1835215 C13.4075664,33.8321944 13.7843888,34.225615 14.2486879,34.6046804 C14.4097346,34.7428486 14.5810991,34.875185 14.7582953,35.0102131 C14.8197533,35.0555215 14.9121645,35.1246056 14.9386318,35.1564561 C15.0445009,35.2991103 14.9045383,35.802886 14.6165383,36.1222879 C14.6160897,36.1227364 14.6156411,36.123185 14.6156411,36.1236336 C14.3128374,36.4600822 14.258557,36.5219888 13.5623327,35.9697645 C13.3295103,35.7862879 12.8970617,35.4449047 12.2681271,35.4193346 C12.2555664,35.4193346 12.2228187,35.4197832 12.2102579,35.4202318 C11.6234916,35.4449047 11.1888,35.7849421 10.951043,35.9715589 C10.2584075,36.5219888 10.2036785,36.461428 9.89908037,36.1222879 C9.61152897,35.8033346 9.47201495,35.2991103 9.57788411,35.1551103 M8.13294953,34.0910355 C7.40801495,35.0743626 7.81489346,36.4905869 8.56494953,37.3222879 C10.0516037,38.9785121 11.568314,37.7726804 12.0622206,37.380157 C12.0981084,37.3514467 12.190071,37.279671 12.2582579,37.2379514 C12.3031178,37.2662131 12.3672673,37.3128673 12.4484636,37.3770168 C12.7858093,37.6443813 13.4645383,38.1822505 14.2805383,38.1822505 C14.7991178,38.1822505 15.3728748,37.9655776 15.9493234,37.3236336 C16.7011738,36.4901383 17.1080523,35.0730168 16.3876037,34.0977645 C16.2122019,33.8555215 16.000015,33.697615 15.8349308,33.5746991 C15.6949682,33.4679327 15.550071,33.3566804 15.3997907,33.2283813 C15.0453981,32.9385869 14.8978093,32.7604935 14.7704075,32.4684561 L14.6892112,32.2724187 C14.5012486,31.8157458 14.267529,31.2469234 13.6511551,30.8306243 C12.825286,30.2626991 11.7073794,30.2613533 10.8702953,30.8270355 C10.2503327,31.2455776 10.0170617,31.8117084 9.82999626,32.2670355 L9.74565981,32.4671103 C9.61780935,32.7604935 9.47066916,32.9385869 9.10551028,33.2382505 C8.96734206,33.354886 8.82154766,33.4670355 8.68921121,33.5684187 C8.51874393,33.6949234 8.30700561,33.8528299 8.13294953,34.0910355" id="Fill-1" fill="#333333"></path>
                                        <path d="M13.9440449,29.6987664 C14.5770168,29.9154393 15.0314467,29.3461682 15.2638206,28.8872523 C15.3862879,28.6445607 15.4782505,28.3906542 15.5145869,28.1354019 C15.5549607,27.8487477 15.5262505,27.5607477 15.396157,27.2794766 C15.1911477,26.8367103 14.7874093,26.4975701 14.2329421,26.5191028 C13.0944,26.5626168 12.8884935,27.7217944 13.0984374,28.5243364 C13.2132785,28.9648598 13.4344374,29.5233645 13.9440449,29.6987664" id="Fill-3" fill="#333333"></path>
                                        <path d="M16.7398879,33.1482617 C17.3728598,33.3635888 17.8272897,32.7956636 18.0596636,32.3367477 C18.183028,32.0927103 18.2740935,31.8401495 18.3104299,31.5835514 C18.3517009,31.298243 18.3234393,31.010243 18.192,30.7280748 C17.9874393,30.2862056 17.5837009,29.9461682 17.0296822,29.9677009 C15.8911402,30.011215 15.6856822,31.1703925 15.8942804,31.9738318 C16.0091215,32.4143551 16.2316262,32.9728598 16.7398879,33.1482617" id="Fill-5" fill="#333333"></path>
                                        <path d="M10.0047701,29.707514 C10.644471,29.906243 11.0805084,29.3262056 11.2980785,28.8596636 C11.4129196,28.6133832 11.4963589,28.3581308 11.5237234,28.1015327 C11.5551252,27.8153271 11.5165458,27.5273271 11.3774804,27.2496449 C11.1581159,26.8131589 10.7436112,26.484785 10.1909383,26.5206729 C9.05329346,26.5946916 8.88596636,27.7583551 9.12103178,28.5564112 C9.25022804,28.992 9.49067664,29.5469159 10.0047701,29.707514" id="Fill-7" fill="#333333"></path>
                                        <path d="M7.34911402,29.9694953 C6.21236636,30.0430654 6.04503925,31.2071776 6.28010467,32.004785 C6.40930093,32.4408224 6.64930093,32.9952897 7.16384299,33.1563364 C7.80354393,33.3550654 8.23958131,32.775028 8.45625421,32.308486 C8.57109533,32.061757 8.65408598,31.8069533 8.68279626,31.5499065 C8.71374953,31.2641495 8.67606729,30.9757009 8.53655327,30.6984673 C8.31718879,30.2615327 7.90268411,29.9336075 7.34911402,29.9694953" id="Fill-9" fill="#333333"></path>
                                        <path d="M25.401914,35.1551103 C25.4274841,35.1250542 25.5225869,35.0541757 25.5925682,35.0016897 C25.7572037,34.8760822 25.9272224,34.744643 26.0784,34.6167925 C26.5566056,34.2247178 26.9329794,33.8308486 27.2146991,33.1835215 C27.2487925,33.1063626 27.280643,33.0283065 27.3129421,32.9506991 C27.4538019,32.6084187 27.5349981,32.4244935 27.6987364,32.3136897 C27.8090916,32.2392224 27.9468112,32.2015402 28.0840822,32.2015402 C28.2200075,32.2015402 28.3559327,32.2387738 28.4653907,32.3136897 C28.6300262,32.4249421 28.711671,32.6097645 28.8529794,32.9542879 C28.8843813,33.0301009 28.9157832,33.1063626 28.949428,33.1835215 C29.2315963,33.8317458 29.6084187,34.225615 30.0731664,34.605129 C30.2346617,34.7432972 30.405129,34.8756336 30.5809794,35.0093159 C30.642886,35.0550729 30.736643,35.1246056 30.7631103,35.1564561 C30.869428,35.2991103 30.7290168,35.802886 30.4410168,36.1222879 C30.4405682,36.1227364 30.4401196,36.1227364 30.4401196,36.123185 C30.1373159,36.4609794 30.0830355,36.5219888 29.3863626,35.9697645 C29.1539888,35.7862879 28.7215402,35.4449047 28.092157,35.4193346 C28.0795963,35.4193346 28.0468486,35.4197832 28.0338393,35.4202318 C27.4479701,35.4449047 27.0132785,35.7849421 26.7755215,35.9715589 C26.0810916,36.522886 26.0272598,36.4605308 25.7231103,36.1222879 C25.4355589,35.8033346 25.2960449,35.2991103 25.401914,35.1551103 M23.9569794,34.0910355 C23.2324935,35.0743626 23.639372,36.4905869 24.389428,37.3227364 C25.8760822,38.977615 27.3923439,37.7722318 27.8862505,37.380157 C27.9225869,37.3514467 28.0141009,37.279671 28.0827364,37.2379514 C28.1275963,37.2657645 28.1917458,37.3128673 28.2729421,37.3770168 C28.6098393,37.6443813 29.2885682,38.1822505 30.1045682,38.1822505 C30.6231477,38.1822505 31.1973533,37.965129 31.7738019,37.3236336 C32.5256523,36.4901383 32.9325308,35.0730168 32.2116336,34.0977645 C32.0357832,33.8541757 31.8226991,33.695372 31.6585121,33.5746991 C31.5189981,33.4679327 31.3741009,33.3562318 31.2242692,33.2283813 C30.869428,32.9385869 30.7222879,32.7604935 30.594886,32.4684561 L30.5136897,32.2719701 C30.3257271,31.8152972 30.0915589,31.2469234 29.4756336,30.8306243 C28.6484187,30.2622505 27.5314093,30.2613533 26.6947738,30.8270355 C26.0743626,31.2455776 25.8410916,31.8126056 25.6540262,32.2674841 L25.5701383,32.4671103 C25.4418393,32.7604935 25.2951477,32.9385869 24.9304374,33.2378019 C24.7918206,33.354886 24.6460262,33.4670355 24.5132411,33.5684187 C24.3432224,33.6949234 24.1310355,33.8528299 23.9569794,34.0910355" id="Fill-11" fill="#333333"></path>
                                        <path d="M29.7678505,29.6987664 C30.4008224,29.9154393 30.8557009,29.3461682 31.0876262,28.8872523 C31.2105421,28.6445607 31.3025047,28.3906542 31.3388411,28.1354019 C31.3787664,27.8487477 31.3505047,27.5607477 31.2199626,27.2794766 C31.0154019,26.8367103 30.6116636,26.4975701 30.0576449,26.5191028 C28.9182056,26.5626168 28.7127477,27.7217944 28.922243,28.5243364 C29.0370841,28.9648598 29.258243,29.5233645 29.7678505,29.6987664" id="Fill-13" fill="#333333"></path>
                                        <path d="M32.5641421,33.1482617 C33.197114,33.3635888 33.6515439,32.7956636 33.8834692,32.3367477 C34.0072822,32.0927103 34.0983477,31.8401495 34.1346841,31.5835514 C34.1759551,31.298243 34.1472449,31.010243 34.0158056,30.7280748 C33.8112449,30.2862056 33.4075065,29.9461682 32.8539364,29.9677009 C31.7153944,30.011215 31.5094879,31.1703925 31.718086,31.9738318 C31.8329271,32.4143551 32.0554318,32.9728598 32.5641421,33.1482617" id="Fill-15" fill="#333333"></path>
                                        <path d="M25.8290243,29.707514 C26.4687252,29.906243 26.9047626,29.3262056 27.1223327,28.8596636 C27.2371738,28.6133832 27.3201645,28.3581308 27.347529,28.1015327 C27.3789308,27.8153271 27.3408,27.5273271 27.2021832,27.2496449 C26.9819215,26.8131589 26.5674168,26.484785 26.0151925,26.5206729 C24.8775477,26.5946916 24.709772,27.7583551 24.9448374,28.5564112 C25.0744822,28.992 25.3149308,29.5469159 25.8290243,29.707514" id="Fill-17" fill="#333333"></path>
                                        <path d="M23.1731439,29.9694953 C22.0363963,30.0430654 21.8690692,31.2071776 22.1041346,32.004785 C22.2333308,32.4408224 22.4733308,32.9952897 22.9878729,33.1563364 C23.6275738,33.3550654 24.0640598,32.775028 24.2802841,32.308486 C24.3951252,32.061757 24.4785645,31.8069533 24.5068262,31.5499065 C24.5377794,31.2641495 24.5000972,30.9757009 24.3605832,30.6984673 C24.1412187,30.2615327 23.726714,29.9336075 23.1731439,29.9694953" id="Fill-19" fill="#333333"></path>
                                        <g id="Group-23" transform="translate(0.000000, 0.180336)">
                                            <mask id="mask-2" fill="white">
                                                <use xlink:href="#path-1"></use>
                                            </mask>
                                            <g id="Clip-22"></g>
                                            <path d="M39.686086,28.1800822 C39.1908336,28.1800822 38.7888897,28.5820262 38.7888897,29.0772785 L38.7888897,39.9252785 C38.7888897,43.1408299 36.1726654,45.7570542 32.957114,45.7570542 L7.62612336,45.7570542 C4.41057196,45.7570542 1.79434766,43.1408299 1.79434766,39.9252785 L1.79434766,7.89447477 C1.79434766,4.67892336 4.41057196,2.06269907 7.62612336,2.06269907 L32.957114,2.06269907 C36.1726654,2.06269907 38.7888897,4.67892336 38.7888897,7.89447477 C38.7888897,8.3901757 39.1908336,8.79167103 39.686086,8.79167103 C40.1813383,8.79167103 40.5832822,8.3901757 40.5832822,7.89447477 C40.5832822,3.68931589 37.1622729,0.268306542 32.957114,0.268306542 L7.62612336,0.268306542 C3.42096449,0.268306542 -4.48598131e-05,3.68931589 -4.48598131e-05,7.89447477 L-4.48598131e-05,39.9252785 C-4.48598131e-05,44.1304374 3.42096449,47.5514467 7.62612336,47.5514467 L32.957114,47.5514467 C37.1622729,47.5514467 40.5832822,44.1304374 40.5832822,39.9252785 L40.5832822,29.0772785 C40.5832822,28.5820262 40.1813383,28.1800822 39.686086,28.1800822" id="Fill-21" fill="#333333" mask="url(#mask-2)"></path>
                                        </g>
                                        <g id="Group-26" transform="translate(4.934579, 5.114916)">
                                            <mask id="mask-4" fill="white">
                                                <use xlink:href="#path-3"></use>
                                            </mask>
                                            <g id="Clip-25"></g>
                                            <path d="M32.7472598,19.8420336 C29.2428112,19.8420336 26.3901757,16.9902953 26.3901757,13.4849495 C26.3901757,9.97960374 29.2428112,7.12786542 32.7472598,7.12786542 C36.252157,7.12786542 39.1043439,9.97960374 39.1043439,13.4849495 C39.1043439,16.9902953 36.252157,19.8420336 32.7472598,19.8420336 M24.3504,13.6760523 L18.777914,13.6760523 C18.7698393,11.585585 17.0732411,9.8930243 14.9805308,9.8930243 C14.0752598,9.8930243 13.2449047,10.2110804 12.5921944,10.739529 L8.70060561,7.74872523 C8.30763364,7.44681869 7.74419439,7.52128598 7.44228785,7.91380935 C7.14038131,8.30678131 7.2139514,8.87022056 7.60692336,9.1716785 L11.5034467,12.166071 C11.2997832,12.6285757 11.1849421,13.1386318 11.1826991,13.6760523 L2.25335327,13.6760523 C2.9190729,7.04128598 8.44894206,1.97122991 15.2245682,1.97122991 C19.7060636,1.97122991 23.8210542,4.23126729 26.2304748,8.01743551 C26.2977645,8.12375327 26.3843439,8.21033271 26.4825869,8.27717383 C25.3054654,9.69070654 24.5957832,11.5057346 24.5957832,13.4849495 C24.5957832,13.5634542 24.6061009,13.6397159 24.6074467,13.7182206 C24.5258019,13.6935477 24.4401196,13.6760523 24.3504,13.6760523 M32.7472598,5.3334729 C30.8626991,5.3334729 29.1302131,5.98214579 27.7476336,7.0605757 C27.7467364,7.05833271 27.7462879,7.05608972 27.7444935,7.05384673 C25.0026617,2.74775327 20.322886,0.176837383 15.2245682,0.176837383 C7.16191402,0.176837383 0.649614953,6.48816449 0.399297196,14.5454355 C0.391671028,14.7881271 0.482736449,15.0236411 0.651857944,15.1976972 C0.820979439,15.3722019 1.05335327,15.4704449 1.29604486,15.4704449 L24.3504,15.4704449 C24.5217645,15.4704449 24.6805682,15.4202019 24.8160449,15.3367626 C25.6580636,18.9408 28.8902131,21.6364262 32.7472598,21.6364262 C37.2426617,21.6364262 40.8987364,17.9794542 40.8987364,13.4849495 C40.8987364,8.98999626 37.2426617,5.3334729 32.7472598,5.3334729" id="Fill-24" fill="#333333" mask="url(#mask-4)"></path>
                                        </g>
                                        <path d="M41.3411439,15.4281869 C41.0163589,15.0545047 40.4497794,15.0132336 40.0756486,15.3380187 L37.681929,17.4123364 L35.2882093,15.3380187 C34.9140785,15.0132336 34.3470505,15.0540561 34.0231626,15.4281869 C33.6983776,15.8027664 33.7387514,16.3693458 34.1133308,16.6936822 L36.3119103,18.5993271 L34.1133308,20.5054206 C33.7387514,20.829757 33.6983776,21.3963364 34.0231626,21.7709159 C34.1999103,21.9754766 34.4497794,22.0804486 34.7009944,22.0804486 C34.9091439,22.0804486 35.1186393,22.0082243 35.2882093,21.8610841 L37.681929,19.7867664 L40.0756486,21.8610841 C40.2452187,22.0082243 40.4542654,22.0804486 40.662415,22.0804486 C40.9136299,22.0804486 41.1634991,21.9754766 41.3411439,21.7709159 C41.6654804,21.3963364 41.6251065,20.829757 41.2505271,20.5054206 L39.0514991,18.5993271 L41.2505271,16.6936822 C41.6251065,16.3693458 41.6654804,15.8027664 41.3411439,15.4281869" id="Fill-27" fill="#37464C"></path>
                                    </g>
                                </g>
                            </g>
                        </g>
                    </g>
                </g>
            </g>
        </g>
    </g>
</svg>