<?xml version="1.0" encoding="UTF-8"?>
<svg width="48px" height="36px" viewBox="0 0 48 36" version="1.1" xmlns="http://www.w3.org/2000/svg" xmlns:xlink="http://www.w3.org/1999/xlink">
    <!-- Generator: sketchtool 61 (101010) - https://sketch.com -->
    <title>E0AC5AD7-7F38-438F-953D-D65B6344E40A</title>
    <desc>Created with sketchtool.</desc>
    <defs>
        <polygon id="path-1" points="0 35.9191 48 35.9191 48 0.0001 0 0.0001"></polygon>
    </defs>
    <g id="Recommendations-Page" stroke="none" stroke-width="1" fill="none" fill-rule="evenodd">
        <g id="Recommendations---Step-1---Tab-3" transform="translate(-466.000000, -1758.000000)">
            <g id="Group-14" transform="translate(0.000000, 1251.000000)">
                <g id="Stepper-2-Copy" transform="translate(0.000000, 80.000000)">
                    <g id="Group-20-Copy" transform="translate(450.000000, 405.000000)">
                        <g id="img-placeholder">
                            <g id="dog-ic" transform="translate(16.000000, 22.000000)">
                                <path d="M19.9897,27.9215 C19.3937,27.9215 18.7097,27.9205 17.9977,27.9195 C15.1817,27.9135 13.0437,26.6635 12.2767,24.5755 L11.0607,21.2635 C10.8707,20.7455 11.1367,20.1705 11.6557,19.9805 C12.1747,19.7925 12.7487,20.0555 12.9387,20.5745 L14.1547,23.8865 C14.8257,25.7155 17.0687,25.9175 18.0017,25.9195 C19.2577,25.9215 20.4277,25.9215 21.1747,25.9205 C21.4387,25.9205 21.6887,25.8165 21.8777,25.6275 L22.9997,24.5045 L22.9997,21.9195 C22.9997,21.3665 23.4477,20.9195 23.9997,20.9195 C24.5517,20.9195 24.9997,21.3665 24.9997,21.9195 L24.9997,24.9195 C24.9997,25.1845 24.8947,25.4385 24.7067,25.6265 L23.2917,27.0415 C22.7257,27.6075 21.9747,27.9195 21.1767,27.9205 C20.8517,27.9215 20.4467,27.9215 19.9897,27.9215" id="Fill-1" fill="#505050"></path>
                                <path d="M4,35.9191 C1.237,35.9191 0,34.4121 0,32.9191 C0,31.6871 0.312,30.3741 0.588,29.2161 C0.8,28.3261 1,27.4851 1,26.9191 C1,26.3761 0.774,25.5761 0.555,24.8031 C0.282,23.8381 0,22.8401 0,21.9191 C0,20.2651 1.794,18.9191 4,18.9191 C5.015,18.9191 5.91,19.6541 6.945,20.5041 C8.323,21.6361 9.885,22.9191 12,22.9191 L13,22.9191 C13.552,22.9191 14,23.3671 14,23.9191 C14,24.4711 13.552,24.9191 13,24.9191 L12,24.9191 C9.169,24.9191 7.15,23.2611 5.676,22.0501 C5.095,21.5731 4.299,20.9191 4,20.9191 C2.84,20.9191 2,21.5161 2,21.9191 C2,22.5631 2.244,23.4251 2.479,24.2581 C2.735,25.1631 3,26.0991 3,26.9191 C3,27.7201 2.773,28.6721 2.534,29.6791 C2.271,30.7811 2,31.9211 2,32.9191 C2,33.6101 3.004,33.9191 4,33.9191 C4.444,33.9191 5.247,33.3171 5.956,32.7871 C7.124,31.9111 8.449,30.9191 10,30.9191 L24,30.9191 C24.552,30.9191 25,31.3671 25,31.9191 C25,32.4711 24.552,32.9191 24,32.9191 L10,32.9191 C9.115,32.9191 8.118,33.6661 7.154,34.3871 C6.103,35.1751 5.11,35.9191 4,35.9191" id="Fill-3" fill="#505050"></path>
                                <path d="M28.0103,27.9215 C27.5523,27.9215 27.1483,27.9215 26.8233,27.9205 C26.0253,27.9195 25.2743,27.6075 24.7083,27.0415 L23.2933,25.6265 C23.1053,25.4385 23.0003,25.1845 23.0003,24.9195 L23.0003,21.9195 C23.0003,21.3665 23.4483,20.9195 24.0003,20.9195 C24.5523,20.9195 25.0003,21.3665 25.0003,21.9195 L25.0003,24.5045 L26.1223,25.6275 C26.5433,26.0465 27.1813,25.9215 28.0093,25.9215 C28.6043,25.9215 29.2873,25.9205 29.9973,25.9195 C30.9313,25.9175 33.1743,25.7155 33.8453,23.8865 L35.0613,20.5745 C35.2513,20.0555 35.8253,19.7905 36.3443,19.9805 C36.8633,20.1705 37.1293,20.7455 36.9393,21.2635 L35.7233,24.5755 C34.9563,26.6635 32.8183,27.9135 30.0023,27.9195 C29.2903,27.9205 28.6063,27.9215 28.0103,27.9215" id="Fill-5" fill="#505050"></path>
                                <path d="M44,35.9191 C42.89,35.9191 41.897,35.1751 40.846,34.3871 C39.882,33.6661 38.885,32.9191 38,32.9191 L24,32.9191 C23.448,32.9191 23,32.4711 23,31.9191 C23,31.3671 23.448,30.9191 24,30.9191 L38,30.9191 C39.551,30.9191 40.876,31.9111 42.044,32.7871 C42.753,33.3171 43.556,33.9191 44,33.9191 C44.996,33.9191 46,33.6101 46,32.9191 C46,31.9211 45.729,30.7811 45.466,29.6791 C45.227,28.6721 45,27.7201 45,26.9191 C45,26.0991 45.265,25.1631 45.521,24.2581 C45.756,23.4251 46,22.5631 46,21.9191 C46,21.5161 45.16,20.9191 44,20.9191 C43.701,20.9191 42.905,21.5731 42.324,22.0501 C40.85,23.2611 38.831,24.9191 36,24.9191 L35,24.9191 C34.448,24.9191 34,24.4711 34,23.9191 C34,23.3671 34.448,22.9191 35,22.9191 L36,22.9191 C38.115,22.9191 39.677,21.6361 41.055,20.5041 C42.09,19.6541 42.985,18.9191 44,18.9191 C46.206,18.9191 48,20.2651 48,21.9191 C48,22.8401 47.718,23.8381 47.445,24.8031 C47.226,25.5761 47,26.3761 47,26.9191 C47,27.4851 47.2,28.3261 47.412,29.2161 C47.688,30.3741 48,31.6871 48,32.9191 C48,34.4121 46.763,35.9191 44,35.9191" id="Fill-7" fill="#505050"></path>
                                <path d="M21.0005,16.9191 C21.0085,16.9211 20.9655,17.0081 21.0255,17.0861 L24.0005,20.9101 L26.9745,17.0871 C27.0265,17.0201 27.0025,16.9471 26.9855,16.9191 L21.0005,16.9191 Z M24.0005,22.9191 C23.3835,22.9191 22.8085,22.6341 22.4215,22.1391 L19.4475,18.3151 C18.9395,17.6621 18.8495,16.7941 19.2125,16.0501 C19.5535,15.3531 20.2385,14.9191 21.0005,14.9191 L27.0005,14.9191 C27.7615,14.9191 28.4465,15.3531 28.7875,16.0501 C29.1515,16.7941 29.0615,17.6621 28.5525,18.3151 L25.5795,22.1381 C25.1925,22.6341 24.6165,22.9191 24.0005,22.9191 L24.0005,22.9191 Z" id="Fill-9" fill="#505050"></path>
                                <mask id="mask-2" fill="white">
                                    <use xlink:href="#path-1"></use>
                                </mask>
                                <g id="Clip-12"></g>
                                <polygon id="Fill-11" fill="#505050" mask="url(#mask-2)" points="16 13.9191 18 13.9191 18 11.9191 16 11.9191"></polygon>
                                <polygon id="Fill-13" fill="#505050" mask="url(#mask-2)" points="30 13.9191 32 13.9191 32 11.9191 30 11.9191"></polygon>
                                <path d="M7.9995,17.9191 C7.7675,17.9191 7.5355,17.8391 7.3465,17.6751 C3.0495,13.9611 1.9995,10.8681 1.9995,1.9191 C1.9995,1.5081 2.2515,1.1391 2.6335,0.9881 C8.3555,-1.2659 15.8795,0.4911 18.4225,4.6731 C18.7095,5.1451 18.5595,5.7601 18.0875,6.0471 C17.6145,6.3351 16.9995,6.1841 16.7135,5.7121 C14.7555,2.4911 8.7355,1.0781 4.0025,2.6211 C4.0615,10.8571 5.2015,13.1771 8.6535,16.1631 C9.0715,16.5241 9.1175,17.1551 8.7565,17.5731 C8.5585,17.8021 8.2795,17.9191 7.9995,17.9191" id="Fill-14" fill="#505050" mask="url(#mask-2)"></path>
                                <path d="M35.0752,8.91911438 C34.8422,8.91911438 34.6082,8.8381 34.4182,8.6731 C31.0192,5.7101 26.2702,4.9191 24.0002,4.9191 C21.7292,4.9191 16.9802,5.7101 13.5812,8.6731 C13.1642,9.0361 12.5332,8.9921 12.1702,8.5761 C11.8072,8.1601 11.8512,7.5281 12.2672,7.1651 C16.1122,3.8141 21.4512,2.9191 24.0002,2.9191 C26.5492,2.9191 31.8872,3.8141 35.7332,7.1651 C36.1492,7.5281 36.1922,8.1601 35.8292,8.5761 C35.6322,8.8031 35.3542,8.91911438 35.0752,8.91911438" id="Fill-15" fill="#505050" mask="url(#mask-2)"></path>
                                <path d="M40.0005,17.9191 C39.7205,17.9191 39.4415,17.8021 39.2435,17.5731 C38.8825,17.1551 38.9285,16.5241 39.3465,16.1631 C42.7985,13.1771 43.9385,10.8571 43.9975,2.6211 C39.2645,1.0761 33.2455,2.4911 31.2865,5.7121 C31.0005,6.1841 30.3855,6.3341 29.9125,6.0471 C29.4405,5.7601 29.2905,5.1451 29.5775,4.6731 C32.1195,0.4911 39.6455,-1.2639 45.3665,0.9881 C45.7485,1.1391 46.0005,1.5081 46.0005,1.9191 C46.0005,10.8681 44.9505,13.9611 40.6535,17.6751 C40.4645,17.8391 40.2315,17.9191 40.0005,17.9191" id="Fill-16" fill="#505050" mask="url(#mask-2)"></path>
                            </g>
                        </g>
                    </g>
                </g>
            </g>
        </g>
    </g>
</svg>