<?xml version="1.0" encoding="UTF-8"?>
<svg width="110px" height="110px" viewBox="0 0 110 110" version="1.1" xmlns="http://www.w3.org/2000/svg" xmlns:xlink="http://www.w3.org/1999/xlink">
    <!-- Generator: sketchtool 61 (101010) - https://sketch.com -->
    <title>2EE19713-5093-4D47-ABE3-B859EB0A9279</title>
    <desc>Created with sketchtool.</desc>
    <defs>
        <polygon id="path-1" points="0.265411043 0.104174941 52.9461497 0.104174941 52.9461497 76.9998872 0.265411043 76.9998872"></polygon>
        <polygon id="path-3" points="0.146861842 0.0820657895 20.8252303 0.0820657895 20.8252303 20.7605171 0.146861842 20.7605171"></polygon>
    </defs>
    <g id="Landing-Page" stroke="none" stroke-width="1" fill="none" fill-rule="evenodd">
        <g id="HB-LandingPage---Desktop" transform="translate(-1090.000000, -1882.000000)">
            <g id="Section-Copy" transform="translate(0.000000, 1638.000000)">
                <g id="Group-4" transform="translate(130.000000, 244.000000)">
                    <g id="step3-icon" transform="translate(960.000000, 0.000000)">
                        <g id="Group-3" transform="translate(57.000000, 33.000000)">
                            <mask id="mask-2" fill="white">
                                <use xlink:href="#path-1"></use>
                            </mask>
                            <g id="Clip-2"></g>
                            <path d="M16.8274433,72.4292462 C16.5638604,72.4292462 16.3150155,72.5443231 16.1438283,72.7442974 C16.0437802,72.8621949 15.8847802,73.1143487 15.9459995,73.4810154 C16.0137374,73.8911179 16.4572936,74.2115282 16.9547,74.2115282 L25.1419246,74.2115282 C25.7266251,74.2115282 26.275331,73.9841949 26.6871439,73.5715538 C27.0989567,73.1589128 27.3239941,72.6117333 27.3200262,72.0295795 L27.3010369,69.1064 C27.2837481,66.4726051 28.2119567,63.9107333 29.9144754,61.8929385 L35.062561,55.7941436 C35.1909513,55.6418359 35.310839,55.4531436 35.4395128,55.2012718 C35.6815556,54.7282718 36.1843471,54.4665282 36.7064112,54.4383231 C37.0011706,54.4402974 42.5480316,54.4312718 46.7449513,50.8334256 C44.9571225,51.5388359 42.7778872,52.1466564 40.2375717,52.4047333 C39.0897107,52.5203744 37.9520529,52.1494769 37.1032027,51.3868103 C36.2656893,50.6342974 35.7855717,49.5596821 35.7855717,48.4382462 L35.7855717,47.0415282 C35.7855717,44.142041 34.9160316,41.3440923 33.2716144,38.9503231 C32.3541759,37.6159385 31.8692401,36.0906051 31.8692401,34.5376308 L31.8692401,28.6904256 C31.8692401,28.2648103 31.9052348,27.8338359 31.9780743,27.4099128 L33.2101118,20.1626051 C33.3064754,19.5959641 33.3549406,19.0169128 33.3549406,18.4432205 C33.3549406,16.6349897 32.874823,14.8518615 31.9656037,13.286759 C31.0121706,11.6440923 30.5873203,9.78086154 30.7355503,7.89252821 L30.6131118,3.59124615 L27.0485075,7.1109641 C26.7863417,7.36960513 26.4312134,7.51514359 26.0619139,7.51514359 L17.9138016,7.51514359 C17.3435556,7.51514359 16.7985342,7.75686154 16.4161973,8.17852821 C16.0298925,8.60498974 15.8504861,9.15950256 15.9105717,9.73855385 C15.9723578,10.3263487 16.3708497,10.9124513 16.9793578,11.3064769 L21.0699941,13.9574769 C21.4667856,14.2147077 21.7062775,14.6547077 21.7062775,15.1262974 L21.7054273,17.0481949 C21.7048604,18.5732462 21.1499193,20.0469641 20.1446198,21.1968872 C18.9369567,22.5789385 17.1899406,23.3726308 15.3496786,23.3731949 L12.4250422,23.374041 C11.0830369,23.374041 9.99129358,22.2861692 9.99129358,20.9484 L9.99129358,17.3525282 C9.99129358,16.0522718 9.29407433,14.8309897 8.17285508,14.1636564 L4.12841658,11.7605795 C3.91301551,11.6328103 3.66870535,11.5986821 3.46010642,11.6720154 C3.29798877,11.7272974 3.18291925,11.8367333 3.11943262,11.9989128 C2.99274278,12.3170667 3.12708503,12.6067333 3.31584439,12.7525538 L6.50633102,15.2224769 C7.4121492,15.9236564 7.93137914,16.9802205 7.93137914,18.1214 L7.93137914,26.7084513 C7.93137914,28.3717077 9.29067326,29.7252718 10.9617321,29.7252718 L13.6840048,29.7252718 C15.2034326,29.7252718 16.439438,30.9552974 16.439438,32.4665282 L16.439438,35.5445538 C16.439438,38.124759 17.1125663,40.677041 18.3857,42.9249897 L20.1945021,46.1197846 C21.348315,48.1564769 21.3820422,50.6075026 20.2840636,52.6763487 C18.3366679,56.3418872 18.774839,60.6313231 21.3381118,63.7200667 L23.3152668,66.1025538 C23.8886305,66.7916051 24.2046465,67.6662462 24.2046465,68.5640154 C24.2046465,70.6954769 22.4621652,72.4292462 20.3200583,72.4292462 L16.8274433,72.4292462 Z M25.1419246,76.9998872 L16.9547,76.9998872 C15.094315,76.9998872 13.4717214,75.6832718 13.1817802,73.9373744 C13.001807,72.8588103 13.3028016,71.7667077 14.0065396,70.9411436 C14.7114112,70.1147333 15.7388176,69.6406051 16.8274433,69.6406051 L20.3200583,69.6406051 C20.9166626,69.6406051 21.4024487,69.1571692 21.4024487,68.5640154 C21.4024487,68.3138359 21.3148711,68.0709897 21.1555877,67.879759 L19.1778658,65.4955795 C15.8915824,61.5352974 15.3284219,56.0381179 17.7437481,51.489759 C18.456839,50.148041 18.4369995,48.695759 17.7536679,47.4885795 L15.9448658,44.2937846 C14.4350743,41.6292462 13.6375235,38.6031179 13.6375235,35.5445538 L13.6375235,32.4665282 L10.9617321,32.5133487 C7.74602086,32.5133487 5.12918128,29.9097333 5.12918128,26.7084513 L5.12918128,18.1214 C5.12918128,17.8509128 5.00135775,17.5900154 4.78652353,17.4233231 L1.5960369,14.9542462 C0.379020856,14.012759 -0.0565994652,12.4143744 0.512512834,10.9764769 C0.875577005,10.0586821 1.62041123,9.34988718 2.55570535,9.03286154 C3.54655027,8.69637436 4.64367861,8.81878462 5.56508503,9.36709231 L9.60952353,11.7701692 C11.5733578,12.9370154 12.793208,15.0758103 12.793208,17.3525282 L12.793208,20.5854 L15.3482615,20.5848359 C16.377085,20.5842718 17.3546091,20.1403231 18.0300048,19.3669385 C18.5928818,18.7235795 18.9026626,17.8999897 18.9035128,17.0467846 L18.9043631,15.8813487 L15.4497267,13.6429897 C14.1210422,12.7816051 13.2733257,11.4638615 13.1236786,10.0259641 C12.9822508,8.67098974 13.423823,7.31714359 14.3353096,6.31163077 C15.2476465,5.30386154 16.5516733,4.72650256 17.9138016,4.72650256 L25.4845824,4.72650256 L29.5015289,0.76114359 C30.1460316,0.125964103 31.1068337,-0.0692153846 31.9491652,0.26614359 C32.7920636,0.601220513 33.3535235,1.4019641 33.3795984,2.30424615 L33.538315,7.89027179 C33.5397321,7.94414359 33.538315,7.99745128 33.5334968,8.05047692 C33.4164433,9.39501538 33.7126198,10.7223487 34.3905663,11.890041 C35.5460797,13.8799128 36.1571385,16.1456308 36.1571385,18.4432205 C36.1571385,19.1723231 36.0947856,19.9067846 35.9723471,20.6279897 L34.7403096,27.8747333 C34.6943952,28.1435282 34.6711545,28.4165538 34.6711545,28.6904256 L34.6711545,34.5376308 C34.6711545,35.5253744 34.9871706,36.5071949 35.5846251,37.3759128 C37.5490262,40.2356308 38.5874861,43.5776564 38.5874861,47.0415282 L38.5874861,48.4382462 C38.5874861,48.7769897 38.7272134,49.0892205 38.9817267,49.3174 C39.2478604,49.5560154 39.5939193,49.6626308 39.9530155,49.6313231 C46.7160422,48.9434 50.5532989,45.4575282 50.5907107,45.4219897 C51.0730957,44.9766308 51.8000743,44.9255795 52.3382936,45.2939385 C52.8796305,45.6642718 53.0896465,46.3578359 52.8447695,46.9639641 C49.2767642,55.7859641 40.3033257,57.0289641 37.5033952,57.2004513 C37.4081652,57.3375282 37.3103845,57.4661436 37.2077856,57.5874256 L32.0599834,63.6859385 C30.7848658,65.1971692 30.0896305,67.1156821 30.1026679,69.0886308 L30.1219406,72.0120923 C30.1307267,73.3414 29.6171652,74.5934256 28.675069,75.5371692 C27.7332561,76.4806308 26.4785449,76.9998872 25.1419246,76.9998872 L25.1419246,76.9998872 Z" id="Fill-1" fill="#000000" mask="url(#mask-2)"></path>
                        </g>
                        <path d="M90.7577736,56 C82.4887459,56 76.5976591,49.5327337 76.3423806,49.247757 C75.8343905,48.6802792 75.8991372,47.8228733 76.4869908,47.3324162 C77.0751298,46.8389334 77.9641836,46.9035758 78.4750259,47.4685779 C78.5309304,47.5310197 84.1755808,53.6703978 91.5056399,53.2594371 C92.2868777,53.1991959 92.9506019,53.7851036 92.9973792,54.5349555 C93.0444417,55.2842573 92.4520244,55.9282057 91.6750649,55.9735929 C91.3664489,55.9917478 91.0606851,56 90.7577736,56" id="Fill-4" fill="#000000"></path>
                        <path d="M90.6012177,63 C77.6173188,62.8411559 75.1500185,54.2086713 75.0515076,53.8407755 C74.8445782,53.0691633 75.2796678,52.2690708 76.0244437,52.0535596 C76.7604443,51.8395165 77.5346603,52.2861003 77.7449866,53.052721 C77.8338728,53.3618944 79.867782,59.9661078 90.616787,60.0970587 C91.3898706,60.1064543 92.0089603,60.7641451 92,61.5654121 C91.9911265,62.361394 91.3658091,63 90.6012177,63" id="Fill-6" fill="#000000"></path>
                        <path d="M12.2186478,66 C8.78943812,66 6,63.23403 6,59.8349877 L6,29.5826123 C6,27.0562212 8.07429929,25 10.6231856,25 L17.5991892,25 C18.3729785,25 19,25.6215568 19,26.3883214 C19,27.1550861 18.3729785,27.7769238 17.5991892,27.7769238 L10.6231856,27.7769238 C9.61847783,27.7769238 8.80133822,28.5869418 8.80133822,29.5826123 L8.80133822,59.8349877 C8.80133822,61.7033094 10.3344667,63.2233571 12.2186478,63.2233571 C14.1033957,63.2233571 15.6365241,61.7033094 15.6365241,59.8349877 L15.6365241,41.7575988 C15.6365241,40.9908342 16.263829,40.3689965 17.0370516,40.3689965 C17.8108409,40.3689965 18.4378623,40.9908342 18.4378623,41.7575988 L18.4378623,59.8349877 C18.4378623,63.23403 15.6475742,66 12.2186478,66" id="Fill-8" fill="#000000"></path>
                        <path d="M27.5610715,110 L16.4395108,110 C15.6446353,110 15,109.374109 15,108.601365 L15,55.3989177 C15,54.6264571 15.6446353,54 16.4395108,54 C17.2343864,54 17.8787305,54.6264571 17.8787305,55.3989177 L17.8787305,107.20273 L26.1218518,107.20273 L26.1218518,62.7565344 C26.1218518,61.9843568 26.766196,61.3578997 27.5610715,61.3578997 C28.3556558,61.3578997 29,61.9843568 29,62.7565344 L29,108.601365 C29,109.374109 28.3556558,110 27.5610715,110" id="Fill-10" fill="#000000"></path>
                        <g id="Group-14" transform="translate(17.000000, 0.000000)">
                            <mask id="mask-4" fill="white">
                                <use xlink:href="#path-3"></use>
                            </mask>
                            <g id="Clip-13"></g>
                            <path d="M10.4857697,2.81380658 C6.29129605,2.81380658 2.87879605,6.22658289 2.87879605,10.4216092 C2.87879605,14.6158066 6.29129605,18.0285829 10.4857697,18.0285829 C14.6807961,18.0285829 18.0932961,14.6158066 18.0932961,10.4216092 C18.0932961,6.22658289 14.6807961,2.81380658 10.4857697,2.81380658 M10.4857697,20.7605171 C4.78454605,20.7605171 0.146861842,16.1225566 0.146861842,10.4216092 C0.146861842,4.72038553 4.78454605,0.0818723684 10.4857697,0.0818723684 C16.1867171,0.0818723684 20.8252303,4.72038553 20.8252303,10.4216092 C20.8252303,16.1225566 16.1867171,20.7605171 10.4857697,20.7605171" id="Fill-12" fill="#000000" mask="url(#mask-4)"></path>
                        </g>
                        <path d="M62.5842594,28 C62.5819681,28 37.4134493,27.9589984 37.4134493,27.9589984 C36.6318289,27.9572027 35.9985704,27.2939944 36,26.4772546 C36.0011481,25.6611133 36.6344066,25 37.4157406,25 C37.4177455,25 62.5862643,25.0410016 62.5862643,25.0410016 C63.3681711,25.0427973 64.0014296,25.7057063 64,26.5224461 C63.9985655,27.339186 63.365307,28 62.5842594,28" id="Fill-15" fill="#000000"></path>
                        <path d="M37.9937015,110 L27.374426,110 C26.6152113,110 26,109.380936 26,108.616621 L26,63.4050648 C26,62.6410299 26.6152113,62.021406 27.374426,62.021406 C28.1330847,62.021406 28.748296,62.6410299 28.748296,63.4050648 L28.748296,107.233242 L36.6195535,107.233242 L36.6195535,37.3836588 C36.6195535,37.0161944 36.7643909,36.6641227 37.0226518,36.4046866 C37.2803567,36.1452506 37.6292451,36 37.9937015,36 C37.9948135,36 53.6269632,36.0162322 53.6269632,36.0162322 C54.3861778,36.0170718 55.0008331,36.6372555 55,37.4012904 C54.9994432,38.1644857 54.3839538,38.78327 53.6258512,38.78327 C53.6244612,38.78327 39.3678495,38.7684371 39.3678495,38.7684371 L39.3678495,108.616621 C39.3678495,109.380936 38.7523602,110 37.9937015,110" id="Fill-17" fill="#000000"></path>
                        <path d="M100.603502,110 L1.39649786,110 C0.62521743,110 0,109.328748 0,108.5 C0,107.671556 0.62521743,107 1.39649786,107 L100.603502,107 C101.374783,107 102,107.671556 102,108.5 C102,109.328748 101.374783,110 100.603502,110" id="Fill-19" fill="#000000"></path>
                        <path d="M59.1772953,36.4379918 C59.5414769,36.4379918 59.8947247,36.5812616 60.1571373,36.8439696 C60.4840317,37.1700416 60.6258916,37.6382619 60.5367385,38.0916224 C60.4750604,38.4045169 60.572624,38.726103 60.7971887,38.9504001 C61.1695006,39.3216119 61.7731058,39.3216119 62.1451374,38.9504001 C62.5126833,38.5825528 62.5174493,37.9982588 62.1560713,37.6205985 C61.6337692,37.0766779 61.6430209,36.2150966 62.1765372,35.6818301 L67.6832777,30.1753355 C68.2151119,29.6409476 69.076644,29.6322561 69.6219352,30.154588 C69.9987328,30.5145849 70.5829935,30.5112204 70.9516608,30.1436535 C71.322571,29.771881 71.322571,29.1676806 70.9516608,28.7961885 C70.7262551,28.571611 70.4021643,28.4729202 70.0918108,28.5357234 C69.6409994,28.6223582 69.1714041,28.4824529 68.8450704,28.1552594 C68.5190171,27.8291875 68.3760359,27.3615279 68.4649085,26.9090085 C68.5263064,26.5949925 68.4295837,26.2734065 68.2050191,26.0485486 C67.8329875,25.678178 67.2277002,25.6773368 66.8570704,26.0493897 C66.4889638,26.4169566 66.4839174,27.0006899 66.8461365,27.3783502 C67.3670368,27.9231119 67.3583458,28.7841325 66.8251099,29.317399 L61.3189301,34.8247347 C60.7865352,35.3577208 59.9250031,35.3672534 59.3802726,34.8457626 C59.0015124,34.4835227 58.4180929,34.4868871 58.050547,34.8564167 C57.8705588,35.0361347 57.7718737,35.2755719 57.7718737,35.5295884 C57.7718737,35.7841657 57.8705588,36.0236029 58.050547,36.2038817 C58.2745509,36.4278985 58.5952775,36.5265892 58.9089952,36.4643467 C58.9987089,36.4466833 59.0881423,36.4379918 59.1772953,36.4379918 M61.471163,42 C60.5171137,42 59.563625,41.6366386 58.8375045,40.9104767 C58.3449201,40.4178641 58.008774,39.8074955 57.8500929,39.1508657 C57.1937809,38.9924558 56.5837276,38.6562905 56.0908628,38.1633975 C55.3871708,37.4599456 55,36.5243462 55,35.5295884 C55,34.5348307 55.3871708,33.5995116 56.0908628,32.8960597 C57.1707918,31.8157886 58.784237,31.5432676 60.1335875,32.0899919 L64.0913645,28.1317082 C63.5446715,26.7831217 63.8157751,25.1704253 64.8973862,24.0887524 C66.3501878,22.6361481 68.713023,22.6381107 70.1647032,24.088472 C70.6572877,24.5816453 70.9937141,25.1920139 71.1518346,25.8489242 C71.8084269,26.0076144 72.4187606,26.3440601 72.911345,26.8363923 C74.3627448,28.2881555 74.3627448,30.650565 72.912186,32.1034497 C71.8294535,33.185403 70.2182511,33.4576437 68.8689006,32.9095175 L64.9108433,36.8678012 C65.4569756,38.2155466 65.1861523,39.828243 64.1056626,40.9104767 C63.3789815,41.6366386 62.4246517,42 61.471163,42" id="Fill-21" fill="#000000"></path>
                    </g>
                </g>
            </g>
        </g>
    </g>
</svg>