<?xml version="1.0" encoding="UTF-8"?>
<svg width="130px" height="164px" viewBox="0 0 130 164" version="1.1" xmlns="http://www.w3.org/2000/svg" xmlns:xlink="http://www.w3.org/1999/xlink">
    <title>F27901A9-3436-407D-AE07-E8203FF6BCB9@1x</title>
    <g id="Version-B" stroke="none" stroke-width="1" fill="none" fill-rule="evenodd" opacity="0.100000001">
        <g id="Recommendations-v4---B" transform="translate(-1220.000000, -594.000000)" fill="#EF8F7A">
            <g id="Group-4" transform="translate(0.000000, 299.000000)">
                <g id="Card-Copy-3" transform="translate(1050.000000, 94.000000)">
                    <g id="Group-8">
                        <g id="Rectangle-2">
                            <path d="M252,201 C206.712651,201 170,237.712651 170,283 C170,328.287349 206.712651,365 252,365 C297.287349,365 334,328.287349 334,283 C334,261.252248 325.360739,240.395227 309.982756,225.017244 C294.604773,209.639261 273.747752,201 252,201 Z M252,353 C213.340068,353 182,321.659932 182,283 C182,244.340068 213.340068,213 252,213 C290.659932,213 322,244.340068 322,283 C322,301.565154 314.625021,319.369928 301.497475,332.497475 C288.369928,345.625021 270.565154,353 252,353 Z M223.999772,253.000456 C216.267911,253.000456 210,259.268367 210,267.000228 C210,274.732089 216.267911,281 223.999772,281 C231.731633,281 237.999544,274.732089 237.999544,267.000228 C238.029684,263.2781 236.564393,259.699664 233.932365,257.067635 C231.300336,254.435607 227.7219,252.970316 223.999772,253.000456 L223.999772,253.000456 Z M279.999772,253.000456 C272.267911,253.000456 266,259.268367 266,267.000228 C266,274.732089 272.267911,281 279.999772,281 C287.731633,281 293.999544,274.732089 293.999544,267.000228 C294.029684,263.2781 292.564393,259.699664 289.932365,257.067635 C287.300336,254.435607 283.7219,252.970316 279.999772,253.000456 L279.999772,253.000456 Z M212,307 C220.543521,321.869228 236.141923,331 253,331 C269.858077,331 285.456479,321.869228 294,307 L212,307 Z" id="icon-color"></path>
                        </g>
                    </g>
                </g>
            </g>
        </g>
    </g>
</svg>