<?xml version="1.0" encoding="UTF-8"?>
<svg width="82px" height="82px" viewBox="0 0 82 82" version="1.1" xmlns="http://www.w3.org/2000/svg" xmlns:xlink="http://www.w3.org/1999/xlink">
    <title>7FF6F90B-323F-4E8D-AEAF-0BBD290A3829@1x</title>
    <defs>
        <path d="M139,259 C116.356325,259 98,277.356325 98,300 C98,322.643675 116.356325,341 139,341 C161.643675,341 180,322.643675 180,300 C180,289.126124 175.68037,278.697613 167.991378,271.008622 C160.302387,263.31963 149.873876,259 139,259 Z M139,335 C119.670034,335 104,319.329966 104,300 C104,280.670034 119.670034,265 139,265 C158.329966,265 174,280.670034 174,300 C174,309.282577 170.312511,318.184964 163.748737,324.748737 C157.184964,331.312511 148.282577,335 139,335 Z M124.999886,285.000228 C121.133956,285.000228 118,288.134184 118,292.000114 C118,295.866044 121.133956,299 124.999886,299 C128.865816,299 131.999772,295.866044 131.999772,292.000114 C132.014842,290.13905 131.282197,288.349832 129.966182,287.033818 C128.650168,285.717803 126.86095,284.985158 124.999886,285.000228 L124.999886,285.000228 Z M152.999886,285.000228 C149.133956,285.000228 146,288.134184 146,292.000114 C146,295.866044 149.133956,299 152.999886,299 C156.865816,299 159.999772,295.866044 159.999772,292.000114 C160.014842,290.13905 159.282197,288.349832 157.966182,287.033818 C156.650168,285.717803 154.86095,284.985158 152.999886,285.000228 L152.999886,285.000228 Z M119,312 C123.271761,319.434614 131.070961,324 139.5,324 C147.929039,324 155.728239,319.434614 160,312 L119,312 Z" id="path-1"></path>
    </defs>
    <g id="HungryBark---Product-Page" stroke="none" stroke-width="1" fill="none" fill-rule="evenodd">
        <g id="Product-Page---Desktop" transform="translate(-1268.000000, -1017.000000)">
            <g id="Product-info" transform="translate(90.000000, 200.000000)">
                <g id="30dayGuarantee" transform="translate(1080.000000, 558.000000)">
                    <g id="Group-14">
                        <mask id="mask-2" fill="white">
                            <use xlink:href="#path-1"></use>
                        </mask>
                        <use id="icon-color" fill="#FFFFFF" opacity="0.200000003" xlink:href="#path-1"></use>
                    </g>
                </g>
            </g>
        </g>
    </g>
</svg>