<?xml version="1.0" encoding="UTF-8"?>
<svg width="42px" height="42px" viewBox="0 0 42 42" version="1.1" xmlns="http://www.w3.org/2000/svg" xmlns:xlink="http://www.w3.org/1999/xlink">
    <!-- Generator: sketchtool 61 (101010) - https://sketch.com -->
    <title>EA892A06-7035-48B9-903A-D35BB20EAE4F</title>
    <desc>Created with sketchtool.</desc>
    <defs>
        <path d="M21,0 C9.40202025,0 0,9.40202025 0,21 C0,32.5979797 9.40202025,42 21,42 C32.5979797,42 42,32.5979797 42,21 C42,15.4304537 39.7875064,10.0890215 35.8492424,6.1507576 C31.9109785,2.21249365 26.5695463,0 21,0 Z M21,39 C11.0588745,39 3,30.9411255 3,21 C3,11.0588745 11.0588745,3 21,3 C30.9411255,3 39,11.0588745 39,21 C39,25.7738968 37.1035769,30.3522672 33.7279221,33.7279221 C30.3522672,37.1035769 25.7738968,39 21,39 Z M14.25,13.5 C12.1789322,13.5 10.5,15.1789322 10.5,17.25 C10.5,19.3210678 12.1789322,21 14.25,21 C16.3210678,21 18,19.3210678 18,17.25 C18.0080734,16.2529851 17.6155783,15.2944599 16.9105592,14.5894408 C16.2055401,13.8844217 15.2470149,13.4919266 14.25,13.5 L14.25,13.5 Z M27.75,13.5 C25.6789322,13.5 24,15.1789322 24,17.25 C24,19.3210678 25.6789322,21 27.75,21 C29.8210678,21 31.5,19.3210678 31.5,17.25 C31.5080734,16.2529851 31.1155783,15.2944599 30.4105592,14.5894408 C29.7055401,13.8844217 28.7470149,13.4919266 27.75,13.5 L27.75,13.5 Z M10.5,27 C12.687975,30.7218211 16.6826876,33.0072858 21,33.0072858 C25.3173124,33.0072858 29.312025,30.7218211 31.5,27 L10.5,27 Z" id="path-1"></path>
    </defs>
    <g id="Express-Checkout" stroke="none" stroke-width="1" fill="none" fill-rule="evenodd">
        <g id="Express-Checkout---Main-v3" transform="translate(-965.000000, -1032.000000)">
            <g id="Section" transform="translate(90.000000, 152.000000)">
                <g id="content" transform="translate(38.000000, 270.000000)">
                    <g id="Main-CTA" transform="translate(602.000000, 256.000000)">
                        <g id="icon/user/face/activated/32" transform="translate(235.000000, 354.000000)">
                            <mask id="mask-2" fill="white">
                                <use xlink:href="#path-1"></use>
                            </mask>
                            <use id="icon-color" fill="#EF8F7A" xlink:href="#path-1"></use>
                        </g>
                    </g>
                </g>
            </g>
        </g>
    </g>
</svg>