<?xml version="1.0" encoding="UTF-8"?>
<svg width="36px" height="49px" viewBox="0 0 36 49" version="1.1" xmlns="http://www.w3.org/2000/svg" xmlns:xlink="http://www.w3.org/1999/xlink">
    <title>0C0D0D8C-79F2-4009-B992-192B171CD97A@1x</title>
    <defs>
        <polygon id="path-1" points="0 0.298526316 35.4488421 0.298526316 35.4488421 47.5787789 0 47.5787789"></polygon>
    </defs>
    <g id="Page-1" stroke="none" stroke-width="1" fill="none" fill-rule="evenodd">
        <g id="Mix-ins-Offer---Desktop---v2" transform="translate(-748.000000, -4733.000000)">
            <g id="Group-7" transform="translate(0.000000, 4213.000000)">
                <g id="Left">
                    <g id="Bitmap">
                        <g id="Group-5" transform="translate(726.000000, 244.000000)">
                            <g id="ff" transform="translate(0.000000, 260.000000)">
                                <g id="hbguarantee">
                                    <g id="hbguarantee-ic" transform="translate(22.000000, 16.000000)">
                                        <path d="M20.3688,19.0792421 C20.1704842,19.2725053 20.0795368,19.5512421 20.1266947,19.8249263 L20.5532211,22.3120842 L18.3195368,21.1377684 C18.0740632,21.0080842 17.7810105,21.0080842 17.5355368,21.1377684 L15.3022737,22.3120842 L15.7283789,19.8249263 C15.7755368,19.5512421 15.6845895,19.2725053 15.4862737,19.0792421 L13.6795368,17.3171368 L16.1768,16.9546105 C16.4509053,16.9146105 16.6879579,16.7424 16.8109053,16.4935579 L17.9275368,14.2308211 L19.0441684,16.4935579 C19.1671158,16.7424 19.4041684,16.9146105 19.6782737,16.9546105 L22.1759579,17.3171368 L20.3688,19.0792421 Z M24.1064842,15.8956632 L20.3586947,15.3512421 L18.6829053,11.9554526 C18.5410105,11.6678737 18.2479579,11.4864 17.9275368,11.4864 C17.6071158,11.4864 17.3144842,11.6678737 17.1725895,11.9554526 L15.4963789,15.3512421 L11.7485895,15.8956632 C11.4315368,15.9424 11.1679579,16.1642947 11.0690105,16.4695579 C10.9700632,16.7735579 11.0525895,17.1082947 11.2820632,17.3327158 L13.9936421,19.9765053 L13.3536421,23.7087158 C13.2993263,24.0245053 13.4294316,24.3445053 13.6888,24.5322947 C13.9477474,24.7205053 14.2921684,24.7453474 14.5755368,24.5967158 L17.9275368,22.8341895 L21.2799579,24.5967158 C21.4029053,24.6615579 21.5376421,24.6931368 21.6715368,24.6931368 C21.8462737,24.6931368 22.0197474,24.6388211 22.1666947,24.5322947 C22.4260632,24.3445053 22.5557474,24.0245053 22.5014316,23.7087158 L21.8614316,19.9765053 L24.5730105,17.3327158 C24.8029053,17.1082947 24.8854316,16.7735579 24.7860632,16.4695579 C24.6871158,16.1642947 24.4235368,15.9424 24.1064842,15.8956632 L24.1064842,15.8956632 Z" id="Fill-1" fill="#333333"></path>
                                        <g id="Group-5" transform="translate(0.000000, 0.122526)">
                                            <mask id="mask-2" fill="white">
                                                <use xlink:href="#path-1"></use>
                                            </mask>
                                            <g id="Clip-4"></g>
                                            <path d="M31.2053474,20.9139368 L32.7893474,23.7939368 L29.7017684,24.9202526 C28.9287158,25.2023579 28.3577684,26.0352 28.3737684,26.8579368 L28.4381895,30.1442526 L25.1809263,29.7067789 C24.3674526,29.5973053 23.4722947,30.0688842 23.1042947,30.8053053 L21.6339789,33.7455158 L18.9531368,31.8436211 C18.2815579,31.3678316 17.2714526,31.3712 16.6036632,31.8524632 L13.9358737,33.7712 L12.4457684,30.8423579 C12.1106105,30.1838316 11.3539789,29.7404632 10.6129263,29.7404632 C10.5287158,29.7404632 10.4445053,29.7467789 10.3615579,29.7577263 L7.10724211,30.2183579 L7.14892632,26.9312 C7.15945263,26.1080421 6.58261053,25.2785684 5.80787368,25.0023579 L2.71271579,23.8970947 L4.27650526,21.0069895 C4.66808421,20.2832 4.54303158,19.2806737 3.98555789,18.6756211 L1.75818947,16.2579368 L4.48618947,14.4263579 C5.16997895,13.9669895 5.52492632,13.0217263 5.31187368,12.2259368 L4.46345263,9.05077895 L7.73124211,8.69625263 C8.54892632,8.60698947 9.30261053,7.93541053 9.48366316,7.13288421 L10.2078737,3.92614737 L13.2655579,5.1312 C13.2659789,5.13162105 13.2659789,5.13162105 13.2664,5.13162105 C14.0318737,5.43183158 15.0116632,5.18635789 15.5447158,4.56067368 L17.6756632,2.0592 L19.8238737,4.54551579 C20.3615579,5.16867368 21.3434526,5.40783158 22.1068211,5.10004211 L25.1565053,3.87477895 L25.9026105,7.07646316 C26.0895579,7.87730526 26.8478737,8.54425263 27.6664,8.6272 L30.9362947,8.95983158 L30.1089263,12.1408842 C29.9026105,12.9379368 30.2638737,13.8802526 30.9501895,14.3345684 L33.6908211,16.1488842 L31.4807158,18.5804632 C30.9266105,19.1893053 30.8087158,20.1926737 31.2053474,20.9139368 L31.2053474,20.9139368 Z M10.4828211,44.5640421 L9.35187368,40.3421474 C9.29250526,40.1206737 9.14597895,39.9337263 8.94555789,39.8225684 C8.74513684,39.7122526 8.50892632,39.6869895 8.28997895,39.7547789 L4.41418947,40.9501474 L9.81713684,31.6667789 C9.84366316,31.6221474 9.86387368,31.5741474 9.88071579,31.5265684 L10.5973474,31.4259368 C10.6988211,31.4082526 10.8975579,31.5139368 10.9442947,31.6065684 L12.4984,34.6596211 C12.7097684,35.0760421 13.0824,35.3758316 13.5202947,35.4823579 C13.6377684,35.5101474 13.7573474,35.5240421 13.8769263,35.5240421 C14.2032421,35.5240421 14.5287158,35.4196211 14.8061895,35.2204632 L16.7207158,33.8423579 L10.4828211,44.5640421 Z M35.0314526,17.1775158 C35.3455579,16.8322526 35.4933474,16.3775158 35.4373474,15.9295158 C35.3813474,15.4832 35.1261895,15.0789895 34.7371368,14.8208842 L31.8798737,12.9299368 C31.7931368,12.8726737 31.7135579,12.6642526 31.7392421,12.5644632 L32.6011368,9.24867368 C32.7190316,8.79730526 32.6386105,8.32614737 32.3813474,7.95604211 C32.1240842,7.58593684 31.7101895,7.34551579 31.2457684,7.29877895 L27.8369263,6.95267368 C27.7337684,6.94130526 27.5661895,6.79435789 27.5426105,6.69414737 L26.7649263,3.35688421 C26.6592421,2.90256842 26.3691368,2.52151579 25.9691368,2.31351579 C25.5699789,2.10635789 25.0916632,2.08572632 24.6584,2.26004211 L21.4790316,3.53751579 C21.3821895,3.57456842 21.1661895,3.5232 21.0984,3.44530526 L18.8592421,0.852463158 C18.5552421,0.500463158 18.1236632,0.298357895 17.6748211,0.298357895 L17.6693474,0.298357895 C17.2184,0.300042105 16.7864,0.504673684 16.4845053,0.860042105 L14.2626105,3.46846316 C14.1956632,3.54804211 13.9792421,3.6032 13.8828211,3.56362105 L10.6946105,2.30846316 C10.2596632,2.13709474 9.78218947,2.15941053 9.38387368,2.3712 C8.98597895,2.58256842 8.6984,2.96404211 8.59566316,3.4192 L7.84071579,6.76193684 C7.8184,6.86214737 7.65166316,7.01077895 7.54892632,7.02256842 L4.14218947,7.39225263 C3.67818947,7.44277895 3.26597895,7.68446316 3.01124211,8.05709474 C2.75650526,8.42888421 2.67945263,8.90088421 2.80029474,9.35098947 L3.68492632,12.6608842 C3.71187368,12.7615158 3.63355789,12.9703579 3.54724211,13.0280421 L0.703031579,14.9387789 C0.315663158,15.1989895 0.0630315789,15.6048842 0.0104,16.0520421 C-0.0426526316,16.5004632 0.108505263,16.9539368 0.424715789,17.2966737 L2.7464,19.8166737 C2.81671579,19.8920421 2.84450526,20.1147789 2.79524211,20.2048842 L1.16492632,23.2192 C0.942610526,23.6288842 0.907663158,24.1059368 1.06892632,24.5269895 C1.23061053,24.9480421 1.57503158,25.2794105 2.01418947,25.4360421 L5.24197895,26.5893053 C5.33924211,26.6238316 5.4664,26.8061474 5.46471579,26.9097263 L5.42134737,30.3362526 C5.41587368,30.8027789 5.60661053,31.2410947 5.94471579,31.5387789 C6.28324211,31.8360421 6.74218947,31.9682526 7.20450526,31.9050947 L7.77713684,31.8238316 L1.87355789,41.9665684 C1.69882105,42.2663579 1.72618947,42.6423579 1.94218947,42.9139368 C2.15818947,43.1859368 2.51903158,43.2966737 2.84955789,43.1947789 L7.95103158,41.6225684 L9.37924211,46.9552 C9.46724211,47.2832 9.74429474,47.5265684 10.0815579,47.5720421 C10.1186105,47.5762526 10.1560842,47.5787789 10.1931368,47.5787789 C10.4899789,47.5787789 10.7687158,47.4217263 10.9207158,47.1602526 L18.7249263,33.7472 L20.7737684,35.1998316 C21.1548211,35.4697263 21.6242947,35.5615158 22.0613474,35.4524632 C22.4988211,35.3434105 22.8693474,35.0410947 23.0777684,34.6238316 L24.6108211,31.5585684 C24.6571368,31.4663579 24.8537684,31.3627789 24.9565053,31.3762526 L25.8264,31.4924632 L31.3594526,41.1800421 L26.8689263,40.2335158 C26.4179789,40.1375158 25.9737684,40.4238316 25.8731368,40.8735158 L25.0322947,44.6465684 L19.9312421,37.1034105 C19.6706105,36.7181474 19.1476632,36.6179368 18.7615579,36.8777263 C18.3767158,37.1379368 18.2756632,37.6613053 18.5358737,38.0465684 L24.7316632,47.2082526 C24.8904,47.4432 25.1531368,47.5787789 25.4293474,47.5787789 C25.4815579,47.5787789 25.5341895,47.5737263 25.5864,47.5640421 C25.9169263,47.5017263 26.1784,47.2482526 26.2512421,46.9206737 L27.3362947,42.0524632 L32.8470316,43.2141474 C33.1716632,43.2832 33.5059789,43.1539368 33.7013474,42.8865684 C33.8967158,42.6183579 33.9165053,42.2604632 33.7518737,41.9728842 L27.9274526,31.7745684 L28.3527158,31.8322526 C28.8146105,31.8937263 29.2731368,31.7573053 29.6095579,31.4575158 C29.9459789,31.1573053 30.1337684,30.7173053 30.1245053,30.2512 L30.0575579,26.8250947 C30.0558737,26.7215158 30.1817684,26.5370947 30.2790316,26.5017263 L33.4979789,25.3274105 C33.9362947,25.1682526 34.2786105,24.8343579 34.4369263,24.4124632 C34.5952421,23.9905684 34.5573474,23.5139368 34.3325053,23.1042526 L32.6811368,20.1021474 C32.6310316,20.0112 32.6571368,19.7901474 32.7266105,19.7130947 L35.0314526,17.1775158 Z" id="Fill-3" fill="#333333" mask="url(#mask-2)"></path>
                                        </g>
                                        <path d="M17.7925053,28.5570526 C12.2522947,28.5570526 7.74492632,24.0496842 7.74492632,18.5098947 C7.74492632,12.9692632 12.2522947,8.46189474 17.7925053,8.46189474 C23.3327158,8.46189474 27.8400842,12.9692632 27.8400842,18.5098947 C27.8400842,24.0496842 23.3327158,28.5570526 17.7925053,28.5570526 M17.7925053,6.77768421 C11.3234526,6.77768421 6.06071579,12.0404211 6.06071579,18.5098947 C6.06071579,24.9785263 11.3234526,30.2412632 17.7925053,30.2412632 C24.2615579,30.2412632 29.5242947,24.9785263 29.5242947,18.5098947 C29.5242947,12.0404211 24.2615579,6.77768421 17.7925053,6.77768421" id="Fill-6" fill="#333333"></path>
                                    </g>
                                </g>
                            </g>
                        </g>
                    </g>
                </g>
            </g>
        </g>
    </g>
</svg>