<?xml version="1.0" encoding="UTF-8"?>
<svg width="48px" height="48px" viewBox="0 0 48 48" version="1.1" xmlns="http://www.w3.org/2000/svg" xmlns:xlink="http://www.w3.org/1999/xlink">
    <title>86013854-57E4-4BCE-91CE-F4622A958F7D@1x</title>
    <defs>
        <polygon id="path-1" points="0 0.0865351351 40.9161162 0.0865351351 40.9161162 41.9998865 0 41.9998865"></polygon>
    </defs>
    <g id="HungryBark---Product-Page" stroke="none" stroke-width="1" fill="none" fill-rule="evenodd">
        <g id="Product-Page---Desktop" transform="translate(-924.000000, -1763.000000)">
            <g id="Stepper-2-Copy" transform="translate(0.000000, 1239.000000)">
                <g id="Group-13" transform="translate(196.000000, 96.000000)">
                    <g id="4-icons" transform="translate(0.000000, 428.000000)">
                        <g id="Group-16-Copy-2" transform="translate(728.000000, 0.000000)">
                            <g id="icon/image/bee/24">
                                <g id="Group-6" transform="translate(4.000000, 3.000000)">
                                    <g id="Group-3">
                                        <mask id="mask-2" fill="white">
                                            <use xlink:href="#path-1"></use>
                                        </mask>
                                        <g id="Clip-2"></g>
                                        <path d="M39.4386387,22.628427 L34.8141342,23.0412378 C34.4824405,23.070373 34.2109541,23.3238865 34.151855,23.6598865 C33.8005847,25.6357784 33.0629541,27.4769676 31.9581703,29.132373 C31.7712694,29.4135081 31.7893685,29.7865892 32.0021252,30.0461568 L34.9737018,33.6710216 L32.7848189,35.9121568 L29.2566027,32.8771838 C29.0017378,32.6573459 28.6353234,32.6399405 28.3612514,32.834427 C26.7423054,33.9801568 24.9401523,34.7471297 23.0061342,35.1137784 C22.6792423,35.1758324 22.4332423,35.4539405 22.4044315,35.7922108 L22.0055126,40.486373 L18.9105667,40.486373 L18.5116477,35.7922108 C18.4828369,35.4539405 18.2364676,35.1758324 17.909945,35.1137784 C15.9755577,34.7471297 14.1737739,33.9801568 12.5544586,32.834427 C12.2803865,32.6399405 11.9143414,32.6573459 11.6594766,32.8771838 L8.13089099,35.9121568 L5.94237748,33.6710216 L8.91358468,30.0461568 C9.12671081,29.7865892 9.14480991,29.4135081 8.95790901,29.132373 C7.85164775,27.4758324 7.11290901,25.6335081 6.76274685,23.6595081 C6.70327838,23.3231297 6.43179189,23.0699946 6.09972883,23.0408595 L1.47744054,22.6280486 L1.47744054,19.4576162 L6.1181973,19.0436703 C6.44804414,19.0141568 6.71842252,18.7636703 6.78010721,18.4306973 C7.14171982,16.4737243 7.88673784,14.6476703 8.99484595,13.0036162 C9.18396306,12.7228595 9.1666027,12.3478865 8.95273784,12.0875622 L5.94237748,8.4154 L8.13089099,6.17388649 L11.724855,9.26561622 C11.9782423,9.48394054 12.3431793,9.50248108 12.6165126,9.31102162 C14.2162514,8.19177838 15.9943955,7.43956216 17.9014495,7.07707568 C18.2279721,7.01502162 18.4739721,6.73767027 18.5027829,6.39864324 L18.9105667,1.60004865 L22.0055126,1.60004865 L22.4132964,6.39864324 C22.4421072,6.73767027 22.6881072,7.01502162 23.0146297,7.07707568 C24.9216838,7.43956216 26.6998279,8.19177838 28.299936,9.31102162 C28.5732694,9.50248108 28.9374676,9.48394054 29.1915937,9.26561622 L32.7848189,6.17388649 L34.9737018,8.4154 L31.9633414,12.0875622 C31.7498459,12.3478865 31.7321162,12.7228595 31.920864,13.0036162 C33.0286027,14.6457784 33.7725126,16.4718324 34.1341252,18.4303189 C34.1954405,18.7636703 34.4658189,19.0141568 34.7960351,19.0436703 L39.4386387,19.4576162 L39.4386387,22.628427 Z M40.2412784,18.0099405 L35.4716117,17.5846432 C35.0804495,15.8179946 34.4022874,14.1546432 33.4500532,12.6267514 L36.5405667,8.85734595 C36.7865667,8.55729189 36.7684676,8.11383243 36.4969811,7.83572432 L33.3514315,4.61307568 C33.079945,4.33496757 32.6463054,4.31642703 32.3533955,4.56880541 L28.661918,7.74377838 C27.1744676,6.78194054 25.5562604,6.09783243 23.8375847,5.7046973 L23.4187198,0.777075676 C23.3854766,0.386589189 23.0659721,0.0865351351 22.682936,0.0865351351 L18.2331432,0.0865351351 C17.8501072,0.0865351351 17.5306027,0.386589189 17.4973595,0.777075676 L17.0784946,5.7046973 C15.3601883,6.09783243 13.7416117,6.78194054 12.2537919,7.74377838 L8.56268378,4.56880541 C8.2694045,4.31642703 7.83576486,4.33496757 7.56501712,4.61307568 L4.41872883,7.83572432 C4.14798108,8.11383243 4.12914324,8.55729189 4.37551261,8.85734595 L7.46565676,12.6267514 C6.51268378,14.1561568 5.83415225,15.8195081 5.44299009,17.5850216 L0.674800901,18.0099405 C0.292872973,18.0447514 -3.69369369e-05,18.3716703 -3.69369369e-05,18.7640486 L-3.69369369e-05,23.3219946 C-3.69369369e-05,23.714373 0.292872973,24.0416703 0.674800901,24.0757243 L5.42045856,24.4987514 C5.80275586,26.2816703 6.47611622,27.9616703 7.42835045,29.5050757 L4.37551261,33.2290757 C4.12914324,33.5295081 4.14798108,33.9725892 4.41872883,34.2506973 L7.56501712,37.4729676 C7.83576486,37.7510757 8.2694045,37.770373 8.56268378,37.5179946 L12.1861973,34.4001568 C13.6958099,35.3884811 15.339873,36.0877243 17.0873595,36.4865351 L17.4973595,41.3089676 C17.5306027,41.6998324 17.8501072,41.9998865 18.2331432,41.9998865 L22.682936,41.9998865 C23.0659721,41.9998865 23.3854766,41.6998324 23.4187198,41.3089676 L23.8283505,36.4865351 C25.5762063,36.0877243 27.2202694,35.3884811 28.729882,34.4001568 L32.3533955,37.5179946 C32.6470441,37.770373 33.079945,37.7510757 33.3514315,37.4729676 L36.4969811,34.2506973 C36.7684676,33.9725892 36.7865667,33.5295081 36.5405667,33.2290757 L33.4877288,29.5050757 C34.4384856,27.9628054 35.1114766,26.2831838 35.4937739,24.4991297 L40.2412784,24.0757243 C40.6232063,24.0416703 40.9161162,23.714373 40.9161162,23.3219946 L40.9161162,18.7640486 C40.9161162,18.3716703 40.6232063,18.0447514 40.2412784,18.0099405 L40.2412784,18.0099405 Z" id="Fill-1" fill="#EF8F7A" mask="url(#mask-2)"></path>
                                    </g>
                                    <path d="M21.2476524,15.1595341 L21.2476524,13.6537622 L28.2056792,13.6537622 C28.6763263,14.1154375 29.1047311,14.6204767 29.4864077,15.1595341 L21.2476524,15.1595341 Z M31.0957294,18.5348107 L21.2476524,18.5348107 L21.2476524,17.028665 L30.5518123,17.028665 C30.7682577,17.5135176 30.950311,18.0170614 31.0957294,18.5348107 L31.0957294,18.5348107 Z M31.5046953,21.5 C31.5046953,21.637568 31.4994617,21.7736408 31.4942281,21.9104612 L21.2476524,21.9104612 L21.2476524,20.4039416 L31.4501166,20.4039416 C31.4860039,20.7646839 31.5046953,21.1306597 31.5046953,21.5 L31.5046953,21.5 Z M30.8344249,25.285364 L10.1726778,25.285364 C10.1199683,25.141067 10.0620252,24.9993869 10.0149231,24.8524732 C9.90240146,24.4995813 9.81492613,24.1407082 9.73866559,23.7795921 L31.2661942,23.7795921 C31.1570369,24.2950984 31.01274,24.7986423 30.8344249,25.285364 L30.8344249,25.285364 Z M28.8460434,28.6606406 L12.1307794,28.6606406 C11.7322806,28.1941055 11.3741552,27.689814 11.0556552,27.1544949 L29.9368682,27.1544949 C29.6161254,27.6886925 29.2497757,28.1907411 28.8460434,28.6606406 L28.8460434,28.6606406 Z M20.5,32.5046953 C18.1804085,32.5046953 16.0032448,31.784706 14.2028979,30.5297715 L26.7795323,30.5297715 C24.997129,31.7731174 22.8326754,32.5046953 20.5,32.5046953 L20.5,32.5046953 Z M11.2758389,19.3374155 L11.5958341,18.6892009 L11.9154555,19.3374155 L12.6302111,19.4409654 L12.1128357,19.9456307 L12.2350769,20.657022 L11.5958341,20.321326 L10.9562175,20.657022 L11.0784586,19.9456307 L10.5610832,19.4409654 L11.2758389,19.3374155 Z M11.2758389,16.1071834 L11.5958341,15.4597165 L11.9154555,16.1071834 L12.6302111,16.2111071 L12.1128357,16.7150248 L12.2350769,17.4271637 L11.5958341,17.091094 L10.9562175,17.4271637 L11.0784586,16.7150248 L10.5610832,16.2111071 L11.2758389,16.1071834 Z M14.9195227,19.3374155 L15.2395179,18.6892009 L15.5591393,19.3374155 L16.273895,19.4409654 L15.7565195,19.9456307 L15.8787607,20.657022 L15.2395179,20.321326 L14.5999013,20.657022 L14.7221425,19.9456307 L14.204767,19.4409654 L14.9195227,19.3374155 Z M14.9195227,16.1071834 L15.2395179,15.4597165 L15.5591393,16.1071834 L16.273895,16.2111071 L15.7565195,16.7150248 L15.8787607,17.4271637 L15.2395179,17.091094 L14.5999013,17.4271637 L14.7221425,16.7150248 L14.204767,16.2111071 L14.9195227,16.1071834 Z M14.9195227,12.877699 L15.2395179,12.2294844 L15.5591393,12.877699 L16.273895,12.9812489 L15.7565195,13.4851666 L15.8787607,14.1976793 L15.2395179,13.8608619 L14.5999013,14.1976793 L14.7221425,13.4851666 L14.204767,12.9812489 L14.9195227,12.877699 Z M18.5632065,19.3374155 L18.8828279,18.6892009 L19.2028231,19.3374155 L19.9175788,19.4409654 L19.4002034,19.9456307 L19.5224445,20.657022 L18.8828279,20.321326 L18.2435851,20.657022 L18.3658263,19.9456307 L17.8484509,19.4409654 L18.5632065,19.3374155 Z M18.5632065,16.1071834 L18.8828279,15.4597165 L19.2028231,16.1071834 L19.9175788,16.2111071 L19.4002034,16.7150248 L19.5224445,17.4271637 L18.8828279,17.091094 L18.2435851,17.4271637 L18.3658263,16.7150248 L17.8484509,16.2111071 L18.5632065,16.1071834 Z M18.5632065,12.877699 L18.8828279,12.2294844 L19.2028231,12.877699 L19.9175788,12.9812489 L19.4002034,13.4851666 L19.5224445,14.1976793 L18.8828279,13.8608619 L18.2435851,14.1976793 L18.3658263,13.4851666 L17.8484509,12.9812489 L18.5632065,12.877699 Z M21.2476524,10.5225941 C22.8334231,10.6295083 24.328354,11.0736139 25.6606705,11.7846313 L21.2476524,11.7846313 L21.2476524,10.5225941 Z M20.5,9 C16.9695855,9 13.7786052,10.4739967 11.503499,12.8350828 L11.469107,12.8590077 C11.3898559,12.9124649 11.3214457,12.9819965 11.2683623,13.0619953 L11.2149052,13.142368 C9.22540224,15.3498116 8.01009331,18.2671511 8.00074765,21.4641127 L8.00074765,21.4663556 C8.00074765,21.4775704 8,21.489159 8,21.5 C8,22.7994198 8.1985017,24.0797745 8.59064537,25.3074197 C10.2511813,30.5069681 15.0372779,34 20.5,34 C27.3922334,34 33,28.3926072 33,21.5 C33,14.6073928 27.3922334,9 20.5,9 L20.5,9 Z" id="Fill-4" fill="#EF8F7A"></path>
                                </g>
                            </g>
                        </g>
                    </g>
                </g>
            </g>
        </g>
    </g>
</svg>