<?xml version="1.0" encoding="UTF-8"?>
<svg width="48px" height="35px" viewBox="0 0 48 35" version="1.1" xmlns="http://www.w3.org/2000/svg" xmlns:xlink="http://www.w3.org/1999/xlink">
    <title>5C29B49E-63EA-474B-9CA3-7EEFD20BF9CC@1x</title>
    <defs>
        <polygon id="path-1" points="0.00519699248 0.00279854423 24.005197 0.00279854423 24.005197 5.05263158 0.00519699248 5.05263158"></polygon>
        <polygon id="path-3" points="0 0.345044359 45.7609763 0.345044359 45.7609763 29.0692331 0 29.0692331"></polygon>
    </defs>
    <g id="Page-1" stroke="none" stroke-width="1" fill="none" fill-rule="evenodd">
        <g id="Mix-ins-Offer---Desktop---v2" transform="translate(-907.000000, -2327.000000)">
            <g id="Group-7" transform="translate(0.000000, 1808.000000)">
                <g id="Left">
                    <g id="Bitmap">
                        <g id="Group-5" transform="translate(97.000000, 326.000000)">
                            <g id="Group-9-Copy-5" transform="translate(794.000000, 170.000000)">
                                <g id="activedogs">
                                    <g id="activedogs-ic" transform="translate(16.000000, 23.000000)">
                                        <g id="Group-3" transform="translate(10.466165, 28.527158)">
                                            <mask id="mask-2" fill="white">
                                                <use xlink:href="#path-1"></use>
                                            </mask>
                                            <g id="Clip-2"></g>
                                            <path d="M23.2833925,3.60905865 L18.9442647,3.60905865 C18.9341594,2.88508872 19.1954526,2.42890827 19.7288662,1.79083308 C19.9212271,1.56129925 19.8901895,1.21988571 19.6606556,1.02824662 C19.4311218,0.836246617 19.0897083,0.867284211 18.8984301,1.09645714 C18.2361744,1.88863759 17.8514526,2.57399098 17.8622797,3.60905865 L17.2722045,3.60905865 C17.1938887,2.63534436 17.2898887,1.63131429 17.5605654,0.694772932 C17.6435729,0.407494737 17.4782797,0.10722406 17.1910015,0.0238556391 C16.9066105,-0.0580691729 16.6034526,0.106141353 16.520806,0.393419549 C16.2219789,1.42704361 16.107212,2.53284812 16.1826406,3.60905865 L15.6066406,3.60905865 C15.612415,3.55600602 15.6127759,3.50187068 15.6023098,3.44665263 C15.4579489,2.70824662 15.0764752,2.01856241 14.5275429,1.50427669 C14.309197,1.30072782 13.9670617,1.31119398 13.7624301,1.52990075 C13.5581594,1.74788571 13.5693474,2.09038195 13.7873323,2.29501353 C14.1605053,2.64400602 14.4196331,3.10956992 14.5268211,3.60905865 L0.727001504,3.60905865 C0.328565414,3.60905865 0.00519699248,3.93242707 0.00519699248,4.33086316 C0.00519699248,4.72929925 0.328565414,5.05266767 0.727001504,5.05266767 L23.2833925,5.05266767 C23.6818286,5.05266767 24.005197,4.72929925 24.005197,4.33086316 C24.005197,3.93242707 23.6818286,3.60905865 23.2833925,3.60905865" id="Fill-1" fill="#333333" mask="url(#mask-2)"></path>
                                        </g>
                                        <g id="Group-6" transform="translate(0.000000, 0.015880)">
                                            <mask id="mask-4" fill="white">
                                                <use xlink:href="#path-3"></use>
                                            </mask>
                                            <g id="Clip-5"></g>
                                            <path d="M42.8553023,17.1443008 C42.0793624,17.350015 41.1366857,17.1843609 40.2030316,16.6776541 L40.1579188,16.6531128 C39.9489564,16.5387068 39.6624,16.3820752 39.3058286,16.3560902 C38.8893474,16.3268571 38.5482947,16.4816842 38.2934977,16.5950075 C37.2591519,17.0558797 34.0915128,18.0158797 33.5945504,18.0212932 C33.0026707,17.9844812 28.1709113,16.7491128 27.5754226,16.5419549 C27.333618,16.4217744 27.0365955,16.441985 26.8103098,16.6181053 C26.495603,16.862797 26.4389414,17.3160902 26.6832722,17.630797 C26.8388211,17.8310977 26.8889865,17.8920902 29.0442947,18.4435489 C27.9893774,18.8636391 26.3165955,19.3436391 25.1967158,19.5038797 C24.2977083,19.6323609 21.7490165,19.1061654 20.5096782,18.7986767 C20.6179489,18.5572331 20.691212,18.3547669 20.7114226,18.2262857 C20.7731368,17.8325414 20.5060692,17.4528722 20.1119639,17.3911579 C19.7156932,17.3287218 19.3508211,17.5885714 19.2891068,17.9823158 C19.199603,18.3345564 18.2572872,20.0463158 17.5394526,20.6457744 C16.5498586,21.4718797 15.4122947,22.0287519 14.1574376,22.3019549 L13.8730466,22.3629474 C12.571994,22.6422857 11.0969865,22.9591579 9.96194887,23.9079699 C9.5187609,24.2786165 9.17012932,24.7080902 8.83304662,25.1234887 C8.63599398,25.3667368 8.44976842,25.5962707 8.25055038,25.8073985 C7.25229474,26.8662857 5.62209925,27.9453835 4.28784361,27.5382857 C4.15719699,27.4657444 3.82516692,27.2340451 3.76958797,26.9456842 C3.70498647,26.6042707 4.04387368,26.1809323 4.25175338,25.9589774 C4.60146767,25.5858045 5.40339248,25.5710075 6.01800902,25.5594586 C6.24140752,25.5558496 6.54709173,25.5504361 6.85277594,25.3898346 C7.2151218,25.2003609 7.40531729,24.8852932 7.53163308,24.6766917 C9.03406917,22.1889925 9.53247519,21.4751278 9.69632481,21.2719398 C9.79773835,21.2466767 9.96158797,21.245594 10.109197,21.2448722 C10.4444752,21.2427068 10.8624,21.2401805 11.2662496,21.0193083 C11.6123549,20.8301955 11.7422797,20.3985564 11.5585805,20.0495639 C11.0493474,19.081985 11.231603,17.0154586 11.7350617,16.5484511 C12.0270316,16.2774135 12.043994,15.8208722 11.7733173,15.5285414 C11.2503699,14.9644511 10.3365654,13.8481805 10.1110015,13.2544962 C9.6461594,12.0357293 9.52489624,10.9014135 9.7425203,9.89233083 C10.6859188,12.6878797 13.2678135,14.0658045 13.4038737,14.1369023 C13.6442346,14.2621353 13.9336782,14.2419248 14.155994,14.0849323 C15.6530165,13.0202707 17.3972571,12.8679699 19.243994,12.7070075 C20.2379188,12.6200301 21.2654075,12.5301654 22.2614977,12.2883609 C24.8773173,11.6531729 28.2048361,9.90676692 29.7036632,6.90947368 C29.707994,6.90045113 29.7097985,6.89070677 29.7141293,6.88168421 C30.5795729,6.56517293 31.4468211,5.96607519 31.5716932,5.37996992 C31.6550617,4.99019549 31.4064,4.60655639 31.0162647,4.52354887 C30.671603,4.45028571 30.331994,4.63578947 30.2009865,4.94977444 C30.0407459,5.13022556 29.3326556,5.6473985 28.323212,5.71596992 C27.466791,5.77371429 26.6410466,5.49545865 25.8578887,4.88589474 C26.0300391,4.7512782 26.1935278,4.61485714 26.3548511,4.4802406 C26.7439038,4.15578947 27.1113023,3.84938346 27.5505203,3.61299248 C29.013618,2.82442105 31.0155429,3.32499248 31.0339489,3.33004511 C31.3562346,3.41485714 31.6915128,3.26833083 31.8506707,2.97744361 C32.1061895,2.50863158 32.9066707,2.0802406 33.9384902,1.85900752 C34.740415,1.68685714 35.6632421,1.84132331 36.1807759,2.23398496 L36.2670316,2.30111278 C36.4442346,2.44078195 36.6658286,2.61473684 36.9689865,2.70857143 C37.4042346,2.84354887 37.8239639,2.75115789 38.100415,2.68980451 C38.2989113,2.64613534 38.5634526,2.57864662 38.8543398,2.50249624 C38.9839038,2.71073684 39.2033323,2.8323609 39.4191519,2.91969925 C39.8143398,3.08102256 40.2521143,3.18640602 40.6527158,3.04637594 C40.6267308,3.3924812 40.5267609,3.75807519 40.3517233,4.05473684 C40.1124451,4.45786466 39.0452571,4.85774436 37.9210466,4.96565414 C37.7110015,4.98586466 37.5204451,5.09702256 37.399182,5.26989474 C37.2779188,5.44276692 37.2385805,5.65966917 37.2912722,5.86430075 C37.4551218,6.50129323 38.2115729,6.7842406 38.8785203,7.03362406 C39.0001444,7.07909774 39.1066105,7.11735338 39.1759038,7.15019549 C39.2473624,7.1841203 39.3029414,7.22021053 39.3430015,7.25124812 C39.3018586,7.3126015 39.2527759,7.37467669 39.2293173,7.39308271 C38.7345203,7.65726316 38.1884752,7.80415038 37.6110316,7.95933835 C36.8682947,8.15855639 36.1006556,8.36499248 35.3741594,8.83777444 C34.5343398,9.38345865 34.1485353,10.4946767 33.739994,11.6708571 C33.4945805,12.3793083 33.2354526,13.1047218 32.8828511,13.7229474 C32.3938286,13.5121805 31.8918135,13.2985263 31.4511519,13.1689624 C31.0678737,13.0570827 30.6676331,13.2754286 30.5550316,13.6576241 C30.4424301,14.0401805 30.6614977,14.4415038 31.0436932,14.5541053 C31.4201143,14.6645414 31.9066105,14.8738647 32.3768662,15.0763308 C32.9438436,15.3203008 33.5303098,15.5729323 34.0442346,15.7097143 C35.2738286,16.0377744 36.4225805,15.6696541 37.5323549,15.3134436 C38.2404451,15.0860752 38.909197,14.8713383 39.5613474,14.8478797 C40.5170165,14.8161203 42.8852571,15.533594 44.2166256,15.9847218 C44.0054977,16.5127218 43.480385,16.9790075 42.8553023,17.1443008 M38.935182,12.0967218 C39.1279038,12.084812 39.8464602,12.1039398 42.5070316,12.3331128 C42.4597534,12.7521203 42.1327759,13.3674586 41.8509113,13.4977444 C41.7451669,13.5464662 41.6596331,13.6190075 41.5914226,13.7041805 C40.7988812,13.5161504 40.0409865,13.3855038 39.5093774,13.4053534 C38.6583699,13.4360301 37.8614977,13.6915489 37.0913323,13.9387669 C36.1374677,14.244812 35.2370165,14.5342556 34.4163248,14.3148271 C34.3596632,14.2996692 34.2954226,14.2776541 34.2344301,14.2581654 C34.323212,14.0910677 34.4069414,13.9225263 34.4845353,13.7503759 C34.7544902,13.6330827 35.0522346,13.4959398 35.3701895,13.3486917 C36.5229113,12.8156391 37.9578586,12.1519398 38.935182,12.0967218 M45.2838135,14.8276692 C45.0968662,14.7601805 44.2566857,14.4602707 43.2385805,14.152782 C43.7528662,13.5006316 44.0632421,12.5622857 43.9185203,11.8437293 C43.8506707,11.5037594 43.6918737,11.250406 43.4493474,11.0919699 C43.2284752,10.9468872 43.003994,10.9273985 42.8834526,10.9169323 C40.5621293,10.7144662 39.2812872,10.6310977 38.8539789,10.6552782 C37.746009,10.7177143 36.387212,11.2944361 35.2128361,11.8318195 C35.4910917,11.0428872 35.7852271,10.2922105 36.1609263,10.0478797 C36.6961444,9.69960902 37.3223098,9.53142857 37.9852872,9.35350376 C38.6161444,9.1838797 39.2686556,9.00884211 39.9085353,8.66706767 C40.2947008,8.46099248 40.6956632,7.9362406 40.8021293,7.49774436 C40.943603,6.91055639 40.6411669,6.3363609 40.005618,5.95849624 C40.6418887,5.71560902 41.2637233,5.34712782 41.5932271,4.79061654 C42.2215579,3.72884211 42.3612271,2.05786466 41.5069714,1.09930827 C41.3045053,0.87193985 41.0908511,0.725052632 40.8533774,0.650706767 C40.5837835,0.566977444 40.4018887,0.599097744 38.8897083,1.00006015 C38.4757534,1.10977444 38.0480842,1.22309774 37.7893173,1.2801203 C37.6763549,1.30502256 37.4663098,1.35121805 37.3962947,1.32992481 C37.3479338,1.31512782 37.243994,1.23284211 37.1606256,1.16679699 L37.0541594,1.08415038 C36.199182,0.435969925 34.8584301,0.185503759 33.6360541,0.447518797 C32.8911519,0.607037594 31.6424301,0.988150376 30.9018586,1.83266165 C30.0645654,1.6962406 28.3300692,1.55296241 26.8658887,2.34189474 C26.2985504,2.64757895 25.8571669,3.01569925 25.4305805,3.37154887 C25.0725654,3.67037594 24.7336782,3.9526015 24.3366857,4.18466165 C24.1457684,4.29618045 24.0165654,4.48926316 23.9862496,4.70833083 C23.9555729,4.92703759 24.0270316,5.14790977 24.1800541,5.30742857 C25.4908511,6.67416541 26.805618,7.10291729 27.8637835,7.15813534 C26.0026105,9.76745865 22.6382797,10.711218 21.9211669,10.8855338 C21.0308211,11.1017143 20.1018586,11.1829173 19.1184,11.268812 C17.3030617,11.4272481 15.4303398,11.5907368 13.7182195,12.6442105 C12.8527759,12.077594 10.7306707,10.3925414 10.8490466,7.55476692 C10.8627609,7.24583459 10.6772571,6.96324812 10.3888962,6.85136842 C10.1005353,6.73984962 9.7739188,6.82393985 9.57506165,7.06069173 C8.08092632,8.84138346 7.79220451,11.2233383 8.76122707,13.7684211 C9.04489624,14.5126015 9.83346767,15.4993083 10.3217684,16.0680902 C10.1911218,16.3131429 10.0864602,16.5942857 10.0070617,16.8963609 C8.75761805,16.9829774 7.86582857,17.2244211 7.29596391,17.6351278 C6.75966316,18.0216541 6.40706165,18.5666165 6.11870075,19.0469774 C5.7105203,19.7272782 5.32904662,20.4335639 4.97969323,21.1571729 C4.89704662,21.3275188 4.80393383,21.5209624 4.71695639,21.5870075 C4.61843008,21.6617143 4.37265564,21.6884211 4.15611429,21.7122406 L3.84970827,21.7450827 C3.04273083,21.8284511 2.1267609,21.9233684 1.35334737,22.4593083 C0.404174436,23.1172331 -0.150171429,24.3854436 0.0356932331,25.4750075 C0.0959639098,25.8268872 0.400926316,26.0759098 0.746309774,26.0759098 C0.787091729,26.0759098 0.827512782,26.0723008 0.868294737,26.0654436 C1.26131729,25.9983158 1.52549774,25.6255038 1.45873083,25.2324812 C1.36706165,24.6950977 1.68934737,23.9833985 2.17584361,23.6459549 C2.64465564,23.3211429 3.30221955,23.2529323 3.9984,23.1807519 L4.31346767,23.147188 C4.69638496,23.1053233 5.17169323,23.0529925 5.58817444,22.7382857 C5.95304662,22.4618346 6.13421955,22.0861353 6.28435489,21.7746767 C6.60988872,21.1005113 6.97043008,20.4328421 7.35659549,19.7900752 C7.58071579,19.4161805 7.82576842,19.0325414 8.14047519,18.8058947 C8.28844511,18.6990677 8.72910677,18.4670075 9.81830977,18.3594586 C9.81145263,18.8585865 9.85909173,19.3559098 9.95906165,19.8027068 C9.64940752,19.8081203 9.28778346,19.8362707 8.93698647,20.030797 C8.70673083,20.1581955 8.50787368,20.2682707 6.29626466,23.929985 C6.26811429,23.9761805 6.21397895,24.0660451 6.17897143,24.1075489 C6.13277594,24.1140451 6.0457985,24.1151278 5.96134737,24.1169323 C5.1662797,24.1313684 3.96519699,24.1537444 3.1986406,24.9715489 C2.49524211,25.7222256 2.21049023,26.477594 2.35160301,27.2167218 C2.5576782,28.2929323 3.58805414,28.8061353 3.70498647,28.8609925 C3.73061053,28.8732632 3.75695639,28.8837293 3.78366316,28.8927519 C4.14853534,29.0143759 4.51882105,29.0692331 4.88982857,29.0692331 C6.53806917,29.0692331 8.18667068,27.9789474 9.30077594,26.7980752 C9.53680602,26.547609 9.74901654,26.2863158 9.95436992,26.0329624 C10.2614977,25.6543759 10.5516632,25.2963609 10.8880241,25.0155789 C11.7494977,24.2955789 12.9830617,24.0306767 14.1762045,23.7744361 L14.4642045,23.7123609 C15.9489564,23.3897143 17.2947609,22.7307068 18.4644451,21.7537444 C18.9069113,21.3849023 19.391603,20.7439398 19.7987008,20.0990075 C20.9088361,20.4014436 23.4228812,20.9640902 24.8841744,20.9640902 C25.0765353,20.9640902 25.251212,20.9543459 25.4013474,20.9330526 C25.4497083,20.9261955 29.7967759,20.1477293 31.011212,18.9361805 C32.4082647,19.2765113 33.2654075,19.4555188 33.5458286,19.4641805 C33.555212,19.4645414 33.5653173,19.4645414 33.5754226,19.4645414 C34.4787609,19.4645414 37.9657985,18.3215639 38.8835729,17.9123008 C38.9828211,17.8682707 39.1484752,17.8029474 39.2022496,17.7960902 C39.2491669,17.8011429 39.3794526,17.8726015 39.4657083,17.9195188 L39.514791,17.9465865 C40.7728962,18.6294135 42.0909113,18.8401805 43.2245053,18.5399098 C44.680385,18.1544662 45.7468511,16.8819248 45.7609763,15.5141053 C45.7645353,15.2069774 45.5725353,14.9319699 45.2838135,14.8276692" id="Fill-4" fill="#333333" mask="url(#mask-4)"></path>
                                        </g>
                                        <path d="M46.0315308,1.74676692 C44.9524331,1.74676692 44.0779669,2.62159398 44.0779669,3.70069173 C44.0779669,4.77942857 44.9524331,5.65425564 46.0315308,5.65425564 C47.1102677,5.65425564 47.9850947,4.77942857 47.9850947,3.70069173 C47.9850947,2.62159398 47.1102677,1.74676692 46.0315308,1.74676692" id="Fill-7" fill="#333333"></path>
                                        <path d="M34.4643248,4.52473985 C34.482009,4.52618346 34.4996932,4.52726617 34.5170165,4.52726617 C34.792385,4.52726617 35.0280541,4.31794286 35.0554827,4.03788271 C35.0601744,3.98735639 35.1204451,3.70765714 35.2897083,3.60083008 C35.4607759,3.4929203 35.7458887,3.56113083 35.9555729,3.63764211 C36.2367158,3.73977744 36.5470917,3.59469474 36.649588,3.31391278 C36.7513624,3.03276992 36.6070015,2.72203308 36.3254977,2.61989774 C35.6899489,2.3889203 35.1475128,2.41129624 34.7122647,2.68522105 C34.0770767,3.08618346 33.9861293,3.84804812 33.9774677,3.93358195 C33.9485955,4.23132632 34.1669414,4.49586767 34.4643248,4.52473985" id="Fill-9" fill="#333333"></path>
                                    </g>
                                </g>
                            </g>
                        </g>
                    </g>
                </g>
            </g>
        </g>
    </g>
</svg>