<?xml version="1.0" encoding="UTF-8"?>
<svg width="22px" height="22px" viewBox="0 0 22 22" version="1.1" xmlns="http://www.w3.org/2000/svg" xmlns:xlink="http://www.w3.org/1999/xlink">
    <!-- Generator: sketchtool 61 (101010) - https://sketch.com -->
    <title>E0D6346A-86BB-4DA6-B33E-52744BA4DF8D</title>
    <desc>Created with sketchtool.</desc>
    <defs>
        <path d="M11.75,14.75 L11.75,8 L8.75,8 L8.75,9.5 L10.25,9.5 L10.25,14.75 L8,14.75 L8,16.25 L14,16.25 L14,14.75 L11.75,14.75 L11.75,14.75 Z M11,4.25 C10.3786797,4.25 9.875,4.75367966 9.875,5.375 C9.875,5.99632034 10.3786797,6.5 11,6.5 C11.6213203,6.5 12.125,5.99632034 12.125,5.375 C12.125,4.75367966 11.6213203,4.25 11,4.25 L11,4.25 Z M11,21.5 C5.20101013,21.5 0.5,16.7989899 0.5,11 C0.5,5.20101013 5.20101013,0.5 11,0.5 C16.7989899,0.5 21.5,5.20101013 21.5,11 C21.4935108,16.7962998 16.7962998,21.4935108 11,21.5 Z M11,2 C6.02943725,2 2,6.02943725 2,11 C2,15.9705627 6.02943725,20 11,20 C15.9705627,20 20,15.9705627 20,11 C19.9944614,6.03173323 15.9682668,2.00553863 11,2 Z" id="path-1"></path>
    </defs>
    <g id="Recommendations---Empty-State" stroke="none" stroke-width="1" fill="none" fill-rule="evenodd">
        <g id="Recommendations-ES---Step-1" transform="translate(-1070.000000, -261.000000)">
            <g id="Section" transform="translate(196.000000, 257.000000)">
                <g id="Intro">
                    <g id="Group-19" transform="translate(874.000000, 4.000000)">
                        <g id="icon/status/info/24">
                            <mask id="mask-2" fill="white">
                                <use xlink:href="#path-1"></use>
                            </mask>
                            <use id="icon-color" fill="#00AEAA" xlink:href="#path-1"></use>
                        </g>
                    </g>
                </g>
            </g>
        </g>
    </g>
</svg>