<?xml version="1.0" encoding="UTF-8"?>
<svg width="130px" height="136px" viewBox="0 0 130 136" version="1.1" xmlns="http://www.w3.org/2000/svg" xmlns:xlink="http://www.w3.org/1999/xlink">
    <title>B6AA0E59-EDBF-4342-99CC-176611EC2C9C@1x</title>
    <g id="Version-B" stroke="none" stroke-width="1" fill="none" fill-rule="evenodd" opacity="0.100000001">
        <g id="Recommendations-v4---Mobile" transform="translate(-180.000000, -1699.000000)" fill="#EF8F7A">
            <g id="Card-Copy-3" transform="translate(10.000000, 1501.000000)">
                <g id="Group-8">
                    <g id="Rectangle-2">
                        <path d="M252,198 C206.712651,198 170,234.712651 170,280 C170,325.287349 206.712651,362 252,362 C297.287349,362 334,325.287349 334,280 C334,258.252248 325.360739,237.395227 309.982756,222.017244 C294.604773,206.639261 273.747752,198 252,198 Z M252,350 C213.340068,350 182,318.659932 182,280 C182,241.340068 213.340068,210 252,210 C290.659932,210 322,241.340068 322,280 C322,298.565154 314.625021,316.369928 301.497475,329.497475 C288.369928,342.625021 270.565154,350 252,350 Z M223.999772,250.000456 C216.267911,250.000456 210,256.268367 210,264.000228 C210,271.732089 216.267911,278 223.999772,278 C231.731633,278 237.999544,271.732089 237.999544,264.000228 C238.029684,260.2781 236.564393,256.699664 233.932365,254.067635 C231.300336,251.435607 227.7219,249.970316 223.999772,250.000456 L223.999772,250.000456 Z M279.999772,250.000456 C272.267911,250.000456 266,256.268367 266,264.000228 C266,271.732089 272.267911,278 279.999772,278 C287.731633,278 293.999544,271.732089 293.999544,264.000228 C294.029684,260.2781 292.564393,256.699664 289.932365,254.067635 C287.300336,251.435607 283.7219,249.970316 279.999772,250.000456 L279.999772,250.000456 Z M212,304 C220.543521,318.869228 236.141923,328 253,328 C269.858077,328 285.456479,318.869228 294,304 L212,304 Z" id="icon-color"></path>
                    </g>
                </g>
            </g>
        </g>
    </g>
</svg>