<?xml version="1.0" encoding="UTF-8"?>
<svg width="36px" height="48px" viewBox="0 0 36 48" version="1.1" xmlns="http://www.w3.org/2000/svg" xmlns:xlink="http://www.w3.org/1999/xlink">
    <title>DEA6A3B2-9A52-42AA-96A5-2448B661FABD</title>
    <g id="Main" stroke="none" stroke-width="1" fill="none" fill-rule="evenodd">
        <g id="Recommendations---Desktop---Overlay---Tab-1---D" transform="translate(-944.000000, -669.000000)" fill="#505050">
            <g id="Modal" transform="translate(303.000000, 112.000000)">
                <g id="Group-11" transform="translate(60.000000, 466.000000)">
                    <g id="Oval" transform="translate(0.000000, 42.000000)">
                        <g id="Group-14-Copy-2" transform="translate(483.000000, 0.000000)">
                            <g id="Group-9" transform="translate(70.000000, 30.000000)">
                                <g id="Group-12-Copy-2">
                                    <g id="meal-plan3" transform="translate(28.000000, 19.000000)">
                                        <path d="M7,2 L7,6 C7,6.131 6.975,6.26 6.925,6.381 C6.516,7.374 6.037,8.369 5.53,9.422 C3.875,12.859 2,16.756 2,22 L2,45 C2,45.552 2.449,46 3,46 L33,46 C33.551,46 34,45.552 34,45 L34,22 C34,16.756 32.125,12.859 30.47,9.422 C29.963,8.369 29.484,7.374 29.075,6.381 C29.025,6.26 29,6.131 29,6 L29,2 L7,2 Z M33,48 L3,48 C1.346,48 0,46.654 0,45 L0,22 C0,16.3 1.98,12.186 3.728,8.555 C4.19,7.594 4.628,6.684 5,5.8 L5,1 C5,0.447 5.448,0 6,0 L30,0 C30.552,0 31,0.447 31,1 L31,5.8 C31.372,6.684 31.81,7.594 32.272,8.555 C34.02,12.186 36,16.3 36,22 L36,45 C36,46.654 34.654,48 33,48 L33,48 Z" id="Fill-1"></path>
                                        <path d="M23,6 L13,6 C12.448,6 12,5.553 12,5 C12,4.447 12.448,4 13,4 L23,4 C23.552,4 24,4.447 24,5 C24,5.553 23.552,6 23,6" id="Fill-3"></path>
                                        <path d="M11.46,36.7627 L11.215,38.1627 C11.106,38.7857 11.307,39.4227 11.752,39.8677 C12.484,40.6007 13.759,40.6007 14.492,39.8677 C14.888,39.4717 15.093,38.9237 15.055,38.3637 C15.016,37.8007 14.744,37.3007 14.288,36.9547 L13.379,36.2647 L14.182,35.4537 C14.254,35.3817 21.358,28.2157 23.249,26.3887 L24.059,25.6047 L24.74,26.5027 C25.086,26.9587 25.586,27.2317 26.148,27.2697 C26.705,27.3057 27.257,27.1037 27.654,26.7067 C28.409,25.9507 28.409,24.7227 27.654,23.9667 C27.209,23.5217 26.571,23.3217 25.948,23.4307 L24.546,23.6757 L24.791,22.2737 C24.9,21.6497 24.699,21.0117 24.255,20.5677 C23.5,19.8117 22.271,19.8117 21.514,20.5677 C21.12,20.9617 20.914,21.5087 20.951,22.0687 C20.988,22.6287 21.257,23.1277 21.71,23.4747 L22.603,24.1587 L21.819,24.9657 C19.811,27.0327 14.811,32.0337 12.751,34.0337 L11.944,34.8177 L11.26,33.9247 C10.914,33.4717 10.414,33.2017 9.852,33.1657 C9.298,33.1307 8.748,33.3337 8.353,33.7297 C7.986,34.0957 7.785,34.5817 7.785,35.0997 C7.785,35.6167 7.986,36.1037 8.353,36.4697 C8.797,36.9127 9.436,37.1167 10.059,37.0057 L11.46,36.7627 Z M13.122,42.4357 C12.07,42.4357 11.081,42.0267 10.337,41.2827 C9.716,40.6607 9.329,39.8557 9.218,39.0017 C8.365,38.8927 7.56,38.5047 6.939,37.8837 C6.194,37.1397 5.785,36.1517 5.785,35.0997 C5.785,34.0467 6.195,33.0587 6.939,32.3157 C7.74,31.5127 8.856,31.0987 9.983,31.1697 C10.735,31.2197 11.45,31.4857 12.048,31.9237 C14.111,29.8987 17.68,26.3297 19.71,24.2627 C19.271,23.6647 19.005,22.9507 18.956,22.1997 C18.881,21.0657 19.298,19.9547 20.1,19.1537 C21.636,17.6177 24.135,17.6187 25.669,19.1537 C26.291,19.7747 26.678,20.5797 26.788,21.4337 C27.641,21.5437 28.446,21.9307 29.068,22.5527 C30.603,24.0877 30.603,26.5857 29.068,28.1207 C28.263,28.9267 27.147,29.3417 26.011,29.2657 C25.258,29.2137 24.544,28.9457 23.947,28.5027 C21.956,30.4647 17.909,34.5377 16.293,36.1667 C16.732,36.7637 16.999,37.4767 17.05,38.2277 C17.128,39.3647 16.711,40.4777 15.906,41.2827 C15.163,42.0267 14.173,42.4357 13.122,42.4357 L13.122,42.4357 Z" id="Fill-5"></path>
                                    </g>
                                </g>
                            </g>
                        </g>
                    </g>
                </g>
            </g>
        </g>
    </g>
</svg>