<?xml version="1.0" encoding="UTF-8"?>
<svg width="56px" height="56px" viewBox="0 0 56 56" version="1.1" xmlns="http://www.w3.org/2000/svg" xmlns:xlink="http://www.w3.org/1999/xlink">
    <title>D4B712E3-3818-4460-98BA-B551DA032D8E</title>
    <defs>
        <polygon id="path-1" points="0 0.476795455 43.8957004 0.476795455 43.8957004 45.6060606 0 45.6060606"></polygon>
    </defs>
    <g id="Page-1" stroke="none" stroke-width="1" fill="none" fill-rule="evenodd">
        <g id="Step-1.4" transform="translate(-560.000000, -449.000000)">
            <g id="Form" transform="translate(387.000000, 310.000000)">
                <g id="Row-Copy" transform="translate(130.000000, 70.000000)">
                    <g id="Gender-bloc" transform="translate(0.000000, 53.000000)">
                        <g id="Stacked-Group" transform="translate(43.000000, 16.000000)">
                            <g id="male-ic">
                                <g id="Group-14" transform="translate(5.833333, 4.666667)">
                                    <g>
                                        <g id="Group-3" transform="translate(0.000000, 0.053561)">
                                            <mask id="mask-2" fill="white">
                                                <use xlink:href="#path-1"></use>
                                            </mask>
                                            <g id="Clip-2"></g>
                                            <path d="M18.0203389,43.4849015 C9.24761667,43.4849015 2.11100556,36.3136136 2.11100556,27.4989167 C2.11100556,18.68475 9.24761667,11.5134621 18.0203389,11.5134621 C26.7930611,11.5134621 33.9302,18.68475 33.9302,27.4989167 C33.9302,36.3136136 26.7930611,43.4849015 18.0203389,43.4849015 M42.8406722,0.487401515 L28.1030056,0.476795455 L28.1024778,0.476795455 C27.5198111,0.476795455 27.04745,0.951416667 27.0469222,1.53687121 C27.0463944,2.12232576 27.5187556,2.59747727 28.1014222,2.59800758 L40.4640889,2.60702273 L29.5670611,13.5561894 C29.5570333,13.5667955 29.5507,13.5779318 29.5412,13.5885379 C26.4151722,10.9704318 22.3982556,9.39225 18.0203389,9.39225 C8.08386667,9.39225 -0.000105555556,17.5149015 -0.000105555556,27.4989167 C-0.000105555556,37.4834621 8.08386667,45.6061136 18.0203389,45.6061136 C27.9568111,45.6061136 36.0413111,37.4834621 36.0413111,27.4989167 C36.0413111,22.6742197 34.1497556,18.287553 31.0770333,15.0389167 L41.7824778,4.28225 L41.7745611,15.5766439 C41.7740333,16.1620985 42.2463944,16.63725 42.8295889,16.6377803 L42.8301167,16.6377803 C43.4127833,16.6377803 43.8851444,16.1631591 43.8856722,15.5777045 L43.8957004,1.54906818 C43.8962278,0.963083333 43.4238667,0.487931818 42.8406722,0.487401515" id="Fill-1" fill="#37464C" mask="url(#mask-2)"></path>
                                        </g>
                                        <path d="M21.3470806,33.4290303 C21.3465528,33.4290303 21.346025,33.4295606 21.346025,33.4300909 C20.9058583,33.9232727 20.757025,34.0892576 19.6914417,33.2402424 C19.3900806,33.0010758 18.8295806,32.5556212 18.0342194,32.5232727 C18.0194417,32.5232727 17.9766917,32.5232727 17.9619139,32.5243333 C17.218275,32.5556212 16.6757194,32.9819848 16.3453306,33.2418333 C15.285025,34.0887273 15.1356639,33.923803 14.6933861,33.4290303 C14.2658861,32.9528182 14.040525,32.1817576 14.2479417,31.8991061 C14.2859417,31.8471364 14.4321361,31.7378939 14.539275,31.6578182 C14.7609417,31.4870606 14.990525,31.3094091 15.1931917,31.136 C15.8249417,30.616303 16.3210528,30.0950152 16.6920806,29.2412273 C16.7374694,29.135697 16.7807472,29.030697 16.8234972,28.925697 C17.0272194,28.4282727 17.1464972,28.1599394 17.4077472,27.9822879 C17.5871917,27.8608485 17.8051639,27.7998636 18.0226083,27.7998636 C18.2389972,27.7998636 18.4553861,27.8603182 18.6321917,27.9822879 C18.8955528,28.161 19.0148306,28.4309242 19.2196083,28.931 C19.2613028,29.0333485 19.303525,29.1362273 19.3489139,29.2412273 C19.7199417,30.0966061 20.2171083,30.6173636 20.8309139,31.1211515 C21.0483583,31.3083485 21.2784694,31.4865303 21.5133306,31.6668333 C21.6093861,31.7384242 21.754525,31.8471364 21.7946361,31.9022879 C22.0004694,32.1817576 21.7745806,32.9528182 21.3470806,33.4290303 M22.7821083,29.9714545 C22.5899972,29.8240303 22.391025,29.6707727 22.1851917,29.4947121 C21.6869694,29.0853182 21.4679417,28.8175152 21.2848028,28.3948636 C21.2457472,28.3047121 21.2088028,28.2145606 21.1718583,28.1249394 C20.9253861,27.5214545 20.6187472,26.7705455 19.8202194,26.2291061 C18.752525,25.4925152 17.308525,25.4903939 16.2260528,26.2248636 C15.4243583,26.7694848 15.1177194,27.5172121 14.8712472,28.1180455 C14.8343028,28.2097879 14.7963028,28.3015303 14.7567194,28.3932727 C14.572525,28.8175152 14.3534972,29.0853182 13.8404972,29.5074394 C13.651025,29.6697121 13.451525,29.8235 13.2683861,29.9635 C13.0467194,30.1294848 12.7706917,30.3357727 12.5469139,30.6428182 C11.6138028,31.9155455 12.1479139,33.7599394 13.123775,34.8475909 C13.8668861,35.6785758 14.6068306,35.9596364 15.2760528,35.9596364 C16.3353028,35.9591061 17.2177472,35.2548636 17.6526361,34.9075152 C17.7223028,34.8528939 17.9186361,34.6985758 18.0183861,34.6545606 C18.0891083,34.6842576 18.2104972,34.7680455 18.3809694,34.9032727 C19.0971639,35.4738788 21.0013861,36.9900152 22.9156361,34.8481212 C23.8930806,33.7583485 24.4277194,31.9139545 23.4983028,30.6491818 C23.274525,30.3394848 22.9969139,30.1316061 22.7821083,29.9714545" id="Fill-4" fill="#37464C"></path>
                                        <path d="M20.3113694,24.5485758 C21.1716472,24.8444848 21.7891472,24.0670606 22.1047583,23.4407727 C22.2710083,23.1093333 22.3966194,22.7625152 22.4457028,22.4135758 C22.5000639,22.0227424 22.4615361,21.6297879 22.2847306,21.2453182 C22.0060639,20.6407727 21.4577028,20.1778182 20.7040361,20.2075152 C19.1571194,20.2663788 18.8773972,21.848803 19.1623972,22.9444091 C19.3180917,23.546303 19.618925,24.3088788 20.3113694,24.5485758" id="Fill-6" fill="#37464C"></path>
                                        <path d="M24.5047222,24.9159697 C22.9578056,24.9748333 22.6780833,26.5572576 22.9615,27.6544545 C23.1177222,28.2563485 23.4196111,29.0189242 24.1104722,29.2580909 C24.97075,29.5529394 25.5887778,28.7765758 25.9043889,28.1508182 C26.0722222,27.8177879 26.1957222,27.4725606 26.2448056,27.1220303 C26.30075,26.7327879 26.2622222,26.339303 26.0838333,25.954303 C25.8056944,25.3508182 25.2573333,24.8862727 24.5047222,24.9159697" id="Fill-8" fill="#37464C"></path>
                                        <path d="M14.9585944,24.5604545 C15.8278444,24.8319697 16.4205389,24.0402273 16.7160944,23.4033333 C16.8717889,23.0660606 16.9852611,22.7181818 17.0222056,22.3676515 C17.0649556,21.9768182 17.0132333,21.5838636 16.8242889,21.2052273 C16.5255667,20.6081061 15.9624278,20.1605303 15.2114,20.2098485 C13.6655389,20.3100758 13.4380667,21.8993939 13.7579,22.9886364 C13.93365,23.5836364 14.2598167,24.3409091 14.9585944,24.5604545" id="Fill-10" fill="#37464C"></path>
                                        <path d="M12.85445,28.1117879 C13.0101444,27.7745152 13.1230889,27.4266364 13.1621444,27.0761061 C13.2048944,26.685803 13.1526444,26.2923182 12.9637,25.9136818 C12.6655056,25.3170909 12.1023667,24.8689848 11.3497556,24.918303 C9.80547778,25.0185303 9.57800556,26.6083788 9.89731111,27.6970909 C10.0730611,28.2926212 10.3992278,29.0498939 11.0980056,29.2689091 C11.9677833,29.5404242 12.55995,28.7486818 12.85445,28.1117879" id="Fill-12" fill="#37464C"></path>
                                    </g>
                                </g>
                            </g>
                        </g>
                    </g>
                </g>
            </g>
        </g>
    </g>
</svg>