<?xml version="1.0" encoding="UTF-8"?>
<svg width="48px" height="48px" viewBox="0 0 48 48" version="1.1" xmlns="http://www.w3.org/2000/svg" xmlns:xlink="http://www.w3.org/1999/xlink">
    <title>BCF1FBDA-5DF0-4627-8E20-DC9C932CF47D@1x</title>
    <defs>
        <polygon id="path-1" points="0 0.242595592 16.9510248 0.242595592 16.9510248 12.8597444 0 12.8597444"></polygon>
        <polygon id="path-3" points="0.202465164 0.245368421 16.8060185 0.245368421 16.8060185 13.7072526 0.202465164 13.7072526"></polygon>
        <polygon id="path-5" points="0.0280083967 0.0626237874 30.9947728 0.0626237874 30.9947728 34 0.0280083967 34"></polygon>
    </defs>
    <g id="HungryBark---Product-Page" stroke="none" stroke-width="1" fill="none" fill-rule="evenodd">
        <g id="Product-Page---Desktop" transform="translate(-196.000000, -1763.000000)">
            <g id="Stepper-2-Copy" transform="translate(0.000000, 1239.000000)">
                <g id="Group-13" transform="translate(196.000000, 96.000000)">
                    <g id="4-icons" transform="translate(0.000000, 428.000000)">
                        <g id="Group-16">
                            <g id="Bullets">
                                <g id="icon/image/bee/24">
                                    <g id="Group-10" transform="translate(7.000000, 4.000000)">
                                        <g id="Group-3" transform="translate(0.000000, 5.000000)">
                                            <mask id="mask-2" fill="white">
                                                <use xlink:href="#path-1"></use>
                                            </mask>
                                            <g id="Clip-2"></g>
                                            <path d="M7.63832174,12.5979389 C8.23110435,12.7723556 8.82906087,12.8597444 9.43256087,12.8597444 C11.0294522,12.8597444 12.6618217,12.2498278 14.3056478,11.0361333 C14.6312348,10.7956333 14.6959087,10.3428 14.4497783,10.0243 C14.2036478,9.70616111 13.7405826,9.64296667 13.4142565,9.88346667 C11.5468435,11.2621889 9.74927826,11.7096056 8.06775652,11.2159667 C4.62562609,10.20305 2.38643043,5.61260556 1.67834348,3.95474444 C3.63777826,3.06713333 9.90966957,0.497827778 13.3011696,2.29905 C14.5754304,2.97577222 15.2868435,4.20788333 15.4764304,6.06652222 C15.516713,6.46338333 15.8744522,6.75299444 16.2850391,6.71363333 C16.6911913,6.67427222 16.9879522,6.32038333 16.9473,5.92352222 C16.7093,3.58568889 15.7196043,1.93902222 14.0066696,1.02974444 C9.29434348,-1.47131111 0.762191304,2.77102222 0.400386957,2.95338333 C0.0725826087,3.11841111 -0.0804173913,3.49432778 0.0419086957,3.83413333 C0.148713043,4.13241111 2.72014783,11.1480778 7.63832174,12.5979389" id="Fill-1" fill="#EF8F7A" mask="url(#mask-2)"></path>
                                        </g>
                                        <g id="Group-6" transform="translate(18.000000, 0.000000)">
                                            <mask id="mask-4" fill="white">
                                                <use xlink:href="#path-3"></use>
                                            </mask>
                                            <g id="Clip-5"></g>
                                            <path d="M0.925957447,8.72693684 L0.931382979,8.72693684 C1.32997872,8.72398947 1.65117021,8.39204211 1.6493617,7.98567368 C1.649,7.95141053 1.66202128,4.52546316 4.20406383,2.78025263 C6.54753191,1.17209474 10.2784894,1.37877895 15.2974681,3.39330526 C15.079,4.92188421 14.2015106,9.33925263 11.1982979,11.2841474 C9.33553191,12.4910947 6.92044681,12.5430421 4.02068085,11.4385158 C3.64776596,11.2955684 3.2296383,11.4893579 3.08965957,11.8706737 C2.95004255,12.2516211 3.13957447,12.6764105 3.51393617,12.8186211 C5.06889362,13.4114105 6.51570213,13.7072526 7.84676596,13.7072526 C9.38074468,13.7072526 10.761,13.3137789 11.9748723,12.5275684 C16.2205319,9.77841053 16.7822553,3.25625263 16.8035957,2.97993684 C16.8292766,2.66051579 16.6487872,2.36135789 16.357617,2.23977895 C10.5949787,-0.171905263 6.22923404,-0.397010526 3.38155319,1.56777895 C0.197851064,3.76504211 0.200744681,7.82688421 0.202465164,7.9982 C0.206531915,8.40272632 0.529531915,8.72693684 0.925957447,8.72693684" id="Fill-4" fill="#EF8F7A" mask="url(#mask-4)"></path>
                                        </g>
                                        <g id="Group-9" transform="translate(1.000000, 6.000000)">
                                            <mask id="mask-6" fill="white">
                                                <use xlink:href="#path-5"></use>
                                            </mask>
                                            <g id="Clip-8"></g>
                                            <path d="M6.95636395,21.8930804 C7.65061977,21.5726674 8.63360814,21.6621022 9.87865465,22.1584283 L11.7462244,23.0516674 C11.5112012,23.5952978 11.4106314,24.216537 11.4538872,24.9139065 L6.20587558,22.5712326 C6.40485233,22.2663413 6.65177093,22.0331457 6.95636395,21.8930804 M29.9388988,26.0880152 L25.271957,28.5984717 C23.8308174,29.3730804 19.1263872,31.9027543 19.0809686,31.9278848 C17.0173058,33.0761239 15.6994453,32.2106022 15.6515035,32.1788196 C15.6194221,32.155537 15.5851779,32.1352109 15.5498523,32.1174717 L1.54650349,25.2187978 C1.65211977,24.7816022 1.89615465,24.1415152 2.44910814,23.7749065 C3.15129419,23.3096239 4.2186314,23.3584065 5.59632907,23.9109065 L12.2281663,26.8722326 C12.3164802,26.9114065 12.411643,26.9324717 12.5075267,26.9335804 L21.7073174,27.0433413 L21.7156081,27.0433413 C22.109957,27.0433413 22.4325733,26.7181239 22.4365384,26.3127109 C22.4412244,25.9043413 22.1222128,25.5695152 21.7242593,25.5650804 L12.9800965,25.4604935 C12.7973407,24.542863 12.8856547,23.8196239 13.2497244,23.3144283 C13.7796081,22.5786239 14.767643,22.4507543 14.8999337,22.4367109 L21.3955151,22.4367109 C21.7585035,22.4367109 22.0652593,22.1591674 22.1103174,21.7892326 C22.2527012,20.6265804 22.6942709,19.7961674 23.4620616,19.2503196 C25.2081547,18.0085804 28.0396081,18.6789717 28.0731314,18.6874717 C28.45955,18.7809717 28.8484919,18.538537 28.9422128,18.1419935 C29.0355733,17.7450804 28.7976663,17.34595 28.4108872,17.2502326 C28.2699453,17.2151239 24.9284337,16.4142761 22.6463291,18.0314935 C22.3251547,18.2587761 22.0447128,18.5241239 21.7995965,18.8201457 C20.5934802,18.014863 18.9778756,17.4852761 17.1697826,17.3814283 C17.1993407,15.5332326 17.2847709,12.3860152 17.5342128,9.86558043 C17.8867477,6.29188478 21.2033872,2.85603696 25.5988988,1.51045 C25.9802709,1.39366739 26.1972709,0.981971739 26.0837244,0.590602174 C25.969457,0.199602174 25.566457,-0.0239847826 25.1861663,0.094276087 C20.5866314,1.50231957 17.0331663,5.0305587 16.2340151,8.86258043 C15.8912128,8.22951522 15.4640616,7.65077609 14.9507593,7.12821087 C11.6460151,3.76147174 6.02888721,3.98321087 5.79242209,3.99281957 C5.39518953,4.01129783 5.08771279,4.3568413 5.10537558,4.76410217 C5.12303837,5.17173261 5.46223605,5.48660217 5.85730581,5.46997174 C5.90849186,5.46701522 11.0883756,5.27151522 13.9385733,8.18110217 C15.2676081,9.53777609 15.8969802,11.3918848 15.8097477,13.6920587 C15.806864,13.7548848 15.8144337,13.8154935 15.8266895,13.8746239 C15.7708174,15.2146674 15.7423407,16.4630587 15.7275616,17.3862326 C12.9119686,17.5835804 10.5685849,18.8160804 9.57442209,20.4990804 C8.31639884,20.1309935 7.23752674,20.1420804 6.3648407,20.5449065 C5.6889686,20.8560804 5.15331744,21.3974935 4.78924767,22.1192543 C3.54239884,21.8472543 2.49488721,21.9839935 1.66617791,22.5331674 C0.146456977,23.5406022 0.0329104651,25.5247978 0.0289453488,25.6090587 C0.0141662791,25.9058196 0.175294186,26.1829935 0.436631395,26.3119717 L14.8858756,33.430537 C15.1064802,33.5709717 15.8757128,34.000037 17.0273988,34.000037 C17.7887012,34.000037 18.7168988,33.8122978 19.76405,33.229863 C19.8750733,33.1696239 25.9409802,29.9078413 25.9409802,29.9078413 L30.6082826,27.3973848 C30.9611779,27.2074283 31.0970733,26.7606239 30.9121547,26.3991891 C30.7268756,26.0381239 30.2910733,25.8984283 29.9388988,26.0880152" id="Fill-7" fill="#EF8F7A" mask="url(#mask-6)"></path>
                                        </g>
                                    </g>
                                </g>
                            </g>
                        </g>
                    </g>
                </g>
            </g>
        </g>
    </g>
</svg>