<?xml version="1.0" encoding="UTF-8"?>
<svg width="48px" height="49px" viewBox="0 0 48 49" version="1.1" xmlns="http://www.w3.org/2000/svg" xmlns:xlink="http://www.w3.org/1999/xlink">
    <title>BE9C6163-3768-4B69-851B-267C96EC5204@1x</title>
    <defs>
        <polygon id="path-1" points="0 0 47 0 47 28 0 28"></polygon>
    </defs>
    <g id="Page-1" stroke="none" stroke-width="1" fill="none" fill-rule="evenodd">
        <g id="HB-HomePage---Tablet" transform="translate(-428.000000, -1993.000000)">
            <g id="4-icons" transform="translate(40.000000, 1993.000000)">
                <g id="Group-16-Copy-3" transform="translate(388.000000, 0.604955)">
                    <g id="icon/image/bee/24">
                        <g id="Group-18" transform="translate(1.000000, 10.000000)">
                            <g id="Group-3">
                                <mask id="mask-2" fill="white">
                                    <use xlink:href="#path-1"></use>
                                </mask>
                                <g id="Clip-2"></g>
                                <path d="M42.7554655,8.35035768 C42.7419077,8.35145981 41.3934616,8.43154847 39.795846,8.18136326 C39.6049383,8.14205369 39.1000038,8.08804895 38.5118907,8.4363244 C37.651157,8.94587931 37.0117444,10.0766724 36.6116076,11.7971091 C35.9542401,14.6200506 34.3639531,15.6696529 30.7418362,15.6696529 C30.513553,15.6696529 30.3123854,15.7761929 30.1782736,15.940044 C30.0972936,16.0013963 30.0225428,16.0781785 29.9518226,16.16488 C29.9360663,16.1825142 29.9199436,16.199781 29.9067523,16.2188848 C29.3274334,16.9867072 29.04895,18.6226467 28.7151363,20.9147253 C28.6198656,21.5638843 28.5304578,22.1770401 28.4571727,22.4676371 C28.4337214,22.5569102 28.3725283,22.7975436 28.2908154,22.9228199 C27.6917096,23.0385443 25.6056487,23.2060692 24.7306244,23.1715356 C24.7372201,22.8070954 24.8372543,22.2688849 25.067736,22.0583767 C25.1106078,22.0186997 25.2113748,21.9264875 25.5616777,22.0668264 C26.0285039,22.2541898 27.261526,22.2112064 27.5968054,22.0425794 C28.1068698,21.788353 28.0570359,21.4209738 27.8921444,20.2038466 C27.8115308,19.6134683 27.7074659,18.9150805 27.6400436,18.4687148 C27.6077981,18.2541654 27.5850798,18.1002335 27.5781177,18.0495352 C27.5572314,17.8897252 27.5323145,17.7236698 27.5070311,17.5535733 C27.4410745,17.1138204 27.3725529,16.6443098 27.3692551,16.2188848 C27.394172,16.1340202 27.4058976,16.0432775 27.3985691,15.9492284 C27.3963706,15.9253488 27.3894085,15.903306 27.3861107,15.8801612 C27.4124933,15.6127091 27.4769842,15.3731779 27.6066989,15.1898557 C27.9082671,14.7629611 28.411003,14.2556105 28.7426182,13.9201933 C28.8235982,13.8382677 28.8961505,13.7647919 28.9562443,13.7023374 C29.2372927,13.4110058 29.2299642,12.9459037 28.9390223,12.6633891 C28.647714,12.3816093 28.1841856,12.3885895 27.9027707,12.680656 L27.7019695,12.8849188 C27.3359104,13.255237 26.7826077,13.8140207 26.4114186,14.3401077 C26.2095181,14.6248265 26.0827349,14.9363641 26.0050526,15.2600251 C24.9717325,15.1380552 23.9494051,14.5285732 23.0509295,13.9415013 L22.9102221,13.8496565 C21.7083462,13.0630977 20.3448766,12.1714684 18.7560553,12.0829301 C18.5098173,12.0700718 18.274572,12.1799182 18.1276354,12.3775681 C17.9814316,12.5752181 17.942224,12.8334857 18.0257691,13.065302 C18.6813044,14.8941155 18.3775376,16.4631919 17.8392584,18.6487306 C17.6080439,19.5881191 17.4457174,20.3258165 17.4614737,21.2637355 C17.4856577,22.6968817 19.0019268,25.1135019 19.4819443,25.368463 C19.7226859,25.4955762 19.998238,25.4996174 20.6676975,25.480881 C20.8080385,25.4768399 20.9465474,25.4676554 20.9670672,25.4716965 C21.6819636,25.5793386 22.0249379,26.1113037 22.1861652,26.5304833 L19.21995,26.5304833 C19.2096901,26.5154208 19.2030945,26.4992561 19.1913688,26.4845609 C19.0829069,26.3409157 18.9568565,26.1454699 18.8337375,25.9570044 C18.7285733,25.7953576 18.6252413,25.6377519 18.5361999,25.5121083 C17.9337962,24.6627276 16.5512725,22.175938 16.4303521,21.820315 C16.3424099,21.5017972 16.3896788,21.1061299 16.4402455,20.687685 L16.4611318,20.5061997 C16.6564366,18.7909063 16.8997432,16.6564333 15.5923367,15.0539254 C15.3856727,14.799699 15.0500269,14.5440031 14.6246068,14.2207094 C13.7385897,13.5462013 12.3985713,12.5270915 12.4179919,11.4907148 C12.4256868,11.0851282 12.1039652,10.7500784 11.6986985,10.7427308 C11.3033252,10.733179 10.9603509,11.0583095 10.9522895,11.4638961 C10.925174,12.9470059 12.0940717,14.0884529 13.1347203,14.9224037 C12.1303478,17.2857539 9.78375834,17.9723855 7.65885637,18.4290378 C6.69222567,18.6366071 6.07076787,18.7258802 5.69921233,18.7791502 C5.32985534,18.8324202 5.14444399,18.8588715 4.96196405,18.9503489 C4.35882753,19.2530693 3.46951264,20.5936359 3.39146399,22.0892365 C3.36654705,22.5708706 2.76047913,22.8100345 1.97009914,23.0723432 L1.79714626,23.1303891 C1.7147005,23.1509623 1.53954907,23.0837319 1.48568451,23.0029085 C1.73155608,22.6436117 2.15404478,21.95698 2.99096082,20.5976771 C3.90849049,19.1075872 4.32658208,18.4103015 4.51748981,18.0418202 C4.73258163,17.970916 5.11989348,17.8698867 5.41999603,17.7912676 C6.43426206,17.527122 7.58410555,17.2269732 8.21472398,16.7769337 C9.68225845,15.7291683 9.98639169,13.816225 10.2307976,12.2780084 C10.2645087,12.0645611 10.2927235,11.8621352 10.3194725,11.6692611 C10.4634778,10.6295781 10.548855,10.0722638 11.2567892,9.42971768 C11.4612547,9.37240653 11.6389711,9.22839389 11.7309439,9.01862039 C11.8936369,8.64720005 11.7250811,8.21369262 11.3549913,8.05057627 C10.0747003,7.48775138 9.57599503,6.18098367 9.38325518,5.18428398 C9.26489971,4.57149553 9.28981665,3.92527556 9.33855125,3.31469138 C9.44005114,3.69823524 9.56353656,4.06157324 9.7086411,4.40690966 C10.2516838,5.69494103 11.1366016,6.74711497 12.2010679,7.36982267 C12.2160914,7.37827239 12.2322141,7.3834157 12.247604,7.39113066 C12.3897771,7.54102136 12.5803184,7.6233143 12.7767225,7.6233143 C12.932087,7.6233143 13.0892836,7.57408549 13.222296,7.47121932 C16.1071647,5.24857534 18.3958589,5.67693945 21.0447495,6.17143181 C21.6295647,6.28054343 22.2338005,6.39369621 22.8600218,6.48113246 C23.4188208,6.55938422 23.9805513,6.64975949 24.543381,6.74013477 C27.3611937,7.19348067 30.2695136,7.65968483 32.9942543,6.65159639 C32.9938878,6.96901199 32.9821622,7.2776105 32.9378247,7.57628976 C32.9037471,7.80590174 32.9795972,8.03808538 33.1437559,8.20267125 C33.3064489,8.3676245 33.5387627,8.44440674 33.7670458,8.41171 C35.0209542,8.2316942 36.3873552,7.88562302 37.0205386,6.68723217 C37.3986898,5.97010803 37.37304,5.29817153 37.3517873,4.75849152 C37.3309011,4.21991366 37.3305347,3.89919164 37.5646806,3.56708087 C37.7980937,3.23570486 37.7193122,2.77721566 37.3887963,2.54319512 C37.057914,2.30843983 36.6009813,2.38816111 36.3672018,2.71916975 C35.8351518,3.47450132 35.8640995,4.21770938 35.8871843,4.81506792 C35.9047727,5.27172023 35.9186969,5.63211919 35.7248577,5.99986574 C35.5104988,6.4061871 35.0227863,6.6372686 34.4606895,6.78458765 C34.4643537,6.51970727 34.4581245,6.2581333 34.4526281,6.0006005 C34.4485974,5.82793229 34.4449332,5.65563146 34.4438339,5.48369801 L34.443101,5.37826018 C34.4398032,4.76730862 34.4357725,4.13578383 34.6922704,3.72284964 C35.9249261,1.73643047 37.8435305,1.54245426 37.9201134,1.53547406 C37.9384347,1.53400454 37.9571224,1.53180027 37.9754437,1.52922861 C39.2612311,1.33268076 40.3887226,2.14311921 40.8148756,2.5013139 C41.1798354,2.80844289 41.3784381,3.09867243 41.5403982,3.39331053 C41.3839345,3.42306824 41.2413949,3.51748469 41.1600485,3.66774277 C41.1354979,3.71182827 40.9739043,3.93997073 40.7815308,3.97083058 C40.581096,4.00389471 40.3271631,3.80183616 40.197082,3.67876414 C39.975761,3.47009277 39.6272902,3.48148153 39.4195269,3.70337855 C39.2117636,3.92527556 39.2227564,4.2739184 39.4444439,4.48222239 C39.864734,4.87788975 40.2956505,5.07700926 40.729132,5.07700926 C40.8042492,5.07700926 40.8797329,5.0711312 40.9548501,5.05937506 C41.5400318,4.96569338 41.898396,4.53622713 42.0464319,4.31910604 C42.3450688,4.75371559 42.7994365,5.15820006 43.6993778,5.38560777 C43.9807926,5.45687933 44.2328934,5.53770274 44.4571459,5.62219995 C44.1511805,6.15453237 44.2482833,6.91170084 44.7184073,7.31875696 C44.7803332,7.37239432 44.8499541,7.41941886 44.9239721,7.45505464 C43.9774948,8.28716846 42.7884438,8.34888816 42.7554655,8.35035768 L42.7554655,8.35035768 Z M33.8527894,21.3456611 C33.8652479,21.4106872 33.886867,21.4738764 33.9165475,21.5333918 L35.5922117,24.8938091 C35.7043379,25.1182778 35.923094,25.2700054 36.1722634,25.2957219 C37.3096484,25.414018 38.1623207,25.7340053 38.4536291,26.151348 C38.510425,26.2332736 38.5653889,26.3493654 38.5639518,26.5304833 L35.7094679,26.5304833 C35.6970094,26.5055015 35.6874823,26.479785 35.6724589,26.4559053 L33.5263042,23.0135625 L31.4497704,17.1263113 C31.9708276,17.1072076 32.4926176,17.0638568 33.0030485,16.9793596 L33.8527894,21.3456611 Z M21.184724,24.0183445 C21.0630707,23.9999756 20.9161341,24.0036494 20.6248257,24.0120991 C20.5101345,24.0154055 20.3441437,24.02459 20.1942757,24.0201814 C19.7978032,23.4760929 18.9403673,22.0282516 18.927176,21.2391211 C18.9147175,20.476442 19.0517607,19.8577754 19.262089,19.0010472 C19.7377094,17.0723066 20.0594311,15.488535 19.7351444,13.773609 C20.5500749,14.0605321 21.3389892,14.5763325 22.1088494,15.0803767 L22.2502896,15.1725889 C23.3228173,15.8728136 24.5532745,16.6005917 25.9266376,16.733583 C25.956318,17.0928798 26.0087169,17.4444617 26.0578179,17.7717965 C26.0816356,17.9319738 26.1054532,18.0888447 26.1245074,18.2398376 C26.1318359,18.2945771 26.1563864,18.4587956 26.190464,18.686938 C26.2509242,19.0906877 26.3967616,20.0653447 26.4817723,20.7211165 C26.3190794,20.7222186 26.168112,20.7178101 26.1061861,20.7027475 C25.2205354,20.3474919 24.4081699,20.5267729 23.8750207,21.192464 C23.211424,22.0212714 23.0956335,23.6145948 23.4928388,24.1987277 C23.6808151,24.4753642 23.9779863,24.5547181 24.1850167,24.5907213 C24.410002,24.6292961 24.7229295,24.6436239 25.0659038,24.6436239 C25.6639104,24.6436239 26.3513248,24.5995384 26.8064254,24.5646374 C28.7722987,24.4125424 28.9639392,24.2714688 29.1050131,24.1678679 C29.5722057,23.8236336 29.7572506,23.2990161 29.8770718,22.8313424 C29.969411,22.4658002 30.0558875,21.8750545 30.1650823,21.1274379 C30.2427645,20.596575 30.3706471,19.7174366 30.5245458,18.9121415 L32.1712624,23.5796938 C32.1892172,23.6300248 32.2130349,23.6788862 32.2412497,23.7240738 L33.990199,26.5304833 L23.7163584,26.5304833 C23.4657233,25.4378977 22.6841375,24.2439154 21.184724,24.0183445 L21.184724,24.0183445 Z M46.8931432,5.74968053 C46.4988692,4.76436959 45.1335675,4.23313931 44.0584748,3.96091134 C43.3827861,3.79008003 43.2728584,3.57001991 43.0071998,3.03842225 C42.7836802,2.59279131 42.4784477,1.98257451 41.7565893,1.37566412 C41.1798354,0.890356235 39.6397487,-0.204066314 37.774276,0.0733049598 C37.4466916,0.106736464 35.0059307,0.437010339 33.448622,2.94621007 C33.0305304,3.61814658 32.9799637,4.37421291 32.9766658,5.07370285 C32.9726352,5.07517237 32.968238,5.07590713 32.9642074,5.07774402 C30.4765441,6.20670021 27.7074659,5.7607019 24.7760612,5.28898705 C24.2026052,5.19714225 23.6313477,5.10529746 23.0626552,5.02557618 C22.4694121,4.94291587 21.8816655,4.8330695 21.312973,4.72689692 C18.6886329,4.23644572 15.9781829,3.73827957 12.7686612,5.98921175 C12.0519327,5.51419048 11.4487962,4.75922628 11.0592858,3.83490029 C10.6943259,2.96972234 10.4953568,1.94657135 10.4506529,0.708136167 C10.4411258,0.451338126 10.2985863,0.217684974 10.0747003,0.0927760559 C9.84971495,-0.0325002413 9.57709431,-0.0306633455 9.35467398,0.0968172267 C8.20299836,0.756262838 7.96262318,2.15009941 7.88200955,3.14092104 C7.82521358,3.83636981 7.78783817,4.65636011 7.9443019,5.46459429 C8.22461747,6.91170084 8.87648859,8.06490406 9.81490452,8.81545971 C9.1201616,9.66006442 8.99997401,10.5120167 8.86842723,11.4668352 C8.84204458,11.6505248 8.81566194,11.8433988 8.78305007,12.048029 C8.56172901,13.445172 8.33198017,14.8893395 7.36461662,15.579645 C6.95348711,15.873181 5.80877358,16.1718602 5.05173832,16.3691428 C3.9143533,16.6659852 3.33320232,16.8173454 3.2284046,17.3456367 C2.88286527,18.0127972 0.531512285,21.7997417 0.198797853,22.29901 C0.167651678,22.338687 0.139803333,22.3816703 0.116718521,22.4286949 C0.0961986883,22.4691066 0.0800759625,22.5109878 0.0676174926,22.5536038 C-0.0991061492,23.1120201 0.0456319574,23.6663953 0.467021382,24.0767578 C0.81256071,24.4136445 1.29990674,24.6024774 1.76600009,24.6024774 C1.93785369,24.6024774 2.10714231,24.5767609 2.26507173,24.5227561 L2.43142895,24.4672819 C3.30828538,24.1759502 4.77618628,23.6884381 4.85496778,22.1660188 C4.90443523,21.21965 5.41816391,20.4790136 5.61823228,20.2776898 C5.68968526,20.2651989 5.79997937,20.2494016 5.90697564,20.2339717 C6.29721889,20.1777627 6.94982286,20.084081 7.96628743,19.8658578 C9.69508335,19.4944374 12.8470762,18.8096427 14.3164428,15.8474644 C14.3791016,15.9014692 14.4289355,15.9488611 14.4578831,15.9841295 C15.3061584,17.0234451 15.2138191,18.507657 15.0053229,20.3397769 L14.9844367,20.5120777 C14.9225108,21.0289802 14.8528899,21.6142153 15.0177814,22.2123085 C15.174978,22.782481 16.7828535,25.5760322 17.3423853,26.3636932 C17.3771958,26.4136567 17.4160369,26.4713353 17.4552444,26.5304833 L3.74982821,26.5304833 C3.34492794,26.5304833 3.01697704,26.8596551 3.01697704,27.2652417 C3.01697704,27.6711956 3.34492794,28 3.74982821,28 L42.1728488,28 C42.577749,28 42.9056999,27.6711956 42.9056999,27.2652417 C42.9056999,26.8596551 42.577749,26.5304833 42.1728488,26.5304833 L40.0285262,26.5304833 C40.0303584,26.0848524 39.9068729,25.6697139 39.6544057,25.3089476 C39.0340472,24.4195226 37.7903988,24.0418568 36.728131,23.8849859 L35.2723221,20.965791 L34.4247798,16.6097762 C36.066,15.9999268 37.4345995,14.7258558 38.0388353,12.1310567 C38.5184864,10.0696922 39.2190921,9.62553078 39.4825521,9.62075485 C39.4939113,9.62553078 39.4968427,9.62663291 39.500507,9.62663291 C39.5067362,9.62700029 39.5111333,9.62406126 39.5452109,9.62957195 C41.3102829,9.9091475 42.7844131,9.82060912 42.8232542,9.81803746 C42.8939743,9.81620057 44.5839291,9.75301135 45.9525287,8.5068612 C46.6879449,7.83639422 47.2416139,6.62183868 46.8931432,5.74968053 L46.8931432,5.74968053 Z" id="Fill-1" fill="#EF8F7A" mask="url(#mask-2)"></path>
                            </g>
                        </g>
                    </g>
                </g>
            </g>
        </g>
    </g>
</svg>