<?xml version="1.0" encoding="UTF-8"?>
<svg width="48px" height="48px" viewBox="0 0 48 48" version="1.1" xmlns="http://www.w3.org/2000/svg" xmlns:xlink="http://www.w3.org/1999/xlink">
    <title>UI/Icons/Athlete@1x</title>
    <defs>
        <polygon id="path-1" points="0.00519699248 0.00280474668 24.005197 0.00280474668 24.005197 5.06382979 0.00519699248 5.06382979"></polygon>
        <polygon id="path-3" points="0 0.345809085 45.7609763 0.345809085 45.7609763 29.1336596 0 29.1336596"></polygon>
    </defs>
    <g id="UI/Icons/Athlete" stroke="none" stroke-width="1" fill="none" fill-rule="evenodd">
        <g id="Group-11" transform="translate(0.000000, 7.000000)">
            <g>
                <g id="Group-3" transform="translate(10.466165, 28.590383)">
                    <mask id="mask-2" fill="white">
                        <use xlink:href="#path-1"></use>
                    </mask>
                    <g id="Clip-2"></g>
                    <path d="M23.2833925,3.61705745 L18.9442647,3.61705745 C18.9341594,2.89148298 19.1954526,2.43429149 19.7288662,1.79480213 C19.9212271,1.56475957 19.8901895,1.22258936 19.6606556,1.03052553 C19.4311218,0.8381 19.0897083,0.869206383 18.8984301,1.09888723 C18.2361744,1.8928234 17.8514526,2.57969574 17.8622797,3.61705745 L17.2722045,3.61705745 C17.1938887,2.64118511 17.2898887,1.63492979 17.5605654,0.696312766 C17.6435729,0.408397872 17.4782797,0.107461702 17.1910015,0.0239085106 C16.9066105,-0.0581978723 16.6034526,0.106376596 16.520806,0.394291489 C16.2219789,1.43020638 16.107212,2.5384617 16.1826406,3.61705745 L15.6066406,3.61705745 C15.612415,3.56388723 15.6127759,3.50963191 15.6023098,3.45429149 C15.4579489,2.71424894 15.0764752,2.02303617 14.5275429,1.50761064 C14.309197,1.30361064 13.9670617,1.3141 13.7624301,1.53329149 C13.5581594,1.75175957 13.5693474,2.09501489 13.7873323,2.3001 C14.1605053,2.64986596 14.4196331,3.1164617 14.5268211,3.61705745 L0.727001504,3.61705745 C0.328565414,3.61705745 0.00519699248,3.94114255 0.00519699248,4.3404617 C0.00519699248,4.73978085 0.328565414,5.06386596 0.727001504,5.06386596 L23.2833925,5.06386596 C23.6818286,5.06386596 24.005197,4.73978085 24.005197,4.3404617 C24.005197,3.94114255 23.6818286,3.61705745 23.2833925,3.61705745" id="Fill-1" fill="#37464C" mask="url(#mask-2)"></path>
                </g>
                <g id="Group-6" transform="translate(0.000000, 0.015915)">
                    <mask id="mask-4" fill="white">
                        <use xlink:href="#path-3"></use>
                    </mask>
                    <g id="Clip-5"></g>
                    <path d="M42.8553023,17.1822979 C42.0793624,17.3884681 41.1366857,17.2224468 40.2030316,16.714617 L40.1579188,16.6900213 C39.9489564,16.5753617 39.6624,16.418383 39.3058286,16.3923404 C38.8893474,16.3630426 38.5482947,16.5182128 38.2934977,16.6317872 C37.2591519,17.0936809 34.0915128,18.0558085 33.5945504,18.061234 C33.0026707,18.0243404 28.1709113,16.786234 27.5754226,16.578617 C27.333618,16.4581702 27.0365955,16.4784255 26.8103098,16.6549362 C26.495603,16.9001702 26.4389414,17.3544681 26.6832722,17.6698723 C26.8388211,17.870617 26.8889865,17.9317447 29.0442947,18.4844255 C27.9893774,18.9054468 26.3165955,19.3865106 25.1967158,19.5471064 C24.2977083,19.6758723 21.7490165,19.1485106 20.5096782,18.8403404 C20.6179489,18.5983617 20.691212,18.3954468 20.7114226,18.2666809 C20.7731368,17.8720638 20.5060692,17.4915532 20.1119639,17.4297021 C19.7156932,17.3671277 19.3508211,17.6275532 19.2891068,18.0221702 C19.199603,18.3751915 18.2572872,20.0907447 17.5394526,20.6915319 C16.5498586,21.5194681 15.4122947,22.0775745 14.1574376,22.351383 L13.8730466,22.4125106 C12.571994,22.6924681 11.0969865,23.0100426 9.96194887,23.9609574 C9.5187609,24.3324255 9.17012932,24.7628511 8.83304662,25.1791702 C8.63599398,25.4229574 8.44976842,25.653 8.25055038,25.8645957 C7.25229474,26.9258298 5.62209925,28.0073191 4.28784361,27.5993191 C4.15719699,27.526617 3.82516692,27.2944043 3.76958797,27.0054043 C3.70498647,26.663234 4.04387368,26.2389574 4.25175338,26.0165106 C4.60146767,25.6425106 5.40339248,25.6276809 6.01800902,25.6161064 C6.24140752,25.6124894 6.54709173,25.6070638 6.85277594,25.4461064 C7.2151218,25.2562128 7.40531729,24.9404468 7.53163308,24.731383 C9.03406917,22.2381702 9.53247519,21.5227234 9.69632481,21.3190851 C9.79773835,21.293766 9.96158797,21.2926809 10.109197,21.2919574 C10.4444752,21.2897872 10.8624,21.2872553 11.2662496,21.0658936 C11.6123549,20.8763617 11.7422797,20.443766 11.5585805,20.094 C11.0493474,19.1242766 11.231603,17.0531702 11.7350617,16.5851277 C12.0270316,16.3134894 12.043994,15.8559362 11.7733173,15.5629574 C11.2503699,14.997617 10.3365654,13.8788723 10.1110015,13.2838723 C9.6461594,12.0624043 9.52489624,10.9255745 9.7425203,9.91425532 C10.6859188,12.716 13.2678135,14.0969787 13.4038737,14.168234 C13.6442346,14.2937447 13.9336782,14.2734894 14.155994,14.1161489 C15.6530165,13.0491277 17.3972571,12.8964894 19.243994,12.7351702 C20.2379188,12.648 21.2654075,12.5579362 22.2614977,12.3155957 C24.8773173,11.679 28.2048361,9.9287234 29.7036632,6.92478723 C29.707994,6.91574468 29.7097985,6.90597872 29.7141293,6.89693617 C30.5795729,6.5797234 31.4468211,5.97929787 31.5716932,5.39189362 C31.6550617,5.00125532 31.4064,4.61676596 31.0162647,4.53357447 C30.671603,4.46014894 30.331994,4.64606383 30.2009865,4.96074468 C30.0407459,5.14159574 29.3326556,5.65991489 28.323212,5.7286383 C27.466791,5.78651064 26.6410466,5.5076383 25.8578887,4.8967234 C26.0300391,4.76180851 26.1935278,4.62508511 26.3548511,4.49017021 C26.7439038,4.165 27.1113023,3.85791489 27.5505203,3.621 C29.013618,2.83068085 31.0155429,3.3323617 31.0339489,3.33742553 C31.3562346,3.42242553 31.6915128,3.27557447 31.8506707,2.98404255 C32.1061895,2.51419149 32.9066707,2.08485106 33.9384902,1.86312766 C34.740415,1.69059574 35.6632421,1.84540426 36.1807759,2.23893617 L36.2670316,2.30621277 C36.4442346,2.44619149 36.6658286,2.62053191 36.9689865,2.71457447 C37.4042346,2.84985106 37.8239639,2.75725532 38.100415,2.69576596 C38.2989113,2.652 38.5634526,2.5843617 38.8543398,2.50804255 C38.9839038,2.71674468 39.2033323,2.8386383 39.4191519,2.92617021 C39.8143398,3.08785106 40.2521143,3.19346809 40.6527158,3.05312766 C40.6267308,3.4 40.5267609,3.76640426 40.3517233,4.0637234 C40.1124451,4.46774468 39.0452571,4.86851064 37.9210466,4.97665957 C37.7110015,4.99691489 37.5204451,5.10831915 37.399182,5.28157447 C37.2779188,5.45482979 37.2385805,5.67221277 37.2912722,5.87729787 C37.4551218,6.51570213 38.2115729,6.7992766 38.8785203,7.04921277 C39.0001444,7.09478723 39.1066105,7.13312766 39.1759038,7.16604255 C39.2473624,7.20004255 39.3029414,7.23621277 39.3430015,7.26731915 C39.3018586,7.32880851 39.2527759,7.39102128 39.2293173,7.40946809 C38.7345203,7.67423404 38.1884752,7.82144681 37.6110316,7.97697872 C36.8682947,8.1766383 36.1006556,8.38353191 35.3741594,8.8573617 C34.5343398,9.40425532 34.1485353,10.5179362 33.739994,11.6967234 C33.4945805,12.4067447 33.2354526,13.133766 32.8828511,13.7533617 C32.3938286,13.5421277 31.8918135,13.328 31.4511519,13.1981489 C31.0678737,13.0860213 30.6676331,13.3048511 30.5550316,13.6878936 C30.4424301,14.0712979 30.6614977,14.4735106 31.0436932,14.5863617 C31.4201143,14.6970426 31.9066105,14.9068298 32.3768662,15.1097447 C32.9438436,15.3542553 33.5303098,15.6074468 34.0442346,15.7445319 C35.2738286,16.0733191 36.4225805,15.704383 37.5323549,15.347383 C38.2404451,15.1195106 38.909197,14.9042979 39.5613474,14.8807872 C40.5170165,14.8489574 42.8852571,15.5680213 44.2166256,16.0201489 C44.0054977,16.5493191 43.480385,17.0166383 42.8553023,17.1822979 M38.935182,12.1235319 C39.1279038,12.1115957 39.8464602,12.130766 42.5070316,12.3604468 C42.4597534,12.780383 42.1327759,13.3970851 41.8509113,13.5276596 C41.7451669,13.5764894 41.6596331,13.6491915 41.5914226,13.7345532 C40.7988812,13.5461064 40.0409865,13.4151702 39.5093774,13.4350638 C38.6583699,13.4658085 37.8614977,13.7218936 37.0913323,13.9696596 C36.1374677,14.276383 35.2370165,14.5664681 34.4163248,14.3465532 C34.3596632,14.3313617 34.2954226,14.3092979 34.2344301,14.289766 C34.323212,14.1222979 34.4069414,13.953383 34.4845353,13.7808511 C34.7544902,13.6632979 35.0522346,13.5258511 35.3701895,13.3782766 C36.5229113,12.8440426 37.9578586,12.1788723 38.935182,12.1235319 M45.2838135,14.8605319 C45.0968662,14.7928936 44.2566857,14.4923191 43.2385805,14.1841489 C43.7528662,13.5305532 44.0632421,12.5901277 43.9185203,11.8699787 C43.8506707,11.5292553 43.6918737,11.2753404 43.4493474,11.1165532 C43.2284752,10.9711489 43.003994,10.951617 42.8834526,10.9411277 C40.5621293,10.7382128 39.2812872,10.6546596 38.8539789,10.6788936 C37.746009,10.7414681 36.387212,11.3194681 35.2128361,11.8580426 C35.4910917,11.0673617 35.7852271,10.3150213 36.1609263,10.0701489 C36.6961444,9.72110638 37.3223098,9.55255319 37.9852872,9.37423404 C38.6161444,9.20423404 39.2686556,9.02880851 39.9085353,8.6862766 C40.2947008,8.47974468 40.6956632,7.95382979 40.8021293,7.5143617 C40.943603,6.92587234 40.6411669,6.35040426 40.005618,5.97170213 C40.6418887,5.7282766 41.2637233,5.35897872 41.5932271,4.80123404 C42.2215579,3.73710638 42.3612271,2.06242553 41.5069714,1.10174468 C41.3045053,0.87387234 41.0908511,0.726659574 40.8533774,0.652148936 C40.5837835,0.568234043 40.4018887,0.600425532 38.8897083,1.0022766 C38.4757534,1.11223404 38.0480842,1.22580851 37.7893173,1.28295745 C37.6763549,1.30791489 37.4663098,1.35421277 37.3962947,1.33287234 C37.3479338,1.31804255 37.243994,1.23557447 37.1606256,1.16938298 L37.0541594,1.08655319 C36.199182,0.43693617 34.8584301,0.185914894 33.6360541,0.448510638 C32.8911519,0.608382979 31.6424301,0.990340426 30.9018586,1.8367234 C30.0645654,1.7 28.3300692,1.55640426 26.8658887,2.34708511 C26.2985504,2.65344681 25.8571669,3.02238298 25.4305805,3.37902128 C25.0725654,3.67851064 24.7336782,3.9613617 24.3366857,4.19393617 C24.1457684,4.30570213 24.0165654,4.49921277 23.9862496,4.71876596 C23.9555729,4.93795745 24.0270316,5.15931915 24.1800541,5.31919149 C25.4908511,6.68895745 26.805618,7.11865957 27.8637835,7.174 C26.0026105,9.78910638 22.6382797,10.7349574 21.9211669,10.9096596 C21.0308211,11.1263191 20.1018586,11.2077021 19.1184,11.2937872 C17.3030617,11.4525745 15.4303398,11.6164255 13.7182195,12.672234 C12.8527759,12.1043617 10.7306707,10.4155745 10.8490466,7.57151064 C10.8627609,7.26189362 10.6772571,6.97868085 10.3888962,6.86655319 C10.1005353,6.75478723 9.7739188,6.83906383 9.57506165,7.07634043 C8.08092632,8.86097872 7.79220451,11.2482128 8.76122707,13.7989362 C9.04489624,14.544766 9.83346767,15.5336596 10.3217684,16.1037021 C10.1911218,16.3492979 10.0864602,16.6310638 10.0070617,16.9338085 C8.75761805,17.020617 7.86582857,17.2625957 7.29596391,17.6742128 C6.75966316,18.0615957 6.40706165,18.607766 6.11870075,19.0891915 C5.7105203,19.771 5.32904662,20.4788511 4.97969323,21.2040638 C4.89704662,21.3747872 4.80393383,21.5686596 4.71695639,21.6348511 C4.61843008,21.7097234 4.37265564,21.7364894 4.15611429,21.7603617 L3.84970827,21.7932766 C3.04273083,21.8768298 2.1267609,21.9719574 1.35334737,22.5090851 C0.404174436,23.1684681 -0.150171429,24.4394894 0.0356932331,25.5314681 C0.0959639098,25.8841277 0.400926316,26.1337021 0.746309774,26.1337021 C0.787091729,26.1337021 0.827512782,26.1300851 0.868294737,26.1232128 C1.26131729,26.0559362 1.52549774,25.6822979 1.45873083,25.2884043 C1.36706165,24.7498298 1.68934737,24.0365532 2.17584361,23.6983617 C2.64465564,23.3728298 3.30221955,23.3044681 3.9984,23.2321277 L4.31346767,23.1984894 C4.69638496,23.1565319 5.17169323,23.1040851 5.58817444,22.7886809 C5.95304662,22.511617 6.13421955,22.1350851 6.28435489,21.8229362 C6.60988872,21.1472766 6.97043008,20.4781277 7.35659549,19.8339362 C7.58071579,19.4592128 7.82576842,19.0747234 8.14047519,18.8475745 C8.28844511,18.7405106 8.72910677,18.5079362 9.81830977,18.4001489 C9.81145263,18.900383 9.85909173,19.3988085 9.95906165,19.8465957 C9.64940752,19.8520213 9.28778346,19.880234 8.93698647,20.0751915 C8.70673083,20.2028723 8.50787368,20.3131915 6.29626466,23.9830213 C6.26811429,24.0293191 6.21397895,24.119383 6.17897143,24.1609787 C6.13277594,24.1674894 6.0457985,24.1685745 5.96134737,24.170383 C5.1662797,24.1848511 3.96519699,24.2072766 3.1986406,25.0268936 C2.49524211,25.779234 2.21049023,26.5362766 2.35160301,27.2770426 C2.5576782,28.3556383 3.58805414,28.8699787 3.70498647,28.9249574 C3.73061053,28.9372553 3.75695639,28.9477447 3.78366316,28.9567872 C4.14853534,29.0786809 4.51882105,29.1336596 4.88982857,29.1336596 C6.53806917,29.1336596 8.18667068,28.0409574 9.30077594,26.8574681 C9.53680602,26.6064468 9.74901654,26.3445745 9.95436992,26.0906596 C10.2614977,25.711234 10.5516632,25.3524255 10.8880241,25.0710213 C11.7494977,24.3494255 12.9830617,24.0839362 14.1762045,23.8271277 L14.4642045,23.7649149 C15.9489564,23.4415532 17.2947609,22.7810851 18.4644451,21.8019574 C18.9069113,21.4322979 19.391603,20.7899149 19.7987008,20.1435532 C20.9088361,20.4466596 23.4228812,21.0105532 24.8841744,21.0105532 C25.0765353,21.0105532 25.251212,21.0007872 25.4013474,20.9794468 C25.4497083,20.9725745 29.7967759,20.192383 31.011212,18.9781489 C32.4082647,19.319234 33.2654075,19.4986383 33.5458286,19.5073191 C33.555212,19.5076809 33.5653173,19.5076809 33.5754226,19.5076809 C34.4787609,19.5076809 37.9657985,18.3621702 38.8835729,17.952 C38.9828211,17.9078723 39.1484752,17.8424043 39.2022496,17.8355319 C39.2491669,17.8405957 39.3794526,17.9122128 39.4657083,17.959234 L39.514791,17.9863617 C40.7728962,18.6707021 42.0909113,18.8819362 43.2245053,18.581 C44.680385,18.1947021 45.7468511,16.9193404 45.7609763,15.5484894 C45.7645353,15.2406809 45.5725353,14.9650638 45.2838135,14.8605319" id="Fill-4" fill="#37464C" mask="url(#mask-4)"></path>
                </g>
                <path d="M46.0315308,1.7506383 C44.9524331,1.7506383 44.0779669,2.62740426 44.0779669,3.70889362 C44.0779669,4.79002128 44.9524331,5.66678723 46.0315308,5.66678723 C47.1102677,5.66678723 47.9850947,4.79002128 47.9850947,3.70889362 C47.9850947,2.62740426 47.1102677,1.7506383 46.0315308,1.7506383" id="Fill-7" fill="#37464C"></path>
                <path d="M34.4643248,4.53476809 C34.482009,4.53621489 34.4996932,4.5373 34.5170165,4.5373 C34.792385,4.5373 35.0280541,4.32751277 35.0554827,4.04683191 C35.0601744,3.99619362 35.1204451,3.71587447 35.2897083,3.60881064 C35.4607759,3.5006617 35.7458887,3.5690234 35.9555729,3.64570426 C36.2367158,3.74806596 36.5470917,3.6026617 36.649588,3.32125745 C36.7513624,3.03949149 36.6070015,2.72806596 36.3254977,2.62570426 C35.6899489,2.39421489 35.1475128,2.41664043 34.7122647,2.69117234 C34.0770767,3.0930234 33.9861293,3.8565766 33.9774677,3.9423 C33.9485955,4.24070426 34.1669414,4.50583191 34.4643248,4.53476809" id="Fill-9" fill="#37464C"></path>
            </g>
        </g>
    </g>
</svg>