<?xml version="1.0" encoding="UTF-8"?>
<svg width="48px" height="48px" viewBox="0 0 48 48" version="1.1" xmlns="http://www.w3.org/2000/svg" xmlns:xlink="http://www.w3.org/1999/xlink">
    <title>UI/Icons/Chicken@1x</title>
    <defs>
        <polygon id="path-1" points="0 0.048 47.5819 0.048 47.5819 47.5051546 0 47.5051546"></polygon>
    </defs>
    <g id="UI/Icons/Chicken" stroke="none" stroke-width="1" fill="none" fill-rule="evenodd">
        <g id="Group-8">
            <g>
                <path d="M10.7352,8.29895258 C10.0622,8.29895258 9.5167,8.83882887 9.5167,9.50489072 C9.5167,10.1709526 10.0622,10.7108289 10.7352,10.7108289 C11.4082,10.7108289 11.9542,10.1709526 11.9542,9.50489072 C11.9542,8.83882887 11.4082,8.29895258 10.7352,8.29895258" id="Fill-1" fill="#37464C"></path>
                <path d="M30.32505,34.3317278 C31.41705,34.2278103 33.51955,33.4662433 33.66305,31.3299959 C33.73105,30.3313979 33.45805,29.511934 32.85355,28.894367 C32.28705,28.3158928 31.51455,28.0150268 30.70005,27.8645938 C30.99805,26.9001402 30.85705,25.7808 30.23305,25.0365526 C29.04855,23.6227794 26.53205,23.6613773 24.69005,23.6900784 C24.45605,23.6935423 24.23205,23.6970062 24.02605,23.6970062 C23.47455,23.6970062 23.02605,24.1403876 23.02605,24.6866969 C23.02605,25.233501 23.47455,25.6763876 24.02605,25.6763876 C24.24205,25.6763876 24.47555,25.6729237 24.72155,25.6694598 C25.99405,25.649666 28.12105,25.6165113 28.69305,26.3003876 C28.95005,26.6062021 28.87105,27.2801814 28.63255,27.6048 C28.22855,27.6909031 27.22955,27.7690887 26.97555,27.755233 C26.43155,27.7156454 25.95105,28.1248825 25.90905,28.6677278 C25.86705,29.2095835 26.27605,29.6836454 26.82305,29.7291711 C27.12105,29.7539134 27.49505,29.7400577 27.92655,29.7252124 C28.99705,29.688099 30.78505,29.6262433 31.41705,30.2715216 C31.54355,30.4001814 31.70605,30.6362227 31.66855,31.1978722 C31.60055,32.1910268 30.18755,32.3553155 30.09655,32.3657072 C24.24605,33.1426144 20.01455,32.2781196 17.51555,29.7959753 C14.44005,26.7403052 15.04205,22.1303258 15.04755,22.0862845 C15.12655,21.5454186 14.74605,21.0436454 14.20005,20.9664495 C13.65105,20.8902433 13.14655,21.2648412 13.06805,21.8062021 C13.03505,22.0333361 12.30955,27.4103258 16.08205,31.1765938 C18.37955,33.4692124 21.78405,34.6212124 26.21955,34.6212124 C27.50255,34.6212124 28.87205,34.5247175 30.32505,34.3317278" id="Fill-3" fill="#37464C"></path>
                <g id="Group-7" transform="translate(0.000000, 0.446895)">
                    <mask id="mask-2" fill="white">
                        <use xlink:href="#path-1"></use>
                    </mask>
                    <g id="Clip-6"></g>
                    <path d="M24.2054,41.5868041 C24.4814,41.6016495 24.7564,41.6135258 25.0234,41.6135258 C25.3994,41.6135258 25.7639,41.5942268 26.1239,41.5670103 L24.4459,45.2046186 C24.3979,45.3090309 24.3734,45.4178969 24.3634,45.5257732 L22.3884,45.5257732 L24.2054,41.5868041 Z M21.3064,39.1279175 C21.1949,39.1056495 10.2584,36.8110515 9.5564,25.452866 L9.5564,12.4013196 C9.5564,11.8550103 9.1099,11.4116289 8.5564,11.4116289 L4.5484,11.4116289 L7.5039,9.37731959 C7.6454,9.27934021 7.7594,9.14721649 7.8339,8.99282474 C7.8494,8.96164948 9.3974,5.89657732 11.5594,5.97327835 C12.2624,5.99059794 14.1324,6.03810309 15.7634,10.2042062 L20.3004,20.4534433 C20.4599,20.8136907 20.8199,21.0457732 21.2164,21.0457732 L21.2184,21.0457732 L29.9724,21.0279588 C30.2769,21.0269691 30.5634,20.8903918 30.7519,20.6558351 L39.7754,9.47381443 C39.9234,9.36049485 40.4529,9.00964948 41.0769,9.31595876 C41.2949,9.42284536 41.4619,9.73261856 41.5654,10.1928247 L34.9899,19.3172784 C34.6699,19.7621443 34.7744,20.3802062 35.2234,20.6978969 C35.3994,20.8221031 35.6024,20.8814845 35.8034,20.8814845 C36.1159,20.8814845 36.4239,20.7374845 36.6179,20.4663093 L42.7334,11.980701 C43.0074,12.0272165 43.4874,12.1707216 43.6424,12.4517938 C43.7994,12.7358351 43.6669,13.2935258 43.2849,13.9813608 L37.8494,22.1230515 C37.5449,22.579299 37.6724,23.1934021 38.1324,23.494268 C38.3024,23.6056082 38.4929,23.6585567 38.6824,23.6585567 C39.0074,23.6585567 39.3259,23.5026804 39.5184,23.2146804 L44.4449,15.8345567 C44.6859,16.0389278 44.9274,16.3115876 45.0504,16.6614433 C45.2334,17.1780619 45.1249,17.8045361 44.7369,18.508701 L37.0934,31.8640825 C37.0849,31.8789278 37.0769,31.8947629 37.0699,31.9101031 C37.0184,32.0105567 31.9039,41.9015258 21.3659,39.1412784 C21.3454,39.1363299 21.3259,39.1318763 21.3064,39.1279175 L21.3064,39.1279175 Z M46.5819,45.5257732 L26.4959,45.5257732 L28.5019,41.1785567 C35.1849,39.481732 38.5759,33.3278351 38.8424,32.8250722 L46.4849,19.4706804 C47.1679,18.2305979 47.3179,17.0583093 46.9304,15.9849897 C46.6064,15.0853608 45.9744,14.470268 45.4384,14.0842887 C45.8114,13.0960825 45.7994,12.2315876 45.3984,11.5051546 C44.9644,10.7148866 44.1949,10.3348454 43.5914,10.1527423 C43.3894,8.85030928 42.8434,7.97393814 41.9659,7.54292784 C40.4019,6.7734433 38.9694,7.50630928 38.3709,8.06053608 C38.3349,8.09319588 38.3014,8.12882474 38.2714,8.16643299 L29.4889,19.049567 L21.8689,19.0649072 L17.6119,9.45006186 C16.5914,6.84074227 15.3709,5.48684536 14.2754,4.77971134 C14.7379,4.27694845 15.0214,3.62078351 15.0214,2.90078351 C15.0214,1.3276701 13.6784,0.048 12.0279,0.048 C11.0969,0.048 10.2644,0.454762887 9.7154,1.09162887 C8.1164,1.10004124 6.0364,2.47521649 5.9399,4.09484536 C5.9274,4.29674227 5.9434,4.50853608 5.8574,4.69212371 C5.6999,5.02861856 5.2829,5.13649485 4.9664,5.33542268 C4.4429,5.66498969 4.1664,6.3414433 4.3194,6.93723711 C4.4709,7.53352577 5.0439,8.00016495 5.6644,8.02738144 C5.7784,8.0323299 5.8899,8.01995876 5.9999,8.00115464 L0.7869,11.5887835 C0.4274,11.8357113 0.2724,12.2845361 0.4034,12.6972371 C0.5339,13.1099381 0.9209,13.3910103 1.3574,13.3910103 L5.8434,13.3910103 C4.1874,17.0043711 6.2794,17.7961237 7.5564,17.958433 L7.5564,25.4825567 C7.5564,25.5018557 7.5574,25.5216495 7.5584,25.5414433 C8.3124,38.0654845 20.0909,40.8870928 20.8739,41.0602887 C21.2994,41.1706392 21.7144,41.2587216 22.1234,41.3349278 L20.2369,45.4238351 C20.2214,45.4574845 20.2139,45.4921237 20.2019,45.5257732 L0.9999,45.5257732 C0.4469,45.5257732 -0.0001,45.9691546 -0.0001,46.5154639 C-0.0001,47.062268 0.4469,47.5051546 0.9999,47.5051546 L46.5819,47.5051546 C47.1344,47.5051546 47.5819,47.062268 47.5819,46.5154639 C47.5819,45.9691546 47.1344,45.5257732 46.5819,45.5257732 L46.5819,45.5257732 Z" id="Fill-5" fill="#37464C" mask="url(#mask-2)"></path>
                </g>
            </g>
        </g>
    </g>
</svg>