<?xml version="1.0" encoding="UTF-8"?>
<svg width="48px" height="48px" viewBox="0 0 48 48" version="1.1" xmlns="http://www.w3.org/2000/svg" xmlns:xlink="http://www.w3.org/1999/xlink">
    <title>UI/Icons/Female@1x</title>
    <defs>
        <polygon id="path-1" points="0 0.117686275 25.7320493 0.117686275 25.7320493 39.6078431 0 39.6078431"></polygon>
    </defs>
    <g id="UI/Icons/Female" stroke="none" stroke-width="1" fill="none" fill-rule="evenodd">
        <g id="Group-14" transform="translate(11.000000, 4.000000)">
            <g>
                <g id="Group-3" transform="translate(0.000000, 0.274510)">
                    <mask id="mask-2" fill="white">
                        <use xlink:href="#path-1"></use>
                    </mask>
                    <g id="Clip-2"></g>
                    <path d="M1.5072087,13.5074902 C1.5072087,6.98905882 6.60283188,1.68631373 12.8661942,1.68631373 C19.1291797,1.68631373 24.2248029,6.98905882 24.2248029,13.5074902 C24.2248029,20.0259216 19.1291797,25.3290588 12.8661942,25.3290588 C6.60283188,25.3290588 1.5072087,20.0259216 1.5072087,13.5074902 M25.7320493,13.5074902 C25.7320493,6.12435294 19.9604261,0.117686275 12.8661942,0.117686275 C5.77158551,0.117686275 -3.76811594e-05,6.12435294 -3.76811594e-05,13.5074902 C-3.76811594e-05,20.627098 5.36764348,26.4651373 12.112571,26.8729804 L12.112571,31.7772941 L8.68245507,31.7772941 C8.26607826,31.7772941 7.92883188,32.1286667 7.92883188,32.5616078 C7.92883188,32.9949412 8.26607826,33.3459216 8.68245507,33.3459216 L12.112571,33.3459216 L12.112571,38.8235686 C12.112571,39.256902 12.4498174,39.6078824 12.8661942,39.6078824 C13.2821942,39.6078824 13.6198174,39.256902 13.6198174,38.8235686 L13.6198174,33.3459216 L17.0495565,33.3459216 C17.4659333,33.3459216 17.8031797,32.9949412 17.8031797,32.5616078 C17.8031797,32.1286667 17.4659333,31.7772941 17.0495565,31.7772941 L13.6198174,31.7772941 L13.6198174,26.8729804 C20.3643681,26.4651373 25.7320493,20.627098 25.7320493,13.5074902" id="Fill-1" fill="#37464C" mask="url(#mask-2)"></path>
                </g>
                <path d="M12.8244435,17.4584706 C12.2931391,17.4816078 11.9057768,17.796902 11.6702696,17.9890588 C10.9117478,18.6161176 10.8062406,18.4925882 10.4908493,18.1274902 C10.1856319,17.7753333 10.0247333,17.2051373 10.1731971,16.9953333 C10.2003275,16.956902 10.3039507,16.876902 10.3804435,16.8176863 C10.5390812,16.6918039 10.7022406,16.5604314 10.8476899,16.4314118 C11.2987333,16.047098 11.6529362,15.6616078 11.9170812,15.0306275 C11.9498638,14.9525882 11.9811391,14.874549 12.0116609,14.7965098 C12.1571101,14.4290588 12.2418928,14.2310196 12.4287913,14.1000392 C12.5569072,14.0098431 12.7125304,13.9647451 12.8677768,13.9647451 C13.0222696,13.9647451 13.1767623,14.009451 13.3029942,14.0996471 C13.4910232,14.2318039 13.5758058,14.4306275 13.7216319,14.8004314 C13.7517768,14.8765098 13.7822986,14.9529804 13.8143275,15.0302353 C14.0788493,15.662 14.4338058,16.0474902 14.8731681,16.4212157 C15.0280377,16.5592549 15.1919507,16.6910196 15.3596319,16.8239608 C15.4278348,16.876902 15.5310812,16.9565098 15.5604725,16.9984706 C15.707429,17.2051373 15.5461536,17.7753333 15.2409362,18.1274902 C15.2409362,18.1278824 15.2405594,18.1282745 15.2401826,18.1282745 C14.9259217,18.4925882 14.8200377,18.6157255 14.0588783,17.9878824 C13.8437188,17.8106275 13.4431681,17.4816078 12.8756899,17.4576863 C12.8651391,17.4576863 12.8349942,17.4580784 12.8244435,17.4584706 M16.3615739,19.1765098 C17.0590522,18.3702353 17.4403855,17.0067059 16.7771971,16.0725882 C16.6162986,15.8412157 16.417342,15.6874902 16.265487,15.5706275 C16.1283275,15.4616078 15.9862696,15.3478824 15.8396899,15.2180784 C15.4836029,14.9149412 15.3272261,14.716902 15.1964725,14.4043529 C15.1685884,14.3376863 15.1422116,14.2706275 15.1158348,14.2039608 C14.9398638,13.7580784 14.7205594,13.2031765 14.1511971,12.8031765 C13.3892841,12.2584706 12.3579507,12.2565098 11.5851101,12.8000392 C11.0127333,13.202 10.7938058,13.7549412 10.6182116,14.1992549 C10.591458,14.267098 10.5643275,14.3353333 10.5356899,14.4035686 C10.4045594,14.716902 10.2481826,14.9149412 9.88229855,15.227098 C9.74702319,15.3467059 9.60421159,15.4608235 9.47421159,15.5639608 C9.32424058,15.6800392 9.11887826,15.8388627 8.95835652,16.067098 C8.29177681,17.0082745 8.67348696,18.3721961 9.37021159,19.1765098 C9.9000087,19.7906275 10.4282986,19.9988627 10.9064725,19.9988627 C11.6627333,19.9988627 12.2931391,19.4776863 12.6036319,19.2208235 C12.6529942,19.1804314 12.7931681,19.0663137 12.8647623,19.0337647 C12.9148783,19.0557255 13.0019217,19.1176863 13.1236319,19.2176863 C13.635342,19.6400392 14.9948783,20.7604314 16.3615739,19.1765098" id="Fill-4" fill="#37464C"></path>
                <path d="M14.5017072,11.5604314 C15.1155333,11.7792549 15.5567797,11.2043529 15.782113,10.7412157 C15.9008087,10.4961176 15.9904899,10.2396471 16.0255333,9.98160784 C16.0643449,9.69258824 16.0368377,9.40160784 15.9106058,9.11768627 C15.7116493,8.67062745 15.320142,8.32827451 14.7820551,8.34984314 C13.6772435,8.39337255 13.4779101,9.56396078 13.6813884,10.3741569 C13.7925478,10.8192549 14.0073304,11.3831765 14.5017072,11.5604314" id="Fill-6" fill="#37464C"></path>
                <path d="M17.2142609,15.0432941 C17.828087,15.2609412 18.2693333,14.6872157 18.4946667,14.2240784 C18.6144928,13.9778039 18.7030435,13.7225098 18.738087,13.4632941 C18.778029,13.175451 18.7505217,12.8844706 18.6231594,12.5997647 C18.4242029,12.1534902 18.0326957,11.8103529 17.4957391,11.8319216 C16.3909275,11.875451 16.1912174,13.0460392 16.393942,13.8570196 C16.5051014,14.3021176 16.7206377,14.8660392 17.2142609,15.0432941" id="Fill-8" fill="#37464C"></path>
                <path d="M10.6800464,11.5690196 C11.3006551,11.7698039 11.7238145,11.1843137 11.934829,10.7133333 C12.0459884,10.4639216 12.1266261,10.2066667 12.1533797,9.94745098 C12.1839014,9.65882353 12.1469739,9.36784314 12.0116986,9.08784314 C11.7988,8.64666667 11.396742,8.31529412 10.8605391,8.35176471 C9.75685797,8.42588235 9.59445217,9.60117647 9.82242319,10.4066667 C9.94790145,10.8470588 10.180771,11.4066667 10.6800464,11.5690196" id="Fill-10" fill="#37464C"></path>
                <path d="M9.17758551,14.1954118 C9.28874493,13.946 9.36975942,13.6887451 9.39726667,13.4295294 C9.42778841,13.140902 9.39048406,12.8499216 9.25558551,12.5699216 C9.04268696,12.1287451 8.64062899,11.7973725 8.10329565,11.8338431 C7.00074493,11.9079608 6.83833913,13.0832549 7.06631014,13.8887451 C7.19178841,14.3287451 7.42465797,14.8891373 7.92393333,15.051098 C8.54454203,15.2518824 8.96770145,14.6663922 9.17758551,14.1954118" id="Fill-12" fill="#37464C"></path>
            </g>
        </g>
    </g>
</svg>