<?xml version="1.0" encoding="UTF-8"?>
<svg width="48px" height="48px" viewBox="0 0 48 48" version="1.1" xmlns="http://www.w3.org/2000/svg" xmlns:xlink="http://www.w3.org/1999/xlink">
    <title>UI/Icons/Male@1x</title>
    <defs>
        <polygon id="path-1" points="0 0.408681818 37.6248861 0.408681818 37.6248861 39.0909091 0 39.0909091"></polygon>
    </defs>
    <g id="UI/Icons/Male" stroke="none" stroke-width="1" fill="none" fill-rule="evenodd">
        <g id="Group-14" transform="translate(5.000000, 4.000000)">
            <g>
                <g id="Group-3" transform="translate(0.000000, 0.045909)">
                    <mask id="mask-2" fill="white">
                        <use xlink:href="#path-1"></use>
                    </mask>
                    <g id="Clip-2"></g>
                    <path d="M15.4460048,37.2727727 C7.92652857,37.2727727 1.80943333,31.1259545 1.80943333,23.5705 C1.80943333,16.0155 7.92652857,9.86868182 15.4460048,9.86868182 C22.965481,9.86868182 29.0830286,16.0155 29.0830286,23.5705 C29.0830286,31.1259545 22.965481,37.2727727 15.4460048,37.2727727 M36.7205762,0.417772727 L24.0882905,0.408681818 L24.0878381,0.408681818 C23.5884095,0.408681818 23.1835286,0.8155 23.1830762,1.31731818 C23.1826238,1.81913636 23.5875048,2.22640909 24.0869333,2.22686364 L34.6835048,2.23459091 L25.3431952,11.6195909 C25.3346,11.6286818 25.3291714,11.6382273 25.3210286,11.6473182 C22.6415762,9.40322727 19.1985048,8.0505 15.4460048,8.0505 C6.92902857,8.0505 -9.04761905e-05,15.0127727 -9.04761905e-05,23.5705 C-9.04761905e-05,32.1286818 6.92902857,39.0909545 15.4460048,39.0909545 C23.962981,39.0909545 30.8925524,32.1286818 30.8925524,23.5705 C30.8925524,19.4350455 29.271219,15.6750455 26.6374571,12.8905 L35.8135524,3.6705 L35.8067667,13.3514091 C35.8063143,13.8532273 36.2111952,14.2605 36.7110762,14.2609545 L36.7115286,14.2609545 C37.2109571,14.2609545 37.6158381,13.8541364 37.6162905,13.3523182 L37.6248861,1.32777273 C37.6253381,0.8255 37.2204571,0.418227273 36.7205762,0.417772727" id="Fill-1" fill="#37464C" mask="url(#mask-2)"></path>
                </g>
                <path d="M18.2974976,28.6534545 C18.2970452,28.6534545 18.2965929,28.6539091 18.2965929,28.6543636 C17.9193071,29.0770909 17.7917357,29.2193636 16.8783786,28.4916364 C16.620069,28.2866364 16.1396405,27.9048182 15.4579024,27.8770909 C15.4452357,27.8770909 15.4085929,27.8770909 15.3959262,27.878 C14.7585214,27.9048182 14.2934738,28.2702727 14.0102833,28.493 C13.10145,29.2189091 12.9734262,29.0775455 12.594331,28.6534545 C12.2279024,28.2452727 12.0347357,27.5843636 12.2125214,27.3420909 C12.2450929,27.2975455 12.3704024,27.2039091 12.4622357,27.1352727 C12.6522357,26.9889091 12.8490214,26.8366364 13.0227357,26.688 C13.5642357,26.2425455 13.9894738,25.7957273 14.3074976,25.0639091 C14.3464024,24.9734545 14.3834976,24.8834545 14.4201405,24.7934545 C14.5947595,24.3670909 14.6969976,24.1370909 14.9209262,23.9848182 C15.0747357,23.8807273 15.261569,23.8284545 15.44795,23.8284545 C15.6334262,23.8284545 15.8189024,23.8802727 15.97045,23.9848182 C16.1961881,24.138 16.2984262,24.3693636 16.47395,24.798 C16.5096881,24.8857273 16.5458786,24.9739091 16.5847833,25.0639091 C16.9028071,25.7970909 17.32895,26.2434545 17.855069,26.6752727 C18.04145,26.8357273 18.2386881,26.9884545 18.4399976,27.143 C18.522331,27.2043636 18.6467357,27.2975455 18.6811167,27.3448182 C18.8575452,27.5843636 18.6639262,28.2452727 18.2974976,28.6534545 M19.5275214,25.6898182 C19.3628548,25.5634545 19.1923071,25.4320909 19.0158786,25.2811818 C18.588831,24.9302727 18.4010929,24.7007273 18.2441167,24.3384545 C18.2106405,24.2611818 18.1789738,24.1839091 18.1473071,24.1070909 C17.9360452,23.5898182 17.6732119,22.9461818 16.9887595,22.4820909 C16.0735929,21.8507273 14.8358786,21.8489091 13.9080452,22.4784545 C13.2208786,22.9452727 12.9580452,23.5861818 12.7467833,24.1011818 C12.7151167,24.1798182 12.6825452,24.2584545 12.6486167,24.3370909 C12.4907357,24.7007273 12.3029976,24.9302727 11.8632833,25.2920909 C11.7008786,25.4311818 11.5298786,25.563 11.3729024,25.683 C11.1829024,25.8252727 10.9463071,26.0020909 10.7544976,26.2652727 C9.9546881,27.3561818 10.4124976,28.9370909 11.24895,29.8693636 C11.8859024,30.5816364 12.5201405,30.8225455 13.0937595,30.8225455 C14.0016881,30.8220909 14.758069,30.2184545 15.130831,29.9207273 C15.1905452,29.8739091 15.358831,29.7416364 15.444331,29.7039091 C15.50495,29.7293636 15.6089976,29.8011818 15.7551167,29.9170909 C16.3689976,30.4061818 18.0011881,31.7057273 19.6419738,29.8698182 C20.4797833,28.9357273 20.9380452,27.3548182 20.1414024,26.2707273 C19.9495929,26.0052727 19.7116405,25.8270909 19.5275214,25.6898182" id="Fill-4" fill="#37464C"></path>
                <path d="M17.4097452,21.0416364 C18.1471262,21.2952727 18.6764119,20.6289091 18.9469357,20.0920909 C19.0894357,19.808 19.1971024,19.5107273 19.2391738,19.2116364 C19.285769,18.8766364 19.2527452,18.5398182 19.1011976,18.2102727 C18.8623405,17.6920909 18.3923167,17.2952727 17.7463167,17.3207273 C16.4203881,17.3711818 16.1806262,18.7275455 16.4249119,19.6666364 C16.5583643,20.1825455 16.8162214,20.8361818 17.4097452,21.0416364" id="Fill-6" fill="#37464C"></path>
                <path d="M21.0040476,21.3565455 C19.678119,21.407 19.4383571,22.7633636 19.6812857,23.7038182 C19.8151905,24.2197273 20.0739524,24.8733636 20.666119,25.0783636 C21.4035,25.3310909 21.9332381,24.6656364 22.2037619,24.1292727 C22.347619,23.8438182 22.4534762,23.5479091 22.4955476,23.2474545 C22.5435,22.9138182 22.5104762,22.5765455 22.3575714,22.2465455 C22.1191667,21.7292727 21.6491429,21.3310909 21.0040476,21.3565455" id="Fill-8" fill="#37464C"></path>
                <path d="M12.8216524,21.0518182 C13.5667238,21.2845455 14.0747476,20.6059091 14.328081,20.06 C14.4615333,19.7709091 14.5587952,19.4727273 14.5904619,19.1722727 C14.6271048,18.8372727 14.5827714,18.5004545 14.420819,18.1759091 C14.1647714,17.6640909 13.682081,17.2804545 13.0383429,17.3227273 C11.713319,17.4086364 11.5183429,18.7709091 11.7924857,19.7045455 C11.9431286,20.2145455 12.2227,20.8636364 12.8216524,21.0518182" id="Fill-10" fill="#37464C"></path>
                <path d="M11.0181,24.0958182 C11.1515524,23.8067273 11.2483619,23.5085455 11.2818381,23.2080909 C11.318481,22.8735455 11.2736952,22.5362727 11.1117429,22.2117273 C10.8561476,21.7003636 10.3734571,21.3162727 9.7283619,21.3585455 C8.40469524,21.4444545 8.20971905,22.8071818 8.48340952,23.7403636 C8.63405238,24.2508182 8.91362381,24.8999091 9.51257619,25.0876364 C10.2581,25.3203636 10.7656714,24.6417273 11.0181,24.0958182" id="Fill-12" fill="#37464C"></path>
            </g>
        </g>
    </g>
</svg>