<?xml version="1.0" encoding="UTF-8"?>
<svg width="48px" height="47px" viewBox="0 0 48 47" version="1.1" xmlns="http://www.w3.org/2000/svg" xmlns:xlink="http://www.w3.org/1999/xlink">
    <title>usp1@1x</title>
    <defs>
        <polygon id="path-1" points="0 0.0110637168 45.8664047 0.0110637168 45.8664047 32.0265487 0 32.0265487"></polygon>
        <polygon id="path-3" points="0.198744828 0.364769912 1.85391724 0.364769912 1.85391724 6.57384425 0.198744828 6.57384425"></polygon>
        <polygon id="path-5" points="0.188772414 0.278838938 6.32027586 0.278838938 6.32027586 1.94255575 0.188772414 1.94255575"></polygon>
    </defs>
    <g id="Desktop" stroke="none" stroke-width="1" fill="none" fill-rule="evenodd" opacity="0.400000006">
        <g id="Step-1.0" transform="translate(-376.000000, -837.000000)">
            <g id="Bottom" transform="translate(250.000000, 816.000000)">
                <g id="Group" transform="translate(126.000000, 20.000000)">
                    <g id="Group-22" transform="translate(0.000000, 1.000000)">
                        <path d="M21.134069,12.5828566 C20.8783448,12.9634319 20.978069,13.4804319 21.3566897,13.7374761 C21.7353103,13.9949363 22.2496552,13.8946973 22.5053793,13.5137062 C24.144,11.0759451 26.8671724,9.62060885 29.7897931,9.62060885 C34.6336552,9.62060885 38.5737931,13.5810867 38.5737931,18.4495381 C38.5737931,19.4802106 38.3991724,20.4896708 38.0544828,21.4483876 C37.8993103,21.8805381 38.121931,22.3571929 38.5518621,22.5131664 C38.6449655,22.5468566 38.7397241,22.5630779 38.8328276,22.5630779 C39.1717241,22.5626619 39.4895172,22.3522018 39.6115862,22.0136354 C40.0212414,20.8731575 40.2289655,19.6740336 40.2289655,18.4495381 C40.2289655,12.6639628 35.546069,7.95689204 29.7897931,7.95689204 C26.3168276,7.95689204 23.0809655,9.68590973 21.134069,12.5828566" id="Fill-1" fill="#37464C"></path>
                        <g id="Group-5" transform="translate(0.000000, 14.608681)">
                            <mask id="mask-2" fill="white">
                                <use xlink:href="#path-1"></use>
                            </mask>
                            <g id="Clip-4"></g>
                            <path d="M34.6815724,26.8771788 C33.5713655,27.5988159 32.404469,28.2118956 31.1949517,28.7143381 C22.8065379,17.7038602 11.0817103,15.6994973 2.50005517,16.0214265 C2.24433103,15.3205858 2.01922759,14.603108 1.83550345,13.868577 C5.73177931,13.3969133 22.0497103,12.3716478 32.3978483,26.3106832 C32.6717793,26.6783646 33.1902621,26.7540637 33.556469,26.4791345 C33.9226759,26.2050372 33.9979862,25.6838779 33.724469,25.3149487 C31.3406069,22.1039752 28.6571586,19.6499929 25.8772966,17.7766478 C26.5542621,17.1864442 27.912331,16.1524442 30.0090207,15.2286655 C30.1633655,15.1604531 30.3264,15.0926566 30.492331,15.0248602 L30.492331,16.5987363 C30.492331,17.058754 30.8626759,17.4305947 31.3199172,17.4305947 C31.7767448,17.4305947 32.1475034,17.058754 32.1475034,16.5987363 L32.1475034,14.4304973 C34.9596414,13.5454 38.9146759,12.9190106 44.0502621,13.5083823 C43.8359172,14.4284177 43.5652966,15.3309841 43.2342621,16.2106743 C36.9851586,15.0144619 31.0952276,18.7453469 30.8424,18.9088071 C30.4579862,19.1567009 30.3462621,19.6707894 30.592469,20.0576035 C30.7505379,20.3046655 31.0174345,20.4398425 31.2905379,20.4398425 C31.4428138,20.4398425 31.5971586,20.3982496 31.7353655,20.3092407 C31.7908138,20.2734708 37.0968828,16.9214973 42.5692966,17.7833027 C42.2428138,18.4808159 41.8819862,19.1608602 41.484331,19.819692 C36.900331,19.4890283 33.5312276,21.7724796 33.3868138,21.8718867 C33.0106759,22.1318425 32.9159172,22.6475947 33.1732966,23.0260903 C33.3338483,23.2623381 33.5932966,23.3879487 33.8572966,23.3879487 C34.0178483,23.3879487 34.180469,23.3413646 34.3232276,23.2440372 C34.3513655,23.2253204 36.8970207,21.5195947 40.3944,21.4526301 C38.8406069,23.5759487 36.9115034,25.4284973 34.6815724,26.8771788 L34.6815724,26.8771788 Z M5.67177931,21.8024265 C11.2025379,22.387223 18.4658483,24.4061434 24.6019862,30.294869 C24.0388138,30.3385416 23.472331,30.3630814 22.9029517,30.3630814 C16.0021241,30.3630814 9.6921931,27.0439664 5.67177931,21.8024265 L5.67177931,21.8024265 Z M26.4690207,29.8069841 C19.3290207,22.5070106 10.5847448,20.4527363 4.44446897,20.0239133 C3.97564138,19.2681699 3.55191724,18.4808159 3.1761931,17.6655947 C11.188469,17.4738513 21.8233655,19.4815416 29.5625379,29.3132761 C28.6033655,29.6239752 27.6222621,29.8664619 26.6258483,30.0399044 C26.5869517,29.9563027 26.5368828,29.8764442 26.4690207,29.8069841 L26.4690207,29.8069841 Z M5.65646897,8.26309912 L12.6177103,8.26309912 L12.6177103,12.5617274 C9.98929655,12.1071168 7.59881379,11.9760991 5.65646897,11.9840018 L5.65646897,8.26309912 Z M10.224331,1.67478053 L16.2048828,1.67478053 L14.5530207,3.01490442 L8.57205517,3.01490442 L10.224331,1.67478053 Z M6.79315862,4.67862124 L13.6315034,4.67862124 L12.8812966,6.5993823 L6.04295172,6.5993823 L6.79315862,4.67862124 Z M22.8537103,7.60010796 L22.8537103,15.9752584 C22.0298483,15.5447717 21.204331,15.1583735 20.3812966,14.8123204 L20.3812966,10.3964 C20.3812966,10.1676389 20.1950897,9.9804708 19.9675034,9.9804708 L17.0829517,9.9804708 C16.8549517,9.9804708 16.6691586,10.1676389 16.6691586,10.3964 L16.6691586,13.4975681 C15.8577103,13.2613204 15.0574345,13.0591788 14.2728828,12.8869841 L14.2728828,7.58887788 L15.5353655,4.35627611 L18.5560552,1.90562124 L21.3913655,4.13416991 L22.8537103,7.60010796 Z M45.1517793,11.9661168 C39.6913655,11.2095416 35.3957793,11.7236301 32.1475034,12.6719487 L32.1475034,11.271515 C33.7497103,10.7478602 34.912469,8.73101947 34.912469,6.24875398 C34.912469,3.35555044 33.3346759,1.08915221 31.3199172,1.08915221 C29.3051586,1.08915221 27.7269517,3.35555044 27.7269517,6.24875398 C27.7269517,8.73101947 28.8901241,10.7478602 30.492331,11.271515 L30.492331,13.2234708 C27.216331,14.4512938 25.2760552,16.0455504 24.5088828,16.770515 L24.5088828,7.43124071 C24.5088828,7.31977168 24.4865379,7.20955044 24.4430897,7.10723186 L22.8317793,3.28692212 C22.7771586,3.15756814 22.6902621,3.04318761 22.5797793,2.95625841 L19.0579862,0.187833628 C19.0530207,0.184090265 19.0472276,0.182842478 19.0426759,0.179515044 C18.9772966,0.130435398 18.9052966,0.0921699115 18.8275034,0.0630548673 C18.8138483,0.058479646 18.8010207,0.0551522124 18.7873655,0.0505769912 C18.7112276,0.0272849558 18.6317793,0.0110637168 18.5481931,0.0110637168 L9.93177931,0.0110637168 C9.74267586,0.0110637168 9.55936552,0.0759486726 9.41205517,0.196152212 L5.70902069,3.19916106 C5.70074483,3.20664779 5.69536552,3.2153823 5.68708966,3.2224531 C5.64984828,3.2553115 5.61633103,3.29066549 5.58529655,3.33017876 C5.57536552,3.34224071 5.5641931,3.3534708 5.55508966,3.36719646 C5.51784828,3.41960354 5.4864,3.47533805 5.4624,3.53606372 C5.46115862,3.53897522 5.45950345,3.54105487 5.45826207,3.54271858 L4.05881379,7.12802832 C4.04888276,7.15215221 4.04391724,7.17877168 4.03688276,7.20372743 C4.03026207,7.22618761 4.02198621,7.24823186 4.01784828,7.27069204 C4.00708966,7.32351504 4.00129655,7.37716991 4.00129655,7.43124071 L4.00129655,12.0264265 C1.96915862,12.1220903 0.722813793,12.3462761 0.672744828,12.3558425 C0.455089655,12.3974354 0.262675862,12.5255416 0.139365517,12.711046 C0.0160551724,12.8969664 -0.0278068966,13.1248956 0.0172965517,13.3428425 C2.26005517,24.1686478 11.8848828,32.0267982 22.9029517,32.0267982 C27.420331,32.0267982 31.8040552,30.729515 35.580331,28.274285 C40.8309517,24.8615858 44.5575724,19.3904531 45.8051586,13.2642319 C45.8184,13.1976832 45.8212966,13.1323823 45.8192276,13.0683292 C45.8374345,13.0163381 45.8506759,12.9610195 45.8585379,12.9040372 C45.9210207,12.4494265 45.604469,12.029754 45.1517793,11.9661168 L45.1517793,11.9661168 Z" id="Fill-3" fill="#37464C" mask="url(#mask-2)"></path>
                        </g>
                        <g id="Group-8" transform="translate(28.551724, 0.051159)">
                            <mask id="mask-4" fill="white">
                                <use xlink:href="#path-3"></use>
                            </mask>
                            <g id="Clip-7"></g>
                            <path d="M1.02633103,6.57384425 C1.48315862,6.57384425 1.85391724,6.20117168 1.85391724,5.74198584 L1.85391724,1.19629558 C1.85391724,0.737525664 1.48315862,0.364437168 1.02633103,0.364437168 C0.569503448,0.364437168 0.198744828,0.737525664 0.198744828,1.19629558 L0.198744828,5.74198584 C0.198744828,6.20117168 0.569503448,6.57384425 1.02633103,6.57384425" id="Fill-6" fill="#37464C" mask="url(#mask-4)"></path>
                        </g>
                        <g id="Group-11" transform="translate(41.379310, 17.520186)">
                            <mask id="mask-6" fill="white">
                                <use xlink:href="#path-5"></use>
                            </mask>
                            <g id="Clip-10"></g>
                            <path d="M5.49277241,0.278838938 L1.01635862,0.278838938 C0.559531034,0.278838938 0.188772414,0.651511504 0.188772414,1.11069735 C0.188772414,1.56988319 0.559531034,1.94255575 1.01635862,1.94255575 L5.49277241,1.94255575 C5.9496,1.94255575 6.32035862,1.56988319 6.32035862,1.11069735 C6.32035862,0.651511504 5.9496,0.278838938 5.49277241,0.278838938" id="Fill-9" fill="#37464C" mask="url(#mask-6)"></path>
                        </g>
                        <path d="M20.1551586,10.3354664 C20.3165379,10.4985106 20.5284,10.5792009 20.7402621,10.5792009 C20.9521241,10.5792009 21.1639862,10.4985106 21.3253655,10.3354664 C21.6485379,10.0110416 21.6485379,9.48405929 21.3253655,9.15921858 L17.9347448,5.75151062 C17.6119862,5.42583805 17.0872966,5.42583805 16.7645379,5.75151062 C16.4409517,6.07635133 16.4409517,6.60208584 16.7645379,6.92775841 L20.1551586,10.3354664 Z" id="Fill-12" fill="#37464C"></path>
                        <path d="M38.645131,10.3488593 C38.8569931,10.3488593 39.0688552,10.268169 39.2302345,10.1051248 L42.3920276,6.92700973 C42.7152,6.60216903 42.7152,6.07643451 42.3920276,5.75076195 C42.0688552,5.42592124 41.5445793,5.42592124 41.2218207,5.75076195 L38.0600276,8.92887699 C37.7368552,9.2537177 37.7368552,9.7807 38.0600276,10.1051248 C38.2214069,10.268169 38.433269,10.3488593 38.645131,10.3488593" id="Fill-14" fill="#37464C"></path>
                        <path d="M23.9992966,7.26674071 C24.1312966,7.58742212 24.4391586,7.78041327 24.7644,7.78041327 C24.8699172,7.78041327 24.9770897,7.76044867 25.0805379,7.71677611 C25.5026069,7.54083805 25.7032966,7.05420088 25.5282621,6.63036903 L23.7245379,2.25229823 C23.5499172,1.8288823 23.0649517,1.62590885 22.6432966,1.80226283 C22.2212276,1.97820088 22.0205379,2.46483805 22.1955724,2.8899177 L23.9992966,7.26674071 Z" id="Fill-16" fill="#37464C"></path>
                        <path d="M40.5437379,14.0653947 C40.6757379,14.3860761 40.9836,14.5790673 41.3088414,14.5790673 C41.4143586,14.5790673 41.521531,14.5591027 41.6249793,14.5154301 L45.8721517,12.7468991 C46.2946345,12.5709611 46.4949103,12.0843239 46.3198759,11.660492 C46.1452552,11.2358283 45.6611172,11.0345186 45.2386345,11.2104566 L40.9914621,12.9789876 C40.5693931,13.1549257 40.3687034,13.640731 40.5437379,14.0653947" id="Fill-18" fill="#37464C"></path>
                        <path d="M34.1360276,7.57016106 C34.2394759,7.6134177 34.3466483,7.63379823 34.4521655,7.63379823 C34.7769931,7.63379823 35.085269,7.44039115 35.217269,7.12012566 L36.9605793,2.88929381 C37.1356138,2.46546195 36.9349241,1.97882478 36.5128552,1.80288673 C36.0903724,1.62611681 35.6062345,1.82825841 35.4316138,2.25292212 L33.6878897,6.48375398 C33.513269,6.90758584 33.7135448,7.39422301 34.1360276,7.57016106" id="Fill-20" fill="#37464C"></path>
                    </g>
                </g>
            </g>
        </g>
    </g>
</svg>