<?xml version="1.0" encoding="UTF-8"?>
<svg width="48px" height="48px" viewBox="0 0 48 48" version="1.1" xmlns="http://www.w3.org/2000/svg" xmlns:xlink="http://www.w3.org/1999/xlink">
    <title>usp2@1x</title>
    <defs>
        <polygon id="path-1" points="0 -0.0006 47.9999143 -0.0006 47.9999143 48 0 48"></polygon>
    </defs>
    <g id="Desktop" stroke="none" stroke-width="1" fill="none" fill-rule="evenodd" opacity="0.400000006">
        <g id="Step-1.0" transform="translate(-696.000000, -836.000000)">
            <g id="Bottom" transform="translate(250.000000, 816.000000)">
                <g id="Group-2-Copy" transform="translate(320.000000, 0.000000)">
                    <g id="Group-14" transform="translate(126.000000, 20.000000)">
                        <g id="Group-3" transform="translate(0.000000, 0.000857)">
                            <mask id="mask-2" fill="white">
                                <use xlink:href="#path-1"></use>
                            </mask>
                            <g id="Clip-2"></g>
                            <path d="M46.2856286,31.4736857 L32.3313429,31.4736857 C31.8577714,31.4736857 31.4742,31.8576857 31.4742,32.3308286 L31.4742,46.2859714 L16.5256286,46.2859714 L16.5256286,36.6992571 C18.7190571,37.9952571 21.2733429,38.7418286 23.9999143,38.7418286 C24.4730571,38.7418286 24.8570571,38.3578286 24.8570571,37.8846857 C24.8570571,37.4111143 24.4730571,37.0275429 23.9999143,37.0275429 C16.8157714,37.0275429 10.9713429,31.1831143 10.9713429,23.9998286 C10.9713429,23.5258286 10.5877714,23.1426857 10.1142,23.1426857 C9.64105714,23.1426857 9.25705714,23.5258286 9.25705714,23.9998286 C9.25705714,26.7259714 10.0040571,29.2802571 11.2996286,31.4728286 L1.7142,31.4728286 L1.7142,16.5242571 L15.6684857,16.5242571 C16.1420571,16.5242571 16.5256286,16.1411143 16.5256286,15.6671143 L16.5256286,1.71368571 L31.4742,1.71368571 L31.4742,11.2991143 C29.2807714,10.0026857 26.7264857,9.25611429 23.9999143,9.25611429 C23.5267714,9.25611429 23.1427714,9.64054286 23.1427714,10.1132571 C23.1427714,10.5872571 23.5267714,10.9704 23.9999143,10.9704 C31.1840571,10.9704 37.0284857,16.8156857 37.0284857,23.9998286 C37.0284857,24.4725429 37.4120571,24.8569714 37.8856286,24.8569714 C38.3587714,24.8569714 38.7427714,24.4725429 38.7427714,23.9998286 C38.7427714,21.2724 37.9957714,18.7181143 36.7002,16.5251143 L46.2856286,16.5251143 L46.2856286,31.4736857 Z M47.1427714,14.8108286 L35.5169143,14.8108286 C34.8294857,13.9506857 34.0482,13.1698286 33.1884857,12.4824 L33.1884857,0.856542857 C33.1884857,0.382542857 32.8044857,-0.0006 32.3313429,-0.0006 L15.6684857,-0.0006 C15.1953429,-0.0006 14.8113429,0.382542857 14.8113429,0.856542857 L14.8113429,14.8099714 L0.857057143,14.8099714 C0.383914286,14.8099714 -8.57142857e-05,15.1944 -8.57142857e-05,15.6671143 L-8.57142857e-05,32.3299714 C-8.57142857e-05,32.8039714 0.383914286,33.1871143 0.857057143,33.1871143 L12.4829143,33.1871143 C13.1703429,34.0476857 13.9516286,34.8281143 14.8113429,35.5164 L14.8113429,47.1431143 C14.8113429,47.6158286 15.1953429,48.0002571 15.6684857,48.0002571 L32.3313429,48.0002571 C32.8044857,48.0002571 33.1884857,47.6158286 33.1884857,47.1431143 L33.1884857,33.1879714 L47.1427714,33.1879714 C47.6159143,33.1879714 47.9999143,32.8039714 47.9999143,32.3308286 L47.9999143,15.6679714 C47.9999143,15.1952571 47.6159143,14.8108286 47.1427714,14.8108286 L47.1427714,14.8108286 Z" id="Fill-1" fill="#37464C" mask="url(#mask-2)"></path>
                        </g>
                        <path d="M27.1918286,30.0004714 C27.1918286,30.0009 27.1914,30.0009 27.1914,30.0009 C26.9574,30.2876143 26.7422571,30.4530429 26.5854,30.4654714 C26.2828286,30.5031857 25.7055429,29.9927571 25.5144,29.8269 C25.2195429,29.5714714 24.7266857,29.1450429 24.0135429,29.1163286 C24.0015429,29.1163286 23.9625429,29.1163286 23.9505429,29.1163286 C23.2734,29.1450429 22.7805429,29.5714714 22.4822571,29.8294714 C22.2945429,29.9927571 21.7185429,30.5014714 21.4146857,30.4654714 C21.2578286,30.4530429 21.0426857,30.2876143 20.8082571,30.0004714 C20.3612571,29.4549 20.0814,28.5154714 20.3788286,28.0719 C20.4276857,27.9973286 20.5459714,27.9013286 20.6856857,27.7860429 C20.8935429,27.6120429 21.1052571,27.4316143 21.2942571,27.2541857 C21.8659714,26.7394714 22.3142571,26.2256143 22.6434,25.3937571 C22.6849714,25.2896143 22.7244,25.1846143 22.7634,25.0804714 C22.9596857,24.5546143 23.0946857,24.2220429 23.3835429,24.0073286 C23.5669714,23.8706143 23.7846857,23.8020429 24.0024,23.8020429 C24.2192571,23.8020429 24.4356857,23.8701857 24.6165429,24.0073286 C24.9054,24.2220429 25.0404,24.5546143 25.2366857,25.0804714 C25.2756857,25.1846143 25.3151143,25.2896143 25.3562571,25.3929 C25.6832571,26.2234714 26.1324,26.7381857 26.6904,27.2396143 C26.8922571,27.4307571 27.1061143,27.6116143 27.3289714,27.7980429 C27.4541143,27.9013286 27.5724,27.9973286 27.6242571,28.0766143 C27.9182571,28.5154714 27.6384,29.4553286 27.1918286,30.0004714 M28.4162571,26.4733286 C28.2336857,26.3194714 28.0459714,26.1613286 27.8526857,25.9787571 C27.3568286,25.5326143 27.1378286,25.2381857 26.9509714,24.7633286 C26.9132571,24.6694714 26.8781143,24.5739 26.8425429,24.4791857 C26.6111143,23.8607571 26.3484,23.1583286 25.6446857,22.6350429 C24.6834,21.9094714 23.3329714,21.9073286 22.3605429,22.6320429 C21.6516857,23.1583286 21.3889714,23.8607571 21.1575429,24.4791857 C21.1219714,24.5739 21.0868286,24.6694714 21.0491143,24.7633286 C20.8614,25.2390429 20.6424,25.5339 20.1332571,25.9916143 C19.9545429,26.1604714 19.7668286,26.3190429 19.5834,26.4733286 C19.3862571,26.6344714 19.1402571,26.8363286 18.9512571,27.1221857 C18.1579714,28.3067571 18.6324,30.0480429 19.4809714,31.0856143 C20.0342571,31.7627571 20.6201143,32.1189 21.2706857,32.1737571 C21.3289714,32.1789 21.3868286,32.1810429 21.4434,32.1810429 C22.2748286,32.1810429 22.9746857,31.6749 23.6068286,31.1229 C23.6809714,31.0594714 23.8956857,30.8734714 23.9994,30.8353286 C24.1048286,30.8739 24.3186857,31.0594714 24.3902571,31.1203286 C25.0686857,31.7126143 25.8225429,32.2539 26.7294,32.1737571 C27.3799714,32.1189 27.9654,31.7631857 28.5186857,31.0860429 C29.3672571,30.0489 29.8416857,28.3080429 29.0518286,27.1269 C28.8598286,26.8363286 28.6138286,26.6344714 28.4162571,26.4733286" id="Fill-4" fill="#37464C"></path>
                        <path d="M26.0078143,20.8427143 C26.7612429,21.1268571 27.3029571,20.3832857 27.5789571,19.7802857 C27.7251,19.4614286 27.8343857,19.1297143 27.8776714,18.795 C27.9261,18.4217143 27.8926714,18.0432857 27.7371,17.6738571 C27.4923857,17.0952857 27.0123857,16.6508571 26.3523857,16.677 C24.9968143,16.7335714 24.7516714,18.2541429 25.0006714,19.305 C25.1365286,19.8814286 25.4013857,20.6147143 26.0078143,20.8427143" id="Fill-6" fill="#37464C"></path>
                        <path d="M29.6820429,21.1955143 C28.3269,21.2525143 28.0813286,22.7722286 28.3303286,23.8239429 C28.4666143,24.4008 28.7314714,25.1332286 29.3374714,25.3616571 C30.0913286,25.6458 30.6326143,24.9009429 30.9086143,24.2983714 C31.0547571,23.9799429 31.1640429,23.6482286 31.2077571,23.3122286 C31.2557571,22.9393714 31.2223286,22.5613714 31.0667571,22.1923714 C30.8224714,21.6133714 30.3420429,21.1689429 29.6820429,21.1955143" id="Fill-8" fill="#37464C"></path>
                        <path d="M21.3165429,20.8531714 C22.0794,21.1158857 22.5975429,20.3551714 22.8559714,19.7448857 C22.9931143,19.4217429 23.0921143,19.0870286 23.1251143,18.7514571 C23.1632571,18.3764571 23.1178286,17.9997429 22.9511143,17.6341714 C22.6901143,17.0633143 22.1968286,16.6326 21.5376857,16.6806 C20.1842571,16.7761714 19.9845429,18.3031714 20.2648286,19.3467429 C20.4186857,19.9188857 20.7045429,20.6436 21.3165429,20.8531714" id="Fill-10" fill="#37464C"></path>
                        <path d="M19.4731286,24.2625 C19.6089857,23.9393571 19.7092714,23.6046429 19.7422714,23.2686429 C19.7795571,22.8940714 19.7341286,22.5169286 19.5682714,22.1517857 C19.3064143,21.5805 18.8139857,21.1502143 18.1548429,21.1977857 C16.8014143,21.2933571 16.6017,22.8207857 16.8819857,23.8643571 C17.0349857,24.4365 17.3217,25.1607857 17.9337,25.3720714 C18.6965571,25.6335 19.2147,24.8727857 19.4731286,24.2625" id="Fill-12" fill="#37464C"></path>
                    </g>
                </g>
            </g>
        </g>
    </g>
</svg>