<?xml version="1.0" encoding="UTF-8"?>
<svg width="47px" height="46px" viewBox="0 0 47 46" version="1.1" xmlns="http://www.w3.org/2000/svg" xmlns:xlink="http://www.w3.org/1999/xlink">
    <title>508FF0B4-B522-4DE6-AAF4-8641272BE3FC@1x</title>
    <defs>
        <polygon id="path-1" points="0 0 47 0 47 46 0 46"></polygon>
    </defs>
    <g id="Page-1" stroke="none" stroke-width="1" fill="none" fill-rule="evenodd">
        <g id="Mix-ins-Offer---Desktop---v2" transform="translate(-833.000000, -2161.000000)">
            <g id="Group-7" transform="translate(0.000000, 1808.000000)">
                <g id="Left">
                    <g id="Bitmap">
                        <g id="Group-5" transform="translate(97.000000, 326.000000)">
                            <g id="Group-9-Copy-4" transform="translate(719.000000, 10.000000)">
                                <g id="nutritionalboost">
                                    <g id="nutritionalboost-ic" transform="translate(17.000000, 17.000000)">
                                        <mask id="mask-2" fill="white">
                                            <use xlink:href="#path-1"></use>
                                        </mask>
                                        <g id="Clip-2"></g>
                                        <path d="M32.7941203,19.04198 C32.6728479,19.0351398 32.5481594,19.0060693 32.4337193,18.9564783 C32.3653968,18.9274077 32.3004905,18.889787 32.2390003,18.8470362 C31.7419543,18.5016095 31.620682,17.8175961 31.9622943,17.3216865 C33.590077,14.9721007 36.8166055,14.3923995 39.1566499,16.0220612 C39.6519878,16.3657779 39.7749682,17.0549213 39.4316478,17.5508309 C39.0849113,18.0501607 38.4016867,18.169863 37.9046407,17.8261463 C36.5569801,16.887338 34.7037332,17.2190845 33.7660074,18.5700108 C33.5371271,18.8983372 33.1664777,19.0642104 32.7941203,19.04198 L32.7941203,19.04198 Z M9.58156262,23.2914127 L9.77628165,22.7852429 C10.0529876,22.2192218 10.3741032,21.663461 10.7362123,21.1230905 C13.0899212,17.607262 17.1346112,14.7668967 20.9452967,13.8605791 L22.6362777,13.6040741 L16.8459488,5.39762434 C14.4375819,1.98610792 9.71308337,1.168712 6.29866815,3.58156898 L5.39510354,4.22112143 C4.54107272,4.82476318 3.85101582,5.57375776 3.33005702,6.40996404 C1.77572093,8.92029292 1.76888868,12.2240772 3.57943402,14.7839971 L9.58156262,23.2914127 Z M26.578484,30.9711722 C26.2966538,30.9831425 26.0114075,30.8856706 25.7876515,30.6821766 C25.3452635,30.2700586 25.3196426,29.5757851 25.7278693,29.1294664 C26.8432336,27.9221829 26.7663708,26.0394362 25.5604793,24.9244945 C25.1676251,24.5636775 25.0993026,23.9839762 25.3606361,23.5479177 C25.3982134,23.4880665 25.442623,23.4282154 25.4938649,23.3734943 C25.9055077,22.9288857 26.5989807,22.896395 27.0430768,23.305093 C29.1422845,25.2442707 29.2772214,28.5224046 27.3419876,30.6189054 C27.1353121,30.8429197 26.8603142,30.960912 26.578484,30.9711722 L26.578484,30.9711722 Z M36.220492,32.8778593 L42.4156315,27.0722963 C45.4628135,24.2165407 45.6199552,19.4147672 42.7640761,16.3589377 L42.0091129,15.551802 C39.1498177,12.4993926 34.3569967,12.3437796 31.3081067,15.1995352 L28.380489,17.9458486 L31.0194443,21.6856914 C32.9632184,24.438845 33.2826259,27.8537815 32.1740939,30.7881987 L31.955462,31.2345174 L33.0827827,31.8620996 C33.3560726,31.9937721 33.6259463,32.1117644 33.9043604,32.2212066 C34.5807528,32.4845517 35.2691016,32.6760754 35.9540343,32.7803875 L36.220492,32.8778593 Z M22.3083299,35.5386712 C23.7670145,35.5078906 25.2308234,35.0564418 26.5118696,34.1518342 L27.4154342,33.5105717 C30.8281414,31.0977147 31.6377626,26.3643425 29.2311037,22.9494061 L24.19403,15.8117271 L23.4134458,15.7517683 C19.8213922,15.7313555 14.9858697,18.6486723 12.4989319,22.4227158 C12.334958,22.6758007 12.1795244,22.9288857 12.0360472,23.1905207 C11.6790623,23.8232331 11.3989402,24.4798858 11.199097,25.1467988 L11.0658682,25.3947537 L15.9628809,32.3340688 C17.4642671,34.4681903 19.8777582,35.5865521 22.3083299,35.5386712 L22.3083299,35.5386712 Z M21.6900116,43.8066821 C23.5073892,43.7776116 25.3179345,43.0987283 26.745874,41.7580622 L34.3399161,34.6409037 L33.8138331,34.5143612 C33.2160115,34.3211274 32.6216061,34.0765927 32.037449,33.7910171 L30.8400978,33.1326543 L30.1705376,34.0064813 C29.7264416,34.4784505 29.2293957,34.914509 28.6793998,35.3043966 L27.7741271,35.943949 C23.3758684,39.0579197 17.2763803,38.0079592 14.1711243,33.5994934 L13.6826186,32.91035 L13.3973723,33.9072994 C12.9276554,36.2295246 13.5493898,38.7381434 15.2899046,40.5986597 L16.048284,41.4092154 C16.7639618,42.1718903 17.5957878,42.7533016 18.4976444,43.1551594 C19.5088169,43.6048982 20.6002683,43.8220724 21.6900116,43.8066821 L21.6900116,43.8066821 Z M21.7207567,45.9989448 C20.31673,46.0194652 18.9092872,45.7407298 17.6060362,45.1593185 C17.4591429,45.0943372 17.3139577,45.0259359 17.1721886,44.9524044 C16.1780967,44.4547847 15.2540353,43.7690614 14.4478302,42.9089146 L13.6911589,42.0983589 C10.8694411,39.0852802 10.3279856,34.7503458 11.9967618,31.2310973 L12.223934,30.8412097 L1.78938542,16.0511317 C-0.543826777,12.7439274 -0.53699453,8.48594446 1.4699779,5.25227151 C1.55196486,5.11546884 1.639076,4.98037621 1.73131133,4.85212371 C2.36158607,3.93383584 3.1660831,3.10959979 4.12772181,2.42900654 L5.03470254,1.78945409 C9.43637738,-1.32280651 15.5307413,-0.27113603 18.6377054,4.13390973 L27.104567,16.1366334 L29.8101366,13.598944 C33.7420945,9.91040219 39.9218615,10.1121861 43.6078586,14.0521028 L44.3662379,14.8626586 C48.0471108,18.7991552 47.8455595,24.9911858 43.9136016,28.6745975 L28.2455522,43.3620735 C26.4008456,45.0926272 24.0625092,45.9647441 21.7207567,45.9989448 L21.7207567,45.9989448 Z" id="Fill-1" fill="#333333" mask="url(#mask-2)"></path>
                                    </g>
                                </g>
                            </g>
                        </g>
                    </g>
                </g>
            </g>
        </g>
    </g>
</svg>