<?xml version="1.0" encoding="UTF-8"?>
<svg width="48px" height="49px" viewBox="0 0 48 49" version="1.1" xmlns="http://www.w3.org/2000/svg" xmlns:xlink="http://www.w3.org/1999/xlink">
    <title>255CEF19-9636-4C8B-A45D-2D79DC4A5EA8@1x</title>
    <defs>
        <polygon id="path-1" points="0 0.181959302 46.9803844 0.181959302 46.9803844 35 0 35"></polygon>
    </defs>
    <g id="Page-1" stroke="none" stroke-width="1" fill="none" fill-rule="evenodd">
        <g id="HB-HomePage---Tablet" transform="translate(-40.000000, -1993.000000)">
            <g id="4-icons" transform="translate(40.000000, 1993.000000)">
                <g id="Group-16-Copy" transform="translate(0.000000, 0.604955)">
                    <g id="icon/image/bee/24">
                        <g id="Group-16" transform="translate(1.000000, 7.000000)">
                            <g id="Group-3">
                                <mask id="mask-2" fill="white">
                                    <use xlink:href="#path-1"></use>
                                </mask>
                                <g id="Clip-2"></g>
                                <path d="M32.0249237,33.3721337 L32.0249237,25.4381221 C32.0265169,25.439343 32.0277119,25.440157 32.0293051,25.4413779 C32.9410254,26.22725 34.0889407,26.8934709 35.537178,27.3085872 L35.537178,33.3721337 L32.0249237,33.3721337 Z M16.2313305,25.9533547 C16.6451695,26.0819593 17.0693644,26.1853314 17.5055085,26.2589942 L17.5055085,33.3721337 L16.2313305,33.3721337 L16.2313305,25.9533547 Z M13.3635339,24.4919012 C13.7737881,24.7938779 14.1979831,25.0637035 14.6381102,25.2944593 L14.6381102,33.191843 L13.3635339,33.191843 L13.3635339,24.4919012 Z M27.5639068,33.3721337 L21.9944068,33.3721337 C22.0083475,31.0210291 22.033839,27.8755058 22.0617203,26.3469012 C24.2408475,26.7188779 26.1065085,26.3587035 27.5639068,25.7885291 L27.5639068,33.3721337 Z M29.1571271,25.0091686 C29.689661,24.6933547 30.117839,24.3803895 30.4317034,24.126436 L30.4317034,33.191843 L29.1571271,33.191843 L29.1571271,25.0091686 Z M13.949839,20.2117267 C15.5637712,20.2117267 16.8769831,18.8699244 16.8769831,17.2204477 C16.8769831,16.182657 16.3563983,15.2669593 15.5685508,14.730157 L16.1058644,8.77405233 C16.5806441,8.88800581 17.0331186,8.94701744 17.4612966,8.94701744 C18.1882034,8.94701744 18.8434153,8.77486628 19.4281271,8.44562209 C19.4496356,8.44765698 19.4707458,8.4525407 19.4930508,8.4525407 L31.1586102,8.4525407 C31.1725508,8.4525407 31.1864915,8.45213372 31.2000339,8.45131977 C34.0108729,8.30236628 36.0482034,8.92219186 37.252678,10.2937035 C38.8897119,12.157657 38.4822458,14.8791105 38.4782627,14.903936 C38.4710932,14.9482965 38.4675085,14.9934709 38.4675085,15.0386453 L38.4675085,25.2073663 L38.4491864,33.0306802 L37.1303983,33.0188779 L37.1303983,26.6842849 L37.1303983,26.681843 L37.1303983,26.4327733 C37.1303983,25.9834709 36.7739153,25.6188198 36.3337881,25.6188198 C35.2181356,25.6188198 33.8698729,24.8077151 32.9302712,24.0991686 C30.371161,21.8262035 30.1485085,18.4385291 30.1381525,18.247657 C30.1154492,17.7999826 29.7450254,17.4544593 29.3029068,17.477657 C28.8635763,17.5004477 28.5250169,17.8825988 28.547322,18.3314942 C28.5489153,18.370564 28.6731864,20.3928314 29.7860508,22.5550988 C29.1419915,23.1460291 25.9929915,25.7405058 21.4997119,24.5627151 C21.2627203,24.5000407 21.0101949,24.5533547 20.8162203,24.705564 C20.4704915,24.9770174 20.4704915,24.9770174 20.4286695,29.6666105 C20.4167203,30.9986453 20.4075593,32.3290523 20.4027797,33.1466686 L19.0987288,33.1466686 L19.0987288,25.54475 C19.0987288,25.12475 18.7864576,24.774343 18.3777966,24.7340523 C17.5071017,24.6489942 16.6921695,24.4402151 15.9258305,24.1138198 C15.8210763,24.0295756 15.6972034,23.9713779 15.5601864,23.9494012 C14.0422458,23.2095174 12.7290339,21.9698663 11.5962542,20.2117267 L13.949839,20.2117267 Z M6.42864407,17.2204477 C6.42864407,16.4687616 7.02729661,15.8570756 7.7629661,15.8570756 L13.949839,15.8570756 C14.6855085,15.8570756 15.2837627,16.4687616 15.2837627,17.2204477 C15.2837627,17.9725407 14.6855085,18.5838198 13.949839,18.5838198 L7.7629661,18.5838198 C7.02729661,18.5838198 6.42864407,17.9725407 6.42864407,17.2204477 L6.42864407,17.2204477 Z M6.91497458,6.68626163 C6.89705085,6.48562209 6.95400847,6.30044767 7.07509322,6.16451744 C7.19657627,6.02858721 7.3714322,5.95370349 7.56859322,5.95370349 L14.0406525,5.95370349 C14.2374153,5.95370349 14.4130678,6.02858721 14.5341525,6.16451744 C14.6556356,6.30044767 14.7121949,6.48562209 14.6942712,6.68626163 L14.0131695,14.2328314 C13.9920593,14.2320174 13.9709492,14.2291686 13.949839,14.2291686 L7.7629661,14.2291686 C7.70680508,14.2291686 7.65223729,14.2348663 7.59647458,14.2377151 L6.91497458,6.68626163 Z M2.78216102,7.08021512 C2.20262712,6.73835465 1.89633051,6.07376163 1.73979661,5.5650407 C2.54477119,5.41568023 3.21750847,5.50480814 3.74526271,5.83120349 C4.28974576,6.16736628 4.60838983,6.7094593 4.78563559,7.13271512 C3.95994915,7.39602907 3.28840678,7.37852907 2.78216102,7.08021512 L2.78216102,7.08021512 Z M17.7727712,5.73556395 C18.2794153,5.43358721 18.9529492,5.41568023 19.781822,5.67980814 C19.604178,6.10387791 19.2855339,6.64556395 18.7414492,6.98131977 C18.2136949,7.30771512 17.5413559,7.39684302 16.7363814,7.24748256 C16.8925169,6.74038953 17.1976186,6.07823837 17.7727712,5.73556395 L17.7727712,5.73556395 Z M46.8964407,21.7863198 L45.2757373,18.474343 C45.2852966,18.4299826 45.293661,18.3852151 45.2964492,18.3388198 C45.5290593,14.2995756 44.7220932,11.5378314 42.8982542,10.1305058 C41.2982627,8.89451744 39.4098983,9.09515698 38.5081356,9.2925407 C38.4882203,9.26893605 38.4714915,9.24411047 38.4507797,9.22050581 C36.9125254,7.45829651 34.4533898,6.6516686 31.1382966,6.82463372 L20.9994407,6.82463372 C21.4204492,6.06155233 21.5423305,5.37498256 21.5502966,5.3269593 C21.6112373,4.9594593 21.4200508,4.59643605 21.0858729,4.44585465 C19.4560085,3.71248256 18.0711017,3.67341279 16.9701864,4.3294593 C16.5236864,4.59562209 16.1783559,4.94969186 15.9095,5.32899419 C15.8493559,5.23823837 15.7852288,5.14992442 15.7115424,5.06771512 C15.2845593,4.58951744 14.6910847,4.32579651 14.0406525,4.32579651 L13.7486949,4.32579651 C15.0889915,3.58428488 15.9489322,2.38207558 15.9489322,0.995912791 C15.9489322,0.546610465 15.5924492,0.181959302 15.152322,0.181959302 C14.7125932,0.181959302 14.3557119,0.546610465 14.3557119,0.995912791 C14.3557119,2.34422674 12.6115339,3.48294767 10.5467203,3.48294767 C8.48230508,3.48294767 6.73812712,2.34422674 6.73812712,0.995912791 C6.73812712,0.546610465 6.38124576,0.181959302 5.94151695,0.181959302 C5.50138983,0.181959302 5.14490678,0.546610465 5.14490678,0.995912791 C5.14490678,2.38858721 6.01241525,3.59527326 7.3634661,4.33637791 C6.79388983,4.38602907 6.27927966,4.63998256 5.89770339,5.06771512 C5.79852542,5.17881977 5.71249153,5.29887791 5.63800847,5.4250407 C5.36875424,5.06812209 5.02661017,4.72381977 4.58767797,4.44911047 C3.5015,3.7694593 2.14566949,3.68277326 0.558025424,4.19190116 C0.197559322,4.30748256 -0.0338559322,4.66602907 0.00398305085,5.05021512 C0.0135423729,5.14788953 0.259694915,7.46155233 1.974,8.48306395 C2.49338983,8.79277326 3.07611017,8.94742442 3.71857627,8.94742442 C4.26584746,8.94742442 4.85733051,8.83306395 5.48824576,8.60800581 L6.0474661,14.8017849 C5.31458475,15.3463198 4.83542373,16.2262035 4.83542373,17.2204477 C4.83542373,18.8699244 6.14863559,20.2117267 7.7629661,20.2117267 L9.72700847,20.2117267 C10.3479661,21.308936 11.0334492,22.2624826 11.7818644,23.0703314 C11.7766864,23.1085872 11.7703136,23.14725 11.7703136,23.1875407 L11.7703136,33.3721337 L8.80891525,33.3721337 C8.75315254,32.4511453 9.04351695,31.9208547 9.67244068,31.1516686 C9.88394068,30.8928314 9.85048305,30.5078314 9.59716102,30.2917267 C9.34383898,30.0756221 8.96704237,30.1102151 8.75554237,30.3686453 C7.98960169,31.3050988 7.55783898,32.106843 7.61519492,33.3721337 L6.96874576,33.3721337 C6.96874576,33.3692849 6.96914407,33.366843 6.96874576,33.3639942 C6.85761864,32.2163198 6.96516102,31.0234709 7.27982203,29.9152733 C7.3714322,29.5917267 7.18900847,29.2531221 6.87195763,29.1591105 C6.55490678,29.0634709 6.22391525,29.2519012 6.13190678,29.5758547 C5.78577966,30.7959709 5.66310169,32.1056221 5.77144068,33.3721337 L5.08237288,33.3721337 C5.12658475,33.2642849 5.14132203,33.1425988 5.11782203,33.0192849 C4.95929661,32.1862035 4.53828814,31.4084709 3.9320678,30.828936 C3.69149153,30.5981802 3.3135,30.6112035 3.08766102,30.8570174 C2.86222034,31.1036453 2.8745678,31.4898663 3.11554237,31.7198081 C3.53933898,32.125564 3.83408475,32.6696919 3.94521186,33.2520756 C3.95357627,33.2960291 3.97388983,33.332657 3.99061864,33.3721337 L2.86142373,33.3721337 C2.42129661,33.3721337 2.06481356,33.7367849 2.06481356,34.1860872 C2.06481356,34.6353895 2.42129661,35.0000407 2.86142373,35.0000407 L43.0954153,35.0000407 C43.5355424,35.0000407 43.8920254,34.6353895 43.8920254,34.1860872 C43.8920254,33.7367849 43.5355424,33.3721337 43.0954153,33.3721337 L40.0416102,33.3721337 L40.0607288,25.2089942 L40.0607288,15.0988779 C40.1164915,14.6857965 40.3152458,12.7225407 39.4481356,10.7934709 C40.1535339,10.7316105 41.1317712,10.8016105 41.9482966,11.4369012 C43.287,12.4795756 43.8948136,14.8144012 43.7084068,18.1898663 C43.700839,18.2053314 43.6892881,18.2175407 43.6829153,18.2338198 L42.2267119,21.8400407 C42.1251441,22.0911453 42.1534237,22.37725 42.3011949,22.6031221 C42.4489661,22.8289942 42.6971102,22.9645174 42.963178,22.9645174 L46.1838729,22.9645174 C46.4598983,22.9645174 46.7164068,22.8180058 46.8613898,22.5787035 C47.0067712,22.3385872 47.0195169,22.0386453 46.8964407,21.7863198 L46.8964407,21.7863198 Z" id="Fill-1" fill="#EF8F7A" mask="url(#mask-2)"></path>
                            </g>
                            <path d="M10,8.99977713 C10,8.44751504 9.55248496,8 8.99977713,8 C8.44796078,8 8,8.44751504 8,8.99977713 C8,9.55203922 8.44796078,10 8.99977713,10 C9.55248496,10 10,9.55203922 10,8.99977713" id="Fill-4" fill="#EF8F7A"></path>
                            <path d="M12,10 C12.552139,10 13,9.55248496 13,8.99977713 C13,8.44796078 12.552139,8 12,8 C11.447861,8 11,8.44796078 11,8.99977713 C11,9.55248496 11.447861,10 12,10" id="Fill-6" fill="#EF8F7A"></path>
                            <path d="M24.5,13 C24.776,13 25,12.7308501 25,12.399219 L25,11.600781 C25,11.2688495 24.776,11 24.5,11 C24.224,11 24,11.2688495 24,11.600781 L24,12.399219 C24,12.7308501 24.224,13 24.5,13" id="Fill-8" fill="#EF8F7A"></path>
                            <path d="M25.5,19 C25.776,19 26,18.7308501 26,18.399219 L26,17.600781 C26,17.2688495 25.776,17 25.5,17 C25.224,17 25,17.2688495 25,17.600781 L25,18.399219 C25,18.7308501 25.224,19 25.5,19" id="Fill-10" fill="#EF8F7A"></path>
                            <path d="M27.5,16 C27.776,16 28,15.7308501 28,15.399219 L28,14.600781 C28,14.2688495 27.776,14 27.5,14 C27.224,14 27,14.2688495 27,14.600781 L27,15.399219 C27,15.7308501 27.224,16 27.5,16" id="Fill-12" fill="#EF8F7A"></path>
                            <path d="M21.5,17 C21.776,17 22,16.7308905 22,16.3993092 L22,15.6006908 C22,15.2691095 21.776,15 21.5,15 C21.224,15 21,15.2691095 21,15.6006908 L21,16.3993092 C21,16.7308905 21.224,17 21.5,17" id="Fill-14" fill="#EF8F7A"></path>
                        </g>
                    </g>
                </g>
            </g>
        </g>
    </g>
</svg>