<?xml version="1.0" encoding="UTF-8"?>
<svg width="49px" height="49px" viewBox="0 0 49 49" version="1.1" xmlns="http://www.w3.org/2000/svg" xmlns:xlink="http://www.w3.org/1999/xlink">
    <title>0B0C476F-AB14-4743-93E4-87AAF4BDE636@1x</title>
    <defs>
        <polygon id="path-1" points="0 0.160482192 41.9702062 0.160482192 41.9702062 32 0 32"></polygon>
    </defs>
    <g id="Page-1" stroke="none" stroke-width="1" fill="none" fill-rule="evenodd">
        <g id="Mix-ins-Offer---Desktop" transform="translate(-464.000000, -1384.000000)">
            <g id="Stepper-2-Copy" transform="translate(0.000000, 756.000000)">
                <g id="Group-6" transform="translate(91.000000, 236.000000)">
                    <g id="4-icons" transform="translate(104.794638, 392.395045)">
                        <g id="Group-16-Copy-3" transform="translate(269.000000, 0.000000)">
                            <g id="icon/image/bee/24">
                                <g id="Group-18" transform="translate(3.000000, 8.000000)">
                                    <path d="M21,9 C21.552295,9 22,8.55229496 22,8 C22,7.44770504 21.552295,7 21,7 C20.447705,7 20,7.44770504 20,8 C20,8.55229496 20.447705,9 21,9" id="Fill-1" fill="#EF8F7A"></path>
                                    <path d="M21,13 C21.552295,13 22,12.552295 22,12 C22,11.447705 21.552295,11 21,11 C20.447705,11 20,11.447705 20,12 C20,12.552295 20.447705,13 21,13" id="Fill-3" fill="#EF8F7A"></path>
                                    <path d="M16,11 C16.552295,11 17,10.552295 17,10 C17,9.44770504 16.552295,9 16,9 C15.447705,9 15,9.44770504 15,10 C15,10.552295 15.447705,11 16,11" id="Fill-5" fill="#EF8F7A"></path>
                                    <path d="M26,11 C26.552295,11 27,10.552295 27,10 C27,9.44770504 26.552295,9 26,9 C25.447705,9 25,9.44770504 25,10 C25,10.552295 25.447705,11 26,11" id="Fill-7" fill="#EF8F7A"></path>
                                    <path d="M36.8795362,15.7932561 C36.7461577,15.2263619 36.2241558,14.8862253 35.7136657,15.0348972 C35.2031756,15.1831279 34.8979136,15.7632571 35.031292,16.3305925 L37.1200937,25.2067892 C37.2324333,25.6836862 37.6194689,26 38.0438188,26 C38.1236077,26 38.2049844,25.9885298 38.2859642,25.9651481 C38.7964543,25.8169174 39.1021132,25.2363471 38.9687348,24.6690117 L36.8795362,15.7932561 Z" id="Fill-9" fill="#EF8F7A"></path>
                                    <path d="M8.23069748,15.7332598 C7.13669871,15.3780137 6.53833366,15.1060433 6.51625543,15.0959347 C5.96700316,14.8417749 5.32943798,15.1098943 5.09018208,15.6961949 C4.85137674,16.2829768 5.10324878,16.9655501 5.65205047,17.2206727 C5.68043676,17.2336695 6.35720206,17.5460743 7.60034152,17.9499382 C7.70532575,17.9836336 7.81121113,18 7.91574479,18 C8.38073932,18 8.81058892,17.6784493 8.95297097,17.1778313 C9.12689334,16.5660185 8.8033797,15.9190661 8.23069748,15.7332598" id="Fill-11" fill="#EF8F7A"></path>
                                    <path d="M27.9235882,24.6223139 C27.7316888,24.8207852 27.4731389,24.9336933 27.1949071,24.94075 C26.895204,24.9358985 26.6048946,24.8260777 26.4013649,24.6068772 C26.1969405,24.3867946 26.103451,24.0992317 26.1374472,23.7966733 C26.1660756,23.5461584 26.0846637,23.2952025 25.9133409,23.1077573 C25.7415707,22.9207533 25.5062814,22.8237229 25.2414692,22.8162251 C23.5072171,22.8298975 17.0649424,23.0124911 16.7911838,23.0199889 C16.5335286,23.0274867 16.2915295,23.1439232 16.1273638,23.3397482 C15.963198,23.5355732 15.8925218,23.7918217 15.9336751,24.0432187 C15.9833274,24.3422488 15.9041521,24.63334 15.7104633,24.8631257 C15.5181166,25.0924703 15.2345169,25.2283129 14.9339192,25.235812 C14.3470379,25.2366928 13.8818271,24.7996149 13.8679603,24.2337512 C13.8594612,23.9007604 14.0173645,23.5836474 14.2902285,23.3847351 C14.5250705,23.2144908 14.6606079,22.9414825 14.6538981,22.6543607 C14.646741,22.3672389 14.4982314,22.1008463 14.2562323,21.9416282 C13.97308,21.7550652 13.798626,21.4441268 13.7896796,21.1115771 C13.7834172,20.8376867 13.8849584,20.5774688 14.0768578,20.3794386 C14.2687573,20.1809673 14.5277544,20.0680592 14.8059862,20.0610024 L14.8314834,20.0610024 C15.1226874,20.0610024 15.4009193,20.1814083 15.5981865,20.393111 C15.8026109,20.6118705 15.896995,20.8981102 15.8643408,21.1980224 C15.836607,21.4489783 15.9193609,21.6986111 16.091131,21.8856152 C16.2624538,22.0721782 16.5125046,22.1793527 16.7625554,22.1749422 C18.6359234,22.1568593 23.2978722,22.0448333 25.217314,21.9716194 C25.4727326,21.9623574 25.7120477,21.8450388 25.8739769,21.650537 C26.0363533,21.4555941 26.1065823,21.2019918 26.066771,20.9532411 C26.0184606,20.6546521 26.0985305,20.364443 26.2917719,20.1364215 C26.4841187,19.9084 26.767271,19.7734395 27.0674215,19.7659417 C27.3483372,19.7721164 27.6095709,19.8598848 27.8104167,20.0490941 C28.0117099,20.2383034 28.1266706,20.4932288 28.1333804,20.7671192 C28.1414321,21.100551 27.9835288,21.418105 27.7097702,21.6174584 C27.4758228,21.7877027 27.3402855,22.0602699 27.3474426,22.3478328 C27.3545996,22.6349546 27.5026619,22.9009061 27.7451083,23.0601242 C28.0282606,23.2471283 28.2022674,23.5563025 28.2103191,23.8892932 C28.2170289,24.1636246 28.1154877,24.4238426 27.9235882,24.6223139 M29.9222053,20.7243376 C29.9038652,19.9794086 29.5916372,19.2852002 29.0450146,18.77138 C28.4974973,18.2571188 27.7808938,17.9691149 27.0235843,18.0026345 C26.2081235,18.0220406 25.4400784,18.3881099 24.9171636,19.0068993 C24.6147766,19.3645887 24.4112468,19.7888762 24.3195466,20.2378624 C22.4466259,20.2978448 19.4272291,20.3701766 17.5730957,20.4001678 C17.4590296,19.9555921 17.2353706,19.5414487 16.9150909,19.1983138 C16.3617584,18.6055462 15.5802938,18.2729965 14.7621491,18.2976952 C14.0070762,18.3153371 13.3034449,18.622306 12.781872,19.1617069 C12.2598519,19.7015488 11.9825147,20.4089887 12.0008547,21.1561229 C12.0156162,21.7184583 12.2030425,22.256536 12.5264534,22.703758 C12.2249611,23.1668577 12.0648212,23.7137564 12.0791354,24.2774148 C12.1162628,25.7924124 13.3785943,27 14.9079748,27 C14.9312353,27 14.9544958,27 14.9777564,26.9991179 C15.7954538,26.9792708 16.5643935,26.6114373 17.0873083,25.9900016 C17.389248,25.6314301 17.5909885,25.2080247 17.681794,24.7599206 C19.2447233,24.716698 22.6054239,24.6262833 24.4260083,24.5927637 C24.5382852,25.0382215 24.7614969,25.4541291 25.0817766,25.7985871 C25.635109,26.394001 26.4152317,26.7358127 27.2387443,26.7040572 C27.9947118,26.6864154 28.6978958,26.3785643 29.2194686,25.8391634 C29.7405942,25.2993215 30.017484,24.5918816 29.999144,23.8469527 C29.9857244,23.2841763 29.7982982,22.7456575 29.4748872,22.2975534 C29.7759323,21.8344537 29.9360721,21.287555 29.9222053,20.7243376" id="Fill-13" fill="#EF8F7A"></path>
                                    <g id="Group-17">
                                        <mask id="mask-2" fill="white">
                                            <use xlink:href="#path-1"></use>
                                        </mask>
                                        <g id="Clip-16"></g>
                                        <path d="M20.9850812,30.2466192 C9.64989375,30.2466192 1.74995625,27.2763178 1.74995625,24.6102356 C1.74995625,23.4051945 2.46220625,21.0762082 3.09089375,19.0220712 C3.74495625,16.8837699 4.31020625,15.036537 4.31020625,13.9253041 C4.31020625,13.4102356 4.72801875,12.8434411 5.52339375,12.2849753 C6.54145625,15.9299068 20.1708938,15.9750575 20.7728937,15.9750575 C21.3875812,15.9750575 35.5953938,15.9268384 36.0661438,12.0425644 C37.1021437,12.6777425 37.6599563,13.3352767 37.6599563,13.9253041 C37.6599563,15.036537 38.2252063,16.8837699 38.8792688,19.0220712 C39.5079562,21.0762082 40.2202063,23.4051945 40.2202063,24.6102356 C40.2202063,27.2763178 32.3202687,30.2466192 20.9850812,30.2466192 M7.38758125,11.7957699 C7.53676875,11.6493589 7.63214375,11.4564822 7.65751875,11.2487014 C7.84433125,9.74250959 8.83395625,8.60672877 9.95964375,8.60672877 C10.3118313,8.60672877 10.6526438,8.71412603 10.9728938,8.92672877 C11.2082688,9.08278356 11.5027063,9.12223562 11.7704563,9.03412603 C12.0390813,8.94557808 12.2525813,8.73955068 12.3501437,8.47390685 C12.8095188,7.21889315 13.8043938,6.4083726 14.8841437,6.4083726 C15.1580188,6.4083726 15.4323313,6.4614137 15.7000813,6.56661918 C15.9617063,6.66919452 16.2552687,6.64727671 16.4985187,6.50656438 C16.7417687,6.36585205 16.9084562,6.12212603 16.9500187,5.84420822 C17.2877687,3.62349589 18.9288312,2.01166027 20.8520812,2.01166027 C22.7950187,2.01166027 24.4387062,3.64322192 24.7598312,5.89023562 C24.8009562,6.17692055 24.9733312,6.42766027 25.2257687,6.5683726 C25.4786437,6.70864658 25.7818312,6.72311233 26.0465187,6.60607123 C27.4115187,6.00508493 28.8963937,6.86820822 29.4852687,8.47390685 C29.5819563,8.73955068 29.7958937,8.94557808 30.0640812,9.03412603 C30.3313937,9.12223562 30.6258313,9.08278356 30.8616437,8.92672877 C31.1823312,8.71412603 31.5231437,8.60672877 31.8753312,8.60672877 C33.1208938,8.60672877 34.1673938,9.97703014 34.2080812,11.6611945 C34.2093937,11.7164274 34.2163938,11.7742904 34.2282062,11.8304 C33.7167687,12.6755507 28.9165187,14.1238795 20.7728937,14.1238795 C12.7062688,14.1238795 7.92045625,12.7027288 7.33289375,11.8545096 C7.34645625,11.8382904 7.36439375,11.8185644 7.38758125,11.7957699 M40.5527062,18.5083178 C39.9905187,16.6720438 39.4099563,14.7739616 39.4099563,13.9253041 C39.4099563,12.284537 37.9977063,10.9365918 35.7563938,9.89681096 C35.1421438,8.04519452 33.6441437,6.75511233 31.8753312,6.75511233 C31.5091437,6.75511233 31.1447062,6.81297534 30.7929562,6.92475616 C29.9411438,5.46064658 28.5118313,4.55675616 26.9508312,4.55675616 C26.7548312,4.55675616 26.5597063,4.57166027 26.3658937,4.60059178 C25.5906437,1.97483836 23.4022687,0.160482192 20.8520812,0.160482192 C18.3154562,0.160482192 16.1244562,1.96957808 15.3430812,4.58349589 C15.1908313,4.56596164 15.0372687,4.55675616 14.8841437,4.55675616 C13.3227062,4.55675616 11.8933938,5.46020822 11.0415813,6.92475616 C10.6898312,6.81297534 10.3258313,6.75511233 9.95964375,6.75511233 C8.17901875,6.75511233 6.65564375,8.05790685 6.05320625,9.97133151 C3.90464375,11.0005918 2.56020625,12.3235507 2.56020625,13.9253041 C2.56020625,14.7739616 1.97964375,16.6720438 1.41745625,18.5083178 C0.72095625,20.7864548 -4.375e-05,23.1421808 -4.375e-05,24.6102356 C-4.375e-05,29.4102356 10.8118938,32.0000438 20.9850812,32.0000438 C31.1578312,32.0000438 41.9702063,29.4102356 41.9702063,24.6102356 C41.9702063,23.1421808 41.2492062,20.7864548 40.5527062,18.5083178" id="Fill-15" fill="#EF8F7A" mask="url(#mask-2)"></path>
                                    </g>
                                </g>
                            </g>
                        </g>
                    </g>
                </g>
            </g>
        </g>
    </g>
</svg>