<?xml version="1.0" encoding="UTF-8"?>
<svg width="18px" height="18px" viewBox="0 0 18 18" version="1.1" xmlns="http://www.w3.org/2000/svg" xmlns:xlink="http://www.w3.org/1999/xlink">
    <title>D3F41D6C-E770-4FCE-AA10-8435D8DEA3AB</title>
    <defs>
        <path d="M11,13 L11,19 L16,19 L15,15 L19,16 L19,11 L13,11 C11.9,11 11,11.9 11,13 Z M16,21 L11,21 L11,27 C11,28.1 11.9,29 13,29 L19,29 L19,24 L15,25 L16,21 Z M25,25 L21,24 L21,29 L27,29 C28.1,29 29,28.1 29,27 L29,21 L24,21 L25,25 Z M27,11 L21,11 L21,16 L25,15 L24,19 L29,19 L29,13 C29,11.9 28.1,11 27,11 Z" id="path-1"></path>
    </defs>
    <g id="Recommendations-Page-v2" stroke="none" stroke-width="1" fill="none" fill-rule="evenodd">
        <g id="Recommendations---Desktop---Empty-State" transform="translate(-1248.000000, -54.000000)">
            <g id="Main-Nav" transform="translate(83.000000, 20.000000)">
                <g id="Group" transform="translate(1154.000000, 23.000000)">
                    <g id="subscription-offer-ic">
                        <mask id="mask-2" fill="white">
                            <use xlink:href="#path-1"></use>
                        </mask>
                        <use id="icon/social/pages_24px" fill="#623B2A" fill-rule="nonzero" xlink:href="#path-1"></use>
                    </g>
                </g>
            </g>
        </g>
    </g>
</svg>