<?xml version="1.0" encoding="UTF-8"?>
<svg width="47px" height="47px" viewBox="0 0 47 47" version="1.1" xmlns="http://www.w3.org/2000/svg" xmlns:xlink="http://www.w3.org/1999/xlink">
    <!-- Generator: sketchtool 61 (101010) - https://sketch.com -->
    <title>4569A807-20F2-4D41-A842-DA56FC471313</title>
    <desc>Created with sketchtool.</desc>
    <g id="Recommendations-Page" stroke="none" stroke-width="1" fill="none" fill-rule="evenodd">
        <g id="Recommendations---Step-1" transform="translate(-430.000000, -1438.000000)" fill="#000000">
            <g id="Stepper-2-Copy" transform="translate(0.000000, 1331.000000)">
                <g id="Intro" transform="translate(410.000000, 80.000000)">
                    <g id="pictograms/documents/document-02" transform="translate(20.000000, 27.000000)">
                        <path d="M7.5518,45.5 L42.1478,45.5 C43.9958,45.5 45.5003,43.997 45.5003,42.1505 L45.5003,34.5815 L9.0803,34.5815 L9.0803,42.0335 C9.0803,43.4075 8.4833,44.66 7.5518,45.5 L7.5518,45.5 Z M1.5803,1.5815 L1.5803,42.1505 C1.5803,43.115 1.9433,43.997 2.6033,44.6315 C3.1883,45.194 3.9608,45.5 4.7903,45.5 L4.8233,45.5 C4.8578,45.5 4.8908,45.5 4.9253,45.4985 C6.6203,45.431 8.0003,43.877 8.0003,42.0335 L8.0003,34.04 C8.0003,33.7415 8.2418,33.5 8.5403,33.5 L38.0003,33.5 L38.0003,1.5815 L1.5803,1.5815 Z M4.7903,46.5815 C3.6803,46.5815 2.6438,46.1675 1.8548,45.4085 C0.9938,44.582 0.5003,43.394 0.5003,42.1505 L0.5003,1.04 C0.5003,0.7415 0.7418,0.5 1.0403,0.5 L38.5403,0.5 C38.8373,0.5 39.0803,0.7415 39.0803,1.04 L39.0803,33.5 L46.0403,33.5 C46.3373,33.5 46.5803,33.7415 46.5803,34.04 L46.5803,42.1505 C46.5803,44.594 44.5913,46.5815 42.1478,46.5815 L4.8308,46.5815 L4.7903,46.5815 Z M31.04,27.08105 L34.04,27.08105 L34.04,25.99955 L31.04,25.99955 L31.04,27.08105 Z M5.4965,9.08105 L25.04,9.08105 L25.04,7.99955 L5.4965,7.99955 L5.4965,9.08105 Z M31.04,9.08105 L34.04,9.08105 L34.04,7.99955 L31.04,7.99955 L31.04,9.08105 Z M5.4965,15.08105 L25.04,15.08105 L25.04,13.99955 L5.4965,13.99955 L5.4965,15.08105 Z M31.04,15.08105 L34.04,15.08105 L34.04,13.99955 L31.04,13.99955 L31.04,15.08105 Z M5.4965,21.10505 L25.04,21.10505 L25.04,20.02355 L5.4965,20.02355 L5.4965,21.10505 Z M31.04,21.10505 L34.04,21.10505 L34.04,20.02355 L31.04,20.02355 L31.04,21.10505 Z M5.4965,27.08105 L25.04,27.08105 L25.04,25.99955 L5.4965,25.99955 L5.4965,27.08105 Z" id="Fill-13"></path>
                    </g>
                </g>
            </g>
        </g>
    </g>
</svg>