<?xml version="1.0" encoding="UTF-8"?>
<svg width="49px" height="49px" viewBox="0 0 49 49" version="1.1" xmlns="http://www.w3.org/2000/svg" xmlns:xlink="http://www.w3.org/1999/xlink">
    <title>C07A8307-882B-4EA3-8F8B-57AD372107A9@1x</title>
    <defs>
        <polygon id="path-1" points="0 0.161163953 41.9824711 0.161163953 41.9824711 31 0 31"></polygon>
    </defs>
    <g id="Page-1" stroke="none" stroke-width="1" fill="none" fill-rule="evenodd">
        <g id="Mix-ins-Offer---Desktop" transform="translate(-195.000000, -1384.000000)">
            <g id="Stepper-2-Copy" transform="translate(0.000000, 756.000000)">
                <g id="Group-6" transform="translate(91.000000, 236.000000)">
                    <g id="4-icons" transform="translate(104.794638, 392.395045)">
                        <g id="Group-16-Copy">
                            <g id="icon/image/bee/24">
                                <g id="Group-16" transform="translate(3.000000, 9.000000)">
                                    <g id="Group-3">
                                        <mask id="mask-2" fill="white">
                                            <use xlink:href="#path-1"></use>
                                        </mask>
                                        <g id="Clip-2"></g>
                                        <path d="M28.6180169,29.5581756 L28.6180169,22.5309081 C28.6194407,22.5319895 28.6205085,22.5327105 28.6219322,22.5337919 C29.436661,23.22985 30.4624576,23.8199314 31.7566271,24.1876058 L31.7566271,29.5581756 L28.6180169,29.5581756 Z M14.5045932,22.987257 C14.8744068,23.101164 15.2534746,23.1927221 15.6432203,23.2579663 L15.6432203,29.5581756 L14.5045932,29.5581756 L14.5045932,22.987257 Z M11.9418814,21.6928267 C12.3084915,21.9602919 12.6875593,22.1992802 13.0808644,22.403664 L13.0808644,29.3984895 L11.9418814,29.3984895 L11.9418814,21.6928267 Z M24.6315763,29.5581756 L19.6545763,29.5581756 C19.6670339,27.4757686 19.6898136,24.6897337 19.7147288,23.3358267 C21.6620339,23.6652919 23.3292203,23.3462802 24.6315763,22.8412686 L24.6315763,29.5581756 Z M26.0553051,22.1509779 C26.5311864,21.871257 26.9138136,21.5940593 27.1942881,21.3691291 L27.1942881,29.3984895 L26.0553051,29.3984895 L26.0553051,22.1509779 Z M12.4658136,17.9018151 C13.9080508,17.9018151 15.0815593,16.7133616 15.0815593,15.2523965 C15.0815593,14.3332105 14.6163559,13.522164 13.912322,13.0467105 L14.3924746,7.77130349 C14.8167458,7.87223372 15.2210847,7.92450116 15.6037119,7.92450116 C16.2532881,7.92450116 16.8387966,7.77202442 17.3613051,7.48040814 C17.3805254,7.48221047 17.3993898,7.48653605 17.419322,7.48653605 L27.8438644,7.48653605 C27.856322,7.48653605 27.8687797,7.48617558 27.8808814,7.48545465 C30.3926949,7.35352442 32.2132881,7.90251279 33.2896271,9.11728023 C34.7525085,10.7682105 34.3883898,13.1786407 34.3848305,13.2006291 C34.3784237,13.2399198 34.3752203,13.2799314 34.3752203,13.319943 L34.3752203,22.3265244 L34.3588475,29.2557453 L33.1803559,29.2452919 L33.1803559,23.6346523 L33.1803559,23.6324895 L33.1803559,23.4118849 C33.1803559,23.0139314 32.8617966,22.6909547 32.4684915,22.6909547 C31.4715254,22.6909547 30.2666949,21.9725477 29.4270508,21.3449779 C27.1401864,19.3317802 26.9412203,16.3312686 26.9319661,16.1622105 C26.911678,15.7656988 26.580661,15.459664 26.1855763,15.4802105 C25.7929831,15.5003965 25.4904407,15.8388733 25.5103729,16.2364663 C25.5117966,16.2710709 25.6228475,18.0622221 26.617322,19.9773733 C26.0417797,20.5007686 23.2277797,22.7987337 19.2125085,21.7555477 C19.0007288,21.700036 18.7750678,21.747257 18.6017288,21.8820709 C18.2927797,22.1225012 18.2927797,22.1225012 18.2554068,26.2761407 C18.2447288,27.455943 18.2365424,28.6343035 18.2322712,29.3584779 L17.0669492,29.3584779 L17.0669492,22.62535 C17.0669492,22.25335 16.7878983,21.9429895 16.4227119,21.9073035 C15.6446441,21.8319663 14.9164068,21.6470477 14.2315932,21.3579547 C14.1379831,21.2833384 14.0272881,21.2317919 13.9048475,21.2123267 C12.5483898,20.5570012 11.3748814,19.4590244 10.3626102,17.9018151 L12.4658136,17.9018151 Z M5.74474576,15.2523965 C5.74474576,14.5866174 6.27971186,14.0448384 6.93711864,14.0448384 L12.4658136,14.0448384 C13.1232203,14.0448384 13.6578305,14.5866174 13.6578305,15.2523965 C13.6578305,15.918536 13.1232203,16.4599547 12.4658136,16.4599547 L6.93711864,16.4599547 C6.27971186,16.4599547 5.74474576,15.918536 5.74474576,15.2523965 L5.74474576,15.2523965 Z M6.17933898,5.92211744 C6.16332203,5.74440814 6.21422034,5.58039651 6.32242373,5.46000116 C6.43098305,5.33960581 6.58723729,5.27328023 6.76342373,5.27328023 L12.5469661,5.27328023 C12.7227966,5.27328023 12.8797627,5.33960581 12.9879661,5.46000116 C13.0965254,5.58039651 13.1470678,5.74440814 13.1310508,5.92211744 L12.5224068,12.6062221 C12.5035424,12.6055012 12.484678,12.6029779 12.4658136,12.6029779 L6.93711864,12.6029779 C6.8869322,12.6029779 6.83816949,12.6080244 6.78833898,12.6105477 L6.17933898,5.92211744 Z M2.48618644,6.27104767 C1.96830508,5.96825698 1.69459322,5.37961744 1.55471186,4.92903605 C2.27405085,4.79674535 2.87522034,4.87568721 3.34683051,5.16478023 C3.83338983,5.46252442 4.11813559,5.94266395 4.27652542,6.31754767 C3.53867797,6.5507686 2.93857627,6.5352686 2.48618644,6.27104767 L2.48618644,6.27104767 Z M15.8820508,5.08007093 C16.3347966,4.81260581 16.936678,4.79674535 17.6773729,5.03068721 C17.5186271,5.40629186 17.2338814,5.88607093 16.747678,6.18345465 C16.2760678,6.47254767 15.6752542,6.55148953 14.9559153,6.41919884 C15.0954407,5.9700593 15.3680847,5.38358256 15.8820508,5.08007093 L15.8820508,5.08007093 Z M41.9074576,19.2964547 L40.4591695,16.3629895 C40.4677119,16.3236988 40.4751864,16.2840477 40.477678,16.2429547 C40.6855424,12.6653384 39.9644237,10.2192221 38.3346102,8.97273372 C36.9048305,7.87800116 35.2173559,8.05571047 34.4115254,8.23053605 C34.3937288,8.20962907 34.3787797,8.1876407 34.3602712,8.16673372 C32.985661,6.60591977 30.7881356,5.89147791 27.8257119,6.04467558 L18.7654576,6.04467558 C19.141678,5.36880349 19.2505932,4.76069884 19.2577119,4.71816395 C19.3121695,4.39266395 19.141322,4.07112907 18.8426949,3.93775698 C17.3862203,3.28819884 16.1486441,3.25359419 15.1648475,3.83466395 C14.7658475,4.07040814 14.4572542,4.38401279 14.217,4.71996628 C14.1632542,4.63958256 14.1059492,4.56136163 14.0401017,4.48854767 C13.6585424,4.06500116 13.1282034,3.83141977 12.5469661,3.83141977 L12.2860678,3.83141977 C13.4837797,3.17465233 14.2522373,2.10983837 14.2522373,0.882094186 C14.2522373,0.484140698 13.933678,0.161163953 13.5403729,0.161163953 C13.1474237,0.161163953 12.8285085,0.484140698 12.8285085,0.882094186 C12.8285085,2.07631512 11.2698814,3.08489651 9.42472881,3.08489651 C7.5799322,3.08489651 6.02130508,2.07631512 6.02130508,0.882094186 C6.02130508,0.484140698 5.70238983,0.161163953 5.30944068,0.161163953 C4.91613559,0.161163953 4.59757627,0.484140698 4.59757627,0.882094186 C4.59757627,2.11560581 5.37279661,3.18438488 6.58011864,3.84079186 C6.07113559,3.8847686 5.61127119,4.10969884 5.27028814,4.48854767 C5.18166102,4.58695465 5.10477966,4.69329186 5.03822034,4.80503605 C4.79761017,4.48890814 4.49186441,4.18395465 4.09962712,3.9406407 C3.129,3.33866395 1.91740678,3.26188488 0.498661017,3.71282674 C0.176542373,3.81519884 -0.0302542373,4.1327686 0.00355932203,4.47304767 C0.0121016949,4.5595593 0.232067797,6.60880349 1.764,7.51357093 C2.22813559,7.78788488 2.74886441,7.92486163 3.32298305,7.92486163 C3.8120339,7.92486163 4.34059322,7.82357093 4.90438983,7.62423372 L5.40411864,13.1101523 C4.74920339,13.5924547 4.32101695,14.3717802 4.32101695,15.2523965 C4.32101695,16.7133616 5.49452542,17.9018151 6.93711864,17.9018151 L8.69222034,17.9018151 C9.24711864,18.8736291 9.85967797,19.7181988 10.5284746,20.4337221 C10.5238475,20.4676058 10.5181525,20.50185 10.5181525,20.537536 L10.5181525,29.5581756 L7.87179661,29.5581756 C7.8219661,28.742443 8.08144068,28.272757 8.64345763,27.5914779 C8.83245763,27.3622221 8.80255932,27.0212221 8.57618644,26.8298151 C8.34981356,26.6384081 8.01310169,26.6690477 7.82410169,26.897943 C7.13964407,27.7273733 6.75381356,28.4374895 6.8050678,29.5581756 L6.22738983,29.5581756 C6.22738983,29.5556523 6.22774576,29.5534895 6.22738983,29.5509663 C6.12808475,28.5344547 6.22418644,27.4779314 6.50537288,26.4963849 C6.58723729,26.2098151 6.42422034,25.9099081 6.14089831,25.8266407 C5.85757627,25.7419314 5.56179661,25.9088267 5.47957627,26.195757 C5.17027119,27.2764314 5.06064407,28.4364081 5.15745763,29.5581756 L4.54169492,29.5581756 C4.58120339,29.4626523 4.59437288,29.3548733 4.57337288,29.2456523 C4.43171186,28.5077802 4.05549153,27.8189314 3.51376271,27.3056291 C3.29877966,27.1012453 2.961,27.1127802 2.75918644,27.3305012 C2.55772881,27.548943 2.56876271,27.8910244 2.78410169,28.0946872 C3.16281356,28.4540709 3.42620339,28.9360128 3.52550847,29.4518384 C3.53298305,29.4907686 3.55113559,29.5232105 3.56608475,29.5581756 L2.55701695,29.5581756 C2.16371186,29.5581756 1.84515254,29.8811523 1.84515254,30.2791058 C1.84515254,30.6770593 2.16371186,31.000036 2.55701695,31.000036 L38.5107966,31.000036 C38.9041017,31.000036 39.222661,30.6770593 39.222661,30.2791058 C39.222661,29.8811523 38.9041017,29.5581756 38.5107966,29.5581756 L35.7818644,29.5581756 L35.7989492,22.3279663 L35.7989492,13.3732919 C35.8487797,13.0074198 36.0263898,11.268536 35.2515254,9.5599314 C35.8818814,9.5051407 36.7560508,9.5671407 37.4857119,10.1298267 C38.682,11.0533384 39.2251525,13.1213267 39.0585763,16.1110244 C39.0518136,16.1247221 39.0414915,16.135536 39.0357966,16.1499547 L37.7345085,19.344036 C37.6437458,19.566443 37.6690169,19.81985 37.8010678,20.0199081 C37.9331186,20.2199663 38.1548644,20.3400012 38.3926271,20.3400012 L41.2706949,20.3400012 C41.5173559,20.3400012 41.7465763,20.2102337 41.8761356,19.9982802 C42.0060508,19.7856058 42.0174407,19.519943 41.9074576,19.2964547 L41.9074576,19.2964547 Z" id="Fill-1" fill="#EF8F7A" mask="url(#mask-2)"></path>
                                    </g>
                                    <path d="M9,7.99977713 C9,7.44751504 8.55248496,7 7.99977713,7 C7.44796078,7 7,7.44751504 7,7.99977713 C7,8.55203922 7.44796078,9 7.99977713,9 C8.55248496,9 9,8.55203922 9,7.99977713" id="Fill-4" fill="#EF8F7A"></path>
                                    <path d="M11,9 C11.552139,9 12,8.55248496 12,7.99977713 C12,7.44796078 11.552139,7 11,7 C10.447861,7 10,7.44796078 10,7.99977713 C10,8.55248496 10.447861,9 11,9" id="Fill-6" fill="#EF8F7A"></path>
                                    <path d="M21.5,12 C21.776,12 22,11.7308501 22,11.399219 L22,10.600781 C22,10.2688495 21.776,10 21.5,10 C21.224,10 21,10.2688495 21,10.600781 L21,11.399219 C21,11.7308501 21.224,12 21.5,12" id="Fill-8" fill="#EF8F7A"></path>
                                    <path d="M22.5,17 C22.776,17 23,16.7308501 23,16.399219 L23,15.600781 C23,15.2688495 22.776,15 22.5,15 C22.224,15 22,15.2688495 22,15.600781 L22,16.399219 C22,16.7308501 22.224,17 22.5,17" id="Fill-10" fill="#EF8F7A"></path>
                                    <path d="M24.5,14 C24.776,14 25,13.7308501 25,13.399219 L25,12.600781 C25,12.2688495 24.776,12 24.5,12 C24.224,12 24,12.2688495 24,12.600781 L24,13.399219 C24,13.7308501 24.224,14 24.5,14" id="Fill-12" fill="#EF8F7A"></path>
                                    <path d="M19.5,15 C19.776,15 20,14.7308905 20,14.3993092 L20,13.6006908 C20,13.2691095 19.776,13 19.5,13 C19.224,13 19,13.2691095 19,13.6006908 L19,14.3993092 C19,14.7308905 19.224,15 19.5,15" id="Fill-14" fill="#EF8F7A"></path>
                                </g>
                            </g>
                        </g>
                    </g>
                </g>
            </g>
        </g>
    </g>
</svg>