<?xml version="1.0" encoding="UTF-8"?>
<svg width="22px" height="22px" viewBox="0 0 22 22" version="1.1" xmlns="http://www.w3.org/2000/svg" xmlns:xlink="http://www.w3.org/1999/xlink">
    <title>18B107B1-B6B4-482D-8E94-DDF0262C91C6</title>
    <defs>
        <path d="M21.9,4.25 L4.35,4.25 L3.6,0.5 L0,0.5 L0,2 L2.4,2 L5.4,17 L19.5,17 L19.5,15.5 L6.6,15.5 L6,12.5 L20.1,12.5 L21.9,4.25 Z M7.5,18.5 C8.32842712,18.5 9,19.1715729 9,20 C9,20.8284271 8.32842712,21.5 7.5,21.5 C6.67157288,21.5 6,20.8284271 6,20 C6,19.1715729 6.67157288,18.5 7.5,18.5 Z M18,18.5 C18.8284271,18.5 19.5,19.1715729 19.5,20 C19.5,20.8284271 18.8284271,21.5 18,21.5 C17.1715729,21.5 16.5,20.8284271 16.5,20 C16.5,19.1715729 17.1715729,18.5 18,18.5 Z M20.025,5.75 L18.9,11 L5.7,11 L4.65,5.75 L20.025,5.75 Z" id="path-1"></path>
    </defs>
    <g id="Recommendations-Page-v2" stroke="none" stroke-width="1" fill="none" fill-rule="evenodd">
        <g id="Recommendations---Desktop---Empty-State---One-Time" transform="translate(-224.000000, -382.000000)">
            <g id="Group-4" transform="translate(0.000000, 299.000000)">
                <g id="Card" transform="translate(90.000000, 70.000000)">
                    <g id="Group-8">
                        <g id="checkmark-copy" transform="translate(122.000000, 0.000000)">
                            <g id="icon/image/shopping/cart/20" transform="translate(12.000000, 13.000000)">
                                <mask id="mask-2" fill="white">
                                    <use xlink:href="#path-1"></use>
                                </mask>
                                <use id="icon-color" fill="#FFFFFF" xlink:href="#path-1"></use>
                            </g>
                        </g>
                    </g>
                </g>
            </g>
        </g>
    </g>
</svg>