<?xml version="1.0" encoding="UTF-8"?>
<svg width="34px" height="48px" viewBox="0 0 34 48" version="1.1" xmlns="http://www.w3.org/2000/svg" xmlns:xlink="http://www.w3.org/1999/xlink">
    <title>9B4AD2CC-0714-48C9-8CD3-1A5F04CAF893@1x</title>
    <defs>
        <polygon id="path-1" points="0 0.0494896552 33.1033655 0.0494896552 33.1033655 40.9655172 0 40.9655172"></polygon>
        <polygon id="path-3" points="-8.27586207e-05 0.0496551724 19.8619862 0.0496551724 19.8619862 11.6355724 -8.27586207e-05 11.6355724"></polygon>
        <polygon id="path-5" points="0 47.9503448 33.1034483 47.9503448 33.1034483 0.413793103 0 0.413793103"></polygon>
    </defs>
    <g id="Page-1" stroke="none" stroke-width="1" fill="none" fill-rule="evenodd">
        <g id="Mix-ins-Offer---Desktop---v2" transform="translate(-749.000000, -4473.000000)">
            <g id="Group-7" transform="translate(0.000000, 4213.000000)">
                <g id="Left">
                    <g id="Bitmap">
                        <g id="Group-5" transform="translate(726.000000, 244.000000)">
                            <g id="Group-9-Copy-2">
                                <g id="allnatural">
                                    <g id="allnatural-ic" transform="translate(23.000000, 16.000000)">
                                        <g id="Group-3" transform="translate(0.000000, 6.984828)">
                                            <mask id="mask-2" fill="white">
                                                <use xlink:href="#path-1"></use>
                                            </mask>
                                            <g id="Clip-2"></g>
                                            <path d="M28.9654345,0.0494896552 C28.5086069,0.0494896552 28.1378483,0.420248276 28.1378483,0.877075862 C28.1378483,1.33390345 28.5086069,1.70466207 28.9654345,1.70466207 C30.3350897,1.70466207 31.4481931,2.81817931 31.4481931,4.18742069 L31.4481931,36.8278345 C31.4481931,38.1962483 30.3350897,39.3105931 28.9654345,39.3105931 L4.13784828,39.3105931 C2.7686069,39.3105931 1.65508966,38.1962483 1.65508966,36.8278345 L1.65508966,4.18742069 C1.65508966,2.81817931 2.7686069,1.70466207 4.13784828,1.70466207 C4.59467586,1.70466207 4.96543448,1.33390345 4.96543448,0.877075862 C4.96543448,0.420248276 4.59467586,0.0494896552 4.13784828,0.0494896552 C1.8561931,0.0494896552 -8.27586207e-05,1.90576552 -8.27586207e-05,4.18742069 L-8.27586207e-05,36.8278345 C-8.27586207e-05,39.1094897 1.8561931,40.9657655 4.13784828,40.9657655 L28.9654345,40.9657655 C31.2470897,40.9657655 33.1033655,39.1094897 33.1033655,36.8278345 L33.1033655,4.18742069 C33.1033655,1.90576552 31.2470897,0.0494896552 28.9654345,0.0494896552" id="Fill-1" fill="#333333" mask="url(#mask-2)"></path>
                                        </g>
                                        <path d="M16.5516414,7.03431724 C17.464469,7.03431724 18.2068138,6.29197241 18.2068138,5.37914483 C18.2068138,4.46673103 17.464469,3.72397241 16.5516414,3.72397241 C15.6388138,3.72397241 14.896469,4.46673103 14.896469,5.37914483 C14.896469,6.29197241 15.6388138,7.03431724 16.5516414,7.03431724" id="Fill-4" fill="#333333"></path>
                                        <g id="Group-8" transform="translate(6.620690, 0.364138)">
                                            <mask id="mask-4" fill="white">
                                                <use xlink:href="#path-3"></use>
                                            </mask>
                                            <g id="Clip-7"></g>
                                            <path d="M1.65508966,7.2444 C1.65508966,6.83888276 1.94557241,6.49502069 2.34653793,6.4284 L4.72957241,6.03033103 C5.69784828,5.8701931 6.47991724,5.14977931 6.72281379,4.19722759 C7.09564138,2.72991724 8.41481379,1.70453793 9.93095172,1.70453793 C11.4470897,1.70453793 12.7670897,2.72991724 13.1395034,4.19722759 C13.3819862,5.14977931 14.1640552,5.8701931 15.1319172,6.03033103 L17.5157793,6.4284 C17.916331,6.49502069 18.2068138,6.83888276 18.2068138,7.2444 L18.2068138,9.15281379 C18.2068138,9.60964138 17.8360552,9.9804 17.3792276,9.9804 L2.48267586,9.9804 C2.02626207,9.9804 1.65508966,9.60964138 1.65508966,9.15281379 L1.65508966,7.2444 Z M2.48267586,11.6355724 L17.3792276,11.6355724 C18.7488828,11.6355724 19.8619862,10.522469 19.8619862,9.15281379 L19.8619862,7.2444 C19.8619862,6.02577931 18.9901241,4.99543448 17.7876414,4.79598621 L15.4046069,4.39791724 C15.0835034,4.34453793 14.8240552,4.10536552 14.7437793,3.7884 C14.1835034,1.58702069 12.2047448,0.0493655172 9.93095172,0.0493655172 C7.65715862,0.0493655172 5.6784,1.58702069 5.11853793,3.7884 C5.03784828,4.10536552 4.7784,4.34453793 4.45729655,4.39791724 L2.07467586,4.79598621 C0.872606897,4.99543448 -8.27586207e-05,6.02577931 -8.27586207e-05,7.2444 L-8.27586207e-05,9.15281379 C-8.27586207e-05,10.522469 1.11343448,11.6355724 2.48267586,11.6355724 L2.48267586,11.6355724 Z" id="Fill-6" fill="#333333" mask="url(#mask-4)"></path>
                                        </g>
                                        <path d="M14.0688828,33.8811724 L22.3447448,33.8811724 C22.8015724,33.8811724 23.172331,33.5104138 23.172331,33.0535862 C23.172331,32.5967586 22.8015724,32.226 22.3447448,32.226 L14.0688828,32.226 C13.6120552,32.226 13.2412966,32.5967586 13.2412966,33.0535862 C13.2412966,33.5104138 13.6120552,33.8811724 14.0688828,33.8811724" id="Fill-9" fill="#333333"></path>
                                        <path d="M14.0688828,40.5018621 C13.6120552,40.5018621 13.2412966,40.8726207 13.2412966,41.3294483 C13.2412966,41.7862759 13.6120552,42.1570345 14.0688828,42.1570345 L22.3447448,42.1570345 C22.8015724,42.1570345 23.172331,41.7862759 23.172331,41.3294483 C23.172331,40.8726207 22.8015724,40.5018621 22.3447448,40.5018621 L14.0688828,40.5018621 Z" id="Fill-11" fill="#333333"></path>
                                        <mask id="mask-6" fill="white">
                                            <use xlink:href="#path-5"></use>
                                        </mask>
                                        <g id="Clip-14"></g>
                                        <path d="M6.62068966,32.2257931 L8.27586207,32.2257931 L8.27586207,30.5706207 L6.62068966,30.5706207 L6.62068966,32.2257931 Z M4.96551724,33.0533793 C4.96551724,33.5106207 5.33586207,33.8809655 5.79310345,33.8809655 L9.10344828,33.8809655 C9.56027586,33.8809655 9.93103448,33.5106207 9.93103448,33.0533793 L9.93103448,29.7430345 C9.93103448,29.2862069 9.56027586,28.9154483 9.10344828,28.9154483 L5.79310345,28.9154483 C5.33586207,28.9154483 4.96551724,29.2862069 4.96551724,29.7430345 L4.96551724,33.0533793 Z" id="Fill-13" fill="#333333" mask="url(#mask-6)"></path>
                                        <path d="M13.2412966,29.7432414 C13.2412966,30.200069 13.6120552,30.5708276 14.0688828,30.5708276 L27.3102621,30.5708276 C27.7670897,30.5708276 28.1378483,30.200069 28.1378483,29.7432414 C28.1378483,29.2864138 27.7670897,28.9156552 27.3102621,28.9156552 L14.0688828,28.9156552 C13.6120552,28.9156552 13.2412966,29.2864138 13.2412966,29.7432414" id="Fill-15" fill="#333333" mask="url(#mask-6)"></path>
                                        <path d="M6.62068966,40.5016552 L8.27586207,40.5016552 L8.27586207,38.8464828 L6.62068966,38.8464828 L6.62068966,40.5016552 Z M9.10344828,37.1913103 L5.79310345,37.1913103 C5.33586207,37.1913103 4.96551724,37.562069 4.96551724,38.0188966 L4.96551724,41.3292414 C4.96551724,41.7864828 5.33586207,42.1568276 5.79310345,42.1568276 L9.10344828,42.1568276 C9.56027586,42.1568276 9.93103448,41.7864828 9.93103448,41.3292414 L9.93103448,38.0188966 C9.93103448,37.562069 9.56027586,37.1913103 9.10344828,37.1913103 L9.10344828,37.1913103 Z" id="Fill-16" fill="#333333" mask="url(#mask-6)"></path>
                                        <path d="M28.1378483,38.0191034 C28.1378483,37.5622759 27.7670897,37.1915172 27.3102621,37.1915172 L14.0688828,37.1915172 C13.6120552,37.1915172 13.2412966,37.5622759 13.2412966,38.0191034 C13.2412966,38.475931 13.6120552,38.8466897 14.0688828,38.8466897 L27.3102621,38.8466897 C27.7670897,38.8466897 28.1378483,38.475931 28.1378483,38.0191034" id="Fill-17" fill="#333333" mask="url(#mask-6)"></path>
                                        <path d="M14.0787724,23.5432138 C14.1027724,23.5150759 14.1925655,23.4484552 14.2567034,23.4004552 C14.4085655,23.2837655 14.5658069,23.1629379 14.7031862,23.0462483 C15.1442897,22.6845931 15.4914621,22.3212828 15.7513241,21.7241793 C15.7827724,21.6530069 15.8125655,21.5810069 15.8419448,21.5090069 C15.9718759,21.1932828 16.0467724,21.0236276 16.1978069,20.9218345 C16.3000138,20.852731 16.4266345,20.8179724 16.5532552,20.8179724 C16.6790483,20.8179724 16.8044276,20.8523172 16.9045655,20.9210069 C17.0572552,21.0244552 17.1321517,21.1949379 17.2629103,21.512731 C17.2914621,21.5826621 17.3204276,21.6530069 17.3518759,21.7241793 C17.6121517,22.3221103 17.9593241,22.6854207 18.3871862,23.0346621 C18.5361517,23.1616966 18.6933931,23.2833517 18.8560138,23.4083172 C18.9131172,23.4501103 18.9991862,23.5142483 19.0244276,23.5440414 C19.121669,23.6756276 18.9925655,24.1403172 18.7273241,24.4349379 C18.7269103,24.4353517 18.7264966,24.4353517 18.7260828,24.4357655 C18.4467724,24.7473517 18.3958759,24.8036276 17.7549103,24.2946621 C17.5409793,24.1250069 17.1420828,23.8101103 16.5611172,23.7865241 C16.549531,23.7865241 16.5189103,23.7869379 16.5077379,23.7873517 C15.9664966,23.8101103 15.565531,24.1233517 15.3458069,24.2959034 C14.7073241,24.8036276 14.6564276,24.7477655 14.3758759,24.4349379 C14.1106345,24.1403172 13.9819448,23.6748 14.0787724,23.5432138 M16.3711862,25.5952138 C16.4047034,25.5691448 16.4891172,25.5025241 16.5516,25.4644552 C16.5933931,25.4896966 16.6521517,25.5335586 16.7274621,25.5923172 C17.0386345,25.8393517 17.6647034,26.3350759 18.4173931,26.3350759 C18.8953241,26.3350759 19.4245655,26.1352138 19.9571172,25.5430759 C20.6498069,24.7746621 21.0259448,23.4670759 20.3605655,22.5679034 C20.1983586,22.3428 20.0005655,22.1959034 19.8520138,22.0862483 C19.7229103,21.9869379 19.5892552,21.884731 19.4493931,21.7651448 C19.1224966,21.4982483 18.9871862,21.3335586 18.869669,21.0645931 L18.7939448,20.8833517 C18.6209793,20.4625241 18.4058069,19.9378345 17.8368414,19.5530069 C17.0750483,19.0316276 16.0442897,19.0295586 15.2713241,19.5509379 C14.6994621,19.9365931 14.4842897,20.4592138 14.3113241,20.8792138 L14.2339448,21.0633517 C14.1160138,21.3335586 13.9807034,21.4982483 13.6422207,21.7759034 C13.5151862,21.8834897 13.3807034,21.9865241 13.2607034,22.0788 C13.1125655,22.188869 12.9093931,22.3390759 12.7467724,22.5612828 C12.0789103,23.4679034 12.4538069,24.7750759 13.1452552,25.5422483 C14.5169793,27.068731 15.9156,25.9572828 16.3711862,25.5952138" id="Fill-18" fill="#333333" mask="url(#mask-6)"></path>
                                        <path d="M18.1070069,18.5097931 C18.6904552,18.7092414 19.1100414,18.1849655 19.3239724,17.7612414 C19.4373517,17.5369655 19.5221793,17.3031724 19.5556966,17.0677241 C19.5929379,16.8033103 19.5664552,16.5372414 19.4460414,16.2777931 C19.2573517,15.8697931 18.8849379,15.5569655 18.3734897,15.5768276 C17.322869,15.6169655 17.1333517,16.6862069 17.3265931,17.4264828 C17.4325241,17.8328276 17.6369379,18.3475862 18.1070069,18.5097931" id="Fill-19" fill="#333333" mask="url(#mask-6)"></path>
                                        <path d="M20.685931,21.6916138 C21.2697931,21.8902345 21.6893793,21.3667862 21.9033103,20.9430621 C22.0171034,20.7179586 22.1011034,20.4849931 22.1346207,20.2487172 C22.1726897,19.985131 22.1462069,19.7190621 22.0253793,19.4587862 C21.8362759,19.0516138 21.4642759,18.7379586 20.9532414,18.7578207 C19.9030345,18.7975448 19.7131034,19.8667862 19.905931,20.6078897 C20.0114483,21.0146483 20.2166897,21.5294069 20.685931,21.6916138" id="Fill-20" fill="#333333" mask="url(#mask-6)"></path>
                                        <path d="M14.4734069,18.5174483 C15.0634759,18.7007586 15.4656828,18.1657241 15.6663724,17.7357931 C15.7723034,17.5086207 15.8488552,17.2731724 15.8740966,17.0364828 C15.9030621,16.7724828 15.8678897,16.5072414 15.7396138,16.2506897 C15.537269,15.8476552 15.1545103,15.5447586 14.645131,15.5782759 C13.5957517,15.6469655 13.4409931,16.719931 13.6582345,17.456069 C13.7774069,17.8578621 13.9987862,18.3701379 14.4734069,18.5174483" id="Fill-21" fill="#333333" mask="url(#mask-6)"></path>
                                        <path d="M13.2536276,20.2174759 C13.2825931,19.9534759 13.2474207,19.6882345 13.1191448,19.4325103 C12.9168,19.0290621 12.5344552,18.7261655 12.0234207,18.7600966 C10.9752828,18.8279586 10.8205241,19.9009241 11.0377655,20.6370621 C11.1569379,21.0388552 11.3783172,21.551131 11.8529379,21.6984414 C12.4430069,21.8821655 12.8452138,21.3467172 13.0450759,20.9167862 C13.1505931,20.6896138 13.2275586,20.4541655 13.2536276,20.2174759" id="Fill-22" fill="#333333" mask="url(#mask-6)"></path>
                                    </g>
                                </g>
                            </g>
                        </g>
                    </g>
                </g>
            </g>
        </g>
    </g>
</svg>