<?xml version="1.0" encoding="UTF-8"?>
<svg width="127px" height="52px" viewBox="0 0 127 52" version="1.1" xmlns="http://www.w3.org/2000/svg" xmlns:xlink="http://www.w3.org/1999/xlink">
    <title>684F3405-2708-478E-B4DC-FA18A986E4CD@1x</title>
    <defs>
        <polygon id="path-1" points="8.2601626e-05 0.083096 126.940733 0.083096 126.940733 52 8.2601626e-05 52"></polygon>
    </defs>
    <g id="Recommendations-Page-v2" stroke="none" stroke-width="1" fill="none" fill-rule="evenodd">
        <g id="Recommendations---Desktop---Empty-State" transform="translate(-817.000000, -475.000000)">
            <g id="Group-4" transform="translate(0.000000, 299.000000)">
                <g id="Card-Copy" transform="translate(730.000000, 94.000000)">
                    <g id="Group-8">
                        <g id="Group-9" transform="translate(10.000000, 82.000000)">
                            <g id="emptystate-illustration" transform="translate(77.000000, 0.000000)">
                                <g id="Group-3">
                                    <mask id="mask-2" fill="white">
                                        <use xlink:href="#path-1"></use>
                                    </mask>
                                    <g id="Clip-2"></g>
                                    <path d="M3.95009236,17.753528 C3.56331024,21.472568 4.77177203,24.718824 5.71115902,26.598936 C6.46531187,28.1086 7.99364846,29.046472 9.77949561,29.046472 L15.9351753,29.046472 C17.5504501,29.046472 19.1597363,29.44708 20.5893639,30.2042 C22.3591037,31.142072 24.1474289,31.61756 25.9058111,31.61756 L33.4112013,31.61756 C33.9706208,31.61756 34.5153785,31.547256 35.0380403,31.420376 C35.5417037,34.138728 37.5712257,40.209416 45.6810533,41.68788 C46.1605558,42.84644 46.882494,43.927208 47.8299346,44.893576 L44.6150793,44.893576 C44.0513233,44.893576 43.5943298,45.35388 43.5943298,45.92172 C43.5943298,46.48956 44.0513233,46.950072 44.6150793,46.950072 L51.3155167,46.950072 L53.6178306,46.950072 L56.358759,46.950072 C56.7979932,46.950072 57.2126533,47.14476 57.4961834,47.484216 C57.7836371,47.827832 57.8988663,48.268376 57.8206013,48.723064 C57.7010354,49.418616 57.0113119,49.943192 56.2168907,49.943192 L36.2444371,49.943192 C36.0325639,49.943192 35.8566224,49.769512 35.8524924,49.557144 C35.8250273,48.17748 34.7809428,47.097128 33.4750111,47.097128 L27.1289346,47.097128 C26.9602208,47.097128 26.7952241,47.115432 26.6353899,47.149128 C26.3260468,46.0642 25.3340013,45.267144 24.1585802,45.267144 L19.4794046,45.267144 L18.5761558,43.081064 C17.114933,39.543608 13.712572,37.257896 9.90856065,37.257896 C9.34480455,37.257896 8.88760455,37.718408 8.88760455,38.28604 C8.88760455,38.854088 9.34480455,39.314392 9.90856065,39.314392 C12.8853167,39.314392 15.5477737,41.102984 16.6911867,43.871256 L17.8560761,46.690488 C18.0142582,47.073832 18.3863785,47.32364 18.7985607,47.32364 L24.1585802,47.32364 C24.454707,47.32364 24.6954907,47.56596 24.6954907,47.864232 L24.6954907,49.49932 C24.6919802,49.677576 24.5998793,49.943192 24.3595086,49.943192 L9.77949561,49.943192 C7.25126634,49.943192 5.19407285,47.871096 5.19407285,45.32476 L5.19407285,33.664696 L5.19572488,33.554872 C5.22360293,32.390696 4.90021756,31.269368 4.26005496,30.312152 C0.650363902,24.90956 2.12893301,20.479368 3.95009236,17.753528 L3.95009236,17.753528 Z M39.0458712,28.504216 C40.1556241,30.286776 42.3179281,32.350136 46.5198728,33.333976 C45.4673216,34.87796 44.9163688,36.747672 45.0008289,38.651496 C45.0130127,38.922104 45.0413037,39.189384 45.0772354,39.455208 C38.4028176,37.782056 37.1838241,32.40588 36.9624517,30.619992 C37.8161395,30.091464 38.5329151,29.37116 39.0458712,28.504216 L39.0458712,28.504216 Z M34.9674159,14.725672 L41.4045607,15.63172 C41.4514371,15.638168 41.498933,15.641912 41.5462224,15.641912 L57.1321167,15.641912 C58.8469265,15.641912 60.3533737,16.712696 60.7957054,18.246488 C61.2049964,19.6638 60.7413948,21.178456 59.6155346,22.10468 L48.1599281,31.533528 C48.150842,31.541224 48.1423753,31.549336 48.1332891,31.557032 C40.810242,30.342312 39.9949639,25.767352 39.9251655,25.229048 C39.9183509,24.172824 39.6488631,23.124504 39.1177346,22.171448 L34.9674159,14.725672 Z M26.7355444,49.565048 C26.7355444,49.559432 26.7371964,49.554024 26.7371964,49.548616 L26.7371964,49.540088 C26.74112,49.327096 26.9170615,49.153416 27.1289346,49.153416 L33.4750111,49.153416 C33.7151753,49.153416 33.8074826,49.41924 33.8109932,49.597704 C33.8132647,49.71564 33.826894,49.830248 33.8456859,49.943608 L26.6963086,49.943608 C26.717372,49.820264 26.7316208,49.694424 26.7355444,49.565048 L26.7355444,49.565048 Z M74.7973005,34.293688 C74.7973005,32.734728 74.8770111,31.15892 75.0341607,29.609736 L77.1720972,8.548072 L116.185671,8.548072 L118.323195,29.610152 C118.480551,31.15788 118.560468,32.733896 118.560468,34.293688 L118.560468,49.943608 L74.7973005,49.943608 L74.7973005,34.293688 Z M77.9097298,1.437384 L115.448039,1.437384 C115.818713,1.437384 116.120416,1.74148 116.120416,2.114424 L116.120416,7.193576 L77.237559,7.193576 L77.237559,4.992728 L109.758232,4.992728 C110.129527,4.992728 110.430403,4.689464 110.430403,4.31548 C110.430403,3.941496 110.129527,3.638232 109.758232,3.638232 L77.237559,3.638232 L77.237559,2.114424 C77.237559,1.74148 77.539055,1.437384 77.9097298,1.437384 L77.9097298,1.437384 Z M125.319759,49.943608 L119.905222,49.943608 L119.905222,34.293688 C119.905222,32.687928 119.822827,31.065736 119.660928,29.472248 L117.464964,7.836712 L117.464964,2.114424 C117.464964,0.994344 116.560063,0.083096 115.448039,0.083096 L77.9097298,0.083096 C76.7974989,0.083096 75.8928046,0.994344 75.8928046,2.114424 L75.8928046,7.836712 L73.6966338,29.472248 C73.5347346,31.066568 73.452546,32.688968 73.452546,34.293688 L73.452546,49.943608 L59.5527574,49.943608 C59.6838875,49.671128 59.7797054,49.379928 59.8321574,49.074792 C60.012642,48.02668 59.7305574,46.964008 59.0581802,46.159672 C58.3858029,45.35492 57.4018111,44.893576 56.358759,44.893576 L53.6178306,44.893576 L51.3155167,44.893576 C51.1455639,44.893576 50.9853167,44.847816 50.8634793,44.76524 C48.5043769,43.154488 47.1466127,40.95052 47.0402631,38.559768 C46.9547704,36.637224 47.7175964,34.760232 49.0949785,33.445256 C49.1278127,33.418424 49.1575493,33.388472 49.1868728,33.357896 C49.2731915,33.278648 49.3609558,33.200856 49.4520241,33.125976 L60.9074241,23.697336 C62.6684907,22.2482 63.394559,19.883032 62.7564615,17.671992 C62.0617818,15.265848 59.7491428,13.585416 57.1321167,13.585416 L41.6170533,13.585416 L34.3109395,12.556648 C33.7151753,12.473448 33.1351054,12.730536 32.7951997,13.230568 C32.45612,13.731016 32.4276224,14.369576 32.7223037,14.898728 L37.3374631,23.178168 C37.9904289,24.350248 38.0616728,25.7374 37.5324029,26.984152 C36.877785,28.525432 35.2216224,29.561064 33.4112013,29.561064 L25.9058111,29.561064 C24.481759,29.561064 23.0133086,29.165448 21.5399021,28.3842 C19.8184842,27.47212 17.8800306,26.989976 15.9351753,26.989976 L9.69895902,26.989976 C8.7835265,26.989976 7.93417528,26.473928 7.53541593,25.675208 C6.17104358,22.943544 4.9629948,18.770648 6.9547265,14.399736 C7.14945984,13.972088 7.03154602,13.465608 6.66747935,13.170248 C6.30299967,12.875096 5.78694602,12.866984 5.41358667,13.14924 C5.3134322,13.224952 -4.51822634,20.856472 2.56651512,31.460104 C2.96857854,32.062264 3.17239805,32.769464 3.15505171,33.495592 L3.15257366,45.32476 C3.15257366,47.116264 3.85819805,48.743656 5.00223057,49.943608 L1.62093301,49.943608 C0.72594439,49.943608 8.2601626e-05,50.403912 8.2601626e-05,50.97196 C8.2601626e-05,51.5398 0.72594439,52.000104 1.62093301,52.000104 L125.319759,52.000104 C126.214748,52.000104 126.940816,51.5398 126.940816,50.97196 C126.940816,50.403912 126.214748,49.943608 125.319759,49.943608 L125.319759,49.943608 Z" id="Fill-1" fill="#623B2A" mask="url(#mask-2)"></path>
                                </g>
                                <path d="M104.555329,39.4954829 C104.323697,40.6108841 103.56507,42.0263168 99.6692467,41.4465615 C98.6175862,41.2895581 97.5593621,41.2113839 96.5002911,41.2113839 C95.442067,41.2113839 94.3832077,41.2899948 93.3319706,41.4465615 C89.4363593,42.0267535 88.6777324,40.6108841 88.4456769,39.4954829 C88.1930836,38.2791977 88.6722275,37.6664695 89.6931872,36.5036834 C90.6171748,35.4513893 91.7666543,34.1420813 92.3921033,31.8069012 C93.305081,28.3969355 96.3448816,28.4192086 96.5193467,28.4229207 C96.6485018,28.4211738 99.7437755,28.3683298 100.606573,31.7964197 C101.203651,34.1693768 102.370915,35.4850173 103.308665,36.5425522 C104.326873,37.6900528 104.804746,38.2947015 104.555329,39.4954829 M101.940681,31.4387402 C101.032573,27.8300636 97.9722347,26.9542073 96.5197702,27.0018106 C95.0418982,26.9633786 92.0275051,27.82788 91.0630772,31.4284771 C90.5248607,33.4380771 89.5401068,34.5595925 88.6711688,35.5492162 C87.6502091,36.7122207 86.6855694,37.8108078 87.0973834,39.7933308 C87.6349646,42.3798474 89.7975699,43.4092134 93.5293025,42.8536964 C95.5017747,42.559779 97.500713,42.5604341 99.4719148,42.8536964 C100.126794,42.9510866 100.733188,43 101.291518,43 C103.911671,43 105.460684,41.9258695 105.903622,39.7933308 C106.313107,37.8228178 105.347832,36.7347121 104.326026,35.5826259 C103.447772,34.5925654 102.451796,33.4699582 101.940681,31.4387402" id="Fill-4" fill="#623B2A"></path>
                                <path d="M97.4352589,30.0018749 C96.5074177,29.9606636 94.6222603,30.5861551 94.0211465,33.1372819 C93.9355793,33.499816 94.1174319,33.8749017 94.4268313,33.9751059 C94.4784575,33.9916322 94.5307981,34 94.5818883,34 C94.8369821,34 95.0709967,33.8018928 95.142273,33.499816 C95.6465655,31.3616391 97.3225389,31.3515978 97.4048906,31.3633127 C97.7239364,31.3783747 97.9902844,31.0767162 97.9997521,30.7022581 C98.0090413,30.3261264 97.7560911,30.0125439 97.4352589,30.0018749" id="Fill-6" fill="#623B2A"></path>
                                <path d="M92.0002014,20.3267796 C92.9155648,20.3267796 93.6891738,21.5508723 93.6891738,22.9998981 C93.6891738,24.448924 92.9155648,25.6734242 92.0002014,25.6734242 C91.0846366,25.6734242 90.3108262,24.448924 90.3108262,22.9998981 C90.3108262,21.5508723 91.0846366,20.3267796 92.0002014,20.3267796 M92.0002014,27 C93.6823277,27 95,25.2429135 95,22.9998981 C95,20.7568827 93.6823277,19 92.0002014,19 C90.3178737,19 89,20.7568827 89,22.9998981 C89,25.2429135 90.3178737,27 92.0002014,27" id="Fill-8" fill="#623B2A"></path>
                                <path d="M87.000302,32.6732204 C86.0847679,32.6732204 85.3109836,31.4491277 85.3109836,30.0001019 C85.3109836,28.551076 86.0847679,27.3265758 87.000302,27.3265758 C87.9156348,27.3265758 88.6890164,28.551076 88.6890164,30.0001019 C88.6890164,31.4491277 87.9156348,32.6732204 87.000302,32.6732204 M90,30.0001019 C90,27.7570865 88.6823719,26 87.000302,26 C85.3180308,26 84,27.7570865 84,30.0001019 C84,32.2431173 85.3180308,34 87.000302,34 C88.6823719,34 90,32.2431173 90,30.0001019" id="Fill-10" fill="#623B2A"></path>
                                <path d="M99.3111409,22.9998981 C99.3111409,21.5508723 100.084899,20.3267796 101.000403,20.3267796 C101.915705,20.3267796 102.688859,21.5508723 102.688859,22.9998981 C102.688859,24.448924 101.915705,25.6734242 101.000403,25.6734242 C100.084899,25.6734242 99.3111409,24.448924 99.3111409,22.9998981 M104,22.9998981 C104,20.7568827 102.682416,19 101.000403,19 C99.3179866,19 98,20.7568827 98,22.9998981 C98,25.2429135 99.3179866,27 101.000403,27 C102.682416,27 104,25.2429135 104,22.9998981" id="Fill-12" fill="#623B2A"></path>
                                <path d="M105.999799,32.6732204 C105.084234,32.6732204 104.311028,31.4491277 104.311028,30.0001019 C104.311028,28.551076 105.084234,27.3265758 105.999799,27.3265758 C106.915363,27.3265758 107.688972,28.551076 107.688972,30.0001019 C107.688972,31.4491277 106.915363,32.6732204 105.999799,32.6732204 M105.999799,26 C104.317672,26 103,27.7570865 103,30.0001019 C103,32.2431173 104.317672,34 105.999799,34 C107.682126,34 109,32.2431173 109,30.0001019 C109,27.7570865 107.682126,26 105.999799,26" id="Fill-14" fill="#623B2A"></path>
                                <path d="M112.331996,11 L81.6680045,11 C81.2989197,11 81,11.2237751 81,11.4999232 C81,11.7760713 81.2989197,12 81.6680045,12 L112.331996,12 C112.70108,12 113,11.7760713 113,11.4999232 C113,11.2237751 112.70108,11 112.331996,11" id="Fill-16" fill="#623B2A"></path>
                            </g>
                        </g>
                    </g>
                </g>
            </g>
        </g>
    </g>
</svg>