<?xml version="1.0" encoding="UTF-8"?>
<svg width="130px" height="164px" viewBox="0 0 130 164" version="1.1" xmlns="http://www.w3.org/2000/svg" xmlns:xlink="http://www.w3.org/1999/xlink">
    <title>0AED500C-2099-44ED-9C54-917703760452@1x</title>
    <g id="Version-B" stroke="none" stroke-width="1" fill="none" fill-rule="evenodd" opacity="0.100000001">
        <g id="Recommendations-v4---A" transform="translate(-1220.000000, -595.000000)" fill="#EF8F7A">
            <g id="Group-4" transform="translate(0.000000, 299.000000)">
                <g id="Card-Copy-3" transform="translate(1050.000000, 94.000000)">
                    <g id="Group-8">
                        <g id="Rectangle-2">
                            <path d="M252,202 C206.712651,202 170,238.712651 170,284 C170,329.287349 206.712651,366 252,366 C297.287349,366 334,329.287349 334,284 C334,262.252248 325.360739,241.395227 309.982756,226.017244 C294.604773,210.639261 273.747752,202 252,202 Z M252,354 C213.340068,354 182,322.659932 182,284 C182,245.340068 213.340068,214 252,214 C290.659932,214 322,245.340068 322,284 C322,302.565154 314.625021,320.369928 301.497475,333.497475 C288.369928,346.625021 270.565154,354 252,354 Z M223.999772,254.000456 C216.267911,254.000456 210,260.268367 210,268.000228 C210,275.732089 216.267911,282 223.999772,282 C231.731633,282 237.999544,275.732089 237.999544,268.000228 C238.029684,264.2781 236.564393,260.699664 233.932365,258.067635 C231.300336,255.435607 227.7219,253.970316 223.999772,254.000456 L223.999772,254.000456 Z M279.999772,254.000456 C272.267911,254.000456 266,260.268367 266,268.000228 C266,275.732089 272.267911,282 279.999772,282 C287.731633,282 293.999544,275.732089 293.999544,268.000228 C294.029684,264.2781 292.564393,260.699664 289.932365,258.067635 C287.300336,255.435607 283.7219,253.970316 279.999772,254.000456 L279.999772,254.000456 Z M212,308 C220.543521,322.869228 236.141923,332 253,332 C269.858077,332 285.456479,322.869228 294,308 L212,308 Z" id="smiley-icon"></path>
                        </g>
                    </g>
                </g>
            </g>
        </g>
    </g>
</svg>