<svg id="Layer_1" data-name="Layer 1" xmlns="http://www.w3.org/2000/svg" viewBox="0 0 720 720"><defs><style>.cls-1{fill:#3b494f;}</style></defs><path class="cls-1" d="M391.24,672.07c-7.87-.5-15.75-.91-23.6-1.53-4.33-.34-8.56.8-12.71.86-18.71.29-37.26,2.82-56.05,2.78-14.44,0-28.69-4-43.24-1.32a74,74,0,0,1-29.17-.68c-4-.87-8.46.75-12.72.8a33.91,33.91,0,0,1-9.19-1.1c-5.34-1.45-10-3.52-16-.46-4.82,2.46-9.61-2.18-9.74-8.14-.22-10.89,4.8-19.37,13-26,13.27-10.76,29.27-14.6,45.64-17.34a42.07,42.07,0,0,1,6.39-.85c3.46-.06,4.24-1.62,4.11-5-1.29-31.65,6.27-61.17,21.87-88.64,1.35-2.38,1.21-4.38.46-6.79-17.8-56.81-14.53-113.81-1.41-170.89,6-26.14,14.32-51.58,23.88-76.58,5.41-14.13-.92-26.16-4.82-38.77-.69-2.22-2.91-2.06-4.8-2.4-8.7-1.6-17.33-3.54-25.22-7.75-18-9.6-19.46-26-2.87-37.77,9.92-7,20.64-12.91,31.1-19.14a13.7,13.7,0,0,0,6.59-8.71c5.55-19,14.63-35.85,30.69-48.12,2.4-1.82,3-4.1,3.4-6.75,2-13.14,5.76-25.43,13.7-36.5,8.5-11.87,27.88-13.1,37.46-2.21A67.11,67.11,0,0,1,394.45,99c.78,5.48,3.11,9.18,7.71,12.67,14.76,11.17,23.91,26.53,29.47,44a19,19,0,0,0,8.4,10.91c12.44,8,25.11,15.8,36.42,25.44,14.07,12,13.35,23.3-2.26,33.27-11.72,7.49-25,10.83-38.61,12-6,.51-8.15,2.76-9.09,8.37-1.62,9.64-1.52,18.73,2,28.14,14.59,38.55,26.19,77.94,31.09,119.05,5.05,42.28,3.76,84.11-9.3,125a15.11,15.11,0,0,0,.43,10.95,239.9,239.9,0,0,1,17,102.52c-.82,15.59-8.11,25.58-21.71,31.66C428.56,670.75,410,671.85,391.24,672.07Zm-11.33-17.83c12,.45,23.08.73,34.21-.63,8.56-1.05,16.95-2.64,24.89-6.26,7.41-3.39,11.06-8.47,11.57-17.14,2-35.39-4.65-69.06-18.43-101.46a11.91,11.91,0,0,1-.31-9.48c14.47-41.14,15.94-83.41,10.56-126.21-4.8-38.18-15.3-74.92-29-110.74-5-12.94-6.77-25.81-3.58-39.33.69-2.92,1.07-5.33-3-6.52-5.28-1.53-8.1-5.53-6.13-11.05s6.47-5.72,11.84-4.88c18.27,2.88,35.56-.84,52-9,4.8-2.38,4-4.59.3-7.54-10.33-8.2-21.51-15.13-32.42-22.45-7.74-5.19-15.63-10.18-22.52-16.54-4.34-4-5.64-8.57-1.17-13.07,2.26-2.28,1.88-3.78.61-6.14s-2.6-3.28-5.59-3c-13.22,1.31-20.22-5.31-20.08-18.64,0-1.89.9-3.8-1.79-4.64-13.2-4.16-26.48-6.43-40-1.61-1.75.62-3.22,1.15-3.11,3.92.69,17-3.11,21.07-20,21.68a4.09,4.09,0,0,0-3.93,2.23c-1.43,2.37.17,3.14,1.61,4.57,4.76,4.75,4.71,8.85-.12,13.57a95.86,95.86,0,0,1-17.06,13.06c-9.57,5.86-19.36,11.38-28.81,17.44-3.61,2.32-9.88,3.89-9.1,8.8.7,4.44,6.69,5.52,11,6.92,12.38,4.06,25.23,5.14,38.14,5.74,5.14.25,8.92,2.32,9.32,7.89s-3,9-8.1,8.87c-5.82-.1-4.76,2.3-3.53,6,5,15,4.81,29.56-1.32,44.7a451.11,451.11,0,0,0-25.15,86.64c-9.48,50.89-10.17,101.38,7.44,150.92,1.21,3.41.29,5.76-1.47,8.59-15.57,25-23,52.27-22.84,81.78,0,5.54,1.9,6.78,7,6.74,7.88-.06,15.77.54,23.64,1.09,12.25.84,24.31,2,33.93-8.54,3.34-3.64,8.11-2.68,11.4,1.13,3.07,3.56,2.88,7.65-.27,11.08-6.66,7.22-14.42,12.38-24.66,13.15-12,.9-23.88-.12-35.81-.82-22.55-1.33-44.68.56-68.13,9.19,6.84.28,11.05,1.48,12.21,7,.46,2.23,2.19,2.26,3.9,1.37,2.12-1.1,4.17-2.34,6.25-3.51,6.87-3.88,10.73-2.83,14,4.62,1.26,2.89,2.92,2.56,5.06,2.34a60,60,0,0,0,21.67-6.93c6.74-3.53,11-2.2,13.6,4.65,1.16,3,2.36,3.25,5.19,2.83,6.12-.9,11.14-4.13,16.41-6.88,4.59-2.4,9.71-2.83,11.95,1.94,2.89,6.18,6.61,4.47,10.94,3.24a30.21,30.21,0,0,0,10.58-5.84c4.05-3.2,8.53-3.75,12.13.4,2.32,2.67,3.71,1.95,5.69,0a32.23,32.23,0,0,0,10-20.88c.71-7.08,4-10.68,9.31-10.16s8.18,4.89,7.57,11.77C387.48,638.67,384.47,646.37,379.91,654.24ZM344.19,99.57a90.56,90.56,0,0,1,29.82.52c1.33.23,3.25,1,3.08-1.27a28.92,28.92,0,0,0-4.2-13.47c-2.21-3.46-4.93.54-7.51.48-3.06-.07-6.42,1.29-9.15.43-8.47-2.69-10,2.36-10.93,8.71C345.14,96.13,344.76,97.25,344.19,99.57Z"/></svg>