<svg id="Layer_1" data-name="Layer 1" xmlns="http://www.w3.org/2000/svg" viewBox="0 0 720 720"><defs><style>.cls-1{fill:#3b494f;}</style></defs><path class="cls-1" d="M381.76,670.45c-11.78-.08-21.53,1.15-31.14,1.51-17.46.65-34.95,2.14-52.52,2.14-14.44,0-28.69-4.22-43.27-1.21A62,62,0,0,1,226.4,672c-1.72-.44-3.74.15-5.6.43a38.92,38.92,0,0,1-15.65-.36c-5.48-1.39-10.44-4-16.73-.69-4.77,2.49-9.55-2.23-9.63-8.23-.16-11.48,5.38-20.15,14.17-26.87,13.13-10,28.62-14,44.56-16.31a237,237,0,0,1,25-2.08c4.27-.16,6.17-1.29,7.13-5.83,5.85-27.84,12.38-55.54,18.1-83.41,3.78-18.41,1.79-37.24,2.54-55.88.8-19.86.53-39.75-.27-59.63-1.51-37.53,3.73-74.54,8.88-111.55,1.55-11.14,3.32-22.25,4.74-33.41,1.73-13.58-5.17-24.46-11.63-35.37-1.49-2.51-4.6-2.2-7.17-2.58-9-1.32-17.85-3.39-26-7.47-19-9.47-20.64-26.38-3.44-38.48,10-7,20.66-12.9,31.12-19.14a12.81,12.81,0,0,0,6.15-8.19c5.5-19,14.55-35.89,30.55-48.22,2.61-2,3.25-4.46,3.68-7.36,2-13.15,5.9-25.42,13.88-36.43,8.13-11.21,27.08-12.79,36.52-2.58,9,9.76,14.91,21.09,16.79,34.17,1,7,3.77,11.78,9.57,16.27,14,10.84,22.66,25.79,27.93,42.53a19.94,19.94,0,0,0,8.87,11.4c12.41,8.09,25.11,15.8,36.38,25.51,13.65,11.76,12.86,22.87-2.36,32.83a69.82,69.82,0,0,1-30.1,10.74c-7.13.86-11.08,4.19-13.67,10.48-2.67,6.47-5.14,12.84-4.56,20,4.22,52.56,5.65,105.19,5.64,157.94,0,49.24,7.57,97.69,20.47,145.31a476.11,476.11,0,0,1,11.52,56.92c1.12,7.83-1.35,13.47-6.45,18.71-13.65,14-31,20.2-49.67,23.43A136.5,136.5,0,0,1,381.76,670.45ZM414.5,354.3c-1.77-28.83-3.27-56.1-5.21-83.33-.65-9-.1-17.74,3.55-26,2-4.48,2.73-7-3.79-7.81-6.7-.8-10-5.74-8.8-10.81s5.52-6.57,12.63-5.6c18,2.47,35.13-1,51.37-9.07,4.34-2.16,5.11-4.43.73-7.48-7.46-5.18-14.78-10.56-22.24-15.74-10.79-7.5-22.26-14-32.17-22.78-4.8-4.24-6.79-8.94-1.59-14.06,2.13-2.11,1.48-3.55.4-5.57-1.2-2.25-2.31-3.56-5.44-3.3-14,1.15-20.37-4.83-20.13-19,.05-3.39-1.38-4-3.8-4.77-10.89-3.22-21.85-4.91-33.21-2.57-5.38,1.12-9.89,2.35-7.28,9.46a6.42,6.42,0,0,1-.07,2.85c-1.22,10-8.2,15.54-19.08,15.13-2.07-.08-4.27-1.09-5.47,1.75-.58,1.38-1,2.37.08,3.85,6.58,9.06,6.35,10.42-2.25,17.7-12.14,10.27-26.4,17.21-39.7,25.66-4.47,2.85-12.39,4.9-11.58,10.17.92,6,9.06,6.83,14.7,8.37,11.34,3.1,23,4.16,34.74,4.58,4.25.15,7.47,2,8.63,6.23,1.05,3.83,0,7.68-3.66,9.2-4.3,1.78-2.84,3.91-1.6,6.59,4.49,9.65,7.9,19.62,6.51,30.47-1.89,14.71-4.19,29.38-6.17,44.08-1.77,13.1-3.34,26.22-5.15,40.53a42.66,42.66,0,0,0,12.92-12.13c4.39-6.11,9.72-7.55,14.51-4.07s5.25,8.91,1,15.18c-5.5,8-12.27,15.26-21.06,19.07-10.27,4.44-10.62,11.87-9.37,21.59a50.15,50.15,0,0,0,14.9-13.6c4.52-6.29,9.51-7.72,14.46-4.29s5.36,9,1.15,15.18c-6.78,9.91-16,17.13-26.5,22.58-3.22,1.66-4.76,3.46-4.25,7.16.45,3.23.4,6.54.62,10.68a46.84,46.84,0,0,0,14.74-13.55c4.13-5.89,9.16-7.21,14-4,5.06,3.32,5.69,8.83,1.54,15a61.82,61.82,0,0,1-24,21.15c-5.41,2.7-6.58,6.2-6.63,11.77-.27,34,.24,67.92-9.35,101.15-5.27,18.31-8.38,37.25-12.62,56.58,15.79.19,31.37,5.47,44-8.1,3.14-3.38,7.74-2.51,10.91.91,3.43,3.7,3.29,7.92-.12,11.61-6.86,7.44-14.93,12.45-25.45,13-11.75.68-23.41-.25-35.11-.92-22.41-1.3-44.42.54-65.7,8.93,4.6.64,8.69,1.63,9.86,6.89.57,2.56,2.23,2.84,4.3,1.7,2.31-1.27,4.54-2.65,6.86-3.88,6.07-3.21,10.67-1.86,13,4.65,1.2,3.35,2.94,3.06,5.38,2.78a61.13,61.13,0,0,0,21.65-7c6.63-3.48,10.76-2.09,13.46,5,1.24,3.25,2.74,2.88,5.33,2.55,6.15-.8,11.11-4.21,16.4-6.9,4.63-2.36,9.68-2.65,11.88,2.2,2.69,5.91,6.29,4.37,10.38,3.25a29.9,29.9,0,0,0,11.21-6.17c3.25-2.71,7.72-3.77,10.46-.67,4.75,5.37,7.08,1.71,9.8-1.51a32,32,0,0,0,7.35-17.62c.83-7.65,4.09-11.31,9.56-10.62s8.07,5.32,7.25,12.69c-.85,7.6-3.72,14.59-7.12,21.67,5.36,0,9.92.38,14.4-.07,16.59-1.65,32.51-5.33,45.95-16.12,4.05-3.25,6.09-6.77,4.85-12.31-2.52-11.2-4-22.62-6.71-33.77-10.58-44-21.34-87.91-23.46-133.37-.16-3.61-2.05-4.81-4.72-6.2-10.74-5.59-20.24-12.73-27.15-22.89-4.23-6.22-3.86-11.8.89-15.22s10.18-2,14.54,4.06a45.87,45.87,0,0,0,14.73,13.43,42.48,42.48,0,0,1,0-5.58c1.2-7.24-1.31-11.71-8.26-15.08-9.1-4.4-16.44-11.46-22.16-20-4.07-6.08-3.5-11.89,1.39-15.17s9.86-1.88,14,4A46.58,46.58,0,0,0,414,392.13c2.05-9.75,1-16.77-9-21.24-8.74-3.9-15.53-11.07-20.92-19.21-4.09-6.15-3.57-11.84,1.33-15.12,4.68-3.15,10-1.75,14,3.94A47,47,0,0,0,414.5,354.3ZM344.19,99.57a90.56,90.56,0,0,1,29.82.53c1.33.23,3.25,1,3.08-1.28a28.92,28.92,0,0,0-4.2-13.47c-2.2-3.46-4.92.54-7.5.48-3.07-.08-6.43,1.29-9.16.43-8.47-2.7-10,2.36-10.93,8.71C345.14,96.12,344.76,97.25,344.19,99.57Z"/></svg>