<svg id="Layer_1" data-name="Layer 1" xmlns="http://www.w3.org/2000/svg" viewBox="0 0 720 720"><defs><style>.cls-1{fill:#3a484e;}</style></defs><path class="cls-1" d="M556.56,358.08c5.32-13,11.81-24.46,20.87-34.23,16.16-17.43,36.37-24.2,59.71-21.88,8.52.85,11.38,4.24,10.92,12.89-1.48,28-14.42,49.61-37.62,65.22-2.33,1.56-5.29,2.27-6.94,4.86C626.65,398.36,640.39,418.69,647,444c4.68,18.08-2.06,26.08-20.56,25.45-29-1-58.93-25.05-69.33-55.78-2.56-7.56-2.46-7.44-8.88-2.13C519.9,435,487.15,450,452.85,462a351.91,351.91,0,0,1-73.16,17.63c-5.95.74-7,3.16-4.92,8.26a78.19,78.19,0,0,0,15.58,24c3.56,3.81,5.68,7.81,3.36,12.92s-6.94,6.07-12.06,5.86c-33.94-1.35-60.83-15.47-79.43-44.25-2.13-3.29-4.56-4.21-8.11-4.59-49.38-5.35-96.16-19-139.29-44.09-14.57-8.46-28.24-18.16-39.62-30.74a74.16,74.16,0,0,1-7.45-9.66c-7.49-11.63-7.35-19.28.67-30.42,8.67-12,20-21.36,32.09-29.64,42.7-29.17,90.07-46.32,141.08-53.41,11-1.53,19.05-4.23,26.27-14.31,17.88-25,43.93-36,74.45-36.84,4.88-.13,9.15.89,11.38,5.76s.57,8.74-2.83,12.4c-6.72,7.25-12.39,15.24-16.07,24.5-2.11,5.28-1.43,7.62,5.33,8.59,55.41,7.92,107.51,25.23,154.55,56.29A160.9,160.9,0,0,1,556.56,358.08ZM324.77,463.61c33.67-.24,62.83-4,91.45-11.56,42.19-11.16,82.47-27,117.29-53.86,19.39-15,20.68-17.27.1-33.92-25.25-20.43-54.54-33.61-85.12-43.78C363.17,292.12,278.7,292,195.7,329.54c-23.9,10.81-46.39,24-65.47,42.29-10.13,9.72-10,12.71-.12,22.87,8.24,8.48,17.77,15.35,27.83,21.46C210.43,448,267.74,462.6,324.77,463.61Zm249.52-91.55c23.27-1.35,47.83-23.33,52.28-46.38.88-4.53-.89-4-4-3.64C599.67,324.59,576.87,348.14,574.29,372.06Zm53.55,77.14c-4.74-16-12.21-29.6-24.53-40.16-6.72-5.76-14.79-8.55-23.39-10.07-4.74-.85-6.56.19-4.88,5.47,5.23,16.44,14.88,29.23,30.08,37.6C612,445.83,619.08,449.06,627.84,449.2Z"/><path class="cls-1" d="M131.06,236a32.08,32.08,0,1,1-.61,64.16,32.08,32.08,0,1,1,.61-64.16Zm-.12,43.91a11.88,11.88,0,0,0,0-23.75,11.88,11.88,0,1,0,0,23.75Z"/><path class="cls-1" d="M183.58,220.41a32.4,32.4,0,0,1-32-32.11c0-17.67,15-32.57,32.6-32.33a32.22,32.22,0,0,1-.63,64.44Zm0-20.17a12,12,0,0,0,12.34-12,12.28,12.28,0,0,0-11.65-12.11,12.51,12.51,0,0,0-12.48,12.11A12.28,12.28,0,0,0,183.56,200.24Z"/><path class="cls-1" d="M308.29,379.5a125.82,125.82,0,0,1-10.53,51.61c-3.58,8.12-8.87,10.92-14.87,8.1-5.72-2.68-6.88-8.13-3.67-16,12.54-30.56,12.31-61-1.35-91.15-3.41-7.54-2.28-13.36,3.35-16.07s11.13-.25,14.78,7.25C304.64,341,308.46,359.82,308.29,379.5Z"/><path class="cls-1" d="M413,414.07c-.79,10.85-5.25,19.43-14.68,25-5.65,3.32-11.56,2.25-14.67-2.4-3.25-4.85-2-10.17,3.4-14.33,7.77-6,7.72-11.31-.16-16.83-5.53-3.88-7.16-9.17-4.32-14.09,2.95-5.12,8.84-6.4,15-3C407.68,394,412.36,402.87,413,414.07Z"/><path class="cls-1" d="M371.8,354.35c-.26,11.45-5.17,19.76-14.4,25.43-5.6,3.45-11.48,2.37-14.64-2.26s-1.94-10.29,3.28-14.37c7.92-6.19,7.74-11.23-.73-17.28-5-3.57-6.88-8.19-3.72-13.62s8-6.6,13.61-3.82C366,333.86,371.5,342.74,371.8,354.35Z"/><path class="cls-1" d="M466.81,374q-.42,17.55-15.42,25.93c-5.39,3-10.44,2.07-13.71-3.25s-1.86-9.95,3.08-13.76c8.23-6.37,8.16-11.46-.21-17.27-5-3.48-6.94-7.86-4.13-13.55,2.58-5.19,8.33-6.81,14.19-3.83C461.14,353.62,466.44,362.39,466.81,374Z"/><path class="cls-1" d="M205.49,354.08a15.88,15.88,0,0,1,15.88,16,16,16,0,0,1-32.09-.35A15.81,15.81,0,0,1,205.49,354.08Z"/></svg>