<svg id="Layer_1" data-name="Layer 1" xmlns="http://www.w3.org/2000/svg" viewBox="0 0 650 220"><defs><style>.cls-1,.cls-2{fill:#623b2a;}.cls-2{font-size:15.52px;font-family:FilsonSoftBlack, Filson Soft;}</style></defs><path class="cls-1" d="M275.9,79.47q0-14.85,0-29.7c0-3.89,1-5.16,4.86-5.64a22.62,22.62,0,0,1,7.52.18c2.52.52,3.75,1.95,3.72,4.56-.05,3.77,0,7.55,0,11.32,0,4.77,3.12,8,7.84,7.37,10.6-1.41,21.13-.31,31.68.26,6.83.37,10.9-3.58,10.9-10.44,0-3.78,0-7.55,0-11.33,0-1.41-.42-2.38-1.9-2.34s-1.84,1-1.81,2.44c.07,3.86,0,7.72,0,11.58,0,4.38-2.34,6.45-7.13,6.46-5,0-7.32-2-7.35-6.54,0-4.78.25-9.58-.06-14.34-.72-11,9-17,16.25-17.89A19.81,19.81,0,0,1,349,26a20.78,20.78,0,0,0,12.86-.22c2.64-.82,5.28-1.64,7.94-2.39,1.89-.53,3.2,0,3.86,2a37.24,37.24,0,0,1,1.72,7.32,6.62,6.62,0,0,1-2.2,5.9c-1.38,1.21-2.91,2.25-4.37,3.38-.7.54-1.8.9-1.39,2.08s1.47.9,2.37.93c1.26.05,2.53,0,3.78.1,2.67.21,3.43,1.83,2,4.08a5,5,0,0,1-2.89,1.87c-4.62,1.51-9.23,3-13.86,4.52-5.06,1.6-7.38,4.63-7.39,10q0,21.51,0,43c0,4.79-1.22,6.43-6,7.53A31.57,31.57,0,0,1,329.9,116c-3.6-1-4.95-2.83-5-6.54,0-2.27,0-4.53,0-6.8a11.29,11.29,0,1,0-22.58,0c0,2.43,0,4.87,0,7.3a5.5,5.5,0,0,1-4.06,5.69,29.68,29.68,0,0,1-18.31,0c-2.82-.89-4.06-2.85-4.06-5.94Q275.88,94.57,275.9,79.47ZM351.35,40.1a3.4,3.4,0,0,0,3.55-3.39,3.46,3.46,0,0,0-3.81-3.38,3.39,3.39,0,1,0,.26,6.77Z"/><path class="cls-1" d="M397.07,155.59c6.38,2.8,9.34,7.35,8.67,12.94-.75,6.18-5.7,10.92-12.86,11.84-7.59,1-15.25.43-22.88.39-2.61,0-3.59-1.25-3.6-3.84,0-13.41,0-26.82,0-40.23,0-2.16.87-3.68,3.15-3.72,7.54-.12,15.09-.69,22.59.56a15.07,15.07,0,0,1,4.48,1.59c4.39,2.25,6.9,5.84,7.07,10.78C403.83,150.52,401.38,153.62,397.07,155.59ZM384,170.78c1.75-.11,3.51-.17,5.26-.36a4.44,4.44,0,0,0,4.23-4c.37-2.27-.87-3.85-2.79-4.89s-4.21-1-6.39-1.05c-5.25-.06-5.25,0-5.25,5.18C379,170.68,379,170.68,384,170.78Zm-.71-28.08a13,13,0,0,1-1.8,0c-2-.33-2.65.43-2.47,2.43s0,4.18,0,6.28c0,.67-.09,1.37,1,1.36,2.76,0,5.57.25,8.22-.72,2.05-.76,3.45-2.24,3.34-4.53a4.6,4.6,0,0,0-3.83-4.4A15,15,0,0,0,383.25,142.7Z"/><path class="cls-1" d="M266.52,149.06c.63-3.3,1.27-3.83,4.65-3.88,7.6-.09,7.63-.06,7.63,7.64V176.7c0,13.3-7.4,20.54-20.73,20.19a32.11,32.11,0,0,1-12.95-2.69c-2.69-1.26-3.23-2.55-2.18-4.93,1.65-3.76,3.22-4.84,5.93-3.68a20.12,20.12,0,0,0,9.49,1.93c5.83-.39,9.16-4.52,8.32-10.72a14,14,0,0,1-14,4.36c-8.26-1.7-14-9.89-13.49-19,.31-5.41,2.13-10.19,6.28-13.79C251.77,142.89,259.52,143.21,266.52,149.06Zm.48,13.78c-.06-5.12-3.47-9-7.9-9s-8,4-7.88,9.24,3.33,8.89,7.9,8.9S267.06,168.16,267,162.84Z"/><path class="cls-1" d="M107.69,156.52c0-6.29,0-12.57,0-18.86,0-3.5,1.19-4.7,4.61-4.85,7.53-.31,8,.17,8,7.62,0,3.44.07,6.88,0,10.31,0,1.47.28,2.07,1.91,2,4-.12,8.07-.13,12.09,0,1.8.06,2.06-.66,2-2.18-.08-4.36,0-8.72,0-13.08,0-3.29,1.26-4.61,4.54-4.68,6.88-.16,8.18,0,8.06,7.47-.18,11.73-.05,23.48-.05,35.22,0,4.19-1.13,5.29-5.4,5.32h-1.77c-4.22,0-5.38-1.18-5.39-5.38,0-3.52-.07-7,0-10.56,0-1.57-.52-2-2-2-3.95.09-7.9.13-11.84,0-1.89-.07-2.21.68-2.17,2.33.11,3.69,0,7.38,0,11.07,0,3.27-1.09,4.43-4.34,4.51-7.61.2-8.56-.16-8.34-7.95C107.81,167.43,107.69,162,107.69,156.52Z"/><path class="cls-1" d="M436.83,176.77c-7.21,7.92-19.13,4.85-23.91-2-5.26-7.49-4.73-18.65,1.45-25.39,4.46-4.86,15-8.11,22.43-.33.89-3.38,1.56-3.89,5.2-3.91,7.38,0,7.46,0,7.46,7.39q0,11.7,0,23.4c0,3.77-1,4.78-4.74,4.87-1,0-2,0-3,0C438.43,180.75,437.65,180.12,436.83,176.77Zm.35-13.87c0-4.64-2.57-8.13-6.35-8.7-4.2-.63-7.32,1.32-8.7,5.43-2.1,6.22,1.8,12.47,7.63,12.27C434.19,171.75,437.2,168.11,437.18,162.9Z"/><path class="cls-1" d="M211.41,149.53c5.31-5.92,13.37-6.83,18.54-2.18,3.2,2.88,4.21,6.86,4.36,10.91.23,6.2.09,12.41.05,18.61,0,2.54-1.08,3.62-3.61,3.93l-.25,0c-8.59.24-8.71-.23-8.57-7.83.08-4.44.09-8.89-.06-13.33-.12-3.31-1.64-5-4.24-5.36s-4.82,1.21-5.82,4.16a11,11,0,0,0-.56,3.7c0,4.78,0,9.56,0,14.33,0,3.14-1,4.23-4.19,4.33-8.73.28-8.14-.73-8.1-7.48.06-7.88,0-15.76,0-23.63,0-3.53.95-4.48,4.45-4.52q1.63,0,3.27,0C210.15,145.22,211,145.93,211.41,149.53Z"/><path class="cls-1" d="M332,165.24c2.19-5.74,4.19-11,6.18-16.2,1.23-3.22,2.12-3.83,5.61-3.85,1.26,0,2.52,0,3.78,0,3.39.11,4.39,1.63,3,4.73q-6,13.68-12,27.33c-2.23,5.05-4.58,10-6.65,15.16-1.12,2.76-2.89,3.94-5.79,3.7-1.17-.09-2.35,0-3.52-.05-2.58-.18-3.58-1.69-2.59-4.13,1.67-4.11,3.41-8.19,5.25-12.22a4.05,4.05,0,0,0-.06-3.77c-3.92-8.51-7.78-17-11.65-25.58-1.67-3.69-.75-5.16,3.29-5.17,8,0,7.71-.74,10.48,7.26C328.72,156.56,330.29,160.62,332,165.24Z"/><path class="cls-1" d="M179.07,176.48c-3.52,4.72-8.24,5.75-13.52,4.67s-8.86-5.49-9.19-12.06c-.34-6.85-.14-13.74-.12-20.61,0-2,1.19-3,3.14-3.26a6.27,6.27,0,0,1,.75,0c8.14-.07,8.55-.42,8.37,7.91-.08,3.86,0,7.72,0,11.57,0,4.61,1.79,7.1,5,7.13s5.74-2.82,5.84-7.18c.12-4.94,0-9.89,0-14.83,0-3.65.94-4.57,4.62-4.61,7.65-.08,7.65-.08,7.65,7.62q0,11.82,0,23.64c0,3.18-1,4.22-4.14,4.38-1.25.07-2.52.06-3.78,0C180.52,180.71,179.75,180,179.07,176.48Z"/><path class="cls-1" d="M298.23,151.19c1.7-3.83,4.16-6.33,8.28-6.68,2.91-.23,3.66.38,3.73,3.26.05,1.93,0,3.86,0,5.78s-1,2.92-2.86,2.66c-6.33-.86-8.95,3.73-8.94,9.35,0,3.69,0,7.38,0,11.07,0,2.87-1,3.93-3.85,4.19h-.25c-8.7.24-8.3-.6-8.24-7.64.06-7.8,0-15.6,0-23.4,0-3.64,1-4.57,4.65-4.6h1C297.44,145.18,297.62,145.34,298.23,151.19Z"/><path class="cls-1" d="M468.9,151.19c1.79-4.16,4.38-6.39,8.38-6.7,2.69-.21,3.53.51,3.59,3.18,0,1.85,0,3.69,0,5.53,0,2-.88,3.24-3.05,3-6.26-.66-8.61,3.39-8.78,9-.12,3.76,0,7.54,0,11.31,0,3.07-1,4.2-4,4.3-8.59.29-8.48-.33-8.38-7.72.1-7.79,0-15.59,0-23.38,0-3.46,1-4.47,4.48-4.51H463C467.86,145.19,468.39,145.67,468.9,151.19Z"/><text class="cls-2" transform="translate(522.59 156.4)">®</text><path class="cls-1" d="M490.69,131.19h3.39a2.84,2.84,0,0,1,2.9,2.9v25.16s0,1,1,0l1.48-2.13,3.19-4.6,3-4.36a5.44,5.44,0,0,1,1.52-1.84,6.7,6.7,0,0,1,3.59-.62h5.6s3.87,0,1,3.88l-8.71,12.58,11.61,15.48s1.94,3.39-2.42,3.39H511a6.25,6.25,0,0,1-4.84-2.9l-8.71-12.58v12.58s0,2.9-3.39,2.9h-5.81a2.84,2.84,0,0,1-2.9-2.9v-44a2.84,2.84,0,0,1,2.9-2.9Z"/></svg>