<?xml version="1.0" encoding="UTF-8"?>
<svg width="48px" height="48px" viewBox="0 0 48 48" version="1.1" xmlns="http://www.w3.org/2000/svg" xmlns:xlink="http://www.w3.org/1999/xlink">
    <title>UI/Icons/Duck@1x</title>
    <defs>
        <polygon id="path-1" points="0 0.275146667 47.6993709 0.275146667 47.6993709 36.8291467 0 36.8291467"></polygon>
        <polygon id="path-3" points="0.000186407767 4.66666667e-05 47.6996039 4.66666667e-05 47.6996039 4.66666667 0.000186407767 4.66666667"></polygon>
    </defs>
    <g id="UI/Icons/Duck" stroke="none" stroke-width="1" fill="none" fill-rule="evenodd">
        <g id="Group-11" transform="translate(0.000000, 3.000000)">
            <g>
                <path d="M13.223068,5.97072 C12.6652427,5.97072 12.2132039,6.42338667 12.2132039,6.98198667 C12.2132039,7.54058667 12.6652427,7.99325333 13.223068,7.99325333 C13.7808932,7.99325333 14.232932,7.54058667 14.232932,6.98198667 C14.232932,6.42338667 13.7808932,5.97072 13.223068,5.97072" id="Fill-1" fill="#37464C"></path>
                <g id="Group-5" transform="translate(0.000000, 0.191567)">
                    <mask id="mask-2" fill="white">
                        <use xlink:href="#path-1"></use>
                    </mask>
                    <g id="Clip-4"></g>
                    <path d="M7.59234175,25.66788 C7.60678835,24.2506133 7.9222835,23.1068133 8.38504078,22.02088 C9.58876893,22.7451467 13.1207301,25.4849467 13.4045359,32.75748 C12.7963806,33.0482133 12.3005359,33.40428 11.8382447,33.74308 C11.5637592,33.9442133 11.2990602,34.1346133 11.0199146,34.3049467 C8.74434175,31.9828133 7.55878835,29.0064133 7.59234175,25.66788 M11.2333515,16.1110133 C11.917934,16.4213467 13.1086136,16.8348133 14.6096621,16.8348133 C15.8823612,16.8348133 17.3773515,16.53008 18.9674097,15.6182133 C20.1552932,18.03928 22.4667495,20.18968 25.8547107,21.12908 C30.4179728,22.3951467 38.9344777,21.2476133 43.6114485,16.1502133 C43.7978563,16.7368133 43.9735456,17.4732133 44.030866,18.2805467 C44.2093515,20.7823467 43.1626718,22.7339467 40.9197204,24.08168 C40.6042252,24.2711467 40.429468,24.6286133 40.4742058,24.99448 C40.4816621,25.05748 41.1928078,31.34068 37.3029437,34.4939467 C37.2670602,34.52288 37.237235,34.55648 37.2069437,34.5891467 C36.710167,34.3670133 36.2982058,34.0660133 35.8568854,33.74308 C34.8465553,33.0020133 33.7010796,32.16248 31.4860893,32.16248 C29.2720311,32.16248 28.1265553,33.0020133 27.1162252,33.74308 C26.223332,34.3973467 25.4520699,34.96248 23.846633,34.96248 C22.2416621,34.96248 21.4704,34.3973467 20.5775068,33.74308 C19.5671767,33.0020133 18.421701,32.16248 16.2071767,32.16248 C15.8595262,32.16248 15.5463612,32.1895467 15.2481087,32.2273467 C14.7886136,24.2361467 10.6349825,21.1664133 9.20523495,20.34088 C9.31102136,20.14488 9.41773981,19.94748 9.52725437,19.7463467 C10.1139728,18.6688133 10.7407689,17.5012133 11.2333515,16.1110133 M13.8533126,13.16868 C14.3682641,13.16868 14.7853515,12.7510133 14.7853515,12.2353467 C14.7853515,11.7201467 14.3682641,11.3020133 13.8533126,11.3020133 C11.3312155,11.3020133 9.27979806,9.24728 9.27979806,6.72214667 C9.27979806,4.19654667 11.3312155,2.14181333 13.8533126,2.14181333 C15.3184777,2.14181333 16.6895068,2.77088 17.5204194,3.82368 C18.6225553,5.22134667 18.8662835,7.38574667 18.2255068,10.0826133 C17.943565,11.2679467 17.9822447,12.5690133 18.3163806,13.8570133 C18.2739728,13.8747467 18.231565,13.8920133 18.1914874,13.91628 C15.0397981,15.80908 12.3965359,14.6340133 11.750167,14.2891467 C11.846633,13.8458133 11.9277204,13.38148 11.9878369,12.8905467 C12.5787495,13.0702133 13.2046136,13.16868 13.8533126,13.16868 M0.931992233,34.0291467 C2.53696311,34.0291467 3.30822524,34.5947467 4.20065243,35.2490133 C5.21144854,35.99008 6.35645825,36.8291467 8.57098252,36.8291467 C10.7845748,36.8291467 11.9295845,35.9896133 12.9399146,35.2490133 C13.8323417,34.59428 14.6026718,34.0291467 16.2071767,34.0291467 C17.8126136,34.0291467 18.5834097,34.5947467 19.4763029,35.2490133 C20.486633,35.99008 21.6321087,36.8291467 23.846633,36.8291467 C26.0611573,36.8291467 27.206633,35.99008 28.2169631,35.2490133 C29.1098563,34.5947467 29.8811184,34.0291467 31.4860893,34.0291467 C33.0919922,34.0291467 33.8632544,34.5947467 34.7561476,35.2490133 C35.7669437,35.99008 36.9124194,36.8291467 39.1269437,36.8291467 C41.341468,36.8291467 42.4869437,35.99008 43.4977398,35.2490133 C44.390633,34.5947467 45.1618951,34.0291467 46.767332,34.0291467 C47.2822835,34.0291467 47.6993709,33.61148 47.6993709,33.0958133 C47.6993709,32.5806133 47.2822835,32.16248 46.767332,32.16248 C44.5528078,32.16248 43.407332,33.0020133 42.3970019,33.74308 C41.5796039,34.3418133 40.8563417,34.8607467 39.5104777,34.9452133 C42.4258951,31.69348 42.4659728,27.0193467 42.373235,25.3664133 C47.3065165,22.01248 46.0841476,16.44048 44.6949437,13.8906133 C44.5406913,13.6073467 44.2512932,13.4239467 43.9297398,13.4057467 C43.6105165,13.3852133 43.3001476,13.5364133 43.1146718,13.8005467 C39.4060893,19.07808 30.8527689,20.57888 26.3524194,19.3305467 C20.9708272,17.8381467 19.4040699,13.1878133 20.0387883,10.5147467 C21.0216233,6.38008 20.007099,3.96508 18.9827883,2.66681333 C17.7841864,1.14688 15.9140505,0.275146667 13.8533126,0.275146667 C10.575332,0.275146667 7.86682718,2.74334667 7.47071068,5.92041333 C5.97805049,6.90788 4.27614757,6.60174667 4.26309903,6.59941333 C3.96577864,6.53968 3.65773981,6.62881333 3.43777864,6.83834667 C3.2182835,7.04834667 3.11389515,7.35168 3.15863301,7.65221333 C3.57059417,10.4186133 6.46410874,11.1186133 8.45680777,11.1186133 C8.69820583,11.1186133 8.92189515,11.10648 9.13067184,11.08828 C9.47366214,11.4602133 9.85486602,11.79528 10.2761476,12.0785467 C10.2230214,12.18028 10.1857398,12.2932133 10.1736233,12.4150133 C9.88702136,15.1865467 8.87203107,17.0504133 7.89059417,18.85268 C6.84205049,20.7786133 5.75715728,22.7703467 5.72826408,25.6492133 C5.6928466,29.18188 6.84391456,32.3664133 9.06822524,34.94008 C8.91024466,34.9531467 8.74760388,34.96248 8.57098252,34.96248 C6.96601165,34.96248 6.19474951,34.3973467 5.30185631,33.74308 C4.29152621,33.0020133 3.1465165,32.16248 0.931992233,32.16248 C0.417506796,32.16248 -4.66019417e-05,32.5806133 -4.66019417e-05,33.0958133 C-4.66019417e-05,33.61148 0.417506796,34.0291467 0.931992233,34.0291467" id="Fill-3" fill="#37464C" mask="url(#mask-2)"></path>
                </g>
                <g id="Group-8" transform="translate(0.000000, 37.058233)">
                    <mask id="mask-4" fill="white">
                        <use xlink:href="#path-3"></use>
                    </mask>
                    <g id="Clip-7"></g>
                    <path d="M46.767565,4.66666667e-05 C44.5530408,4.66666667e-05 43.407565,0.83958 42.3967689,1.58018 C41.5038757,2.23491333 40.7326136,2.80004667 39.1267107,2.80004667 C37.5212738,2.80004667 36.7500117,2.23491333 35.8571184,1.58018 C34.8463223,0.83958 33.7008466,4.66666667e-05 31.4863223,4.66666667e-05 C29.2717981,4.66666667e-05 28.1263223,0.83958 27.1159922,1.58018 C26.223099,2.23491333 25.4518369,2.80004667 23.8464,2.80004667 C22.2414291,2.80004667 21.470167,2.23491333 20.5772738,1.58018 C19.5669437,0.83958 18.421934,4.66666667e-05 16.2074097,4.66666667e-05 C13.9933515,4.66666667e-05 12.8483417,0.83958 11.8384777,1.58018 C10.9460505,2.23491333 10.1752544,2.80004667 8.57074951,2.80004667 C6.96577864,2.80004667 6.1945165,2.23491333 5.30208932,1.58018 C4.29175922,0.83958 3.1462835,4.66666667e-05 0.932225243,4.66666667e-05 C0.417273786,4.66666667e-05 0.000186407767,0.41818 0.000186407767,0.93338 C0.000186407767,1.44858 0.417273786,1.86671333 0.932225243,1.86671333 C2.5367301,1.86671333 3.30799223,2.43184667 4.20088544,3.08658 C5.21121553,3.82718 6.35622524,4.66671333 8.57074951,4.66671333 C10.7848078,4.66671333 11.9298175,3.82718 12.9396816,3.08658 C13.8321087,2.43184667 14.6029049,1.86671333 16.2074097,1.86671333 C17.8123806,1.86671333 18.5836427,2.43184667 19.4765359,3.08658 C20.486866,3.82718 21.6318757,4.66671333 23.8464,4.66671333 C26.0609243,4.66671333 27.2064,3.82718 28.2167301,3.08658 C29.1096233,2.43184667 29.8808854,1.86671333 31.4863223,1.86671333 C33.0917592,1.86671333 33.8630214,2.43184667 34.7563806,3.08658 C35.7667107,3.82718 36.9121864,4.66671333 39.1267107,4.66671333 C41.341701,4.66671333 42.4871767,3.82718 43.4975068,3.08658 C44.390866,2.43184667 45.1621282,1.86671333 46.767565,1.86671333 C47.2820505,1.86671333 47.6996039,1.44858 47.6996039,0.93338 C47.6996039,0.41818 47.2820505,4.66666667e-05 46.767565,4.66666667e-05" id="Fill-6" fill="#37464C" mask="url(#mask-4)"></path>
                </g>
                <path d="M19.8735845,29.2571067 C21.6938563,30.29124 23.8389437,30.8083067 26.2930019,30.8083067 C29.0560311,30.8083067 32.2114485,30.1531067 35.7359534,28.8431733 C36.2187495,28.6639733 36.4648078,28.12684 36.2853903,27.6433733 C36.1064388,27.1599067 35.5705165,26.9139733 35.0872544,27.0931733 C28.9716816,29.3653733 24.1618951,29.54784 20.7935068,27.6335733 C17.3827107,25.6959733 16.2465553,22.0195733 15.8728078,20.0007733 C15.7786718,19.4939733 15.2921476,19.1589067 14.7860505,19.2531733 C14.2804194,19.34744 13.9458175,19.8341733 14.0399534,20.34144 C14.4728854,22.6789733 15.806167,26.94664 19.8735845,29.2571067" id="Fill-9" fill="#37464C"></path>
            </g>
        </g>
    </g>
</svg>