<svg xmlns="http://www.w3.org/2000/svg" xmlns:xlink="http://www.w3.org/1999/xlink" width="126.941" height="51.917"><defs><path id="a" fill-rule="evenodd" d="M0 0h126.94v51.917H0V0z"/><mask id="b" maskContentUnits="userSpaceOnUse" maskUnits="userSpaceOnUse"><path d="M0 0h126.941v51.917H0z"/><use fill="#fff" xlink:href="#a"/></mask></defs><use fill="none" xlink:href="#a"/><g mask="url(#b)"><path fill="#623B2A" fill-rule="evenodd" d="M119.905 49.86h5.415c.895 0 1.62.46 1.62 1.029 0 .568-.725 1.028-1.62 1.028H1.62c-.894 0-1.62-.46-1.62-1.028 0-.568.726-1.028 1.62-1.028h3.382a6.675 6.675 0 01-1.85-4.62l.003-11.828a3.504 3.504 0 00-.589-2.036c-7.084-10.604 2.747-18.235 2.847-18.31.374-.283.89-.275 1.254.02.364.296.482.802.288 1.23-1.992 4.37-.784 8.543.58 11.275.4.799 1.248 1.315 2.164 1.315h6.236c1.945 0 3.883.482 5.605 1.394 1.473.781 2.942 1.177 4.366 1.177h7.505c1.81 0 3.467-1.036 4.121-2.577a4.31 4.31 0 00-.195-3.806l-4.615-8.28a1.584 1.584 0 01.073-1.668c.34-.5.92-.757 1.516-.673l7.306 1.028h15.515c2.617 0 4.93 1.68 5.624 4.087a5.732 5.732 0 01-1.849 6.025l-11.455 9.429a6.487 6.487 0 00-.265.232c-.03.03-.06.06-.092.087a6.69 6.69 0 00-2.055 5.115c.107 2.39 1.464 4.594 3.823 6.205a.811.811 0 00.452.128h5.044a3.51 3.51 0 012.7 1.267c.671.804.954 1.867.773 2.915a3.288 3.288 0 01-.28.869h13.9V34.21c0-1.605.083-3.228.245-4.822l2.196-21.635V2.03C75.893.911 76.797 0 77.91 0h37.538c1.112 0 2.017.911 2.017 2.031v5.723l2.196 21.635c.162 1.594.244 3.216.244 4.822v15.65zM77.91 1.355h37.538c.37 0 .672.304.672.677v5.08H77.237V4.91h32.521a.675.675 0 00.672-.678c0-.374-.3-.677-.672-.677h-32.52V2.031c0-.373.301-.677.672-.677zm-2.876 28.173a46.592 46.592 0 00-.237 4.684v15.65h43.763V34.21c0-1.56-.08-3.136-.237-4.684l-2.137-21.062H77.172l-2.138 21.062zm-33.63-13.978l-6.437-.906 4.15 7.445c.532.953.801 2.002.808 3.058.07.538.885 5.113 8.208 6.328l.027-.024 11.455-9.428a3.669 3.669 0 001.18-3.859c-.442-1.533-1.948-2.604-3.663-2.604H41.546c-.047 0-.095-.004-.142-.01zM3.95 17.67c-.387 3.72.822 6.966 1.761 8.846.754 1.51 2.283 2.447 4.068 2.447h6.156c1.615 0 3.225.401 4.654 1.158 1.77.938 3.558 1.413 5.317 1.413h7.505c.56 0 1.104-.07 1.627-.197.504 2.719 2.533 8.79 10.643 10.268.48 1.158 1.201 2.24 2.149 3.206h-3.215c-.564 0-1.02.46-1.02 1.028 0 .567.456 1.028 1.02 1.028h11.744c.439 0 .854.195 1.137.534.288.344.403.784.324 1.239-.12.696-.809 1.22-1.603 1.22H36.244a.395.395 0 01-.392-.386c-.027-1.38-1.071-2.46-2.377-2.46h-6.346c-.169 0-.334.018-.494.052a2.584 2.584 0 00-2.477-1.882H19.48l-.903-2.186c-1.461-3.537-4.864-5.823-8.668-5.823-.563 0-1.02.46-1.02 1.028 0 .568.457 1.028 1.02 1.028a7.326 7.326 0 016.783 4.557l1.165 2.82c.158.383.53.633.942.633h5.36a.54.54 0 01.537.54v1.635c-.003.179-.095.444-.336.444H9.78c-2.528 0-4.585-2.072-4.585-4.618v-11.66l.002-.11a5.56 5.56 0 00-.936-3.243c-3.61-5.403-2.131-9.833-.31-12.559zm35.096 10.751c1.11 1.783 3.272 3.846 7.474 4.83A8.775 8.775 0 0045 38.568a9 9 0 00.077.804c-6.674-1.673-7.893-7.05-8.115-8.835a6.21 6.21 0 002.084-2.116zm-12.31 21.061l.001-.016v-.009a.395.395 0 01.392-.387h6.346c.24 0 .332.266.336.445.002.118.016.232.035.346h-7.15c.021-.124.036-.25.04-.379z"/></g><path fill="#623B2A" fill-rule="evenodd" d="M96.52 26.919c1.452-.048 4.513.828 5.42 4.437.512 2.03 1.508 3.153 2.386 4.144 1.022 1.152 1.987 2.24 1.578 4.21-.443 2.133-1.992 3.207-4.613 3.207-.558 0-1.164-.049-1.82-.146a20.156 20.156 0 00-5.942 0c-3.732.555-5.894-.474-6.432-3.06-.411-1.983.553-3.082 1.574-4.245.869-.99 1.854-2.111 2.392-4.12.964-3.601 3.979-4.466 5.457-4.427zm3.15 14.444c3.895.58 4.654-.835 4.885-1.95.25-1.201-.228-1.806-1.246-2.954-.938-1.057-2.105-2.373-2.703-4.746-.86-3.417-3.939-3.375-4.087-3.373-.174-.004-3.214-.026-4.127 3.384-.625 2.335-1.775 3.644-2.699 4.697-1.02 1.162-1.5 1.775-1.247 2.991.232 1.116.99 2.532 4.886 1.951a21.509 21.509 0 016.337 0z"/><path fill="#623B2A" fill-rule="evenodd" d="M97.435 29.919c-.928-.041-2.813.584-3.414 3.135-.086.363.096.738.406.838a.51.51 0 00.155.025c.255 0 .489-.198.56-.5.504-2.138 2.18-2.148 2.263-2.137.319.015.585-.286.595-.66.009-.377-.244-.69-.565-.701M95 22.917c0 2.243-1.318 4-3 4s-3-1.757-3-4c0-2.243 1.318-4 3-4s3 1.757 3 4zm-1.31 0c0-1.45-.774-2.673-1.69-2.673-.915 0-1.69 1.224-1.69 2.673s.775 2.673 1.69 2.673c.916 0 1.69-1.224 1.69-2.673zM87 25.917c1.682 0 3 1.757 3 4 0 2.243-1.318 4-3 4s-3-1.757-3-4c0-2.243 1.318-4 3-4zm-1.69 4c0 1.449.775 2.673 1.69 2.673.916 0 1.689-1.224 1.689-2.673s-.773-2.674-1.689-2.674c-.915 0-1.69 1.225-1.69 2.674zM101 18.917c1.682 0 3 1.757 3 4 0 2.243-1.318 4-3 4s-3-1.757-3-4c0-2.243 1.318-4 3-4zm0 1.327c-.915 0-1.689 1.224-1.689 2.673s.774 2.673 1.69 2.673c.915 0 1.688-1.224 1.688-2.673 0-1.45-.773-2.673-1.689-2.673zM103 29.917c0-2.243 1.318-4 3-4s3 1.757 3 4c0 2.243-1.318 4-3 4s-3-1.757-3-4zm1.311 0c0 1.449.773 2.673 1.689 2.673.915 0 1.689-1.224 1.689-2.673s-.774-2.674-1.69-2.674c-.915 0-1.688 1.225-1.688 2.674zM112.332 10.917H81.668c-.37 0-.668.224-.668.5s.299.5.668.5h30.664c.369 0 .668-.224.668-.5s-.299-.5-.668-.5"/></svg>