<?xml version="1.0" encoding="UTF-8"?>
<svg width="48px" height="48px" viewBox="0 0 48 48" version="1.1" xmlns="http://www.w3.org/2000/svg" xmlns:xlink="http://www.w3.org/1999/xlink">
    <title>UI/Icons/Beef@1x</title>
    <defs>
        <polygon id="path-1" points="0 0.179867816 46.9803844 0.179867816 46.9803844 34.5977011 0 34.5977011"></polygon>
    </defs>
    <g id="UI/Icons/Beef" stroke="none" stroke-width="1" fill="none" fill-rule="evenodd">
        <g id="Group-16" transform="translate(1.000000, 7.000000)">
            <g>
                <g id="Group-3" transform="translate(0.000000, 0.222471)">
                    <mask id="mask-2" fill="white">
                        <use xlink:href="#path-1"></use>
                    </mask>
                    <g id="Clip-2"></g>
                    <path d="M32.0249237,32.988546 L32.0249237,25.1457299 C32.0265169,25.1469368 32.0277119,25.1477414 32.0293051,25.1489483 C32.9410254,25.9257874 34.0889407,26.5843506 35.537178,26.9946954 L35.537178,32.988546 L32.0249237,32.988546 Z M16.2313305,25.6550402 C16.6451695,25.7821667 17.0693644,25.8843506 17.5055085,25.9571667 L17.5055085,32.988546 L16.2313305,32.988546 L16.2313305,25.6550402 Z M13.3635339,24.2103851 C13.7737881,24.5088908 14.1979831,24.7756149 14.6381102,25.0037184 L14.6381102,32.8103276 L13.3635339,32.8103276 L13.3635339,24.2103851 Z M27.5639068,32.988546 L21.9944068,32.988546 C22.0083475,30.6644655 22.033839,27.5550977 22.0617203,26.0440632 C24.2408475,26.4117644 26.1065085,26.0557299 27.5639068,25.4921092 L27.5639068,32.988546 Z M29.1571271,24.7217069 C29.689661,24.409523 30.117839,24.1001552 30.4317034,23.8491207 L30.4317034,32.8103276 L29.1571271,32.8103276 L29.1571271,24.7217069 Z M13.949839,19.979408 C15.5637712,19.979408 16.8769831,18.6530287 16.8769831,17.0225115 C16.8769831,15.9966494 16.3563983,15.091477 15.5685508,14.5608448 L16.1058644,8.67320115 C16.5806441,8.78584483 17.0331186,8.84417816 17.4612966,8.84417816 C18.1882034,8.84417816 18.8434153,8.67400575 19.4281271,8.34854598 C19.4496356,8.35055747 19.4707458,8.35538506 19.4930508,8.35538506 L31.1586102,8.35538506 C31.1725508,8.35538506 31.1864915,8.35498276 31.2000339,8.35417816 C34.0108729,8.20693678 36.0482034,8.81963793 37.252678,10.1753851 C38.8897119,12.0179138 38.4822458,14.7080862 38.4782627,14.7326264 C38.4710932,14.776477 38.4675085,14.8211322 38.4675085,14.8657874 L38.4675085,24.9176264 L38.4491864,32.6510172 L37.1303983,32.6393506 L37.1303983,26.377569 L37.1303983,26.3751552 L37.1303983,26.1289483 C37.1303983,25.6848103 36.7739153,25.3243506 36.3337881,25.3243506 C35.2181356,25.3243506 33.8698729,24.522569 32.9302712,23.8221667 C30.371161,21.5753276 30.1485085,18.226592 30.1381525,18.0379138 C30.1154492,17.5953851 29.7450254,17.2538333 29.3029068,17.2767644 C28.8635763,17.2992931 28.5250169,17.6770517 28.547322,18.1207874 C28.5489153,18.159408 28.6731864,20.158431 29.7860508,22.2958448 C29.1419915,22.8799828 25.9929915,25.4446379 21.4997119,24.2803851 C21.2627203,24.218431 21.0101949,24.2711322 20.8162203,24.421592 C20.4704915,24.6899253 20.4704915,24.6899253 20.4286695,29.3256149 C20.4167203,30.6423391 20.4075593,31.957454 20.4027797,32.7656724 L19.0987288,32.7656724 L19.0987288,25.2511322 C19.0987288,24.8359598 18.7864576,24.4895805 18.3777966,24.4497529 C17.5071017,24.3656724 16.6921695,24.1592931 15.9258305,23.8366494 C15.8210763,23.7533736 15.6972034,23.6958448 15.5601864,23.6741207 C14.0422458,22.9427414 12.7290339,21.7173391 11.5962542,19.979408 L13.949839,19.979408 Z M6.42864407,17.0225115 C6.42864407,16.2794655 7.02729661,15.6748103 7.7629661,15.6748103 L13.949839,15.6748103 C14.6855085,15.6748103 15.2837627,16.2794655 15.2837627,17.0225115 C15.2837627,17.7659598 14.6855085,18.3702126 13.949839,18.3702126 L7.7629661,18.3702126 C7.02729661,18.3702126 6.42864407,17.7659598 6.42864407,17.0225115 L6.42864407,17.0225115 Z M6.91497458,6.60940805 C6.89705085,6.41107471 6.95400847,6.22802874 7.07509322,6.09366092 C7.19657627,5.9592931 7.3714322,5.88527011 7.56859322,5.88527011 L14.0406525,5.88527011 C14.2374153,5.88527011 14.4130678,5.9592931 14.5341525,6.09366092 C14.6556356,6.22802874 14.7121949,6.41107471 14.6942712,6.60940805 L14.0131695,14.0692356 C13.9920593,14.068431 13.9709492,14.0656149 13.949839,14.0656149 L7.7629661,14.0656149 C7.70680508,14.0656149 7.65223729,14.0712471 7.59647458,14.0740632 L6.91497458,6.60940805 Z M2.78216102,6.99883333 C2.20262712,6.6609023 1.89633051,6.00394828 1.73979661,5.50107471 C2.54477119,5.35343103 3.21750847,5.44153448 3.74526271,5.76417816 C4.28974576,6.09647701 4.60838983,6.63233908 4.78563559,7.05072989 C3.95994915,7.31101724 3.28840678,7.29371839 2.78216102,6.99883333 L2.78216102,6.99883333 Z M17.7727712,5.66963793 C18.2794153,5.37113218 18.9529492,5.35343103 19.781822,5.61452299 C19.604178,6.03371839 19.2855339,6.56917816 18.7414492,6.90107471 C18.2136949,7.22371839 17.5413559,7.31182184 16.7363814,7.16417816 C16.8925169,6.66291379 17.1976186,6.00837356 17.7727712,5.66963793 L17.7727712,5.66963793 Z M46.8964407,21.5359023 L45.2757373,18.2619943 C45.2852966,18.2181437 45.293661,18.1738908 45.2964492,18.1280287 C45.5290593,14.1352126 44.7220932,11.4052126 42.8982542,10.0140632 C41.2982627,8.79228161 39.4098983,8.99061494 38.5081356,9.18572989 C38.4882203,9.16239655 38.4714915,9.13785632 38.4507797,9.11452299 C36.9125254,7.37256897 34.4533898,6.57521264 31.1382966,6.74618966 L20.9994407,6.74618966 C21.4204492,5.99187931 21.5423305,5.31320115 21.5502966,5.26572989 C21.6112373,4.90245402 21.4200508,4.54360345 21.0858729,4.39475287 C19.4560085,3.66981034 18.0711017,3.63118966 16.9701864,4.2796954 C16.5236864,4.54279885 16.1783559,4.89279885 15.9095,5.26774138 C15.8493559,5.17802874 15.7852288,5.09072989 15.7115424,5.00946552 C15.2845593,4.53676437 14.6910847,4.27607471 14.0406525,4.27607471 L13.7486949,4.27607471 C15.0889915,3.54308621 15.9489322,2.3546954 15.9489322,0.984465517 C15.9489322,0.540327586 15.5924492,0.179867816 15.152322,0.179867816 C14.7125932,0.179867816 14.3557119,0.540327586 14.3557119,0.984465517 C14.3557119,2.31728161 12.6115339,3.44291379 10.5467203,3.44291379 C8.48230508,3.44291379 6.73812712,2.31728161 6.73812712,0.984465517 C6.73812712,0.540327586 6.38124576,0.179867816 5.94151695,0.179867816 C5.50138983,0.179867816 5.14490678,0.540327586 5.14490678,0.984465517 C5.14490678,2.36113218 6.01241525,3.55394828 7.3634661,4.28653448 C6.79388983,4.33561494 6.27927966,4.58664943 5.89770339,5.00946552 C5.79852542,5.1192931 5.71249153,5.23797126 5.63800847,5.36268391 C5.36875424,5.00986782 5.02661017,4.66952299 4.58767797,4.39797126 C3.5015,3.72613218 2.14566949,3.64044253 0.558025424,4.14371839 C0.197559322,4.25797126 -0.0338559322,4.61239655 0.00398305085,4.99216667 C0.0135423729,5.08871839 0.259694915,7.37578736 1.974,8.38555747 C2.49338983,8.6917069 3.07611017,8.84458046 3.71857627,8.84458046 C4.26584746,8.84458046 4.85733051,8.73153448 5.48824576,8.50906322 L6.0474661,14.6316494 C5.31458475,15.1699253 4.83542373,16.0396954 4.83542373,17.0225115 C4.83542373,18.6530287 6.14863559,19.979408 7.7629661,19.979408 L9.72700847,19.979408 C10.3479661,21.0640057 11.0334492,22.006592 11.7818644,22.8051552 C11.7766864,22.8429713 11.7703136,22.8811897 11.7703136,22.9210172 L11.7703136,32.988546 L8.80891525,32.988546 C8.75315254,32.0781437 9.04351695,31.5539483 9.67244068,30.7936034 C9.88394068,30.5377414 9.85048305,30.1571667 9.59716102,29.943546 C9.34383898,29.7299253 8.96704237,29.7641207 8.75554237,30.0195805 C7.98960169,30.9452701 7.55783898,31.7377989 7.61519492,32.988546 L6.96874576,32.988546 C6.96874576,32.9857299 6.96914407,32.9833161 6.96874576,32.9805 C6.85761864,31.8460172 6.96516102,30.6668793 7.27982203,29.5714195 C7.3714322,29.251592 7.18900847,28.9168793 6.87195763,28.8239483 C6.55490678,28.729408 6.22391525,28.9156724 6.13190678,29.2359023 C5.78577966,30.4419943 5.66310169,31.736592 5.77144068,32.988546 L5.08237288,32.988546 C5.12658475,32.8819368 5.14132203,32.7616494 5.11782203,32.6397529 C4.95929661,31.8162471 4.53828814,31.047454 3.9320678,30.4745805 C3.69149153,30.246477 3.3135,30.2593506 3.08766102,30.5023391 C2.86222034,30.7461322 2.8745678,31.1279138 3.11554237,31.3552126 C3.53933898,31.7563046 3.83408475,32.2941782 3.94521186,32.8698678 C3.95357627,32.9133161 3.97388983,32.949523 3.99061864,32.988546 L2.86142373,32.988546 C2.42129661,32.988546 2.06481356,33.3490057 2.06481356,33.7931437 C2.06481356,34.2372816 2.42129661,34.5977414 2.86142373,34.5977414 L43.0954153,34.5977414 C43.5355424,34.5977414 43.8920254,34.2372816 43.8920254,33.7931437 C43.8920254,33.3490057 43.5355424,32.988546 43.0954153,32.988546 L40.0416102,32.988546 L40.0607288,24.9192356 L40.0607288,14.9253276 C40.1164915,14.5169943 40.3152458,12.5763046 39.4481356,10.669408 C40.1535339,10.6082586 41.1317712,10.677454 41.9482966,11.3054425 C43.287,12.3361322 43.8948136,14.6441207 43.7084068,17.9807874 C43.700839,17.9960747 43.6892881,18.0081437 43.6829153,18.0242356 L42.2267119,21.5890057 C42.1251441,21.8372241 42.1534237,22.1200402 42.3011949,22.3433161 C42.4489661,22.566592 42.6971102,22.7005575 42.963178,22.7005575 L46.1838729,22.7005575 C46.4598983,22.7005575 46.7164068,22.5557299 46.8613898,22.3191782 C47.0067712,22.0818218 47.0195169,21.7853276 46.8964407,21.5359023 L46.8964407,21.5359023 Z" id="Fill-1" fill="#37464C" mask="url(#mask-2)"></path>
                </g>
                <path d="M9.24083729,9.33003448 C9.24083729,8.83158621 8.84093898,8.42767816 8.34704068,8.42767816 C7.85393898,8.42767816 7.45364237,8.83158621 7.45364237,9.33003448 C7.45364237,9.82848276 7.85393898,10.2327931 8.34704068,10.2327931 C8.84093898,10.2327931 9.24083729,9.82848276 9.24083729,9.33003448" id="Fill-4" fill="#37464C"></path>
                <path d="M13.1933381,10.2326322 C13.6868381,10.2326322 14.0871347,9.82872414 14.0871347,9.32987356 C14.0871347,8.83182759 13.6868381,8.42751724 13.1933381,8.42751724 C12.6998381,8.42751724 12.2995415,8.83182759 12.2995415,9.32987356 C12.2995415,9.82872414 12.6998381,10.2326322 13.1933381,10.2326322" id="Fill-6" fill="#37464C"></path>
                <path d="M23.7579424,13.9666897 C24.1976712,13.9666897 24.5545525,13.6062299 24.5545525,13.162092 L24.5545525,12.0927816 C24.5545525,11.6482414 24.1976712,11.2881839 23.7579424,11.2881839 C23.3182136,11.2881839 22.9613322,11.6482414 22.9613322,12.0927816 L22.9613322,13.162092 C22.9613322,13.6062299 23.3182136,13.9666897 23.7579424,13.9666897" id="Fill-8" fill="#37464C"></path>
                <path d="M25.4785805,19.1804425 C25.9183093,19.1804425 26.2751907,18.8199828 26.2751907,18.3758448 L26.2751907,17.3065345 C26.2751907,16.8619943 25.9183093,16.5019368 25.4785805,16.5019368 C25.0388517,16.5019368 24.6819703,16.8619943 24.6819703,17.3065345 L24.6819703,18.3758448 C24.6819703,18.8199828 25.0388517,19.1804425 25.4785805,19.1804425" id="Fill-10" fill="#37464C"></path>
                <path d="M26.9490831,15.748954 C27.3888119,15.748954 27.7456932,15.3884943 27.7456932,14.9443563 L27.7456932,13.875046 C27.7456932,13.4305057 27.3888119,13.0704483 26.9490831,13.0704483 C26.5093542,13.0704483 26.1524729,13.4305057 26.1524729,13.875046 L26.1524729,14.9443563 C26.1524729,15.3884943 26.5093542,15.748954 26.9490831,15.748954" id="Fill-12" fill="#37464C"></path>
                <path d="M21.3019932,16.9076954 C21.741722,16.9076954 22.0986034,16.5472356 22.0986034,16.1030977 L22.0986034,15.0333851 C22.0986034,14.5892471 21.741722,14.2287874 21.3019932,14.2287874 C20.8622644,14.2287874 20.5053831,14.5892471 20.5053831,15.0333851 L20.5053831,16.1030977 C20.5053831,16.5472356 20.8622644,16.9076954 21.3019932,16.9076954" id="Fill-14" fill="#37464C"></path>
            </g>
        </g>
    </g>
</svg>