<?xml version="1.0" encoding="UTF-8"?>
<svg width="49px" height="38px" viewBox="0 0 49 38" version="1.1" xmlns="http://www.w3.org/2000/svg" xmlns:xlink="http://www.w3.org/1999/xlink">
    <title>29214186-A59B-4A53-B55B-5B16C44EE7C1</title>
    <defs>
        <polygon id="path-1" points="0.0486 0.814368977 25.097 0.814368977 25.097 28 0.0486 28"></polygon>
        <polygon id="path-3" points="0 0.776121316 25.0486 0.776121316 25.0486 28 0 28"></polygon>
    </defs>
    <g id="Modals" stroke="none" stroke-width="1" fill="none" fill-rule="evenodd">
        <g id="Recommendations---Desktop---Overlay---Tab-1" transform="translate(-697.000000, -674.000000)">
            <g id="Modal" transform="translate(303.000000, 112.000000)">
                <g id="Group-11" transform="translate(60.000000, 471.000000)">
                    <g id="Oval" transform="translate(0.000000, 37.000000)">
                        <g id="Group-14-Copy" transform="translate(242.000000, 0.000000)">
                            <g id="Group-12" transform="translate(70.000000, 30.000000)">
                                <g id="meal-plan2" transform="translate(22.000000, 24.000000)">
                                    <g id="Group-3" transform="translate(23.000000, 9.258800)">
                                        <mask id="mask-2" fill="white">
                                            <use xlink:href="#path-1"></use>
                                        </mask>
                                        <g id="Clip-2"></g>
                                        <path d="M1.0486,28 C0.4956,28 0.0486,27.553 0.0486,27 C0.0486,26.447 0.4956,26 1.0486,26 C12.8776,26 20.5286,23.133 22.6326,20.468 C22.8916,20.141 23.1786,19.66 23.0756,19.232 C22.9756,18.811 22.7576,17.711 22.4726,16.273 C21.8116,12.933 20.8126,7.884 20.0846,5.268 C19.9526,4.871 18.7456,3.445 17.3396,2.698 C16.8526,2.439 16.6666,1.834 16.9266,1.346 C17.1856,0.858 17.7906,0.671 18.2786,0.933 C19.9236,1.808 21.7036,3.619 22.0126,4.733 C22.7596,7.421 23.7676,12.515 24.4356,15.886 C24.7116,17.286 24.9236,18.357 25.0216,18.769 C25.1806,19.435 25.1676,20.485 24.2026,21.707 C21.7306,24.84 13.6116,28 1.0486,28" id="Fill-1" fill="#623B2A" mask="url(#mask-2)"></path>
                                    </g>
                                    <g id="Group-6" transform="translate(0.000000, 9.258800)">
                                        <mask id="mask-4" fill="white">
                                            <use xlink:href="#path-3"></use>
                                        </mask>
                                        <g id="Clip-5"></g>
                                        <path d="M24.0486,28 C11.4866,28 3.3686,24.84 0.8956,21.708 C-0.0694,20.485 -0.0834,19.435 0.0756,18.769 C0.1746,18.354 0.3886,17.271 0.6686,15.856 C1.3346,12.494 2.3406,7.413 3.0846,4.732 C3.3986,3.604 5.2556,1.736 6.9066,0.887 C7.3996,0.634 8.0006,0.829 8.2536,1.319 C8.5056,1.811 8.3126,2.413 7.8206,2.666 C6.3866,3.403 5.1496,4.856 5.0106,5.272 C4.2876,7.876 3.2906,12.912 2.6306,16.244 C2.3436,17.696 2.1226,18.809 2.0216,19.232 C1.9196,19.66 2.2056,20.141 2.4646,20.469 C4.5696,23.133 12.2206,26 24.0486,26 C24.6016,26 25.0486,26.447 25.0486,27 C25.0486,27.553 24.6016,28 24.0486,28" id="Fill-4" fill="#623B2A" mask="url(#mask-4)"></path>
                                    </g>
                                    <path d="M24.0486,21.2588 C22.2846,21.2588 20.5486,21.1658 18.8906,20.9838 C18.3416,20.9228 17.9446,20.4288 18.0056,19.8798 C18.0666,19.3308 18.5516,18.9348 19.1096,18.9948 C20.6956,19.1698 22.3576,19.2588 24.0486,19.2588 C30.6546,19.2588 37.1266,17.9088 39.7866,15.9778 C40.2356,15.6528 40.8606,15.7518 41.1836,16.1978 C41.5086,16.6458 41.4086,17.2708 40.9626,17.5948 C37.9456,19.7858 31.1486,21.2588 24.0486,21.2588" id="Fill-7" fill="#623B2A"></path>
                                    <path d="M26.0623,15.3418 L26.0603,15.3418 C25.5073,15.3408 25.0613,14.8918 25.0623,14.3398 C25.0653,12.8078 24.0333,11.4548 22.5513,11.0508 C21.3783,10.7308 20.1203,11.0658 19.2573,11.9188 C18.8663,12.3068 18.2333,12.3048 17.8433,11.9108 C17.4553,11.5198 17.4583,10.8858 17.8513,10.4968 C19.2193,9.1418 21.2233,8.6148 23.0773,9.1208 C25.4283,9.7618 27.0673,11.9098 27.0623114,14.3438 C27.0613,14.8958 26.6143,15.3418 26.0623,15.3418" id="Fill-9" fill="#623B2A"></path>
                                    <path d="M12.0437,21.2588 C9.2167,21.2588 6.9167,18.9588 6.9167,16.1318 C6.9167,15.1138 7.2127,14.1438 7.7667,13.3138 C6.6447,12.2708 5.9997,10.8178 5.9997,9.2538 C5.9997,7.5498 6.7637,5.9608 8.0947,4.8928 C9.1647,4.0348 10.4797,3.6068 11.8467,3.6788 C12.6337,1.4998 14.7057,-0.0002 17.0877,-0.0002 C18.3367,-0.0002 19.5127,0.4068 20.4807,1.1608 C21.3697,0.5738 22.4147,0.2588 23.4997,0.2588 C25.0647,0.2588 26.5497,0.9448 27.5827,2.1018 C28.4517,1.5528 29.4567,1.2588 30.4997,1.2588 C32.6217,1.2588 34.5277,2.4958 35.4337,4.3658 C35.7847,4.2948 36.1417,4.2588 36.4997,4.2588 C39.5317,4.2588 41.9997,6.7268 41.9997,9.7588 C41.9997,11.5988 41.0857,13.3088 39.5557,14.3318 C39.0967,14.6388 38.4747,14.5168 38.1687,14.0568 C37.8607,13.5978 37.9847,12.9768 38.4437,12.6698 C39.4177,12.0188 39.9997,10.9298 39.9997,9.7588 C39.9997,7.8288 38.4297,6.2588 36.4997,6.2588 C36.0617,6.2588 35.6237,6.3458 35.1997,6.5158 C34.9347,6.6218 34.6367,6.6108 34.3817,6.4838 C34.1257,6.3558 33.9367,6.1248 33.8617,5.8498 C33.4477,4.3238 32.0657,3.2588 30.4997,3.2588 C29.5957,3.2588 28.7357,3.6088 28.0777,4.2418 C27.8567,4.4548 27.5547,4.5578 27.2437,4.5128 C26.9397,4.4698 26.6717,4.2888 26.5177,4.0228 C25.8797,2.9178 24.7507,2.2588 23.4997,2.2588 C22.6087,2.2588 21.7617,2.5928 21.1117,3.1988 C20.9177,3.3808 20.6617,3.4898 20.3937,3.4678 C20.1267,3.4578 19.8757,3.3428 19.6947,3.1478 C19.0107,2.4068 18.0847,1.9998 17.0877,1.9998 C15.3517,1.9998 13.8707,3.2438 13.5667,4.9588 C13.5207,5.2278 13.3647,5.4648 13.1377,5.6158 C12.9107,5.7668 12.6297,5.8178 12.3657,5.7608 C11.2887,5.5188 10.1917,5.7748 9.3457,6.4528 C8.4897,7.1398 7.9997,8.1598 7.9997,9.2538 C7.9997,10.4998 8.6437,11.6388 9.7227,12.2998 C9.9867,12.4618 10.1607,12.7378 10.1937,13.0458 C10.2277,13.3548 10.1147,13.6608 9.8907,13.8748 C9.2627,14.4758 8.9167,15.2768 8.9167,16.1318 C8.9167,17.8568 10.3187,19.2588 12.0437,19.2588 C13.7687,19.2588 15.1707,17.8568 15.1707,16.1318 C15.1707,15.5788 15.6177,15.1318 16.1707,15.1318 C16.7237,15.1318 17.1707,15.5788 17.1707,16.1318 C17.1707,18.9588 14.8707,21.2588 12.0437,21.2588" id="Fill-11" fill="#623B2A"></path>
                                    <path d="M24.8748,12.334 C24.7048,12.334 24.5328,12.291 24.3758,12.2 C23.8968,11.924 23.7328,11.312 24.0098,10.834 C24.8838,9.322 26.4438,8.363 28.1868,8.268 C30.0098,8.149 31.7768,9.057 32.7808,10.592 C33.0838,11.054 32.9538,11.674 32.4908,11.976 C32.0308,12.278 31.4078,12.148 31.1068,11.686 C30.4938,10.746 29.4128,10.206 28.2968,10.264 C27.2308,10.323 26.2758,10.91 25.7418,11.834 C25.5568,12.155 25.2208,12.334 24.8748,12.334" id="Fill-13" fill="#623B2A"></path>
                                </g>
                            </g>
                        </g>
                    </g>
                </g>
            </g>
        </g>
    </g>
</svg>