<?xml version="1.0" encoding="UTF-8"?>
<svg width="48px" height="48px" viewBox="0 0 48 48" version="1.1" xmlns="http://www.w3.org/2000/svg" xmlns:xlink="http://www.w3.org/1999/xlink">
    <title>UI/Icons/Lazy@1x</title>
    <defs>
        <polygon id="path-1" points="0.29081011 0.247694118 38.6599514 0.247694118 38.6599514 24.6405153 0.29081011 24.6405153"></polygon>
        <polygon id="path-3" points="0 0.164181863 46.8870309 0.164181863 46.8870309 19.4470588 0 19.4470588"></polygon>
    </defs>
    <g id="UI/Icons/Lazy" stroke="none" stroke-width="1" fill="none" fill-rule="evenodd">
        <g id="Group-7" transform="translate(1.000000, 10.000000)">
            <g>
                <g id="Group-3" transform="translate(3.381295, 0.093551)">
                    <mask id="mask-2" fill="white">
                        <use xlink:href="#path-1"></use>
                    </mask>
                    <g id="Clip-2"></g>
                    <path d="M36.6305489,18.7429388 C35.9292683,18.7299741 35.2056712,18.7002918 34.5125058,18.0790094 C33.5133331,17.1823976 32.4745993,16.9715506 31.6563259,16.9517624 C31.6536209,16.4904918 31.6573403,15.9841859 31.6935201,15.8501035 C31.7154986,15.8006329 31.7418727,15.75048 31.7712899,15.6999859 C31.8355345,15.7347859 31.9051892,15.76208 31.9812683,15.7743624 C33.121441,15.9599624 34.2159662,16.2994329 35.374736,16.6593741 C35.6154842,16.7340918 35.8562324,16.8088094 36.0976568,16.8818212 C36.8290309,17.1042682 37.2635273,17.4010918 37.2902396,17.6972329 C37.3240525,18.07048 36.868254,18.5723506 36.6305489,18.7429388 M30.3082036,17.4137153 C30.3125993,17.8439388 30.3203763,18.4935388 30.2879158,18.6450212 C30.2642468,18.7337271 30.2449734,18.84768 30.2253619,18.9790329 C30.1448871,19.5201388 30.0671173,20.0322447 29.0605058,20.1260682 L29.0605058,19.3976565 C29.4547647,19.2526565 29.7289878,18.94628 29.7289878,18.5887271 C29.7289878,18.0916329 29.2025201,17.6883624 28.5536496,17.6883624 C27.904441,17.6883624 27.3783115,18.0916329 27.3783115,18.5887271 C27.3783115,18.94628 27.6521964,19.2523153 28.0461173,19.3976565 L28.0461173,20.1066212 C27.1717144,19.9749271 27.0969878,19.4904565 27.0205705,18.9790329 C27.000959,18.84768 26.9816856,18.7337271 26.9590309,18.6515035 C26.9255561,18.4935388 26.932995,17.8439388 26.9377288,17.4137153 C26.9515921,16.2120918 26.9424626,15.6491506 26.7909806,15.3021741 C26.6699302,15.0234329 26.5066137,14.7863153 26.3517504,14.5737624 C26.5015417,14.6232329 26.6624914,14.6522329 26.8302036,14.6522329 C27.379664,14.6522329 27.8760381,14.3618918 28.0954842,13.9122212 C28.2192396,13.6587271 28.1157719,13.3520094 27.8645417,13.2271388 C27.6126353,13.1026094 27.3096712,13.2066682 27.1852396,13.4601624 C27.1443259,13.5440918 27.0090741,13.6287035 26.8302036,13.6287035 C26.6438942,13.6287035 26.4995129,13.5355624 26.4677288,13.4454918 C26.3733906,13.1797153 26.0832755,13.0398329 25.8195345,13.1357035 C25.7931604,13.1452565 25.7691532,13.15788 25.7458223,13.1711859 C25.6896928,12.5188565 25.8404986,11.7508682 26.2875058,11.1872447 C26.5214914,10.8928094 26.4738151,10.4636094 26.1823475,10.2278565 C25.8908799,9.99312706 25.4651748,10.0402094 25.2315273,10.3346447 C24.5650741,11.1749624 24.2732683,12.3796565 24.4105489,13.4625506 C24.3740309,13.5205506 24.3449518,13.5836682 24.3266928,13.6515624 C24.2144338,13.8180565 23.8938871,14.1022565 23.6818799,14.2175741 C22.6147432,12.9900212 22.4189662,11.3066565 22.7114482,10.14188 C22.7932755,9.81571529 23.4100237,9.50865647 23.9544122,9.23776235 C24.6756424,8.87884471 25.4208799,8.50798588 25.776254,7.80720941 C25.9466712,7.47183294 25.8161532,7.06071529 25.4834338,6.88876235 C25.1500381,6.71715059 24.7432683,6.84952706 24.5731892,7.18456235 C24.4213691,7.48377412 23.8553403,7.76558588 23.355923,8.01396235 C22.5494842,8.41552706 21.6355201,8.87031529 21.4005201,9.80650353 C21.0316209,11.2745859 21.1922324,13.6014094 22.8585345,15.3277624 C22.961664,15.4355741 23.201736,15.6293624 23.5824698,15.6293624 C23.736995,15.6293624 23.9155273,15.5972918 24.1160381,15.5150682 C24.3513763,15.4185153 24.6702324,15.2124447 24.9579806,14.9569035 C25.0360885,15.0749506 25.1169014,15.1851506 25.1929806,15.2885271 C25.3377,15.4843624 25.4736281,15.66928 25.5426065,15.8241741 C25.5534266,15.8623859 25.5615417,15.9282329 25.5679662,16.0046565 C25.2166496,16.4034918 24.058218,16.6109271 23.219995,16.5235859 C22.499441,16.4478447 21.802218,16.1349859 21.0627288,15.8040447 L20.7885058,15.6815624 C19.9918727,15.3291271 19.0664122,14.9633859 18.0692683,14.9654329 C18.091923,14.6904447 18.0966568,14.4093153 18.073664,14.1223859 C17.8873547,11.7788447 16.1713475,10.0054094 14.4299806,8.38993882 C14.1550813,8.13473882 13.7273475,8.15248 13.4747647,8.43019765 C13.2218439,8.70757412 13.2394266,9.13950353 13.514664,9.39436235 C15.1228079,10.8863271 16.5781173,12.3786329 16.7255417,14.2315624 C16.8378007,15.6447153 16.1250237,16.9541506 15.5072612,17.80368 L15.4720957,17.8517859 C15.2682036,18.1312094 15.0142683,18.4788682 14.9493475,18.9418447 C14.8485849,19.6549035 15.2607647,20.4013976 15.9745561,20.7988682 C16.4739734,21.0772682 17.0143043,21.1540329 17.4910669,21.2222682 L17.5779662,21.2345506 C18.4449302,21.3594212 19.3145993,21.5364918 20.1626281,21.7599624 C20.898736,21.9544329 21.7457504,22.3675976 21.7775345,22.9042682 C21.7741532,22.9100682 21.7711101,22.9158682 21.7677288,22.9223506 C21.7548799,22.9465741 21.7400022,22.9745506 21.7244482,23.0055976 C21.3477719,23.1997271 20.0077647,23.4996212 18.7702108,23.0144682 C18.5429878,22.9254212 17.7865921,22.5473976 17.6395058,22.4228682 C17.0400022,21.8769859 16.2386353,21.7200447 15.6540094,21.6054094 C13.6458583,21.2120329 12.6649446,20.9960682 12.1858151,20.8797271 L13.7408727,15.4304565 C13.8440022,15.0681271 13.6370669,14.6901035 13.2783115,14.5857035 C12.9198942,14.4823271 12.5449086,14.6907859 12.4411029,15.0527741 L11.9951101,16.6163859 C10.6567935,16.9524447 9.24848417,16.94528 7.91523957,16.5901153 C7.13618921,16.3830212 6.06296619,15.9568918 5.3741964,15.1039506 C4.92989424,14.5536329 4.44366403,12.9572682 5.78333309,10.8545976 C5.98553453,10.5376447 5.8945777,10.1152682 5.5804554,9.91158588 C5.26599496,9.70790353 4.84772878,9.79968 4.64586547,10.1166329 C3.10906691,12.5280682 3.37754173,14.7921153 4.32565683,15.9657624 C4.34898777,15.9947624 4.37603813,16.0213741 4.40038345,16.0496918 C4.89371439,16.9005859 5.77149856,17.5164094 6.62493741,18.1103976 C7.25250576,18.5474447 7.84524676,18.9602682 8.12927554,19.3717271 C8.3179518,19.6456918 8.30679353,19.7794329 8.29901655,19.8135506 C8.28211007,19.8862212 8.19318201,19.9585506 8.12183669,19.9984682 C7.03779353,20.6057624 5.32652014,19.4925035 4.30401655,18.8272094 L4.01660647,18.6412682 C0.74351295,16.5549741 1.81369281,13.0517741 1.82552734,13.0169741 C1.84818201,12.9504447 1.87759928,12.85628 1.9144554,12.7382329 C3.07153453,9.04295059 4.52447698,6.88364471 6.23304532,6.32002118 C7.29646259,5.96963294 8.40316043,5.67417412 9.47334029,5.38826824 C9.84562086,5.28864471 10.2182396,5.18936235 10.590182,5.08735059 C11.9197072,4.72297412 13.2015561,4.20268 14.441477,3.69944471 C15.4183331,3.30299765 16.4283259,2.89290353 17.4356137,2.57185647 C19.807254,1.81649176 22.2691748,1.50431529 24.7517216,1.64488 C26.8744986,1.76531529 28.4613403,2.24671529 29.6018511,3.11671529 C30.8701748,4.08497412 31.5839662,5.02218588 31.4777935,6.94676235 C31.4754266,6.98975059 31.4771173,7.03273882 31.4825273,7.07504471 C31.5582683,7.64515059 32.4035921,8.56359765 33.9275417,9.73076235 C34.158146,9.90783294 34.4080237,10.4465506 34.4455561,11.2510447 C34.4874842,12.1493624 34.2413259,13.3772565 33.4392827,14.21928 C33.2391101,14.1182918 32.9297216,13.8511506 32.8012324,13.6788565 C33.0098583,12.5427388 32.7254914,11.2315976 32.014405,10.3346447 C31.7810957,10.0402094 31.3550525,9.99278588 31.063923,10.2278565 C30.7721173,10.4636094 30.7247791,10.8928094 30.9587647,11.1872447 C31.4287647,11.7805506 31.5741604,12.60108 31.491995,13.2735388 C31.468664,13.25648 31.444995,13.2404447 31.4186209,13.2271388 C31.1670525,13.1026094 30.8630741,13.2059859 30.7393187,13.4598212 C30.6980669,13.5437506 30.5628151,13.6287035 30.3832683,13.6287035 C30.1979734,13.6287035 30.053254,13.5355624 30.0214698,13.4454918 C29.9271317,13.1797153 29.6366784,13.0398329 29.3732755,13.1357035 C29.1095345,13.2305506 28.972254,13.5236212 29.0659158,13.7897388 C29.2485058,14.3055976 29.7780165,14.6522329 30.3832683,14.6522329 C30.5668727,14.6522329 30.7433763,14.6174329 30.9066928,14.5573859 C30.7484482,14.7740329 30.5793835,15.0159271 30.4549518,15.3021741 C30.3038079,15.6491506 30.2943403,16.2120918 30.3082036,17.4137153 M18.7901604,19.1445035 C19.3761388,18.9937035 19.929995,18.8514329 20.4260309,18.9384329 C20.8138655,19.0059859 21.1455705,19.3051976 21.2148871,19.6494447 C21.287923,20.0138212 20.6180885,20.3430565 20.4398942,20.4235741 C19.5627863,20.1946447 18.6647144,20.0127976 17.7693475,19.8834918 L17.6804194,19.8708682 C17.2841317,19.8145741 16.9098223,19.7610094 16.6284986,19.6040682 C16.4641676,19.5126329 16.3383835,19.3628565 16.3011892,19.2328682 C16.3725345,19.2823388 16.4543619,19.3188447 16.5443043,19.3382918 C17.3625777,19.5126329 18.1818655,19.3011035 18.7901604,19.1445035 M35.5072827,13.9197271 C35.7527647,13.9845506 35.9840453,14.0456212 36.3191317,14.1483153 C36.9051101,14.3281153 37.2831388,14.5764918 37.3051173,14.7965506 C37.3341964,15.0814329 36.9483906,15.5259859 36.7465273,15.6631388 C36.6623331,15.6331153 36.5791532,15.6030918 36.487182,15.5751153 C36.2488007,15.5027859 36.0104194,15.4287506 35.7723763,15.3547153 C35.3760885,15.2318918 34.9737144,15.1097506 34.5676209,14.9910212 C34.8540165,14.6566682 35.0913835,14.2738682 35.2827647,13.85968 C35.3598583,13.8804918 35.434923,13.9006212 35.5072827,13.9197271 M37.9901676,16.3516329 C38.3066568,15.9971506 38.5676928,15.5427035 38.6380237,15.0981506 C38.7310094,14.5048447 38.6048871,13.4226329 36.7123763,12.8426329 C36.356664,12.7334565 36.111182,12.6686329 35.850146,12.5997153 C35.7997647,12.5864094 35.7490453,12.5727624 35.6956209,12.5584329 C35.7791388,12.11388 35.8190381,11.6543153 35.7963835,11.1865624 C35.742959,10.0415741 35.3598583,9.11493882 34.7451388,8.64411529 C33.3662468,7.58749176 32.9486568,7.03615059 32.8357216,6.85464471 C32.9232971,4.30639765 31.7280094,3.02835059 30.4174194,2.02836235 C29.0557719,0.98948 27.2271676,0.418350588 24.8278007,0.282221176 C22.1788942,0.133468235 19.5570381,0.465091765 17.0285058,1.27060941 C15.9715129,1.60700941 14.9371748,2.02699765 13.9366496,2.43333882 C12.7329086,2.92190353 11.4889302,3.42684471 10.2354842,3.77040941 C9.86658489,3.87173882 9.49667122,3.97033882 9.12709568,4.06893882 C8.03831871,4.35962118 6.91302374,4.66019765 5.81275036,5.02320941 C2.57786547,6.08972706 1.10767842,10.7843153 0.624829496,12.3271153 C0.591692806,12.43288 0.565318705,12.5178329 0.545030935,12.5775388 C0.123045324,13.8286329 -0.205278417,17.5641741 3.29402374,19.7951271 L3.5709518,19.9739035 C4.53191583,20.5996212 5.98046259,21.5422918 7.40263525,21.5422918 C7.86993022,21.5422918 8.33485827,21.44028 8.77848417,21.1915624 C9.03241942,21.0492918 9.47841223,20.7214212 9.61636906,20.1219741 C9.72862806,19.6330682 9.6018295,19.1185741 9.23935468,18.59248 C9.13453453,18.4403153 9.01280791,18.2963388 8.8785705,18.1581624 C9.2545705,18.2031976 9.63226115,18.2284447 10.0102899,18.2284447 C10.5333763,18.2284447 11.0561245,18.18068 11.5734626,18.0943624 L10.7967791,20.8162682 C10.7531604,20.9684329 10.6513835,21.3253035 10.8441173,21.68388 C11.0327935,22.0339271 11.0666065,22.0970447 15.3960165,22.9452094 C15.9721892,23.0577976 16.436441,23.1656094 16.7333187,23.4361624 C17.0954554,23.7653976 18.175441,24.2454329 18.279923,24.2867153 C18.9355561,24.54328 19.6108007,24.6405153 20.2299158,24.6405153 C21.0924842,24.6405153 21.8454986,24.4521859 22.2816856,24.2467976 C22.5065417,24.1413741 22.8169446,23.9612329 22.9295417,23.6258565 C22.937995,23.6057271 22.9491532,23.5869624 22.9592971,23.5681976 C23.0184698,23.4566329 23.1175417,23.2706918 23.1290381,23.0212918 C23.1638655,22.2410212 22.7361317,21.5528682 21.9455849,21.0475859 C22.4483835,20.5747153 22.6651245,19.9988094 22.5403547,19.3778682 C22.3587791,18.4761388 21.6023835,17.7589859 20.6573115,17.5935153 C19.8758942,17.4570447 19.1215273,17.6511741 18.4462827,17.8248329 C17.9069662,17.9636918 17.4203978,18.0742329 16.9889446,18.0281741 C17.2932612,17.5375624 17.5843906,16.9640447 17.7909878,16.3301388 C17.8207432,16.3321859 17.8501604,16.3352565 17.8809302,16.3332094 C18.6816209,16.2731624 19.5208583,16.6109271 20.2451317,16.9312918 L20.5139446,17.0513859 C21.3163259,17.4109859 22.1464338,17.7832094 23.0806856,17.8807859 C23.2463691,17.8981859 23.4303115,17.9077388 23.6250741,17.9077388 C24.2394554,17.9077388 24.9623763,17.8125506 25.5838583,17.5662212 C25.5767576,18.2939506 25.5798007,18.7354329 25.6528367,19.0046212 C25.6656856,19.0513624 25.6727863,19.1124329 25.6829302,19.1823741 C25.7745633,19.7927388 26.0156496,21.4143506 28.3713978,21.5033976 L28.8998942,21.5027153 C31.2299446,21.4143506 31.4717072,19.7927388 31.5630022,19.1823741 C31.573146,19.1124329 31.5799086,19.0513624 31.5930957,19.0049624 C31.6360381,18.8452918 31.6546353,18.6231859 31.6613978,18.31988 C32.2561676,18.3413741 32.9462899,18.49968 33.6140957,19.0987859 C34.7005058,20.0731859 35.8826065,20.0943388 36.6653763,20.1083271 L36.7526137,20.1100329 C36.7563331,20.1103741 36.7603906,20.1103741 36.7644482,20.1103741 C37.4008079,20.1103741 38.4632108,19.0407859 38.6217935,18.0251035 C38.688405,17.5969271 38.6430957,16.9343624 37.9901676,16.3516329" id="Fill-1" fill="#37464C" mask="url(#mask-2)"></path>
                </g>
                <g id="Group-6" transform="translate(0.000000, 9.305315)">
                    <mask id="mask-4" fill="white">
                        <use xlink:href="#path-3"></use>
                    </mask>
                    <g id="Clip-5"></g>
                    <path d="M23.4434986,19.4470929 C10.2977,19.4470929 -3.38129496e-05,14.17694 -3.38129496e-05,7.44894 C-3.38129496e-05,6.71711647 0.126088489,5.98495176 0.375289928,5.27155176 C0.499383453,4.91604588 0.885189209,4.72874 1.23785827,4.85497529 C1.59018921,4.98018706 1.77514604,5.36981059 1.65105252,5.72531647 C1.45290863,6.29235176 1.35248417,6.87235176 1.35248417,7.44894 C1.35248417,13.3123988 11.2627216,18.0823871 23.4434986,18.0823871 C35.6242755,18.0823871 45.5345129,13.3123988 45.5345129,7.44894 C45.5345129,4.72942235 43.370146,2.66394 41.5537144,1.40943412 C41.2450022,1.19688118 41.166218,0.772116471 41.3772108,0.461304706 C41.5885417,0.150151765 42.0084986,0.0706576471 42.3172108,0.283551765 C45.3066137,2.34766941 46.8870309,4.82563412 46.8870309,7.44894 C46.8870309,14.17694 36.5892971,19.4470929 23.4434986,19.4470929" id="Fill-4" fill="#37464C" mask="url(#mask-4)"></path>
                </g>
            </g>
        </g>
    </g>
</svg>