<svg fill="none" height="20" viewBox="0 0 20 20" width="20" xmlns="http://www.w3.org/2000/svg"><path d="m17.5 9.58336c.0029 1.09984-.2541 2.18494-.75 3.16664-.588 1.1765-1.4919 2.166-2.6105 2.8578-1.1185.6917-2.4076 1.0584-3.7228 1.0589-1.09992.0029-2.18494-.2541-3.1667-.75l-4.75 1.5833 1.58333-4.75c-.49589-.9817-.75286-2.0668-.75-3.16664.00051-1.31521.36718-2.60429 1.05894-3.72288.69175-1.11858 1.68128-2.02248 2.85773-2.61046.98176-.49589 2.06678-.75286 3.1667-.75h.4166c1.737.09583 3.3776.82897 4.6076 2.05905 1.2301 1.23008 1.9633 2.87066 2.0591 4.60762z" stroke="#000" stroke-linecap="round" stroke-linejoin="round"/></svg>