<?xml version="1.0" encoding="UTF-8"?>
<svg width="48px" height="48px" viewBox="0 0 48 48" version="1.1" xmlns="http://www.w3.org/2000/svg" xmlns:xlink="http://www.w3.org/1999/xlink">
    <title>UI/Icons/Active@1x</title>
    <defs>
        <polygon id="path-1" points="0 2.36789328e-05 46.7325736 2.36789328e-05 46.7325736 27.7147636 0 27.7147636"></polygon>
    </defs>
    <g id="UI/Icons/Active" stroke="none" stroke-width="1" fill="none" fill-rule="evenodd">
        <g id="Group-3" transform="translate(1.000000, 10.000000)">
            <g>
                <mask id="mask-2" fill="white">
                    <use xlink:href="#path-1"></use>
                </mask>
                <g id="Clip-2"></g>
                <path d="M42.5121922,8.26530909 C42.4987116,8.2664 41.1579364,8.34567273 39.5694093,8.09803636 C39.3795876,8.05912727 38.8775256,8.00567273 38.2927581,8.3504 C37.4369209,8.85476364 36.8011457,9.97403636 36.4032853,11.6769455 C35.7496574,14.4711273 34.1684171,15.5100364 30.5669054,15.5100364 C30.3399209,15.5100364 30.1398977,15.6154909 30.0065488,15.7776727 C29.9260295,15.8384 29.8517039,15.9144 29.781386,16.0002182 C29.7657194,16.0176727 29.7496884,16.0347636 29.7365721,16.0536727 C29.1605488,16.8136727 28.8836496,18.4329455 28.5517349,20.7016727 C28.4570062,21.3442182 28.368107,21.9511273 28.2952388,22.2387636 C28.2719209,22.3271273 28.211076,22.5653091 28.1298279,22.6893091 C27.5341302,22.8038545 25.4599364,22.9696727 24.5898899,22.9354909 C24.5964481,22.5747636 24.6959132,22.0420364 24.9250837,21.8336727 C24.9677116,21.7944 25.0679054,21.7031273 25.4162155,21.8420364 C25.880386,22.0274909 27.1063938,21.9849455 27.4397659,21.8180364 C27.9469287,21.5664 27.8973783,21.2027636 27.7334248,19.9980364 C27.6532698,19.4136727 27.5497969,18.7224 27.4827581,18.2805818 C27.4506961,18.0682182 27.428107,17.9158545 27.4211845,17.8656727 C27.4004171,17.7074909 27.3756419,17.5431273 27.3505023,17.3747636 C27.2849209,16.9394909 27.2167891,16.4747636 27.2135101,16.0536727 C27.2382853,15.9696727 27.2499442,15.8798545 27.2426574,15.7867636 C27.2404713,15.7631273 27.2335488,15.7413091 27.2302698,15.7184 C27.2565023,15.4536727 27.3206264,15.2165818 27.4496031,15.0351273 C27.7494558,14.6125818 28.2493318,14.1104 28.5790605,13.7784 C28.6595798,13.6973091 28.7317194,13.6245818 28.7914713,13.5627636 C29.0709209,13.2744 29.0636341,12.8140364 28.7743473,12.5344 C28.4846961,12.2554909 28.0238047,12.2624 27.7439907,12.5514909 L27.5443318,12.7536727 C27.180355,13.1202182 26.6302,13.6733091 26.2611225,14.1940364 C26.0603705,14.4758545 25.9343085,14.7842182 25.8570682,15.1045818 C24.8296264,14.9838545 23.8131147,14.3805818 22.9197504,13.7994909 L22.7798434,13.7085818 C21.5848047,12.9300364 20.2290915,12.0474909 18.6493085,11.9598545 C18.4044713,11.9471273 18.1705643,12.0558545 18.0244636,12.2514909 C17.8790915,12.4471273 17.840107,12.7027636 17.9231767,12.9322182 C18.5749829,14.7424 18.2729442,16.2954909 17.7377271,18.4587636 C17.5078279,19.3885818 17.3464248,20.1187636 17.3620915,21.0471273 C17.386138,22.4656727 18.8937814,24.8576727 19.3710682,25.1100364 C19.6104403,25.2358545 19.8844248,25.2398545 20.550076,25.2213091 C20.6896186,25.2173091 20.8273395,25.2082182 20.8477426,25.2122182 C21.5585721,25.3187636 21.8995953,25.8453091 22.0599054,26.2602182 L19.1105643,26.2602182 C19.1003628,26.2453091 19.0938047,26.2293091 19.0821457,26.2147636 C18.9743008,26.0725818 18.8489674,25.8791273 18.7265488,25.6925818 C18.6219829,25.5325818 18.5192388,25.3765818 18.4307039,25.2522182 C17.8317271,24.4114909 16.4570682,21.9500364 16.3368357,21.5980364 C16.2493938,21.2827636 16.2963938,20.8911273 16.3466729,20.4769455 L16.3674403,20.2973091 C16.5616341,18.5994909 16.8035566,16.4867636 15.5035876,14.9005818 C15.2980992,14.6489455 14.9643628,14.3958545 14.5413628,14.0758545 C13.660386,13.4082182 12.3279907,12.3994909 12.3473008,11.3736727 C12.3549519,10.9722182 12.0350605,10.6405818 11.6320992,10.6333091 C11.2389752,10.6238545 10.8979519,10.9456727 10.8899364,11.3471273 C10.8629752,12.8151273 12.0252233,13.9449455 13.0599519,14.7704 C12.061293,17.1096727 9.72805271,17.7893091 7.61523876,18.2413091 C6.65410698,18.4467636 6.0361845,18.5351273 5.66674264,18.5878545 C5.29948682,18.6405818 5.11513023,18.6667636 4.93368837,18.7573091 C4.33398295,19.0569455 3.44972713,20.3838545 3.37212248,21.8642182 C3.34734729,22.3409455 2.74472713,22.5776727 1.95884341,22.8373091 L1.78687442,22.8947636 C1.70489767,22.9151273 1.53074264,22.8485818 1.4771845,22.7685818 C1.72165736,22.4129455 2.14174264,21.7333091 2.97389767,20.3878545 C3.88620775,18.9129455 4.30192093,18.2227636 4.49174264,17.8580364 C4.70561085,17.7878545 5.09071938,17.6878545 5.38911473,17.6100364 C6.39761085,17.3485818 7.54091318,17.0514909 8.16794419,16.6060364 C9.62713023,15.5689455 9.92953333,13.6754909 10.1725488,12.1529455 C10.2060682,11.9416727 10.2341225,11.7413091 10.2607194,11.5504 C10.4039054,10.5213091 10.4887969,9.96967273 11.1927039,9.33367273 C11.3960062,9.27694545 11.5727116,9.1344 11.6641612,8.92676364 C11.8259287,8.55912727 11.6583318,8.13003636 11.2903473,7.96858182 C10.0173395,7.41149091 9.52147132,6.11803636 9.32982791,5.13149091 C9.21214574,4.52494545 9.23692093,3.88530909 9.28537829,3.28094545 C9.38630078,3.66058182 9.50908372,4.02021818 9.65336279,4.36203636 C10.1933163,5.63694545 11.0732,6.6784 12.1316109,7.29476364 C12.1465488,7.30312727 12.1625798,7.30821818 12.1778822,7.31585455 C12.3192465,7.46421818 12.5087039,7.54567273 12.7039907,7.54567273 C12.8584713,7.54567273 13.0147736,7.49694545 13.1470295,7.39512727 C16.0154868,5.19512727 18.2911612,5.61912727 20.9249829,6.10858182 C21.5064713,6.21658182 22.1072698,6.32858182 22.7299287,6.41512727 C23.2855488,6.49258182 23.8440837,6.58203636 24.4037116,6.67149091 C27.2054946,7.12021818 30.0972698,7.58167273 32.8065101,6.58385455 C32.8061457,6.89803636 32.7944868,7.20349091 32.7504016,7.49912727 C32.7165178,7.7264 32.7919364,7.95621818 32.9551612,8.11912727 C33.1169287,8.2824 33.3479209,8.3584 33.5749054,8.32603636 C34.8216806,8.14785455 36.1803085,7.80530909 36.8098899,6.61912727 C37.1858899,5.90930909 37.160386,5.24421818 37.1392543,4.71003636 C37.1184868,4.17694545 37.1181225,3.85949091 37.3509364,3.53076364 C37.5830217,3.20276364 37.5046884,2.74894545 37.1760527,2.51730909 C36.8470527,2.28494545 36.3927194,2.36385455 36.1602698,2.69149091 C35.6312465,3.43912727 35.6600295,4.17476364 35.6829829,4.76603636 C35.7004713,5.21803636 35.7143163,5.57476364 35.5215798,5.93876364 C35.3084403,6.34094545 34.8235023,6.56967273 34.2646031,6.71549091 C34.2682465,6.45330909 34.2620527,6.1944 34.2565876,5.93949091 C34.2525798,5.76858182 34.2489364,5.59803636 34.2478434,5.42785455 L34.2471147,5.32349091 C34.2438357,4.71876364 34.2398279,4.09367273 34.4948667,3.68494545 C35.7205101,1.71876364 37.6282,1.52676364 37.7043473,1.51985455 C37.7225643,1.5184 37.7411457,1.51621818 37.7593628,1.51367273 C39.0378357,1.31912727 40.1589132,2.12130909 40.5826419,2.47585455 C40.9455256,2.77985455 41.1429984,3.06712727 41.3040372,3.35876364 C41.1484636,3.38821818 41.0067349,3.48167273 40.9258512,3.6304 C40.9014403,3.67403636 40.7407659,3.89985455 40.5494868,3.9304 C40.3501922,3.96312727 40.0977039,3.76312727 39.9683628,3.64130909 C39.7483008,3.43476364 39.4018124,3.44603636 39.195231,3.66567273 C38.9886496,3.88530909 38.9995798,4.2304 39.2200062,4.43658182 C39.6379054,4.82821818 40.0663705,5.02530909 40.497386,5.02530909 C40.572076,5.02530909 40.6471302,5.01949091 40.7218202,5.00785455 C41.3036729,4.91512727 41.6599984,4.49003636 41.8071922,4.27512727 C42.1041302,4.70530909 42.5559132,5.10567273 43.4507349,5.33076364 C43.7305488,5.40130909 43.9812155,5.48130909 44.2041922,5.56494545 C43.8999674,6.09185455 43.9965178,6.84130909 44.4639674,7.24421818 C44.5255411,7.29730909 44.5947659,7.34385455 44.6683628,7.37912727 C43.7272698,8.20276364 42.5449829,8.26385455 42.5121922,8.26530909 L42.5121922,8.26530909 Z M33.6601612,21.1282182 C33.6725488,21.1925818 33.694045,21.2551273 33.7235566,21.3140364 L35.3896884,24.6402182 C35.5011767,24.8624 35.7186884,25.0125818 35.9664403,25.0380364 C37.097355,25.1551273 37.9451767,25.4718545 38.2348279,25.8849455 C38.2913008,25.9660364 38.3459519,26.0809455 38.3445231,26.2602182 L35.5062775,26.2602182 C35.4938899,26.2354909 35.4844171,26.2100364 35.4694791,26.1864 L33.3355333,22.7791273 L31.2708124,16.9518545 C31.7889054,16.9329455 32.3077271,16.8900364 32.8152543,16.8064 L33.6601612,21.1282182 Z M21.0641612,23.7736727 C20.9432,23.7554909 20.7970992,23.7591273 20.5074481,23.7674909 C20.3934093,23.7707636 20.2283628,23.7798545 20.0793473,23.7754909 C19.6851302,23.2369455 18.8325721,21.8038545 18.8194558,21.0227636 C18.8070682,20.2678545 18.9433318,19.6554909 19.1524636,18.8074909 C19.6253783,16.8984 19.9452698,15.3307636 19.6228279,13.6333091 C20.4331225,13.9173091 21.2175488,14.4278545 21.9830295,14.9267636 L22.1236651,15.0180364 C23.1900915,15.7111273 24.4135488,16.4314909 25.7790992,16.5631273 C25.8086109,16.9187636 25.8607116,17.2667636 25.9095333,17.5907636 C25.9332155,17.7493091 25.9568977,17.9045818 25.9758434,18.0540364 C25.9831302,18.1082182 26.0075411,18.2707636 26.0414248,18.4965818 C26.1015411,18.8962182 26.2465488,19.8609455 26.331076,20.5100364 C26.1693085,20.5111273 26.0192,20.5067636 25.9576264,20.4918545 C25.077014,20.1402182 24.2692698,20.3176727 23.7391535,20.9765818 C23.0793318,21.7969455 22.9642,23.3740364 23.3591457,23.9522182 C23.5460527,24.2260364 23.8415333,24.3045818 24.047386,24.3402182 C24.2710915,24.3784 24.5822388,24.3925818 24.923262,24.3925818 C25.5178667,24.3925818 26.2013705,24.3489455 26.6538822,24.3144 C28.6085721,24.1638545 28.7991225,24.0242182 28.9393938,23.9216727 C29.4039287,23.5809455 29.5879209,23.0616727 29.7070605,22.5987636 C29.7988744,22.2369455 29.8848589,21.6522182 29.9934326,20.9122182 C30.0706729,20.3867636 30.1978279,19.5165818 30.3508512,18.7194909 L31.9882,23.3394909 C32.0060527,23.3893091 32.0297349,23.4376727 32.0577891,23.4824 L33.7967891,26.2602182 L23.5813938,26.2602182 C23.3321845,25.1787636 22.555045,23.9969455 21.0641612,23.7736727 L21.0641612,23.7736727 Z M46.6263318,5.69112727 C46.2343008,4.71585455 44.8767659,4.19003636 43.8077891,3.92058182 C43.1359442,3.75149091 43.0266419,3.53367273 42.7624946,3.00749091 C42.5402465,2.5664 42.2367504,1.9624 41.5189984,1.36167273 C40.9455256,0.881309091 39.4142,-0.201963636 37.5593395,0.0725818182 C37.2336186,0.105672727 34.8067426,0.432581818 33.258293,2.91621818 C32.8425798,3.58130909 32.7923008,4.32967273 32.7890217,5.02203636 C32.785014,5.02349091 32.7806419,5.02421818 32.7766341,5.02603636 C30.3031225,6.14349091 27.5497969,5.70203636 24.6350682,5.23512727 C24.0648744,5.14421818 23.4968667,5.05330909 22.9314093,4.9744 C22.3415411,4.89258182 21.757138,4.78385455 21.1916806,4.67876364 C18.5822698,4.19330909 15.8872388,3.70021818 12.6959752,5.92821818 C11.983324,5.45803636 11.3836186,4.71076364 10.996324,3.79585455 C10.6334403,2.93949091 10.4356031,1.92676364 10.3911535,0.700945455 C10.3816806,0.446763636 10.2399519,0.215490909 10.0173395,0.0918545455 C9.79363411,-0.0321454545 9.52256434,-0.0303272727 9.3014093,0.0958545455 C8.15628527,0.748581818 7.91727752,2.12821818 7.83712248,3.10894545 C7.78064961,3.79730909 7.74348682,4.60894545 7.89906047,5.40894545 C8.1777814,6.84130909 8.82594419,7.98276364 9.75902171,8.72567273 C9.06823101,9.56167273 8.94872713,10.4049455 8.81792868,11.3500364 C8.79169612,11.5318545 8.76546357,11.7227636 8.73303721,11.9253091 C8.51297519,13.3082182 8.28453333,14.7376727 7.32267287,15.4209455 C6.91388217,15.7114909 5.77568062,16.0071273 5.02295194,16.2024 C3.89203721,16.4962182 3.31419225,16.6460364 3.2099907,17.1689455 C2.86641705,17.8293091 0.52844031,21.5776727 0.197618605,22.0718545 C0.166649612,22.1111273 0.13895969,22.1536727 0.116006202,22.2002182 C0.0956031008,22.2402182 0.079572093,22.2816727 0.0671844961,22.3238545 C-0.0985906977,22.8765818 0.045324031,23.4253091 0.464316279,23.8314909 C0.807889922,24.1649455 1.29246357,24.3518545 1.75590543,24.3518545 C1.9267814,24.3518545 2.09510698,24.3264 2.25213798,24.2729455 L2.41754884,24.2180364 C3.28941705,23.9296727 4.74896744,23.4471273 4.82730078,21.9402182 C4.87648682,21.0034909 5.38729302,20.2704 5.58622326,20.0711273 C5.65726977,20.0587636 5.76693643,20.0431273 5.87332403,20.0278545 C6.26134729,19.9722182 6.91023876,19.8794909 7.92092093,19.6634909 C9.63988217,19.2958545 12.7739442,18.6180364 14.2349519,15.6860364 C14.2972543,15.7394909 14.3468047,15.7864 14.3755876,15.8213091 C15.2190372,16.8500364 15.1272233,18.3191273 14.9199132,20.1325818 L14.8991457,20.3031273 C14.8375721,20.8147636 14.7683473,21.3940364 14.9323008,21.9860364 C15.0886031,22.5504 16.6873318,25.3154909 17.2436806,26.0951273 C17.278293,26.1445818 17.3169132,26.2016727 17.3558977,26.2602182 L3.72844806,26.2602182 C3.32585116,26.2602182 2.99976589,26.5860364 2.99976589,26.9874909 C2.99976589,27.3893091 3.32585116,27.7147636 3.72844806,27.7147636 L41.9328899,27.7147636 C42.3354868,27.7147636 42.6615721,27.3893091 42.6615721,26.9874909 C42.6615721,26.5860364 42.3354868,26.2602182 41.9328899,26.2602182 L39.8007659,26.2602182 C39.8025876,25.8191273 39.6798047,25.4082182 39.4287736,25.0511273 C38.8119442,24.1707636 37.5753705,23.7969455 36.5191457,23.6416727 L35.0716186,20.7522182 L34.2288977,16.4405818 C35.8607814,15.8369455 37.2215953,14.5758545 37.8223938,12.0074909 C38.2993163,9.96712727 38.9959364,9.52749091 39.2578977,9.52276364 C39.2691922,9.52749091 39.272107,9.52858182 39.2757504,9.52858182 C39.2819442,9.52894545 39.2863163,9.52603636 39.3202,9.53149091 C41.075231,9.80821818 42.5409752,9.72058182 42.5795953,9.71803636 C42.6499132,9.71621818 44.3302543,9.65367273 45.6910682,8.42021818 C46.4223008,7.75658182 46.9728202,6.5544 46.6263318,5.69112727 L46.6263318,5.69112727 Z" id="Fill-1" fill="#37464C" mask="url(#mask-2)"></path>
            </g>
        </g>
    </g>
</svg>