<?xml version="1.0" encoding="UTF-8"?>
<svg width="48px" height="48px" viewBox="0 0 48 48" version="1.1" xmlns="http://www.w3.org/2000/svg" xmlns:xlink="http://www.w3.org/1999/xlink">
    <title>UI/Icons/Turkey@1x</title>
    <defs>
        <polygon id="path-1" points="0 0.0644888889 47.9568444 0.0644888889 47.9568444 43.5555556 0 43.5555556"></polygon>
    </defs>
    <g id="UI/Icons/Turkey" stroke="none" stroke-width="1" fill="none" fill-rule="evenodd">
        <g id="Group-14" transform="translate(0.000000, 2.000000)">
            <path d="M12,4 C11.4480287,4 11,4.44814341 11,5.00025608 C11,5.55236876 11.4480287,6 12,6 C12.5524834,6 13,5.55236876 13,5.00025608 C13,4.44814341 12.5524834,4 12,4" id="Fill-1" fill="#37464C"></path>
            <path d="M31.9362264,23.2962176 C31.9362264,21.478538 30.4269181,20 28.5709765,20 C27.5814013,20 26.6903064,20.4207395 26.0738283,21.0892478 C25.4573503,20.4207395 24.5666892,20 23.5766802,20 C22.5927448,20 21.693407,20.4266893 21.0725906,21.1053974 C20.4565464,20.4555886 19.577165,20.0552486 18.6066785,20.0552486 C16.7511707,20.0552486 15.2418624,21.5337867 15.2418624,23.3514662 C15.2418624,23.8206545 15.6301438,24.201445 16.1095303,24.201445 C16.588483,24.201445 16.9771982,23.8206545 16.9771982,23.3514662 C16.9771982,22.4713132 17.7082084,21.7552061 18.6066785,21.7552061 C19.4292277,21.7552061 20.1411492,22.3829154 20.2270483,23.1844454 C20.2734685,23.6175096 20.6465657,23.9456014 21.089944,23.9456014 L21.0994883,23.9456014 C21.5476388,23.9405015 21.9176992,23.6026349 21.954575,23.1653209 C22.0235546,22.3433914 22.7363438,21.6999575 23.5766802,21.6999575 C24.4755841,21.6999575 25.2061604,22.4160646 25.2061604,23.2962176 C25.2061604,23.7654059 25.5948757,24.1461963 26.0738283,24.1461963 C26.5532148,24.1461963 26.9414962,23.7654059 26.9414962,23.2962176 C26.9414962,22.4160646 27.6729402,21.6999575 28.5714103,21.6999575 C29.4698804,21.6999575 30.2008906,22.4160646 30.2008906,23.2962176 C30.2008906,23.4283893 30.2342959,23.5520612 30.2889589,23.6634084 C30.2746424,23.7254569 30.2646642,23.7892053 30.2646642,23.8555036 C30.2646642,27.960476 26.6851004,31.3000425 22.2847227,31.3000425 C18.8092789,31.3000425 15.7568233,29.2286443 14.6895918,26.1457714 C14.5355808,25.7012325 14.0431792,25.4632384 13.5893889,25.6136847 C13.1355986,25.7645559 12.8922178,26.2469188 13.0462288,26.6914577 C14.3525028,30.4649384 18.0648199,33 22.2847227,33 C27.6425719,33 32,28.8980025 32,23.8555036 C32,23.7233319 31.9665948,23.600085 31.9119317,23.4887378 C31.9266821,23.4266893 31.9362264,23.3625159 31.9362264,23.2962176" id="Fill-3" fill="#37464C"></path>
            <path d="M7,20 C6.448,20 6,20.4037248 6,20.9011715 L6,22.0988285 C6,22.5967257 6.448,23 7,23 C7.552,23 8,22.5967257 8,22.0988285 L8,20.9011715 C8,20.4037248 7.552,20 7,20" id="Fill-5" fill="#37464C"></path>
            <path d="M9,26 C8.448,26 8,26.4037248 8,26.9011715 L8,28.0988285 C8,28.5967257 8.448,29 9,29 C9.552,29 10,28.5967257 10,28.0988285 L10,26.9011715 C10,26.4037248 9.552,26 9,26" id="Fill-7" fill="#37464C"></path>
            <path d="M10,22 C9.448,22 9,22.4037248 9,22.9011715 L9,24.0988285 C9,24.5967257 9.448,25 10,25 C10.552,25 11,24.5967257 11,24.0988285 L11,22.9011715 C11,22.4037248 10.552,22 10,22" id="Fill-9" fill="#37464C"></path>
            <g id="Group-13">
                <mask id="mask-2" fill="white">
                    <use xlink:href="#path-1"></use>
                </mask>
                <g id="Clip-12"></g>
                <path d="M42.6550667,24.4342667 C42.4186222,24.4502667 42.1981778,24.5600444 42.0430667,24.7391556 C41.8875111,24.9178222 41.8110667,25.1516 41.8284,25.3880444 C41.8350667,25.4809333 41.8421778,25.5747111 41.8421778,25.6698222 C41.8421778,27.5658222 40.4346222,29.1084889 38.7039556,29.1084889 C38.0195111,29.1084889 37.3684,28.8649333 36.8292889,28.4218222 C37.5599556,26.7502667 37.9630667,24.9413778 37.9630667,23.0524889 C37.9630667,22.5618222 37.5652889,22.1636 37.0741778,22.1636 C36.5835111,22.1636 36.1852889,22.5618222 36.1852889,23.0524889 C36.1852889,30.5022667 29.0097333,36.5636 20.1892889,36.5636 C11.3688444,36.5636 4.19328889,30.5022667 4.19328889,23.0524889 C4.19328889,20.1840444 5.24351111,17.4542667 7.2284,15.1409333 C7.49373333,15.2053778 7.76973333,15.2436 8.05551111,15.2436 C9.94306667,15.2436 11.4786222,13.7516 11.4786222,11.9178222 C11.4786222,10.8098222 10.6186222,8.77648889 10.3550667,8.17915556 C9.81551111,6.95782222 9.39595556,6.25426667 9.05906667,5.84537778 C9.02706667,5.67337778 9.00573333,5.5036 9.00573333,5.33915556 C9.00573333,3.41115556 10.7052889,1.84226667 12.7946222,1.84226667 C14.8839556,1.84226667 16.5839556,3.41115556 16.5839556,5.33915556 C16.5839556,6.1076 16.3190667,6.83648889 15.8177333,7.44715556 C15.8030667,7.46493333 15.7897333,7.48315556 15.7764,7.50182222 C15.6697333,7.65426667 13.1728444,11.2760444 13.9661778,14.5791556 C14.3301778,16.0951556 15.3039556,17.2836 16.8604,18.1116 C16.9932889,18.1827111 17.1364,18.2160444 17.2768444,18.2160444 C17.5950667,18.2160444 17.9026222,18.0449333 18.0626222,17.7444889 C18.2932889,17.3111556 18.1288444,16.7729333 17.6955111,16.5422667 C17.2048444,16.2813778 16.8084,15.9800444 16.4919556,15.6396 C18.4084,14.2191556 25.5195111,9.88226667 33.4470667,16.7164889 C33.6150667,16.8613778 33.8212889,16.9324889 34.0270667,16.9324889 C34.2764,16.9324889 34.5248444,16.8276 34.7012889,16.6236 C35.0212889,16.2520444 34.9795111,15.6907111 34.6084,15.3702667 C31.5115111,12.7004889 28.4968444,11.5764889 25.7888444,11.3031556 C26.2595111,10.6489333 26.9790667,10.2489333 27.7595111,10.2489333 C28.1519556,10.2489333 28.5310667,10.3480444 28.8861778,10.5440444 C29.1568444,10.6942667 29.4879556,10.6920444 29.7568444,10.5378222 C30.0261778,10.3840444 30.1959556,10.1009333 30.2039556,9.79071111 C30.2652889,7.55871111 31.9124,5.81071111 33.9550667,5.81071111 C35.6226222,5.81071111 37.1070667,7.03604444 37.5644,8.79026667 C37.6404,9.08093333 37.8581778,9.31382222 38.1435111,9.40893333 C38.4275111,9.5036 38.7417333,9.44848889 38.9786222,9.26137778 C39.6270667,8.74582222 40.3884,8.47337778 41.1826222,8.47337778 C43.2541778,8.47337778 44.9404,10.3142667 44.9404,12.5773778 C44.9404,13.6107111 44.5821778,14.6004889 43.9324,15.3644889 C43.7612889,15.5653778 43.6884,15.8324889 43.7337333,16.0920444 C43.7786222,16.3524889 43.9377333,16.5791556 44.1661778,16.7107111 C45.4075111,17.4244889 46.1790667,18.8169333 46.1790667,20.3440444 C46.1790667,22.5049333 44.6310667,24.3013778 42.6550667,24.4342667 L42.6550667,24.4342667 Z M19.8146222,41.4173778 C19.7612889,41.5347111 19.7368444,41.6569333 19.7355111,41.7778222 L18.0208444,41.7778222 L19.5484,38.4320444 C19.5639556,38.3978222 19.5728444,38.3627111 19.5839556,38.3280444 C19.7852889,38.3338222 19.9861778,38.3413778 20.1892889,38.3413778 C20.5395111,38.3413778 20.8866222,38.3302667 21.2319556,38.3129333 L19.8146222,41.4173778 Z M6.41062222,11.9178222 C6.41062222,11.3800444 7.18706667,9.65426667 8.08351111,7.95871111 C8.14306667,7.94182222 8.19906667,7.9196 8.25284444,7.8916 C8.89817778,9.15026667 9.70084444,11.2067111 9.70084444,11.9178222 C9.70084444,12.7716 8.96262222,13.4658222 8.05551111,13.4658222 C7.1484,13.4658222 6.41062222,12.7716 6.41062222,11.9178222 L6.41062222,11.9178222 Z M45.8515111,15.7284889 C46.4146222,14.7902667 46.7181778,13.7004889 46.7181778,12.5773778 C46.7181778,9.33426667 44.2346222,6.6956 41.1826222,6.6956 C40.3764,6.6956 39.5955111,6.87871111 38.8768444,7.2316 C37.9439556,5.30271111 36.0515111,4.03293333 33.9550667,4.03293333 C31.3275111,4.03293333 29.1452889,5.94048889 28.5719556,8.55248889 C28.3061778,8.49826667 28.0350667,8.47115556 27.7595111,8.47115556 C26.0288444,8.47115556 24.4804,9.55826667 23.8052889,11.2427111 C20.0208444,11.4133778 17.0599556,13.1036 15.6759556,14.0560444 C15.1777333,11.6702667 17.0292889,8.82448889 17.2181778,8.54315556 C17.9661778,7.61693333 18.3617333,6.50982222 18.3617333,5.33915556 C18.3617333,2.43071111 15.8644,0.0644888889 12.7946222,0.0644888889 C10.2968444,0.0644888889 8.17862222,1.63115556 7.47595556,3.78182222 C7.43862222,3.79915556 7.39951111,3.81115556 7.3644,3.83382222 L3.41995556,6.35826667 C3.08751111,6.57115556 2.93506667,6.97737778 3.04573333,7.35648889 C3.15684444,7.73515556 3.5044,7.9956 3.89906667,7.9956 L6.05995556,7.9956 C5.3484,9.40937778 4.63284444,11.0458222 4.63284444,11.9178222 C4.63284444,12.8351556 5.01684444,13.6662667 5.63684444,14.2684889 C3.52706667,16.8471556 2.41551111,19.8707111 2.41551111,23.0524889 C2.41551111,30.7573778 9.07684444,37.1458222 17.7052889,38.1884889 L16.1541778,41.5867111 C16.1257333,41.6493778 16.1066222,41.7133778 16.0932889,41.7778222 L0.888844444,41.7778222 C0.398177778,41.7778222 -4.44444444e-05,42.1756 -4.44444444e-05,42.6667111 C-4.44444444e-05,43.1573778 0.398177778,43.5556 0.888844444,43.5556 L41.4066222,43.5556 C41.8977333,43.5556 42.2955111,43.1573778 42.2955111,42.6667111 C42.2955111,42.1756 41.8977333,41.7778222 41.4066222,41.7778222 L21.6044,41.7778222 L23.2092889,38.2627111 C23.2324,38.2120444 23.2488444,38.1600444 23.2621778,38.1080444 C28.8204,37.2707111 33.4968444,34.2062667 35.9986222,30.0253778 C36.7941778,30.5840444 37.7261778,30.8862667 38.7039556,30.8862667 C41.2830667,30.8862667 43.4048444,28.7676 43.6048444,26.0849333 C46.1026222,25.5053778 47.9568444,23.1356 47.9568444,20.3440444 C47.9568444,18.5253778 47.1688444,16.8329333 45.8515111,15.7284889 L45.8515111,15.7284889 Z" id="Fill-11" fill="#37464C" mask="url(#mask-2)"></path>
            </g>
        </g>
    </g>
</svg>