<?xml version="1.0" encoding="UTF-8"?>
<svg width="48px" height="48px" viewBox="0 0 48 48" version="1.1" xmlns="http://www.w3.org/2000/svg" xmlns:xlink="http://www.w3.org/1999/xlink">
    <title>UI/Icons/Lamb@1x</title>
    <defs>
        <polygon id="path-1" points="0 0.271519767 47.865 0.271519767 47.865 36.5697674 0 36.5697674"></polygon>
    </defs>
    <g id="UI/Icons/Lamb" stroke="none" stroke-width="1" fill="none" fill-rule="evenodd">
        <g id="Group-20" transform="translate(0.000000, 6.000000)">
            <g>
                <path d="M11.3534143,17.2447535 C11.7712714,17.2447535 12.1089857,16.9053 12.1089857,16.4866837 C12.1089857,16.0680674 11.7712714,15.728614 11.3534143,15.728614 C10.9364143,15.728614 10.5982714,16.0680674 10.5982714,16.4866837 C10.5982714,16.9053 10.9364143,17.2447535 11.3534143,17.2447535" id="Fill-1" fill="#37464C"></path>
                <path d="M8.09768571,16.4865977 C8.09768571,16.0679814 7.75997143,15.7285279 7.34254286,15.7285279 C6.92554286,15.7285279 6.58825714,16.0679814 6.58825714,16.4865977 C6.58825714,16.9056442 6.92554286,17.2446674 7.34254286,17.2446674 C7.75997143,17.2446674 8.09768571,16.9056442 8.09768571,16.4865977" id="Fill-3" fill="#37464C"></path>
                <g id="Group-7" transform="translate(0.000000, 0.158713)">
                    <mask id="mask-2" fill="white">
                        <use xlink:href="#path-1"></use>
                    </mask>
                    <g id="Clip-6"></g>
                    <path d="M44.7522857,17.8908337 C44.5457143,18.0470081 44.4201429,18.2887988 44.4102857,18.5482291 C44.4021429,18.8080895 44.5101429,19.0580547 44.706,19.2284267 C45.1397143,19.6070314 45.3792857,20.0841593 45.3792857,20.5711826 C45.3792857,21.5568453 44.4034286,22.4289267 43.1082857,22.6005895 C42.8524286,22.6345779 42.6257143,22.7821477 42.4911429,23.0024267 C42.3552857,23.223136 42.3261429,23.4928919 42.411,23.7368337 C42.5057143,24.0096012 42.5515714,24.2681709 42.5515714,24.5276012 C42.5515714,25.9503802 41.322,27.1077058 39.8104286,27.1077058 C39.1765714,27.1077058 38.5812857,26.9085081 38.0867143,26.5311942 C37.8372857,26.3406012 37.5051429,26.3023105 37.2201429,26.4292291 C36.9342857,26.5570081 36.7405714,26.8302058 36.7135714,27.1429849 C36.6012857,28.4736942 35.403,29.5161477 33.984,29.5161477 C33.0304286,29.5161477 32.1595714,29.0575198 31.6542857,28.2891244 C31.4755714,28.0185081 31.1237143,27.8778221 30.7997143,27.9135314 C30.795,27.9143919 30.7504286,27.9199849 30.7444286,27.9204151 C30.432,27.9638686 30.168,28.1759733 30.0578571,28.4728337 C29.6918571,29.4584965 28.6585714,30.1386942 27.426,30.2058105 C25.4297143,30.3129384 24.6004286,29.1775547 24.0955714,28.4995081 C23.8422857,28.158764 23.6232857,27.8644849 23.2067143,27.7947872 C22.8218571,27.7311128 22.4447143,27.9328919 22.284,28.2878337 C21.8524286,29.24295 20.8624286,29.8603337 19.761,29.8603337 C18.2494286,29.8603337 17.0194286,28.7025779 17.0194286,27.2802291 C17.0194286,27.1309384 17.0404286,26.9678802 17.0845714,26.7661012 C17.154,26.4533221 17.0451429,26.1280663 16.8,25.9215547 C16.5557143,25.715043 16.2171429,25.6625547 15.9222857,25.78345 C15.5905714,25.920264 15.2391429,25.9895314 14.877,25.9895314 C13.671,25.9895314 12.672,25.234043 12.5057143,24.255264 C13.4931429,23.3823221 14.1205714,22.1079733 14.1205714,20.6860547 L14.1205714,16.9998221 C14.3464286,17.0389733 14.5658571,17.0596244 14.7788571,17.0596244 C16.8771429,17.0591942 18.3257143,15.2780314 18.852,14.1762058 C19.029,13.8070663 18.9218571,13.3639267 18.5957143,13.1169733 C17.7574286,12.48195 16.9217143,12.210043 16.1571429,12.1541128 C16.209,11.9338337 16.2394286,11.7040895 16.2394286,11.4653105 C16.2394286,9.99520581 15.1855714,8.79958953 13.8904286,8.79958953 C13.5977143,8.79958953 13.3135714,8.85982209 13.0478571,8.97555465 C12.8597143,8.79442674 12.6467143,8.64814767 12.4208571,8.53800814 C12.5395714,8.05442674 12.7508571,7.68485698 13.0641429,7.44908953 C13.8587143,6.85235698 15.0968571,7.12813605 15.1054286,7.12942674 C15.3595714,7.19051977 15.6295714,7.13200814 15.8361429,6.96851977 C16.0427143,6.80546163 16.1627143,6.55635698 16.1627143,6.29262442 C16.1627143,4.87027558 17.3922857,3.71295 18.9038571,3.71295 C19.6782857,3.71295 20.3957143,4.0115314 20.9228571,4.55362442 C21.1461429,4.78250814 21.4774286,4.86812442 21.783,4.77605465 C22.0885714,4.68355465 22.3178571,4.42842674 22.3778571,4.11392674 C22.6127143,2.88475233 23.7458571,1.99245 25.0731429,1.99245 C26.2388571,1.99245 27.5918571,2.79139186 28.1532857,3.81104302 C28.3067143,4.09069419 28.605,4.26838023 28.9212857,4.25504302 C29.2388571,4.24858953 29.5277143,4.0657407 29.6704286,3.78006628 C30.1067143,2.90325233 31.1275714,2.33663605 32.2705714,2.33663605 C33.744,2.33663605 34.95,3.4367407 35.01,4.81004302 C34.9581429,4.89608953 34.8587143,5.03333372 34.7944286,5.12239186 C34.6127143,5.37149651 34.4408571,5.60726395 34.362,5.87572907 C34.2415714,6.28488023 34.437,6.72156628 34.8227143,6.90140349 C35.2084286,7.0812407 35.667,6.94958953 35.9001429,6.59292674 C36.3972857,5.83184535 37.0294286,5.08926395 38.7822857,5.08926395 C41.1677143,5.08926395 41.5238571,6.70521744 41.5238571,7.66893837 C41.5238571,7.88491512 41.4925714,8.10132209 41.4265714,8.33106628 C41.358,8.57242674 41.3978571,8.83228721 41.5354286,9.04181047 C41.673,9.25133372 41.8954286,9.3898686 42.1435714,9.42127558 C43.4511429,9.58648488 44.4372857,10.4602872 44.4372857,11.4536942 C44.4372857,11.5896477 44.4167143,11.7277523 44.3751429,11.8748919 C44.2791429,12.2212291 44.406,12.5920895 44.6961429,12.803764 C45.6347143,13.4886942 46.1507143,14.3990663 46.1507143,15.3670895 C46.1507143,16.3140314 45.654,17.2102058 44.7522857,17.8908337 L44.7522857,17.8908337 Z M35.7835714,30.8619151 C36.1722857,30.6941244 36.5322857,30.4742756 36.8541429,30.210543 L36.8541429,34.6772174 L35.7835714,34.6772174 L35.7835714,30.8619151 Z M22.0748571,34.8488802 L22.0748571,30.9548453 C22.4772857,30.7186477 22.8407143,30.4217872 23.1492857,30.0728686 C23.8337143,30.8743919 25.053,31.9336244 27.1641429,31.9336244 C27.2794286,31.9336244 27.3977143,31.9306128 27.5185714,31.9241593 C28.9641429,31.8454267 30.2464286,31.1880314 31.0474286,30.1696709 C31.8497143,30.8511593 32.8847143,31.2370779 33.984,31.2370779 C34.0127143,31.2370779 34.041,31.2344965 34.0692857,31.2340663 L34.0692857,34.8488802 L22.0748571,34.8488802 Z M19.761,31.581264 C19.9641429,31.581264 20.1634286,31.5636244 20.3605714,31.5378105 L20.3605714,34.6772174 L19.305,34.6772174 L19.3598571,31.562764 C19.4927143,31.5743802 19.626,31.581264 19.761,31.581264 L19.761,31.581264 Z M6.35185714,20.6860547 L6.35185714,15.410543 C6.35185714,14.9605198 6.45257143,14.5350198 6.62871429,14.1512523 C7.125,14.2609616 7.653,14.2033105 8.11242857,13.9649616 C8.52342857,14.2850547 9.00171429,14.4592988 9.49714286,14.4592988 C9.92785714,14.4592988 10.3474286,14.3276477 10.7211429,14.0806942 C11.1741429,14.246764 11.6614286,14.2471942 12.111,14.1065081 C12.3,14.5018919 12.4062857,14.9433105 12.4062857,15.410543 L12.4062857,20.6860547 C12.4062857,22.1398105 11.3837143,23.3573686 10.0221429,23.6542291 L10.0221429,22.4207523 C10.8441429,22.1828337 11.4501429,21.4290663 11.4501429,20.5281593 C11.4501429,20.1719267 11.1621429,19.8828105 10.8072857,19.8828105 C10.4528571,19.8828105 10.1648571,20.1719267 10.1644286,20.5281593 L8.79471429,20.5281593 C8.79471429,20.1719267 8.50628571,19.8828105 8.15185714,19.8828105 C7.797,19.8828105 7.509,20.1719267 7.509,20.5281593 C7.509,21.3550663 8.01728571,22.0632291 8.73642857,22.3583686 L8.73642857,23.6542291 C7.37528571,23.3573686 6.35185714,22.1398105 6.35185714,20.6860547 L6.35185714,20.6860547 Z M2.046,14.0884384 C3.43585714,13.4689035 4.50728571,14.2747291 4.64442857,14.3861593 C4.67485714,14.4111128 4.70742857,14.430043 4.74085714,14.450264 C4.68428571,14.7187291 4.65385714,14.9957988 4.64528571,15.2793221 C3.41571429,15.5499384 2.52814286,14.7238919 2.046,14.0884384 L2.046,14.0884384 Z M14.1158571,15.2358686 C14.1141429,15.2354384 14.1128571,15.2354384 14.1111429,15.2350081 C14.1021429,14.9953686 14.076,14.7604616 14.0318571,14.5307174 C14.1261429,14.4975895 14.2165714,14.4498337 14.2971429,14.381857 C14.3502857,14.3379733 15.4452857,13.4430895 16.8895714,14.0871477 C16.3825714,14.751857 15.429,15.6312523 14.1158571,15.2358686 L14.1158571,15.2358686 Z M4.98085714,10.5205198 C5.082,10.5205198 5.17971429,10.5592407 5.27314286,10.6353919 C5.463,10.7907058 5.71157143,10.8565314 5.95328571,10.8165198 C6.19542857,10.7765081 6.40885714,10.6341012 6.53957143,10.4254384 C6.61457143,10.306264 6.81942857,10.0283337 7.10614286,10.0283337 C7.23385714,10.0283337 7.35985714,10.0812523 7.48071429,10.1857988 C7.67957143,10.3583221 7.94485714,10.4297407 8.20671429,10.3789733 C8.46428571,10.3277756 8.68542857,10.1604151 8.80457143,9.92464767 C8.99057143,9.55851977 9.25585714,9.33092674 9.49714286,9.33092674 C9.79242857,9.33092674 10.0242857,9.64800814 10.11,9.78439186 C10.3474286,10.1612756 10.8325714,10.293357 11.226,10.089857 C11.6035714,9.89539186 11.9387143,10.2266709 12.0934286,10.5424616 C12.2202857,10.8010314 12.4675714,10.9787174 12.7521429,11.0157174 C13.0384286,11.0522872 13.3212857,10.9442988 13.5098571,10.7266012 C13.5908571,10.6323802 13.7232857,10.5205198 13.8904286,10.5205198 C14.1904286,10.5205198 14.5251429,10.9085895 14.5251429,11.4653105 C14.5251429,12.0220314 14.1904286,12.4101012 13.8904286,12.4101012 C13.6658571,12.4101012 13.5034286,12.2005779 13.4438571,12.1106593 C13.2852857,11.8701593 13.017,11.7256012 12.7294286,11.7256012 L12.7272857,11.7256012 C12.4397143,11.7260314 12.1714286,11.8723105 12.0124286,12.1141012 C11.9391429,12.2276826 11.736,12.4922756 11.4587143,12.4922756 C11.352,12.4922756 11.2405714,12.4483919 11.127,12.3614849 C10.7704286,12.0904384 10.2664286,12.1394849 9.969,12.474636 C9.86228571,12.5946709 9.69342857,12.7383686 9.49714286,12.7383686 C9.21942857,12.7383686 8.99614286,12.4531244 8.913,12.3305081 C8.76428571,12.1110895 8.52342857,11.9729849 8.25985714,11.9562058 C8.24142857,11.9549151 8.223,11.9544849 8.20457143,11.9544849 C7.96028571,11.9544849 7.72628571,12.0590314 7.56385714,12.2436012 C7.46314286,12.3571826 7.30242857,12.4922756 7.10614286,12.4922756 C6.90257143,12.4922756 6.738,12.3502988 6.636,12.2315547 C6.47571429,12.0439733 6.24342857,11.9346942 5.997,11.9312523 C5.74585714,11.9204965 5.51528571,12.0310663 5.35028571,12.2143453 C5.26971429,12.3038337 5.14028571,12.4101012 4.98085714,12.4101012 C4.68085714,12.4101012 4.34657143,12.0220314 4.34657143,11.4653105 C4.34657143,10.9085895 4.68085714,10.5205198 4.98085714,10.5205198 L4.98085714,10.5205198 Z M47.865,15.3670895 C47.865,14.0226128 47.2418571,12.7327756 46.1361429,11.7582988 C46.146,11.6559035 46.1515714,11.5543686 46.1515714,11.4536942 C46.1515714,9.82526395 44.9657143,8.4317407 43.2308571,7.90040349 C43.2355714,7.82296163 43.2381429,7.74551977 43.2381429,7.66893837 C43.2381429,5.05613605 41.4891429,3.36833372 38.7822857,3.36833372 C37.8788571,3.36833372 37.1558571,3.5266593 36.5678571,3.77963605 C36.0501429,1.9580314 34.3195714,0.615705814 32.2705714,0.615705814 C30.9604286,0.615705814 29.739,1.12079884 28.8942857,1.96362442 C27.903,0.942252326 26.4475714,0.271519767 25.0731429,0.271519767 C23.3828571,0.271519767 21.8824286,1.18791512 21.1302857,2.57154302 C20.4574286,2.19638023 19.6894286,1.99201977 18.9038571,1.99201977 C16.7832857,1.99201977 15.0042857,3.42942674 14.5568571,5.34783372 C13.8522857,5.33105465 12.8712857,5.4506593 12.0488571,6.06201977 C11.4227143,6.52796163 10.9992857,7.18879884 10.7772857,8.0260314 C10.3911429,7.75584535 9.95357143,7.60999651 9.49714286,7.60999651 C8.85514286,7.60999651 8.24957143,7.89997326 7.779,8.41281047 C7.04185714,8.17446163 6.20914286,8.35731047 5.60442857,8.89381047 C5.40385714,8.83142674 5.19428571,8.79958953 4.98085714,8.79958953 C3.68614286,8.79958953 2.63228571,9.99520581 2.63228571,11.4653105 C2.63228571,11.7062407 2.66314286,11.9389965 2.71628571,12.1609965 C1.96885714,12.2268221 1.15671429,12.4991593 0.341142857,13.1169733 C0.015,13.3639267 -0.0921428571,13.8070663 0.0844285714,14.1762058 C0.611142857,15.2780314 2.05928571,17.0596244 4.15842857,17.0596244 C4.31485714,17.0596244 4.47557143,17.0475779 4.63757143,17.0269267 L4.63757143,20.6860547 C4.63757143,23.3104733 6.76457143,25.4457174 9.37928571,25.4457174 C9.94242857,25.4457174 10.4802857,25.3416012 10.9817143,25.160043 C11.5298571,26.6404733 13.0671429,27.7104616 14.877,27.7104616 C15.0282857,27.7104616 15.177,27.7031477 15.3252857,27.6880895 C15.4684286,29.15045 16.3752857,30.3989849 17.6541429,31.0649849 L17.5877143,34.8488802 L12.459,34.8488802 C12.459,34.8333919 12.4615714,34.818764 12.4602857,34.8032756 C12.3968571,33.8214849 12.7088571,33.2600314 13.3894286,32.4425895 C13.6178571,32.1693919 13.5814286,31.7623919 13.3084286,31.5335081 C13.0358571,31.3046244 12.6304286,31.3420547 12.4032857,31.6148221 C11.5662857,32.6198453 11.0987143,33.4755779 11.1767143,34.8488802 L10.4802857,34.8488802 C10.4802857,34.8265081 10.4828571,34.8045663 10.4802857,34.7813337 C10.3611429,33.5680779 10.4764286,32.3074965 10.8145714,31.135543 C10.9131429,30.7935081 10.7168571,30.4355547 10.3757143,30.3361709 C10.038,30.2385081 9.678,30.4338337 9.57985714,30.7767291 C9.20271429,32.0854965 9.07071429,33.4919267 9.19628571,34.8488802 L8.41971429,34.8488802 C8.48914286,34.7211012 8.51914286,34.5705198 8.48914286,34.4164965 C8.31771429,33.5358105 7.86471429,32.713636 7.21285714,32.1014151 C6.95314286,31.8574733 6.54685714,31.8712407 6.30385714,32.1315314 C6.06171429,32.3918221 6.075,32.8001128 6.33385714,33.0436244 C6.79028571,33.472136 7.107,34.047357 7.22657143,34.66345 C7.24028571,34.7309965 7.26685714,34.7916593 7.29814286,34.8488802 L4.82614286,34.8488802 C4.35257143,34.8488802 3.969,35.2343686 3.969,35.7093453 C3.969,36.1847523 4.35257143,36.5698105 4.82614286,36.5698105 L43.8964286,36.5698105 C44.3695714,36.5698105 44.7535714,36.1847523 44.7535714,35.7093453 C44.7535714,35.2343686 44.3695714,34.8488802 43.8964286,34.8488802 L38.5684286,34.8488802 L38.5684286,28.658264 C38.9674286,28.7701244 39.384,28.828636 39.8104286,28.828636 C42.267,28.828636 44.2658571,26.899043 44.2658571,24.5276012 C44.2658571,24.3864849 44.2581429,24.2449384 44.2431429,24.1025314 C45.939,23.5544151 47.0935714,22.1742291 47.0935714,20.5711826 C47.0935714,19.8853919 46.8797143,19.2258453 46.4785714,18.6493337 C47.3682857,17.7217523 47.865,16.5635663 47.865,15.3670895 L47.865,15.3670895 Z" id="Fill-5" fill="#37464C" mask="url(#mask-2)"></path>
                </g>
                <path d="M25.6235143,10.4755174 C25.1503714,10.4755174 24.7663714,10.8610058 24.7663714,11.3359826 C24.7663714,11.8600058 24.3416571,12.285936 23.8196571,12.285936 C23.2976571,12.285936 22.8733714,11.8600058 22.8733714,11.3359826 C22.8733714,10.8610058 22.4898,10.4755174 22.0162286,10.4755174 C21.5430857,10.4755174 21.1590857,10.8610058 21.1590857,11.3359826 C21.1590857,12.8086686 22.3526571,14.0068663 23.8196571,14.0068663 C25.2870857,14.0068663 26.4806571,12.8086686 26.4806571,11.3359826 C26.4806571,10.8610058 26.0966571,10.4755174 25.6235143,10.4755174" id="Fill-8" fill="#37464C"></path>
                <path d="M37.2062143,10.4755174 C36.7330714,10.4755174 36.3490714,10.8610058 36.3490714,11.3359826 C36.3490714,11.8600058 35.9243571,12.285936 35.4023571,12.285936 C34.8803571,12.285936 34.4556429,11.8600058 34.4556429,11.3359826 C34.4556429,10.8610058 34.0720714,10.4755174 33.5985,10.4755174 C33.1253571,10.4755174 32.7413571,10.8610058 32.7413571,11.3359826 C32.7413571,12.8086686 33.9349286,14.0068663 35.4023571,14.0068663 C36.8697857,14.0068663 38.0633571,12.8086686 38.0633571,11.3359826 C38.0633571,10.8610058 37.6793571,10.4755174 37.2062143,10.4755174" id="Fill-10" fill="#37464C"></path>
                <path d="M31.3673571,14.2877651 C30.8942143,14.2877651 30.5102143,14.6732535 30.5102143,15.1482302 C30.5102143,15.6722535 30.0855,16.0981837 29.5635,16.0981837 C29.0415,16.0981837 28.6167857,15.6722535 28.6167857,15.1482302 C28.6167857,14.6732535 28.2336429,14.2877651 27.7596429,14.2877651 C27.2869286,14.2877651 26.9025,14.6732535 26.9025,15.1482302 C26.9025,16.6209163 28.0960714,17.819114 29.5635,17.819114 C31.0309286,17.819114 32.2245,16.6209163 32.2245,15.1482302 C32.2245,14.6732535 31.8405,14.2877651 31.3673571,14.2877651" id="Fill-12" fill="#37464C"></path>
                <path d="M25.6235143,18.4810267 C25.1503714,18.4810267 24.7663714,18.8665151 24.7663714,19.3414919 C24.7663714,19.8655151 24.3416571,20.2918756 23.8196571,20.2918756 C23.2976571,20.2918756 22.8733714,19.8655151 22.8733714,19.3414919 C22.8733714,18.8665151 22.4898,18.4810267 22.0162286,18.4810267 C21.5430857,18.4810267 21.1590857,18.8665151 21.1590857,19.3414919 C21.1590857,20.8146081 22.3526571,22.0128058 23.8196571,22.0128058 C25.2870857,22.0128058 26.4806571,20.8146081 26.4806571,19.3414919 C26.4806571,18.8665151 26.0966571,18.4810267 25.6235143,18.4810267" id="Fill-14" fill="#37464C"></path>
                <path d="M37.2062143,18.4810267 C36.7330714,18.4810267 36.3490714,18.8665151 36.3490714,19.3414919 C36.3490714,19.8655151 35.9243571,20.2918756 35.4023571,20.2918756 C34.8803571,20.2918756 34.4556429,19.8655151 34.4556429,19.3414919 C34.4556429,18.8665151 34.0720714,18.4810267 33.5985,18.4810267 C33.1253571,18.4810267 32.7413571,18.8665151 32.7413571,19.3414919 C32.7413571,20.8146081 33.9349286,22.0128058 35.4023571,22.0128058 C36.8697857,22.0128058 38.0633571,20.8146081 38.0633571,19.3414919 C38.0633571,18.8665151 37.6793571,18.4810267 37.2062143,18.4810267" id="Fill-16" fill="#37464C"></path>
                <path d="M31.3673571,22.2932744 C30.8942143,22.2932744 30.5102143,22.6787628 30.5102143,23.1537395 C30.5102143,23.6777628 30.0855,24.1041233 29.5635,24.1041233 C29.0415,24.1041233 28.6167857,23.6777628 28.6167857,23.1537395 C28.6167857,22.6787628 28.2336429,22.2932744 27.7596429,22.2932744 C27.2869286,22.2932744 26.9025,22.6787628 26.9025,23.1537395 C26.9025,24.6268558 28.0960714,25.8250535 29.5635,25.8250535 C31.0309286,25.8250535 32.2245,24.6268558 32.2245,23.1537395 C32.2245,22.6787628 31.8405,22.2932744 31.3673571,22.2932744" id="Fill-18" fill="#37464C"></path>
            </g>
        </g>
    </g>
</svg>