<svg id="Layer_1" data-name="Layer 1" xmlns="http://www.w3.org/2000/svg" viewBox="0 0 720 720"><defs><style>.cls-1{fill:#3b494f;}</style></defs><path class="cls-1" d="M397.14,662.47c-2.4,0-4.81.16-7.19,0-10.32-.78-19.91-.29-29.15,6.17-6.79,4.75-15.59,5.84-24.18,3.62-4.37-1.13-8.4,1.23-12.7,1.34-19.54.54-39.09,2-58.49-1.76-5.61-1.08-10.83,1.44-16.32,1.75-8.17.46-16.26.67-24.23-1.43a11.67,11.67,0,0,0-5.64.26,34.57,34.57,0,0,1-15,.05c-6-1.36-11.39-4.15-18.16-.91-4.86,2.34-9.38-2.41-9.4-8.53,0-11.46,5.6-20,14.42-26.72,12.77-9.67,27.83-13.65,43.3-15.9,6-.87,5.39-2.52,2.58-6.33-10.38-14.09-19.77-28.66-24.15-46-5.08-20.08-1.82-39.92.89-59.8,5.13-37.62,14.88-74.88,14.57-112.9-.33-40.59,12.7-75.83,34.53-108.77,9.39-14.19,18.86-28.16,21.44-45.58,1.34-9,1.8-9-7.28-10.87-8.73-1.75-17.27-4-24.72-9.11-13.87-9.48-14.53-23.24-1.51-33.78,10.09-8.16,21.83-13.76,32.89-20.4,3.95-2.37,6-5.26,7.37-9.78,5.63-18.63,14.66-35.3,30.61-47.33,2.68-2,3-4.64,3.44-7.48,2-13.14,6.06-25.36,14.07-36.32,8.29-11.34,27.78-12.1,37.17-1.48a66.69,66.69,0,0,1,16.49,35.83c.76,5.53,3.23,9.14,7.8,12.6,14.76,11.2,23.88,26.53,29.5,44A18.16,18.16,0,0,0,438,167.28c12.65,8.19,25.59,16,37.09,25.82,14,12,13.18,23.26-2.49,33.21-11.13,7.08-23.74,10-36.59,11.78-3.87.53-4.73,1.42-3.82,5.26,2.61,11,6.64,21.3,13.14,30.73,16.75,24.29,31.61,49.56,38.73,78.6,1.83,7.45,3.29,15,3.19,22.67-.49,38.72,6.73,76.57,12.6,114.57,2.44,15.83,5.4,31.64,6,47.64a166.7,166.7,0,0,1-20.48,86.8c-14.18,26-37.64,36.91-66.62,37.22-7.19.08-14.37,0-21.55,0Zm-187-18.3c5.62.63,10.12.91,11.32,5.67,1.13,4.51,3.41,3.65,6.24,2a65.28,65.28,0,0,1,6.24-3.54c5.14-2.33,10.14-1.41,11.79,4,1.36,4.48,3.56,4.22,6.79,3.76A59.48,59.48,0,0,0,273.45,649c4.59-2.59,10.19-2.62,11.82,2.19,3.05,9,8.32,5.29,13.24,3.56,3.79-1.33,7.18-3.74,10.87-5.43,4.12-1.89,8.87-1.83,10.77,2.34,2.71,5.93,6.38,4.89,10.88,3.48a31.91,31.91,0,0,0,10.62-5.8c4-3.24,8.55-4,12.16.16,2.68,3.06,4.18,1.83,6.22-.2a32,32,0,0,0,9.68-21.71c.32-5.65,3.27-9.19,9.07-8.8s8.21,4.53,7.81,10a49.18,49.18,0,0,1-2,11.24c-1.31,4.17-.41,5.67,4.07,5.45q17.22-.86,34.46-1.31c21.24-.54,37.39-10.11,47.31-28.54,13.27-24.62,19.68-51.23,18.1-79.27-1-18.36-4.49-36.49-7.35-54.66-5.5-34.93-11.53-69.79-11.06-105.36a71.28,71.28,0,0,0-2-15.61c-6.18-28.84-21-53.61-37.37-77.55a93.92,93.92,0,0,1-15-35.32c-1.08-5.55-2.39-9.35-9.25-10-5.38-.51-9.39-4.57-7.78-10.69s6.25-6.58,12-5.66c18.31,3,35.62-.81,52.11-8.92,4.62-2.27,4.39-4.44.49-7.51-10.36-8.16-21.54-15.1-32.48-22.4-7.76-5.18-15.65-10.17-22.57-16.5-4.33-4-5.78-8.46-1.35-13,2.14-2.21,2.16-3.69.75-6.11-1.32-2.26-2.46-3.4-5.53-3.12-13.4,1.25-20.41-5.28-20.27-18.45,0-1.84,1-3.85-1.64-4.7-13.22-4.19-26.52-6.45-40.11-1.72-2.12.74-3.42,1.47-3.09,4.54,1.58,14.83-4.64,21.53-19.31,21.22-2,0-3.57-.21-4.74,1.94-1.26,2.31-.1,3.12,1.43,4.63,5,5,4.87,9-.41,14-7.51,7.12-16.25,12.56-25.07,17.88s-17.55,10.7-26.32,16.06c-5,3.09-4.79,6.07.34,8.68a55.22,55.22,0,0,0,7.92,3.27c11.95,3.89,24.35,5,36.8,5.53,5.69.27,10.16,2.05,10.19,8.48s-4.33,8.88-10.07,8.36c-4.67-.42-5.38,1.61-6,5.59-2.5,17.22-8.13,33.22-18.56,47.52-5.9,8.08-10.89,16.85-15.83,25.57-10.3,18.2-18.7,37.22-20.76,58.26-1.19,12.11-.72,24.36-1.6,36.51-2.74,37.7-10.74,74.68-15.63,112.09-2.46,18.82-4.25,37.54,3.61,55.75,6.69,15.52,17.8,28.21,26.67,42.33,10.49.58,21,1,31.46,1.77,13.18.94,26.28,2.69,36.76-8.65,3.11-3.36,7.79-2.15,10.86,1.33s3,7.64-.1,11.07C332.12,630,324.36,635.16,314.1,636c-12,.92-23.93-.09-35.88-.8C255.56,633.8,233.34,635.73,210.15,644.17ZM342.48,100.63a97.64,97.64,0,0,1,29.84.67c1.33.24,3.25,1,3.08-1.27a28.67,28.67,0,0,0-4.21-13.44c-2.21-3.45-4.93.54-7.52.48-3.06-.08-6.44,1.29-9.17.42-8.49-2.68-10,2.36-10.95,8.7C343.39,97.34,343,98.46,342.48,100.63Z"/><path class="cls-1" d="M363,329.81c-18.52-.55-36.53-3.67-53.8-10.58-4.72-1.89-7.55-5.09-7-10.35.48-4.57,3.39-7.22,7.73-8.31,3-.75,5.58.79,8.27,1.7,25.44,8.7,51.16,11.44,77.35,3.51,2.5-.76,4.92-1.78,7.37-2.72,7.4-2.85,12.87-1.27,15.08,4.39s-.63,10.28-8.17,13.44C394.85,327.18,379.13,329.56,363,329.81Z"/><path class="cls-1" d="M363,296.18a147.46,147.46,0,0,1-53.28-10.12c-5.72-2.22-8.72-6-7.2-12.14,1.43-5.81,7.13-8.06,13.89-5.64,15.67,5.6,31.74,8.91,48.45,8.84a102.48,102.48,0,0,0,37.83-7.26c7.77-3.09,12.87-1.65,15.24,4.06s-.42,10.32-8,13.52A115.38,115.38,0,0,1,363,296.18Z"/></svg>