<?xml version="1.0" encoding="UTF-8"?>
<svg width="110px" height="79px" viewBox="0 0 110 79" version="1.1" xmlns="http://www.w3.org/2000/svg" xmlns:xlink="http://www.w3.org/1999/xlink">
    <!-- Generator: sketchtool 61 (101010) - https://sketch.com -->
    <title>14047877-3ECE-4336-ACB4-4E53AF3D7C3E</title>
    <desc>Created with sketchtool.</desc>
    <defs>
        <polygon id="path-1" points="0.170394332 0.00702222222 96.8097105 0.00702222222 96.8097105 79 0.170394332 79"></polygon>
        <polygon id="path-3" points="0 0.03423 109.938271 0.03423 109.938271 3 0 3"></polygon>
    </defs>
    <g id="Landing-Page" stroke="none" stroke-width="1" fill="none" fill-rule="evenodd">
        <g id="HB-LandingPage---Desktop" transform="translate(-238.000000, -1898.000000)">
            <g id="Section-Copy" transform="translate(0.000000, 1638.000000)">
                <g id="Group-4" transform="translate(130.000000, 244.000000)">
                    <g id="Group" transform="translate(0.000000, 16.000000)">
                        <g id="step1-icon" transform="translate(108.000000, 0.000000)">
                            <g id="Group-3" transform="translate(7.000000, 0.000000)">
                                <mask id="mask-2" fill="white">
                                    <use xlink:href="#path-1"></use>
                                </mask>
                                <g id="Clip-2"></g>
                                <path d="M69.5559244,79.0000293 L64.1557708,79.0000293 C60.6158551,79.0000293 57.7359485,76.1159441 57.7359485,72.5705996 L57.7359485,67.3302663 C57.7359485,62.0592107 54.2106413,57.3329626 49.1634274,55.8369367 C46.8921081,55.1633885 44.5386895,54.8222256 42.1686172,54.8222256 L41.224328,54.8222256 C40.4267075,54.8222256 39.7801383,54.1747181 39.7801383,53.3759404 C39.7801383,52.5771626 40.4267075,51.9293626 41.224328,51.9293626 L42.1686172,51.9293626 C44.8159575,51.9293626 47.4454756,52.3111959 49.9829605,53.0628663 C56.2485178,54.9196589 60.6246202,60.7873107 60.6246202,67.3302663 L60.6246202,72.5705996 C60.6246202,74.5204367 62.2084666,76.1074589 64.1557708,76.1074589 L69.5559244,76.1074589 C70.558063,76.1074589 71.3732136,75.290833 71.3732136,74.287533 C71.3732136,73.2950589 70.5674123,72.4787256 69.5769605,72.4681922 C68.237075,72.45327 67.1870208,71.4136885 67.1870208,70.100533 L67.1870208,62.0992959 C67.1870208,58.7997293 67.7999907,56.5350626 68.3986443,54.7555144 C68.9841503,53.0186848 69.2801172,51.2856589 69.2801172,49.6047144 L69.2801172,42.6038515 C69.2801172,41.1724885 69.4428551,39.9213626 69.7779726,38.7796663 C71.5967226,32.572607 77.0959214,28.4016996 83.4619846,28.4016996 L90.0319816,28.4016996 C92.1767919,28.4016996 93.9216232,26.6546293 93.9216232,24.5075848 L93.9216232,21.626133 C93.9216232,21.3513885 93.8132286,21.0950774 93.6174756,20.9022589 C93.4214304,20.7103181 93.1356895,20.5760181 92.8873461,20.6128848 C90.2741895,20.6447774 87.7232648,19.12827 86.2332045,16.6034885 L83.9157226,12.6789441 C82.1486864,9.68601444 79.5177075,8.03754778 76.5092467,8.03754778 L74.4374786,8.03754778 C74.1482316,8.03754778 73.8651202,7.95094037 73.6264184,7.78855148 L67.9586383,3.93686259 L66.7139997,12.0808848 C66.5772648,12.9797293 66.276331,13.8343922 65.8211322,14.6211737 L63.0963672,19.3307441 C59.6949395,25.2089293 53.3680268,28.8607774 46.5838702,28.8607774 L23.6702497,28.8607774 C23.3923973,28.8607774 23.1022738,28.8692626 22.8042617,28.8871107 C18.4667256,29.1317181 14.2665087,27.6728515 11.2849274,24.8563552 C8.30802078,22.0442478 4.96005994,18.1861219 2.98324669,13.6816589 C3.00252982,18.9275515 4.68425271,26.1256219 12.0597587,32.2197404 C13.7487858,33.6156996 14.7179093,35.6503885 14.7179093,37.8029922 L14.7179093,72.5705996 C14.7179093,74.5204367 16.3020479,76.1074589 18.2490599,76.1074589 L23.7847798,76.1074589 C24.7860419,76.1074589 25.6014846,75.290833 25.6014846,74.287533 C25.6014846,73.2836478 24.7860419,72.4673144 23.7847798,72.4673144 L23.5145238,72.4673144 C22.2085298,72.4673144 21.1459123,71.404033 21.1459123,70.0958515 L21.1459123,59.7304663 C21.1459123,58.9319811 21.7924816,58.2844737 22.5901021,58.2844737 L27.2408431,58.2844737 C27.9326985,58.2844737 28.5927075,57.9529663 29.0052497,57.397333 L32.638075,52.5124996 C33.1143099,51.8725996 34.0191563,51.7382996 34.6590057,52.2155181 C35.2982708,52.6930293 35.4309154,53.5991885 34.9549726,54.2396737 L31.3227316,59.1247996 C30.3670479,60.4098663 28.8413431,61.1767515 27.2408431,61.1767515 L24.0342919,61.1767515 L24.0342919,69.5811811 C26.5130509,69.7116774 28.4898642,71.772407 28.4898642,74.287533 C28.4898642,76.8854626 26.3792377,79.0000293 23.7847798,79.0000293 L18.2490599,79.0000293 C14.7091443,79.0000293 11.8295298,76.1159441 11.8295298,72.5705996 L11.8295298,37.826107 C11.8295298,36.5170478 11.2434395,35.2951811 10.2223099,34.4513441 C-4.51029548,22.2794922 1.28224066,5.60610333 1.34301175,5.43844778 C1.58142139,4.77835889 2.25545452,4.3827737 2.95023163,4.50595519 C3.64150271,4.62650333 4.14520151,5.22748852 4.14520151,5.93029593 C4.14520151,12.7108367 9.10593343,18.8210478 13.2667075,22.7517367 C15.6718401,25.023133 19.0799877,26.1975996 22.6359726,25.9989293 C22.991834,25.9778626 23.3386383,25.9679144 23.6702497,25.9679144 L46.5838702,25.9679144 C52.3410539,25.9679144 57.7105298,22.8693589 60.5971563,17.8803626 L63.3219214,13.1704996 C63.5962678,12.6973774 63.776828,12.1838774 63.8586352,11.6437515 L65.4494937,1.23477 C65.5239967,0.744384815 65.8450901,0.32627 66.2994123,0.127892222 C66.752566,-0.0713633333 67.2773009,-0.0219151852 67.6875057,0.25634037 L74.8809907,5.14497741 L76.5092467,5.14497741 C80.5210148,5.14497741 84.1275449,7.35463667 86.4023702,11.2063256 L88.7198521,15.1317478 C89.6816714,16.7611959 91.319569,17.768007 92.8303732,17.7200219 C93.9073069,17.7396256 94.886072,18.0971737 95.6407437,18.8371404 C96.3945389,19.5779848 96.8097105,20.5681181 96.8097105,21.626133 L96.8097105,24.5075848 C96.8097105,28.2498441 93.7696955,31.2945626 90.0319816,31.2945626 L83.4619846,31.2945626 C78.3899364,31.2945626 74.0041925,34.6298256 72.5494846,39.5954144 C72.2932527,40.4682181 72.1684967,41.4527922 72.1684967,42.6038515 L72.1684967,49.6047144 C72.1684967,51.6004885 71.820816,53.6442478 71.1362648,55.6789367 C70.5852346,57.315407 70.0754003,59.2257441 70.0754003,62.0992959 L70.0754003,69.6037107 C72.4229756,69.8644107 74.2615931,71.8748144 74.2615931,74.287533 C74.2615931,76.8854626 72.1503822,79.0000293 69.5559244,79.0000293" id="Fill-1" fill="#000000" mask="url(#mask-2)"></path>
                            </g>
                            <path d="M81.5172795,35 C81.3290468,35 81.1372173,34.9627628 80.9519819,34.8870871 C67.4438848,29.2918929 66.0654097,20.0696724 66.013256,19.6804833 C65.9047524,18.8681711 66.4742464,18.1207238 67.2853257,18.0120151 C68.087413,17.909913 68.8367471,18.4693724 68.9491473,19.2780809 C69.0019004,19.6300328 70.2781663,27.2537552 82.0837762,32.1426432 C82.8403039,32.4558563 83.1996846,33.3240243 82.8873621,34.0813815 C82.6505725,34.6543544 82.0984631,35 81.5172795,35" id="Fill-4" fill="#000000"></path>
                            <path d="M77.5594909,42 C77.4414673,42 77.3214037,41.9859558 77.2010488,41.9549414 C61.4281394,37.8905992 60.0578998,26.0931519 60.0074848,25.5931187 C59.9270539,24.7987418 60.5040582,24.0889229 61.2949621,24.0075834 C62.087906,23.9265365 62.7905108,24.5043981 62.873273,25.2967269 C62.9242709,25.7478978 64.1896006,35.6157263 77.9170587,39.152532 C78.6878549,39.3509068 79.1520812,40.140017 78.9545009,40.913035 C78.7872279,41.5666769 78.2017725,42 77.5594909,42" id="Fill-6" fill="#000000"></path>
                            <g id="Group-10" transform="translate(0.000000, 76.000000)">
                                <mask id="mask-4" fill="white">
                                    <use xlink:href="#path-3"></use>
                                </mask>
                                <g id="Clip-9"></g>
                                <path d="M108.492181,3.00003 L1.44638298,3.00003 C0.647420213,3.00003 0,2.33613 0,1.51713 C0,0.69813 0.647420213,0.03423 1.44638298,0.03423 L108.492181,0.03423 C109.290851,0.03423 109.938271,0.69813 109.938271,1.51713 C109.938271,2.33613 109.290851,3.00003 108.492181,3.00003" id="Fill-8" fill="#000000" mask="url(#mask-4)"></path>
                            </g>
                            <path d="M30.9203274,47 C30.6579992,47 30.4055265,46.98188 30.1620395,46.9441548 C27.3709254,46.5086809 25.5233233,44.9625406 25.0925833,42.7022945 C24.56126,39.9177568 26.3482802,36.8189412 29.6443399,34.8079192 C33.7618781,32.2966666 33.0331565,27.7699363 33.0259098,27.7238937 C32.8879339,26.9260199 33.4082423,26.1637921 34.1876904,26.0223968 C34.9627905,25.8821896 35.7100636,26.4147985 35.8480395,27.2132664 C35.8941281,27.4803134 36.9092368,33.7946849 31.1098994,37.3316478 C28.5729973,38.8786792 27.6703564,40.9084153 27.9048575,42.1393865 C28.1581999,43.4680869 29.697965,43.9011844 30.5930694,44.0405004 C33.2093946,44.4441901 38.9797455,40.6348332 41.7586852,35.7715463 C42.9352489,33.7115112 43.9576043,30.7561703 42.1433366,28.3711635 C41.6563627,27.731914 41.7682508,26.8089826 42.392331,26.3108314 C43.0161214,25.8123831 43.9170231,25.9264499 44.4034173,26.5659965 C46.5895822,29.4390548 46.5290004,33.2353416 44.2318169,37.2553062 C41.2204051,42.5246592 35.0013426,47 30.9203274,47" id="Fill-11" fill="#000000"></path>
                            <path d="M54.2534008,41.791074 C54.0012149,41.791074 53.7622576,41.8491426 53.550883,41.9723615 C52.6257325,42.5097091 52.5075203,44.1203355 53.2936309,45.4899061 C53.7054032,46.208258 54.3184175,46.7722322 54.9770279,47.0390647 C55.2953562,47.1676656 55.9111851,47.3379059 56.4490503,47.0246184 C57.3744823,46.4867043 57.492413,44.8757946 56.7065838,43.5065072 C56.1008874,42.4507906 55.1025579,41.791074 54.2534008,41.791074 M55.7521616,50 C55.1526573,50 54.5373914,49.879897 53.9381685,49.6371417 C52.6958154,49.1340688 51.6105155,48.1585153 50.8832295,46.8897858 C49.3172003,44.1599921 49.8891218,40.8656578 52.1596389,39.5470743 C54.4287488,38.2282075 57.5503932,39.3762674 59.1169853,42.1060611 C60.682733,44.836138 60.1108115,48.1301891 57.8402944,49.4490559 C57.2106741,49.8155966 56.493802,50 55.7521616,50" id="Fill-13" fill="#000000"></path>
                        </g>
                    </g>
                </g>
            </g>
        </g>
    </g>
</svg>