<?xml version="1.0" encoding="UTF-8"?>
<svg width="56px" height="56px" viewBox="0 0 56 56" version="1.1" xmlns="http://www.w3.org/2000/svg" xmlns:xlink="http://www.w3.org/1999/xlink">
    <title>2BACC9FC-1371-49FB-8BB2-72554F535323</title>
    <defs>
        <polygon id="path-1" points="0 0.137300654 30.0207242 0.137300654 30.0207242 46.2091503 0 46.2091503"></polygon>
    </defs>
    <g id="Page-1" stroke="none" stroke-width="1" fill="none" fill-rule="evenodd">
        <g id="Step-1.4" transform="translate(-763.000000, -449.000000)">
            <g id="Form" transform="translate(387.000000, 310.000000)">
                <g id="Row-Copy" transform="translate(130.000000, 70.000000)">
                    <g id="Gender-bloc-Copy" transform="translate(213.000000, 53.000000)">
                        <g id="Stacked-Group" transform="translate(33.000000, 16.000000)">
                            <g id="female-ic">
                                <g id="Group-14" transform="translate(12.833333, 4.666667)">
                                    <g>
                                        <g id="Group-3" transform="translate(0.000000, 0.320261)">
                                            <mask id="mask-2" fill="white">
                                                <use xlink:href="#path-1"></use>
                                            </mask>
                                            <g id="Clip-2"></g>
                                            <path d="M1.75841014,15.7587386 C1.75841014,8.15390196 7.70330386,1.96736601 15.0105599,1.96736601 C22.3173763,1.96736601 28.26227,8.15390196 28.26227,15.7587386 C28.26227,23.3635752 22.3173763,29.5505686 15.0105599,29.5505686 C7.70330386,29.5505686 1.75841014,23.3635752 1.75841014,15.7587386 M30.0207242,15.7587386 C30.0207242,7.14507843 23.2871638,0.137300654 15.0105599,0.137300654 C6.73351643,0.137300654 -4.39613527e-05,7.14507843 -4.39613527e-05,15.7587386 C-4.39613527e-05,24.0649477 6.26225072,30.8759935 14.1313329,31.3518105 L14.1313329,37.0735098 L10.1295309,37.0735098 C9.64375797,37.0735098 9.25030386,37.4834444 9.25030386,37.9885425 C9.25030386,38.494098 9.64375797,38.9035752 10.1295309,38.9035752 L14.1313329,38.9035752 L14.1313329,45.2941634 C14.1313329,45.799719 14.524787,46.2091961 15.0105599,46.2091961 C15.4958932,46.2091961 15.889787,45.799719 15.889787,45.2941634 L15.889787,38.9035752 L19.8911493,38.9035752 C20.3769222,38.9035752 20.7703763,38.494098 20.7703763,37.9885425 C20.7703763,37.4834444 20.3769222,37.0735098 19.8911493,37.0735098 L15.889787,37.0735098 L15.889787,31.3518105 C23.7584295,30.8759935 30.0207242,24.0649477 30.0207242,15.7587386" id="Fill-1" fill="#37464C" mask="url(#mask-2)"></path>
                                        </g>
                                        <path d="M14.9618507,20.3682157 C14.3419957,20.3952092 13.8900729,20.7630523 13.6153145,20.9872353 C12.7303725,21.7188039 12.6072807,21.5746863 12.2393242,21.1487386 C11.8832372,20.7378889 11.6955222,20.0726601 11.86873,19.8278889 C11.9003821,19.7830523 12.0212758,19.689719 12.1105174,19.620634 C12.2955947,19.4737712 12.4859473,19.3205033 12.6556382,19.1699804 C13.1818556,18.7216144 13.5950923,18.2718758 13.9032614,17.535732 C13.9415077,17.4446863 13.9779957,17.3536405 14.0136043,17.2625948 C14.1832952,16.833902 14.2822082,16.6028562 14.5002565,16.4500458 C14.6497251,16.344817 14.8312855,16.2922026 15.0124063,16.2922026 C15.1926478,16.2922026 15.3728894,16.3443595 15.5201599,16.4495882 C15.7395271,16.6037712 15.8384401,16.835732 16.0085705,17.2671699 C16.0437396,17.3559281 16.0793483,17.4451438 16.1167155,17.5352745 C16.4253242,18.2723333 16.8394401,18.7220719 17.3520295,19.158085 C17.5327106,19.3191307 17.7239425,19.4728562 17.9195705,19.6279542 C17.9991406,19.689719 18.1195947,19.7825948 18.1538845,19.831549 C18.3253338,20.0726601 18.1371792,20.7378889 17.7810923,21.1487386 C17.7810923,21.1491961 17.7806527,21.1496536 17.780213,21.1496536 C17.4135754,21.5746863 17.290044,21.7183464 16.4020246,20.9858627 C16.1510053,20.7790654 15.6836961,20.3952092 15.0216382,20.3673007 C15.009329,20.3673007 14.9741599,20.3677582 14.9618507,20.3682157 M19.0885029,22.3725948 C19.9022275,21.4319412 20.3471164,19.8411569 19.5733966,18.7513529 C19.3856816,18.4814183 19.1535657,18.3020719 18.9764014,18.165732 C18.8163821,18.0385425 18.6506478,17.9058627 18.4796382,17.7544248 C18.0642034,17.4007647 17.8817638,17.169719 17.7292179,16.8050784 C17.6966865,16.7273007 17.6659135,16.6490654 17.6351406,16.5712876 C17.4298411,16.0510915 17.173986,15.4037059 16.50973,14.9370392 C15.6208314,14.301549 14.4176092,14.2992614 13.5159618,14.9333791 C12.8481889,15.4023333 12.5927734,16.0474314 12.3879135,16.5657974 C12.356701,16.6449477 12.3250488,16.7245556 12.2916382,16.8041634 C12.1386527,17.169719 11.956213,17.4007647 11.5293483,17.7649477 C11.3715271,17.9044902 11.2049135,18.0376275 11.0532469,18.1579542 C10.8782807,18.2933791 10.6386913,18.4786732 10.4514159,18.7449477 C9.67373961,19.8429869 10.1190681,21.4342288 10.9319135,22.3725948 C11.5500101,23.0890654 12.1663483,23.3320065 12.7242179,23.3320065 C13.6065222,23.3320065 14.3419957,22.7239673 14.7042372,22.4242941 C14.7618266,22.3771699 14.9253628,22.2440327 15.0088894,22.2060588 C15.067358,22.2316797 15.1689087,22.3039673 15.3109039,22.420634 C15.907899,22.9133791 17.4940246,24.2205033 19.0885029,22.3725948" id="Fill-4" fill="#37464C"></path>
                                        <path d="M16.9186585,13.4871699 C17.6347889,13.7424641 18.1495763,13.0717451 18.4124652,12.5314183 C18.5509435,12.2454706 18.6555715,11.9462549 18.6964556,11.6452092 C18.7417357,11.3080196 18.709644,10.9685425 18.5623734,10.6373007 C18.3302575,10.115732 17.873499,9.71632026 17.2457309,9.74148366 C15.9567841,9.79226797 15.7242285,11.1579542 15.9616198,12.103183 C16.0913058,12.6224641 16.3418855,13.2803725 16.9186585,13.4871699" id="Fill-6" fill="#37464C"></path>
                                        <path d="M20.0833043,17.5505098 C20.7994348,17.8044314 21.3142222,17.135085 21.5771111,16.5947582 C21.7169082,16.3074379 21.8202174,16.0095948 21.8611014,15.7071765 C21.9077005,15.3713595 21.8756087,15.0318824 21.7270193,14.6997255 C21.4949034,14.1790719 21.0381449,13.7787451 20.4116957,13.8039085 C19.1227488,13.8546928 18.8897536,15.2203791 19.1262657,16.1665229 C19.2559517,16.6858039 19.5074106,17.3437124 20.0833043,17.5505098" id="Fill-8" fill="#37464C"></path>
                                        <path d="M12.4600541,13.4971895 C13.1840976,13.7314379 13.6777836,13.048366 13.9239671,12.4988889 C14.0536531,12.2079085 14.1477304,11.9077778 14.178943,11.6053595 C14.2145517,11.2686275 14.1714696,10.9291503 14.0136483,10.6024837 C13.7652667,10.0877778 13.296199,9.70117647 12.670629,9.74372549 C11.383001,9.83019608 11.1935275,11.2013725 11.4594937,12.1411111 C11.605885,12.654902 11.8775662,13.3077778 12.4600541,13.4971895" id="Fill-10" fill="#37464C"></path>
                                        <path d="M10.7071831,16.5613137 C10.8368691,16.2703333 10.931386,15.9702026 10.9634778,15.6677843 C10.9990865,15.3310523 10.9555647,14.9915752 10.7981831,14.6649085 C10.5498014,14.1502026 10.0807338,13.7636013 9.45384493,13.8061503 C8.16753575,13.8926209 7.97806232,15.2637974 8.2440285,16.2035359 C8.39041981,16.7168693 8.66210097,17.3706601 9.24458889,17.5596144 C9.96863237,17.7938627 10.4623184,17.1107908 10.7071831,16.5613137" id="Fill-12" fill="#37464C"></path>
                                    </g>
                                </g>
                            </g>
                        </g>
                    </g>
                </g>
            </g>
        </g>
    </g>
</svg>