<?xml version="1.0" encoding="UTF-8"?>
<svg width="48px" height="49px" viewBox="0 0 48 49" version="1.1" xmlns="http://www.w3.org/2000/svg" xmlns:xlink="http://www.w3.org/1999/xlink">
    <title>2D358441-F414-4EF5-91BE-62235908758C@1x</title>
    <defs>
        <polygon id="path-1" points="0 0.0965973602 45.9058865 0.0965973602 45.9058865 46.8835942 0 46.8835942"></polygon>
    </defs>
    <g id="Page-1" stroke="none" stroke-width="1" fill="none" fill-rule="evenodd">
        <g id="HB-HomePage---Tablet" transform="translate(-40.000000, -2168.000000)">
            <g id="4-icons" transform="translate(40.000000, 1993.000000)">
                <g id="Group-16-Copy-2" transform="translate(0.000000, 175.604955)">
                    <g id="icon/image/bee/24">
                        <g id="Group-6" transform="translate(1.000000, 1.000000)">
                            <g id="Group-3">
                                <mask id="mask-2" fill="white">
                                    <use xlink:href="#path-1"></use>
                                </mask>
                                <g id="Clip-2"></g>
                                <path d="M44.2482288,25.2596395 L39.0597604,25.7204515 C38.6876162,25.7529745 38.3830216,26.0359663 38.3167153,26.4110361 C37.9226072,28.6166828 37.0950216,30.6719638 35.8555081,32.5198582 C35.6458144,32.8336835 35.6661207,33.2501461 35.9048234,33.5398959 L39.2387874,37.5862567 L36.7829676,40.0879889 L32.8244811,36.7001121 C32.5385351,36.4547118 32.127436,36.4352825 31.8199405,36.6523837 C30.0035622,37.9313378 27.9816342,38.7874937 25.8117604,39.1967759 C25.4450036,39.2660455 25.1690036,39.5764918 25.1366793,39.9540958 L24.6891117,45.1940908 L21.2167333,45.1940908 L20.7691658,39.9540958 C20.7368414,39.5764918 20.460427,39.2660455 20.0940847,39.1967759 C17.9237964,38.7874937 15.9022829,37.9313378 14.0854901,36.6523837 C13.7779946,36.4352825 13.3673099,36.4547118 13.081364,36.7001121 L9.12246306,40.0879889 L6.66705766,37.5862567 L10.0006072,33.5398959 C10.2397243,33.2501461 10.2600306,32.8336835 10.0503369,32.5198582 C8.80916577,30.6706967 7.98033694,28.6141486 7.58747207,26.4106137 C7.52075135,26.0351216 7.21615676,25.7525521 6.8435982,25.7200292 L1.65761622,25.2592171 L1.65761622,21.7201297 L6.86431892,21.2580505 C7.23439099,21.2251052 7.53774234,20.9454924 7.60694955,20.5738016 C8.01266126,18.3892737 8.84853514,16.3508877 10.0917784,14.5156646 C10.3039586,14.2022617 10.2844811,13.7836872 10.0445351,13.4930926 L6.66705766,9.39393488 L9.12246306,6.89178026 L13.1547153,10.3430135 C13.4390036,10.5867243 13.848445,10.6074207 14.1551117,10.3936986 C15.9499405,9.14431075 17.9449315,8.30462753 20.0845532,7.89999145 C20.4508955,7.83072181 20.7268955,7.5211203 20.7592198,7.14267153 L21.2167333,1.78610082 L24.6891117,1.78610082 L25.1466252,7.14267153 C25.1789495,7.5211203 25.4549495,7.83072181 25.8212919,7.89999145 C27.9609135,8.30462753 29.9559045,9.14431075 31.7511477,10.3936986 C32.0578144,10.6074207 32.466427,10.5867243 32.7515441,10.3430135 L36.7829676,6.89178026 L39.2387874,9.39393488 L35.8613099,13.4930926 C35.6217784,13.7836872 35.6018865,14.2022617 35.8136523,14.5156646 C37.0564811,16.3487759 37.8911117,18.3871618 38.2968234,20.5733793 C38.3656162,20.9454924 38.6689676,21.2251052 39.0394541,21.2580505 L44.2482288,21.7201297 L44.2482288,25.2596395 Z M45.1487514,20.1041197 L39.797418,19.6293692 C39.3585532,17.6572963 38.5976883,15.800532 37.5293279,14.0949783 L40.9967333,9.88726989 C41.2727333,9.55232583 41.252427,9.05730132 40.9478324,8.74685506 L37.4186793,5.14947982 C37.1140847,4.83903356 36.6275622,4.81833715 36.2989315,5.10006185 L32.1572739,8.64421772 C30.488427,7.57053828 28.6728775,6.80688272 26.7446072,6.36803419 L26.2746613,0.867433312 C26.237364,0.43154142 25.8788955,0.0965973602 25.4491477,0.0965973602 L20.4566973,0.0965973602 C20.0269495,0.0965973602 19.6684811,0.43154142 19.6311838,0.867433312 L19.1612378,6.36803419 C17.233382,6.80688272 15.417418,7.57053828 13.7481568,8.64421772 L9.60691351,5.10006185 C9.27786847,4.81833715 8.79134595,4.83903356 8.48758018,5.14947982 L4.9575982,8.74685506 C4.65383243,9.05730132 4.6326973,9.55232583 4.90911171,9.88726989 L8.3761027,14.0949783 C7.30691351,15.8022215 6.54563423,17.6589858 6.10676937,19.6297916 L0.757093694,20.1041197 C0.328589189,20.1429783 -4.14414414e-05,20.507911 -4.14414414e-05,20.9459148 L-4.14414414e-05,26.0338544 C-4.14414414e-05,26.4718582 0.328589189,26.8372133 0.757093694,26.8752272 L6.08149009,27.3474434 C6.51040901,29.3376784 7.26588649,31.2130273 8.33424685,32.9358984 L4.90911171,37.0929217 C4.6326973,37.4282881 4.65383243,37.9228903 4.9575982,38.2333365 L8.48758018,41.8302894 C8.79134595,42.1407356 9.27786847,42.1622768 9.60691351,41.8805521 L13.6723189,38.400175 C15.3660306,39.5034207 17.2105892,40.2839713 19.1711838,40.7291555 L19.6311838,46.1123359 C19.6684811,46.5486502 20.0269495,46.8835942 20.4566973,46.8835942 L25.4491477,46.8835942 C25.8788955,46.8835942 26.237364,46.5486502 26.2746613,46.1123359 L26.7342468,40.7291555 C28.6952559,40.2839713 30.5398144,39.5034207 32.2335261,38.400175 L36.2989315,41.8805521 C36.628391,42.1622768 37.1140847,42.1407356 37.4186793,41.8302894 L40.9478324,38.2333365 C41.252427,37.9228903 41.2727333,37.4282881 40.9967333,37.0929217 L37.5715982,32.9358984 C38.6383009,31.2142944 39.393364,29.3393679 39.8222829,27.3478657 L45.1487514,26.8752272 C45.5772559,26.8372133 45.9058865,26.4718582 45.9058865,26.0338544 L45.9058865,20.9459148 C45.9058865,20.507911 45.5772559,20.1429783 45.1487514,20.1041197 L45.1487514,20.1041197 Z" id="Fill-1" fill="#EF8F7A" mask="url(#mask-2)"></path>
                            </g>
                            <path d="M23.8373707,16.8986782 L23.8373707,15.2122136 L31.6303607,15.2122136 C32.1574855,15.72929 32.6372989,16.2949339 33.0647766,16.8986782 L23.8373707,16.8986782 Z M34.8672169,20.678988 L23.8373707,20.678988 L23.8373707,18.9921048 L34.2580298,18.9921048 C34.5004486,19.5351397 34.7043483,20.0991088 34.8672169,20.678988 L34.8672169,20.678988 Z M35.3252587,24 C35.3252587,24.1540762 35.3193971,24.3064777 35.3135355,24.4597165 L23.8373707,24.4597165 L23.8373707,22.7724146 L35.2641306,22.7724146 C35.3043244,23.176446 35.3252587,23.5863389 35.3252587,24 L35.3252587,24 Z M34.5745559,28.2396076 L11.4333991,28.2396076 C11.3743645,28.0779951 11.3094683,27.9193134 11.2567139,27.75477 C11.1306896,27.3595311 11.0327173,26.9575932 10.9473055,26.5531431 L35.0581374,26.5531431 C34.9358813,27.1305102 34.7742688,27.6944793 34.5745559,28.2396076 L34.5745559,28.2396076 Z M32.3475686,32.0199175 L13.6264729,32.0199175 C13.1801543,31.4973982 12.7790538,30.9325917 12.4223339,30.3330343 L33.5692924,30.3330343 C33.2100604,30.9313356 32.7997488,31.49363 32.3475686,32.0199175 L32.3475686,32.0199175 Z M23,36.3252587 C20.4020575,36.3252587 17.9636342,35.5188707 15.9472456,34.1133441 L30.0330761,34.1133441 C28.0367845,35.5058915 25.6125964,36.3252587 23,36.3252587 L23,36.3252587 Z M12.6689395,21.5779054 L13.0273342,20.851905 L13.3853101,21.5779054 L14.1858365,21.6938812 L13.606376,22.2591064 L13.7432861,23.0558646 L13.0273342,22.6798852 L12.3109636,23.0558646 L12.4478737,22.2591064 L11.8684132,21.6938812 L12.6689395,21.5779054 Z M12.6689395,17.9600455 L13.0273342,17.2348825 L13.3853101,17.9600455 L14.1858365,18.07644 L13.606376,18.6408278 L13.7432861,19.4384234 L13.0273342,19.0620252 L12.3109636,19.4384234 L12.4478737,18.6408278 L11.8684132,18.07644 L12.6689395,17.9600455 Z M16.7498654,21.5779054 L17.1082601,20.851905 L17.466236,21.5779054 L18.2667624,21.6938812 L17.6873019,22.2591064 L17.824212,23.0558646 L17.1082601,22.6798852 L16.3918895,23.0558646 L16.5287996,22.2591064 L15.9493391,21.6938812 L16.7498654,21.5779054 Z M16.7498654,17.9600455 L17.1082601,17.2348825 L17.466236,17.9600455 L18.2667624,18.07644 L17.6873019,18.6408278 L17.824212,19.4384234 L17.1082601,19.0620252 L16.3918895,19.4384234 L16.5287996,18.6408278 L15.9493391,18.07644 L16.7498654,17.9600455 Z M16.7498654,14.3430229 L17.1082601,13.6170225 L17.466236,14.3430229 L18.2667624,14.4589987 L17.6873019,15.0233866 L17.824212,15.8214008 L17.1082601,15.4441653 L16.3918895,15.8214008 L16.5287996,15.0233866 L15.9493391,14.4589987 L16.7498654,14.3430229 Z M20.8307913,21.5779054 L21.1887673,20.851905 L21.5471619,21.5779054 L22.3476883,21.6938812 L21.7682278,22.2591064 L21.9051379,23.0558646 L21.1887673,22.6798852 L20.4728154,23.0558646 L20.6097255,22.2591064 L20.030265,21.6938812 L20.8307913,21.5779054 Z M20.8307913,17.9600455 L21.1887673,17.2348825 L21.5471619,17.9600455 L22.3476883,18.07644 L21.7682278,18.6408278 L21.9051379,19.4384234 L21.1887673,19.0620252 L20.4728154,19.4384234 L20.6097255,18.6408278 L20.030265,18.07644 L20.8307913,17.9600455 Z M20.8307913,14.3430229 L21.1887673,13.6170225 L21.5471619,14.3430229 L22.3476883,14.4589987 L21.7682278,15.0233866 L21.9051379,15.8214008 L21.1887673,15.4441653 L20.4728154,15.8214008 L20.6097255,15.0233866 L20.030265,14.4589987 L20.8307913,14.3430229 Z M23.8373707,11.7053053 C25.6134338,11.8250493 27.2877564,12.3224475 28.779951,13.118787 L23.8373707,13.118787 L23.8373707,11.7053053 Z M23,10 C19.0459358,10 15.4720378,11.6508762 12.9239189,14.2952928 L12.8853998,14.3220886 C12.7966386,14.3819606 12.7200191,14.4598361 12.6605658,14.5494348 L12.6006938,14.6394521 C10.3724505,17.111789 9.0113045,20.3792093 9.00083737,23.9598062 L9.00083737,23.9623183 C9.00083737,23.9748789 9,23.9878581 9,24 C9,25.4553502 9.22232191,26.8893474 9.66152282,28.2643101 C11.521323,34.0878043 16.8817513,38 23,38 C30.7193014,38 37,31.7197201 37,24 C37,16.2802799 30.7193014,10 23,10 L23,10 Z" id="Fill-4" fill="#EF8F7A"></path>
                        </g>
                    </g>
                </g>
            </g>
        </g>
    </g>
</svg>