<?xml version="1.0" encoding="UTF-8"?>
<svg width="42px" height="47px" viewBox="0 0 42 47" version="1.1" xmlns="http://www.w3.org/2000/svg" xmlns:xlink="http://www.w3.org/1999/xlink">
    <title>A9FD6B06-A760-4A8B-B0F4-A92D1327B6B8</title>
    <defs>
        <polygon id="path-1" points="0 0.001 41.986 0.001 41.986 39 0 39"></polygon>
    </defs>
    <g id="Main" stroke="none" stroke-width="1" fill="none" fill-rule="evenodd">
        <g id="Recommendations---Desktop---Overlay---Tab-1---B" transform="translate(-458.000000, -670.000000)">
            <g id="Modal" transform="translate(303.000000, 112.000000)">
                <g id="Group-11" transform="translate(60.000000, 466.000000)">
                    <g id="Oval" transform="translate(0.000000, 42.000000)">
                        <g id="Group-14">
                            <g id="Group-12" transform="translate(69.000000, 30.000000)">
                                <g id="meal-plan1" transform="translate(26.000000, 20.000000)">
                                    <path d="M20.9933,15.9995 C19.8903,15.9995 18.9933,16.8965 18.9933,17.9995 C18.9933,19.1025 19.8903,19.9995 20.9933,19.9995 C22.0963,19.9995 22.9933,19.1025 22.9933,17.9995 C22.9933,16.8965 22.0963,15.9995 20.9933,15.9995 M20.9933,21.9995 C18.7873,21.9995 16.9933,20.2055 16.9933,17.9995 C16.9933,15.7935 18.7873,13.9995 20.9933,13.9995 C23.1993,13.9995 24.9933,15.7935 24.9933,17.9995 C24.9933,20.2055 23.1993,21.9995 20.9933,21.9995" id="Fill-1" fill="#505050"></path>
                                    <path d="M19.9943,18.914 C19.9373,18.914 19.8803,18.909 19.8223,18.899 C15.9293,18.223 12.9933,14.182 12.9933,9.5 C12.9933,4.262 16.5823,0 20.9933,0 C25.4043,0 28.9933,4.262 28.9933,9.5 C28.9933,10.052 28.5463,10.5 27.9933,10.5 C27.4403,10.5 26.9933,10.052 26.9933,9.5 C26.9933,5.364 24.3023,2 20.9933,2 C17.6843,2 14.9933,5.364 14.9933,9.5 C14.9933,13.223 17.2163,16.416 20.1643,16.929 C20.7083,17.023 21.0733,17.541 20.9783,18.085 C20.8943,18.571 20.4723,18.914 19.9943,18.914" id="Fill-3" fill="#505050"></path>
                                    <g id="Group-7" transform="translate(0.000000, 7.999000)">
                                        <mask id="mask-2" fill="white">
                                            <use xlink:href="#path-1"></use>
                                        </mask>
                                        <g id="Clip-6"></g>
                                        <path d="M21.0178,39 C10.7398,38.749 4.2238,37.13 1.6028,34.191 C-0.5802,31.745 -0.5332,27.611 1.7418,21.907 C3.7108,16.971 7.5848,10.854 11.6098,6.323 C11.9778,5.91 12.6088,5.873 13.0218,6.24 C13.4348,6.606 13.4718,7.239 13.1048,7.651 C9.2808,11.956 5.4608,17.982 3.5998,22.648 C1.6568,27.52 1.4818,31.051 3.0958,32.86 C5.2708,35.299 11.6358,36.77 21.0178,37.001 C30.3508,36.77 36.7158,35.299 38.8908,32.86 C40.5038,31.051 40.3298,27.52 38.3868,22.648 C34.9438,14.014 25.5378,2.001 20.9938,2.001 C20.1008,2.001 18.9088,2.517 17.5478,3.493 C17.0988,3.814 16.4728,3.711 16.1518,3.262 C15.8308,2.813 15.9338,2.188 16.3828,1.867 C18.1098,0.629 19.6618,0.001 20.9938,0.001 C26.9928,0.001 36.8078,13.29 40.2448,21.907 C42.5198,27.611 42.5668,31.744 40.3828,34.191 C37.7628,37.13 31.2468,38.749 21.0178,39" id="Fill-5" fill="#505050" mask="url(#mask-2)"></path>
                                    </g>
                                    <path d="M15.9933,34 L25.9933,34 C26.5463,34 26.9933,34.448 26.9933,35 C26.9933,36.103 27.8903,37 28.9933,37 C30.0963,37 30.9933,36.103 30.9933,35 C30.9933,34.329 30.6573,33.706 30.0953,33.333 C29.8153,33.148 29.6473,32.835 29.6473,32.5 C29.6473,32.165 29.8153,31.852 30.0953,31.667 C30.6573,31.294 30.9933,30.671 30.9933,30 C30.9933,28.897 30.0963,28 28.9933,28 C27.8903,28 26.9933,28.897 26.9933,30 C26.9933,30.552 26.5463,31 25.9933,31 L15.9933,31 C15.4413,31 14.9933,30.552 14.9933,30 C14.9933,28.897 14.0963,28 12.9933,28 C11.8903,28 10.9933,28.897 10.9933,30 C10.9933,30.671 11.3283,31.294 11.8913,31.667 C12.1703,31.852 12.3383,32.165 12.3383,32.5 C12.3383,32.835 12.1703,33.148 11.8913,33.333 C11.3283,33.706 10.9933,34.329 10.9933,35 C10.9933,36.103 11.8903,37 12.9933,37 C14.0963,37 14.9933,36.103 14.9933,35 C14.9933,34.448 15.4413,34 15.9933,34 M28.9933,39 C27.1333,39 25.5643,37.723 25.1203,36 L16.8673,36 C16.4213,37.723 14.8533,39 12.9933,39 C10.7873,39 8.9933,37.206 8.9933,35 C8.9933,34.077 9.3093,33.2 9.8713,32.5 C9.3093,31.8 8.9933,30.923 8.9933,30 C8.9933,27.794 10.7873,26 12.9933,26 C14.8533,26 16.4213,27.277 16.8673,29 L25.1203,29 C25.5643,27.277 27.1333,26 28.9933,26 C31.1993,26 32.9933,27.794 32.9933,30 C32.9933,30.923 32.6773,31.8 32.1143,32.5 C32.6773,33.2 32.9933,34.077 32.9933,35 C32.9933,37.206 31.1993,39 28.9933,39" id="Fill-8" fill="#505050"></path>
                                </g>
                            </g>
                        </g>
                    </g>
                </g>
            </g>
        </g>
    </g>
</svg>